<svg width="190" height="192" viewBox="0 0 190 192" fill="none" xmlns="http://www.w3.org/2000/svg">
<g filter="url(#filter0_i_47616_5935)">
<path d="M22.16 81.1361C24.1775 72.2968 37.9721 11.809 86.9137 1.44973C127.5 -7.14163 168.953 23.6828 183.698 61.3834C200.545 104.456 182.505 156.448 142.8 179.208C112.744 196.439 67.6687 198.412 39.8839 171.715C8.40229 141.466 19.2765 93.7751 22.16 81.1361Z" fill="#F7F8FA"/>
</g>
<g clip-path="url(#clip0_47616_5935)">
<path d="M61.5385 160.849C61.6371 162.107 62.2268 163.276 63.1789 164.099C64.131 164.921 65.3678 165.331 66.6193 165.239L148.637 159.175C149.893 159.081 151.06 158.489 151.883 157.53C152.705 156.57 153.116 155.321 153.023 154.057L143.985 30.4365C143.892 29.1769 143.308 28.0054 142.359 27.1781C141.411 26.3509 140.175 25.9353 138.923 26.022L56.2238 31.9064C55.5985 31.9509 54.9882 32.1195 54.4281 32.4025C53.8679 32.6856 53.3689 33.0774 52.96 33.5554C52.5511 34.0335 52.2402 34.5883 52.0454 35.1878C51.8506 35.7873 51.7757 36.4198 51.825 37.0486L61.5385 160.849Z" fill="#D3F2AF"/>
<path d="M66.3132 41.0705C65.8555 41.1046 65.4301 41.3203 65.1304 41.6701C64.8307 42.0199 64.6813 42.4751 64.7152 42.9357L64.7609 43.547C64.7949 44.0071 65.0089 44.4349 65.356 44.7364C65.7031 45.0379 66.1548 45.1885 66.6121 45.1551L134.469 40.1294C134.696 40.1128 134.917 40.0514 135.12 39.9486C135.324 39.8459 135.505 39.7038 135.653 39.5306C135.802 39.3573 135.915 39.1563 135.987 38.939C136.058 38.7217 136.086 38.4924 136.069 38.2641L136.024 37.6553C136.007 37.427 135.946 37.2043 135.844 36.9998C135.742 36.7953 135.601 36.613 135.429 36.4634C135.256 36.3138 135.057 36.1999 134.841 36.128C134.625 36.0562 134.397 36.0279 134.17 36.0448L66.3132 41.0705Z" fill="url(#paint0_linear_47616_5935)"/>
<path d="M69.9671 73.5899C69.1307 73.6651 68.5209 74.5019 68.6028 75.46L68.6559 76.0712C68.7403 77.0414 69.485 77.7449 70.3238 77.6721L129.872 72.4135C130.709 72.3383 131.319 71.5015 131.237 70.5434L131.184 69.9346C131.099 68.9644 130.354 68.2586 129.518 68.3313L69.9671 73.5899Z" fill="url(#paint1_linear_47616_5935)"/>
<path d="M70.3118 86.4522C69.4755 86.5274 68.8656 87.3642 68.9476 88.3223L69.0006 88.9311C69.085 89.9013 69.8298 90.6072 70.6685 90.5344L130.222 85.2855C131.058 85.2103 131.668 84.3735 131.586 83.4154L131.533 82.8042C131.449 81.8461 130.704 81.1306 129.865 81.2033L70.3118 86.4522Z" fill="url(#paint2_linear_47616_5935)"/>
<path d="M71.722 98.7228C70.8856 98.798 70.2757 99.6348 70.3601 100.593L70.4132 101.202C70.4951 102.172 71.2423 102.878 72.0787 102.805L131.632 97.5561C132.468 97.4809 133.078 96.6441 132.996 95.686L132.943 95.0772C132.859 94.107 132.114 93.4011 131.278 93.4739L71.722 98.7228Z" fill="url(#paint3_linear_47616_5935)"/>
<path d="M73.614 111.372C72.7776 111.447 72.1679 112.284 72.2498 113.242L72.3028 113.851C72.3871 114.809 73.132 115.527 73.9683 115.454L133.524 110.203C134.36 110.13 134.97 109.293 134.888 108.335L134.835 107.724C134.751 106.766 134.004 106.05 133.167 106.123L73.614 111.372Z" fill="url(#paint4_linear_47616_5935)"/>
<path d="M72.8475 50.0593C72.9034 50.4958 73.1213 50.895 73.4574 51.1766C73.7936 51.4582 74.2232 51.6015 74.66 51.5777L134.083 48.2716C134.313 48.2584 134.537 48.1994 134.744 48.098C134.951 47.9967 135.135 47.855 135.287 47.6812C135.439 47.5075 135.555 47.3051 135.629 47.0858C135.702 46.8665 135.731 46.6348 135.715 46.404V46.2609C135.681 45.805 135.47 45.3808 135.129 45.0796C134.787 44.7784 134.342 44.6242 133.888 44.6503L74.4744 48.0994C74.2365 48.1118 74.0037 48.1736 73.7906 48.2807C73.5775 48.3879 73.3887 48.5381 73.2359 48.7221C73.0832 48.9061 72.9699 49.1198 72.903 49.3499C72.8361 49.58 72.8173 49.8215 72.8475 50.0593Z" fill="url(#paint5_linear_47616_5935)"/>
<path d="M74.2455 155.946H74.2961L141.076 150.188C141.616 150.143 142.142 149.99 142.623 149.739C143.104 149.487 143.531 149.143 143.878 148.724C144.226 148.306 144.488 147.822 144.648 147.301C144.809 146.78 144.865 146.232 144.814 145.689L136.421 54.5707C136.373 54.0299 136.218 53.5041 135.967 53.0235C135.716 52.5428 135.373 52.1169 134.958 51.77C134.542 51.4231 134.063 51.1622 133.548 51.0023C133.032 50.8423 132.49 50.7864 131.953 50.8379L65.3251 57.0836C64.2425 57.1864 63.2444 57.7164 62.5492 58.5578C61.8541 59.3992 61.5184 60.4835 61.6156 61.5733L69.8564 152.214C69.9593 153.289 70.4759 154.282 71.2959 154.979C72.116 155.676 73.1745 156.024 74.2455 155.946ZM62.9774 61.4496C62.9123 60.7221 63.1362 59.9983 63.6001 59.4364C64.064 58.8746 64.7301 58.5205 65.4528 58.4516L132.078 52.2034C132.436 52.1697 132.798 52.2074 133.142 52.3143C133.486 52.4213 133.806 52.5954 134.083 52.8267C134.36 53.0581 134.589 53.3421 134.757 53.6626C134.925 53.983 135.029 54.3337 135.062 54.6945L135.527 59.7493L63.4281 65.0855C63.3883 65.0882 63.3487 65.0947 63.31 65.1049L62.9774 61.4496ZM71.2158 152.078L63.433 66.4559C63.4651 66.4584 63.4973 66.4584 63.5294 66.4559L135.652 61.1197L143.455 145.815C143.488 146.177 143.45 146.543 143.343 146.89C143.236 147.238 143.061 147.56 142.829 147.84C142.597 148.119 142.312 148.349 141.992 148.517C141.671 148.685 141.32 148.787 140.96 148.818L74.1804 154.576H74.1466C73.4308 154.627 72.7236 154.394 72.176 153.927C71.6284 153.46 71.2838 152.797 71.2158 152.078Z" fill="url(#paint6_linear_47616_5935)"/>
<path d="M13.728 172.589C13.826 173.848 14.4156 175.017 15.3678 175.839C16.32 176.662 17.5573 177.072 18.8089 176.979L100.826 170.915C102.082 170.822 103.25 170.231 104.072 169.271C104.895 168.312 105.305 167.063 105.213 165.799L96.1744 42.179C96.0817 40.9192 95.4974 39.7474 94.5489 38.9198C93.6005 38.0922 92.3652 37.676 91.1128 37.7621L8.42306 43.661C7.79792 43.7058 7.18771 43.8746 6.6277 44.1578C6.06768 44.4409 5.56886 44.8327 5.15999 45.3107C4.75111 45.7887 4.44035 46.3433 4.24542 46.9427C4.05049 47.5421 3.97532 48.1744 4.02428 48.8032L13.728 172.589Z" fill="#D3F2AF"/>
<path d="M9.0448 54.6757C8.98919 54.0333 9.0614 53.3861 9.25723 52.7721C9.45307 52.1581 9.76858 51.5896 10.1853 51.0997C10.6021 50.6098 11.1117 50.2085 11.6844 49.9192C12.257 49.6299 12.8813 49.4584 13.5207 49.4147L86.8923 44.4375C88.1655 44.3522 89.4204 44.7784 90.3819 45.6228C91.3434 46.4671 91.9329 47.6606 92.0213 48.9417L99.6234 159.932C99.7093 161.196 99.3008 162.443 98.4852 163.407C97.6696 164.372 96.5115 164.977 95.2584 165.094L24.0995 171.679C23.4676 171.738 22.8305 171.67 22.2248 171.48C21.619 171.29 21.0565 170.981 20.5695 170.572C20.0824 170.163 19.6804 169.661 19.3866 169.095C19.0927 168.529 18.9128 167.911 18.8571 167.274L9.0448 54.6757Z" fill="url(#paint7_linear_47616_5935)"/>
<path d="M86.3629 47.7762L18.5065 52.8028C17.5533 52.8734 16.8374 53.7083 16.9076 54.6675L16.9523 55.2795C17.0225 56.2388 17.8521 56.9591 18.8053 56.8885L86.6618 51.8619C87.615 51.7913 88.3307 50.9565 88.2606 49.9972L88.2158 49.3852C88.1456 48.426 87.3161 47.7056 86.3629 47.7762Z" fill="#D3F2AF"/>
<path d="M25.0371 61.807C25.0925 62.2438 25.3103 62.6433 25.6466 62.925C25.9829 63.2067 26.4128 63.3498 26.8497 63.3254L86.2729 60.0194C86.5026 60.0065 86.7275 59.9477 86.9343 59.8464C87.1412 59.7452 87.3258 59.6035 87.4777 59.4296C87.6296 59.2558 87.7456 59.0533 87.8189 58.8339C87.8922 58.6145 87.9214 58.3825 87.9047 58.1517V58.011C87.8713 57.5549 87.661 57.1304 87.3192 56.829C86.9773 56.5277 86.5313 56.3737 86.0777 56.4004L26.6641 59.8471C26.4262 59.8596 26.1934 59.9213 25.9803 60.0284C25.7672 60.1356 25.5785 60.2858 25.4257 60.4698C25.273 60.6538 25.1596 60.8675 25.0928 61.0976C25.0259 61.3277 25.0069 61.5692 25.0371 61.807Z" fill="#D3F2AF"/>
<path d="M26.4375 167.696H26.4858L93.2652 161.941C93.8054 161.895 94.3313 161.742 94.8124 161.491C95.2935 161.24 95.7202 160.895 96.0679 160.476C96.4156 160.058 96.6773 159.574 96.838 159.053C96.9986 158.532 97.0548 157.984 97.0035 157.441L88.6133 66.3207C88.5113 65.2294 87.9833 64.2235 87.145 63.5237C86.3068 62.8238 85.2269 62.4872 84.1423 62.5878L17.5147 68.836C16.4319 68.9393 15.4339 69.4699 14.7388 70.3117C14.0437 71.1535 13.7081 72.238 13.8053 73.3281L22.0461 163.956C22.1478 165.033 22.6642 166.028 23.4848 166.726C24.3055 167.425 25.3652 167.774 26.4375 167.696ZM15.1671 73.1971C15.1021 72.4699 15.326 71.7463 15.7899 71.1848C16.2539 70.6234 16.92 70.2699 17.6425 70.2016L84.27 63.9534C84.9936 63.8859 85.7143 64.1104 86.2734 64.5776C86.8325 65.0447 87.1843 65.7162 87.2515 66.4444L87.7168 71.4968L15.6202 76.833C15.5795 76.8357 15.5392 76.8422 15.4997 76.8524L15.1671 73.1971ZM23.4079 163.825L15.6227 78.2034H15.7191L87.8421 72.8672L95.6466 157.563C95.6797 157.925 95.6413 158.29 95.5337 158.637C95.4261 158.984 95.2514 159.307 95.0195 159.586C94.7877 159.865 94.5034 160.095 94.1829 160.263C93.8624 160.431 93.512 160.534 93.1519 160.565L26.3725 166.321H26.3388C25.623 166.373 24.9154 166.141 24.3676 165.675C23.8198 165.208 23.4753 164.544 23.4079 163.825Z" fill="#D3F2AF"/>
<path d="M113.61 110.298L171.103 131.354C171.673 131.563 172.195 131.888 172.634 132.31C173.074 132.731 173.422 133.24 173.657 133.803C173.891 134.366 174.008 134.972 173.999 135.583C173.99 136.194 173.856 136.796 173.605 137.352L173.429 137.738C173.205 138.232 172.886 138.676 172.491 139.046C172.096 139.415 171.633 139.703 171.127 139.892C170.621 140.08 170.084 140.167 169.545 140.146C169.006 140.125 168.476 139.998 167.986 139.771L112.164 113.783L113.61 110.298Z" fill="url(#paint8_linear_47616_5935)"/>
<path d="M113.61 110.298L171.103 131.354C171.673 131.563 172.195 131.888 172.634 132.31C173.074 132.731 173.422 133.24 173.657 133.803C173.891 134.366 174.008 134.972 173.999 135.583C173.99 136.194 173.856 136.796 173.605 137.352L173.429 137.738C173.205 138.232 172.886 138.676 172.491 139.046C172.096 139.415 171.633 139.703 171.127 139.892C170.621 140.08 170.084 140.167 169.545 140.146C169.006 140.125 168.476 139.998 167.986 139.771L112.164 113.783L113.61 110.298Z" fill="url(#paint9_linear_47616_5935)"/>
<g opacity="0.24">
<path d="M87.1863 125.675C102.861 125.675 115.567 113.119 115.567 97.6311C115.567 82.1427 102.861 69.5869 87.1863 69.5869C71.5118 69.5869 58.8052 82.1427 58.8052 97.6311C58.8052 113.119 71.5118 125.675 87.1863 125.675Z" fill="#BFE6F2"/>
</g>
<path d="M55.6067 97.6387C55.6067 114.86 69.7454 128.846 87.1815 128.846C104.617 128.846 118.756 114.872 118.756 97.6387C118.756 80.4052 104.617 66.4316 87.1815 66.4316C69.7454 66.4316 55.6067 80.3955 55.6067 97.6387ZM60.2441 97.6387C60.2441 82.9351 72.3076 71.0159 87.1863 71.0159C102.065 71.0159 114.126 82.9351 114.126 97.6387C114.126 112.342 102.075 124.262 87.1863 124.262C72.2979 124.262 60.2441 112.335 60.2441 97.6387Z" fill="#9DD162"/>
<path d="M169.968 138.926C169.931 138.925 169.895 138.914 169.866 138.892C169.836 138.87 169.813 138.84 169.801 138.805C169.787 138.76 169.79 138.711 169.81 138.669C169.83 138.626 169.866 138.593 169.91 138.577C171.549 138.009 172.405 137.085 172.46 135.831C172.474 135.195 172.291 134.571 171.935 134.045C171.579 133.519 171.069 133.118 170.476 132.899L163.573 130.189C163.549 130.182 163.527 130.171 163.508 130.155C163.489 130.138 163.473 130.119 163.462 130.096C163.451 130.074 163.445 130.049 163.444 130.024C163.442 129.999 163.447 129.974 163.456 129.951C163.465 129.927 163.479 129.906 163.497 129.888C163.514 129.871 163.536 129.857 163.559 129.848C163.582 129.84 163.607 129.836 163.632 129.837C163.657 129.839 163.681 129.845 163.703 129.857L170.606 132.566C171.27 132.812 171.839 133.261 172.235 133.849C172.632 134.438 172.834 135.137 172.814 135.848C172.752 137.26 171.814 138.293 170.026 138.916C170.007 138.922 169.987 138.925 169.968 138.926Z" fill="#B1DA81"/>
<path d="M161.51 129.367C161.489 129.37 161.468 129.37 161.447 129.367L160.553 129.015C160.531 129.007 160.512 128.994 160.495 128.978C160.478 128.962 160.464 128.942 160.455 128.921C160.446 128.9 160.441 128.877 160.44 128.853C160.439 128.83 160.443 128.807 160.452 128.785C160.46 128.763 160.473 128.743 160.489 128.726C160.505 128.709 160.524 128.696 160.545 128.686C160.567 128.677 160.59 128.671 160.613 128.671C160.636 128.67 160.659 128.674 160.681 128.683L161.575 129.035C161.615 129.048 161.649 129.076 161.67 129.113C161.692 129.15 161.699 129.193 161.691 129.235C161.683 129.277 161.66 129.315 161.627 129.341C161.594 129.368 161.552 129.381 161.51 129.379V129.367Z" fill="#B1DA81"/>
</g>
<defs>
<filter id="filter0_i_47616_5935" x="18" y="0" width="172" height="192" filterUnits="userSpaceOnUse" color-interpolation-filters="sRGB">
<feFlood flood-opacity="0" result="BackgroundImageFix"/>
<feBlend mode="normal" in="SourceGraphic" in2="BackgroundImageFix" result="shape"/>
<feColorMatrix in="SourceAlpha" type="matrix" values="0 0 0 0 0 0 0 0 0 0 0 0 0 0 0 0 0 0 127 0" result="hardAlpha"/>
<feOffset/>
<feGaussianBlur stdDeviation="57"/>
<feComposite in2="hardAlpha" operator="arithmetic" k2="-1" k3="1"/>
<feColorMatrix type="matrix" values="0 0 0 0 0 0 0 0 0 0 0 0 0 0 0 0 0 0 0.04 0"/>
<feBlend mode="normal" in2="shape" result="effect1_innerShadow_47616_5935"/>
</filter>
<linearGradient id="paint0_linear_47616_5935" x1="70.7346" y1="33.4094" x2="72.1738" y2="52.3438" gradientUnits="userSpaceOnUse">
<stop stop-color="#F8FCF4"/>
<stop offset="1" stop-color="#DCF5C2"/>
</linearGradient>
<linearGradient id="paint1_linear_47616_5935" x1="73.884" y1="65.6287" x2="75.604" y2="85.0032" gradientUnits="userSpaceOnUse">
<stop stop-color="#F8FCF4"/>
<stop offset="1" stop-color="#DCF5C2"/>
</linearGradient>
<linearGradient id="paint2_linear_47616_5935" x1="74.2291" y1="78.5036" x2="75.9455" y2="97.8581" gradientUnits="userSpaceOnUse">
<stop stop-color="#F8FCF4"/>
<stop offset="1" stop-color="#DCF5C2"/>
</linearGradient>
<linearGradient id="paint3_linear_47616_5935" x1="75.641" y1="90.7741" x2="77.3575" y2="110.129" gradientUnits="userSpaceOnUse">
<stop stop-color="#F8FCF4"/>
<stop offset="1" stop-color="#DCF5C2"/>
</linearGradient>
<linearGradient id="paint4_linear_47616_5935" x1="77.5313" y1="103.424" x2="79.2477" y2="122.778" gradientUnits="userSpaceOnUse">
<stop stop-color="#F8FCF4"/>
<stop offset="1" stop-color="#DCF5C2"/>
</linearGradient>
<linearGradient id="paint5_linear_47616_5935" x1="78.142" y1="42.6476" x2="79.0873" y2="57.0627" gradientUnits="userSpaceOnUse">
<stop stop-color="#F8FCF4"/>
<stop offset="1" stop-color="#DCF5C2"/>
</linearGradient>
<linearGradient id="paint6_linear_47616_5935" x1="68.6253" y1="20.4911" x2="174.061" y2="160.826" gradientUnits="userSpaceOnUse">
<stop stop-color="#F8FCF4"/>
<stop offset="1" stop-color="#DCF5C2"/>
</linearGradient>
<linearGradient id="paint7_linear_47616_5935" x1="16.6753" y1="7.71346" x2="147.443" y2="164.234" gradientUnits="userSpaceOnUse">
<stop stop-color="#F8FCF4"/>
<stop offset="1" stop-color="#DCF5C2"/>
</linearGradient>
<linearGradient id="paint8_linear_47616_5935" x1="174" y1="125.225" x2="112.162" y2="125.225" gradientUnits="userSpaceOnUse">
<stop stop-color="#09005D"/>
<stop offset="1" stop-color="#1A0F91"/>
</linearGradient>
<linearGradient id="paint9_linear_47616_5935" x1="132.897" y1="99.9002" x2="137.908" y2="144.951" gradientUnits="userSpaceOnUse">
<stop stop-color="#89B557"/>
<stop offset="1" stop-color="#B1DA81"/>
</linearGradient>
<clipPath id="clip0_47616_5935">
<rect width="170" height="151" fill="white" transform="translate(4 26)"/>
</clipPath>
</defs>
</svg>
