<svg width="181" height="178" viewBox="0 0 181 178" fill="none" xmlns="http://www.w3.org/2000/svg">
<g filter="url(#filter0_i_47616_6017)">
<path d="M112.541 19.9182C120 21.8183 171.036 34.811 179.777 80.9071C187.026 119.134 161.018 158.177 129.208 172.065C92.865 187.932 48.9972 170.94 29.7928 133.544C15.2548 105.236 13.5896 62.781 36.1156 36.6116C61.6384 6.96029 101.877 17.2022 112.541 19.9182Z" fill="#F7F8FA"/>
</g>
<g clip-path="url(#clip0_47616_6017)">
<path d="M157.63 48.86C157.477 46.5181 156.7 44.2596 155.38 42.3182C154.06 40.3768 152.244 38.8231 150.121 37.8178L94.1633 11.2759C92.3936 10.4365 90.4591 10.001 88.5 10.001C86.5409 10.001 84.6064 10.4365 82.8367 11.2759L26.8791 37.8178C24.7567 38.8227 22.9416 40.3757 21.6215 42.3162C20.3013 44.2567 19.5241 46.5142 19.3702 48.8553C14.1214 129.897 66.1431 159.432 83.1963 166.887C84.8685 167.619 86.6744 167.996 88.5 167.996C90.3256 167.996 92.1315 167.619 93.8038 166.887C110.857 159.433 162.879 129.903 157.63 48.86Z" fill="url(#paint0_linear_47616_6017)"/>
<path d="M144.098 52.022C144.068 51.4288 143.877 50.8547 143.547 50.3607C143.217 49.8667 142.759 49.4712 142.222 49.2162L89.9116 24.3992C89.4704 24.1904 88.9883 24.082 88.5 24.082C88.0118 24.082 87.5297 24.1904 87.0885 24.3992L34.7783 49.2162C34.2412 49.4714 33.7832 49.8669 33.4528 50.3608C33.1223 50.8547 32.9318 51.4287 32.9013 52.022C31.3544 82.2544 38.3417 107.478 53.6942 127.03C65.3969 141.935 79.0864 149.922 87.1074 153.649C87.5437 153.852 88.019 153.957 88.5 153.957C88.9811 153.957 89.4564 153.852 89.8927 153.649C97.9136 149.922 111.603 141.935 123.306 127.03C138.657 107.478 145.646 82.2533 144.098 52.022Z" fill="url(#paint1_linear_47616_6017)"/>
<path fill-rule="evenodd" clip-rule="evenodd" d="M125.663 59.5989C128.672 62.0928 129.078 66.5405 126.571 69.5332L88.7476 114.676C87.4182 116.263 85.4562 117.19 83.3796 117.214C81.303 117.237 79.3205 116.354 77.9553 114.797L58.571 92.6961C55.9963 89.7605 56.3017 85.3048 59.2532 82.7439C62.2047 80.1831 66.6846 80.4869 69.2594 83.4225L83.1761 99.2897L115.675 60.502C118.182 57.5094 122.654 57.105 125.663 59.5989Z" fill="url(#paint2_linear_47616_6017)"/>
</g>
<defs>
<filter id="filter0_i_47616_6017" x="19" y="16" width="162" height="162" filterUnits="userSpaceOnUse" color-interpolation-filters="sRGB">
<feFlood flood-opacity="0" result="BackgroundImageFix"/>
<feBlend mode="normal" in="SourceGraphic" in2="BackgroundImageFix" result="shape"/>
<feColorMatrix in="SourceAlpha" type="matrix" values="0 0 0 0 0 0 0 0 0 0 0 0 0 0 0 0 0 0 127 0" result="hardAlpha"/>
<feOffset/>
<feGaussianBlur stdDeviation="57"/>
<feComposite in2="hardAlpha" operator="arithmetic" k2="-1" k3="1"/>
<feColorMatrix type="matrix" values="0 0 0 0 0 0 0 0 0 0 0 0 0 0 0 0 0 0 0.04 0"/>
<feBlend mode="normal" in2="shape" result="effect1_innerShadow_47616_6017"/>
</filter>
<linearGradient id="paint0_linear_47616_6017" x1="149.963" y1="-10.2202" x2="88.7985" y2="170.292" gradientUnits="userSpaceOnUse">
<stop stop-color="#71D8FA"/>
<stop offset="1" stop-color="#44BCE3"/>
</linearGradient>
<linearGradient id="paint1_linear_47616_6017" x1="118.759" y1="8.11874" x2="-10.7714" y2="299.673" gradientUnits="userSpaceOnUse">
<stop stop-color="#D2EFF8"/>
<stop offset="1" stop-color="#8BD5ED"/>
</linearGradient>
<linearGradient id="paint2_linear_47616_6017" x1="130.106" y1="-9.75024" x2="118.138" y2="128.831" gradientUnits="userSpaceOnUse">
<stop stop-color="#71D8FA"/>
<stop offset="1" stop-color="#20AFDE"/>
</linearGradient>
<clipPath id="clip0_47616_6017">
<rect width="139" height="158" fill="white" transform="translate(19 10)"/>
</clipPath>
</defs>
</svg>
