<svg width="212" height="181" viewBox="0 0 212 181" fill="none" xmlns="http://www.w3.org/2000/svg">
<g filter="url(#filter0_i_47616_5963)">
<path d="M199.066 103.935C196.673 112.222 180.312 168.929 122.265 178.641C74.1277 186.695 24.9628 157.797 7.47423 122.453C-12.5074 82.0722 8.88991 33.3303 55.9814 11.9921C91.6288 -4.16126 145.091 -6.01159 178.045 19.0174C215.383 47.376 202.486 92.0858 199.066 103.935Z" fill="#F7F8FA"/>
</g>
<path d="M36.0486 138.59C38.592 112.948 44.9534 49.2594 46.345 39.953C48.0909 28.2536 62.4271 30.836 62.4271 30.836L65.4968 149.23H45.5046C44.1709 149.228 42.8528 148.943 41.6375 148.393C40.4223 147.843 39.3376 147.042 38.4552 146.042C37.562 145.033 36.8871 143.85 36.473 142.567C36.0589 141.285 35.9144 139.931 36.0486 138.59Z" fill="url(#paint0_linear_47616_5963)"/>
<path d="M197.772 152.216C199.256 152.184 200.72 151.861 202.079 151.264C203.438 150.667 204.667 149.808 205.694 148.736C206.722 147.664 207.528 146.401 208.067 145.017C208.606 143.634 208.867 142.158 208.835 140.674L206.796 44.5569C206.742 42.0036 205.709 39.5686 203.911 37.7551C202.112 35.9416 199.686 34.8882 197.133 34.8125L57.632 30.6741C56.6477 30.6449 55.6676 30.8139 54.75 31.1711C53.8323 31.5282 52.9958 32.0663 52.2903 32.7533C51.5848 33.4402 51.0247 34.262 50.6432 35.1698C50.2617 36.0777 50.0666 37.0529 50.0696 38.0376L50.4041 148.242C50.4068 149.168 50.594 150.084 50.9548 150.937C51.3157 151.79 51.8429 152.563 52.5057 153.21C53.1685 153.857 53.9536 154.365 54.8151 154.705C55.6766 155.046 56.5973 155.211 57.5233 155.191L197.772 152.216Z" fill="url(#paint1_linear_47616_5963)"/>
<path d="M206.763 144.147C207.233 144.14 207.697 144.032 208.122 143.831C208.547 143.63 208.924 143.339 209.227 142.98C209.53 142.62 209.753 142.199 209.879 141.746C210.006 141.293 210.033 140.818 209.96 140.353C207.902 127.265 201.439 82.2467 203.513 44.8684C203.536 44.464 203.478 44.0591 203.342 43.6775C203.206 43.2959 202.995 42.9453 202.722 42.6463C202.449 42.3473 202.119 42.1061 201.751 41.9367C201.383 41.7673 200.985 41.6732 200.58 41.6599L60.4472 37.1903C59.5244 37.1606 58.6273 37.4973 57.9519 38.1269C57.2766 38.7564 56.8779 39.6277 56.8428 40.5504C56.2474 56.2647 54.0289 120.978 56.9317 143.982C57.0179 144.658 57.3503 145.278 57.8653 145.725C58.3804 146.171 59.0419 146.412 59.7233 146.401L206.763 144.147Z" fill="url(#paint2_linear_47616_5963)"/>
<path d="M206.763 144.147C207.233 144.14 207.697 144.032 208.122 143.831C208.547 143.63 208.924 143.339 209.227 142.98C209.53 142.62 209.753 142.199 209.879 141.746C210.006 141.293 210.033 140.818 209.96 140.353C207.902 127.265 201.439 82.2467 203.513 44.8684C203.536 44.464 203.478 44.0591 203.342 43.6775C203.206 43.2959 202.995 42.9453 202.722 42.6463C202.449 42.3473 202.119 42.1061 201.751 41.9367C201.383 41.7673 200.985 41.6732 200.58 41.6599L60.4472 37.1903C59.5244 37.1606 58.6273 37.4973 57.9519 38.1269C57.2766 38.7564 56.8779 39.6277 56.8428 40.5504C56.2474 56.2647 54.0289 120.978 56.9317 143.982C57.0179 144.658 57.3503 145.278 57.8653 145.725C58.3804 146.171 59.0419 146.412 59.7233 146.401L206.763 144.147Z" fill="url(#paint3_linear_47616_5963)"/>
<path d="M203.22 142.675C203.673 142.668 204.119 142.564 204.528 142.371C204.937 142.177 205.299 141.897 205.591 141.551C205.882 141.205 206.096 140.8 206.218 140.364C206.339 139.928 206.366 139.472 206.296 139.024C204.313 126.43 198.096 83.1063 200.092 47.1356C200.115 46.7466 200.059 46.3571 199.929 45.9899C199.798 45.6227 199.596 45.2853 199.333 44.9975C199.07 44.7098 198.753 44.4775 198.399 44.3143C198.045 44.1511 197.662 44.0604 197.273 44.0474L62.4168 39.7459C61.5287 39.7171 60.6652 40.041 60.0152 40.6469C59.3652 41.2528 58.9815 42.0914 58.948 42.9794C58.3724 58.1022 56.2384 120.379 59.0331 142.516C59.1159 143.167 59.4357 143.764 59.9313 144.193C60.4269 144.623 61.0634 144.855 61.7191 144.844L203.22 142.675Z" fill="url(#paint4_linear_47616_5963)"/>
<path opacity="0.72" d="M120.338 66.9014L120.544 76.6132C120.551 76.9653 120.489 77.3155 120.36 77.6432C120.23 77.9709 120.037 78.2696 119.792 78.522C119.546 78.7744 119.253 78.9754 118.929 79.1134C118.604 79.2513 118.256 79.3234 117.904 79.3254L107.942 79.381C107.245 79.3851 106.574 79.1148 106.075 78.6285C105.575 78.1422 105.287 77.479 105.272 76.782L105.053 66.572C105.046 66.2087 105.112 65.8477 105.25 65.5113C105.387 65.1749 105.592 64.8703 105.852 64.6163C106.112 64.3624 106.421 64.1645 106.761 64.0349C107.1 63.9053 107.463 63.8468 107.826 63.863L117.798 64.3049C118.472 64.3341 119.109 64.6188 119.581 65.101C120.053 65.5832 120.324 66.2269 120.338 66.9014Z" fill="white"/>
<path d="M155.167 79.2426L145.205 79.2989C144.508 79.3027 143.837 79.0323 143.337 78.5461C142.838 78.0599 142.55 77.3968 142.535 76.6998L142.35 68.0151C142.343 67.6537 142.409 67.2946 142.545 66.9598C142.681 66.6249 142.884 66.3213 143.141 66.0676C143.399 65.8139 143.705 65.6155 144.042 65.4844C144.379 65.3534 144.739 65.2925 145.1 65.3054L155.071 65.6636C155.748 65.6881 156.39 65.9707 156.866 66.4536C157.342 66.9365 157.614 67.583 157.629 68.2607L157.804 76.5304C157.811 76.8823 157.749 77.2323 157.62 77.5598C157.491 77.8874 157.298 78.1861 157.053 78.4385C156.807 78.6909 156.514 78.8919 156.19 79.03C155.867 79.168 155.519 79.2403 155.167 79.2426Z" fill="white"/>
<path d="M155.167 79.2426L145.205 79.2989C144.508 79.3027 143.837 79.0323 143.337 78.5461C142.838 78.0599 142.55 77.3968 142.535 76.6998L142.35 68.0151C142.343 67.6537 142.409 67.2946 142.545 66.9598C142.681 66.6249 142.884 66.3213 143.141 66.0676C143.399 65.8139 143.705 65.6155 144.042 65.4844C144.379 65.3534 144.739 65.2925 145.1 65.3054L155.071 65.6636C155.748 65.6881 156.39 65.9707 156.866 66.4536C157.342 66.9365 157.614 67.583 157.629 68.2607L157.804 76.5304C157.811 76.8823 157.749 77.2323 157.62 77.5598C157.491 77.8874 157.298 78.1861 157.053 78.4385C156.807 78.6909 156.514 78.8919 156.19 79.03C155.867 79.168 155.519 79.2403 155.167 79.2426Z" fill="url(#paint5_linear_47616_5963)"/>
<g opacity="0.72">
<path d="M146.438 122.503L155.914 122.411C156.677 122.404 157.411 122.698 157.958 123.229C158.505 123.76 158.821 124.485 158.837 125.248L159.029 134.124C159.045 134.882 158.764 135.616 158.245 136.169C157.726 136.721 157.012 137.049 156.254 137.081L146.785 137.482C146.4 137.498 146.015 137.437 145.653 137.303C145.292 137.168 144.961 136.963 144.679 136.699C144.398 136.436 144.172 136.118 144.015 135.766C143.858 135.414 143.773 135.034 143.765 134.648L143.57 125.465C143.562 125.082 143.629 124.7 143.769 124.343C143.909 123.986 144.119 123.661 144.386 123.385C144.652 123.11 144.971 122.89 145.324 122.739C145.676 122.587 146.055 122.507 146.438 122.503Z" fill="white"/>
<path d="M146.438 122.503L155.914 122.411C156.677 122.404 157.411 122.698 157.958 123.229C158.505 123.76 158.821 124.485 158.837 125.248L159.029 134.124C159.045 134.882 158.764 135.616 158.245 136.169C157.726 136.721 157.012 137.049 156.254 137.081L146.785 137.482C146.4 137.498 146.015 137.437 145.653 137.303C145.292 137.168 144.961 136.963 144.679 136.699C144.398 136.436 144.172 136.118 144.015 135.766C143.858 135.414 143.773 135.034 143.765 134.648L143.57 125.465C143.562 125.082 143.629 124.7 143.769 124.343C143.909 123.986 144.119 123.661 144.386 123.385C144.652 123.11 144.971 122.89 145.324 122.739C145.676 122.587 146.055 122.507 146.438 122.503Z" fill="url(#paint6_linear_47616_5963)"/>
</g>
<g opacity="0.72">
<path d="M162.38 133.908L162.196 125.235C162.188 124.858 162.255 124.484 162.393 124.133C162.531 123.782 162.737 123.462 162.999 123.192C163.261 122.921 163.575 122.705 163.921 122.557C164.267 122.408 164.64 122.33 165.017 122.326L174.591 122.234C175.342 122.226 176.065 122.514 176.603 123.036C177.142 123.558 177.453 124.271 177.469 125.021L177.647 133.386C177.663 134.13 177.386 134.852 176.876 135.395C176.366 135.938 175.664 136.26 174.92 136.292L165.351 136.696C164.972 136.713 164.593 136.653 164.237 136.521C163.881 136.389 163.555 136.187 163.279 135.928C163.002 135.668 162.78 135.355 162.626 135.009C162.471 134.662 162.388 134.288 162.38 133.908Z" fill="white"/>
<path d="M162.38 133.908L162.196 125.235C162.188 124.858 162.255 124.484 162.393 124.133C162.531 123.782 162.737 123.462 162.999 123.192C163.261 122.921 163.575 122.705 163.921 122.557C164.267 122.408 164.64 122.33 165.017 122.326L174.591 122.234C175.342 122.226 176.065 122.514 176.603 123.036C177.142 123.558 177.453 124.271 177.469 125.021L177.647 133.386C177.663 134.13 177.386 134.852 176.876 135.395C176.366 135.938 175.664 136.26 174.92 136.292L165.351 136.696C164.972 136.713 164.593 136.653 164.237 136.521C163.881 136.389 163.555 136.187 163.279 135.928C163.002 135.668 162.78 135.355 162.626 135.009C162.471 134.662 162.388 134.288 162.38 133.908Z" fill="url(#paint7_linear_47616_5963)"/>
</g>
<path d="M161.55 94.7376L161.399 87.6152C161.39 87.2069 161.463 86.801 161.614 86.4213C161.764 86.0416 161.989 85.6958 162.275 85.4043C162.561 85.1127 162.902 84.8812 163.279 84.7234C163.656 84.5656 164.06 84.4847 164.468 84.4854L173.614 84.502C174.414 84.5033 175.183 84.818 175.754 85.3786C176.326 85.9393 176.656 86.7014 176.672 87.502L176.817 94.3085C176.834 95.1151 176.532 95.8959 175.977 96.4816C175.423 97.0673 174.659 97.4106 173.853 97.437L164.714 97.7357C164.309 97.7489 163.905 97.6816 163.526 97.5376C163.147 97.3937 162.8 97.176 162.506 96.8972C162.212 96.6183 161.976 96.2839 161.811 95.9132C161.647 95.5425 161.558 95.1429 161.55 94.7376Z" fill="url(#paint8_linear_47616_5963)"/>
<path opacity="0.72" d="M161.988 115.436L161.757 104.542C161.742 103.792 162.022 103.067 162.538 102.523C163.053 101.978 163.763 101.66 164.512 101.635L173.863 101.329C174.268 101.316 174.672 101.383 175.051 101.527C175.43 101.671 175.777 101.889 176.072 102.167C176.366 102.446 176.602 102.781 176.766 103.152C176.93 103.522 177.019 103.922 177.028 104.327L177.261 115.314C177.269 115.693 177.201 116.07 177.062 116.422C176.922 116.775 176.714 117.096 176.449 117.367C176.184 117.638 175.867 117.853 175.517 118C175.168 118.147 174.793 118.222 174.414 118.222H164.836C164.091 118.222 163.376 117.931 162.844 117.41C162.312 116.889 162.005 116.181 161.988 115.436Z" fill="white"/>
<path d="M136.537 79.3478L126.575 79.404C125.878 79.4081 125.207 79.1378 124.707 78.6515C124.208 78.1652 123.919 77.502 123.905 76.805L123.704 67.3458C123.697 66.9844 123.763 66.6252 123.899 66.2903C124.035 65.9553 124.238 65.6517 124.495 65.3979C124.753 65.1442 125.059 64.9457 125.396 64.8146C125.733 64.6835 126.093 64.6225 126.454 64.6355L136.425 64.9936C137.102 65.0183 137.744 65.3011 138.22 65.7841C138.696 66.2671 138.968 66.9137 138.983 67.5914L139.175 76.6362C139.182 76.9881 139.119 77.3381 138.99 77.6656C138.861 77.9932 138.669 78.2918 138.423 78.5441C138.178 78.7964 137.884 78.9974 137.561 79.1354C137.237 79.2734 136.889 79.3455 136.537 79.3478Z" fill="url(#paint9_linear_47616_5963)"/>
<path opacity="0.72" d="M143.355 115.386L143.139 105.197C143.123 104.435 143.408 103.696 143.933 103.143C144.458 102.589 145.179 102.264 145.942 102.239L155.413 101.929C155.796 101.917 156.178 101.98 156.536 102.116C156.894 102.253 157.222 102.458 157.501 102.722C157.779 102.986 158.002 103.302 158.157 103.653C158.313 104.003 158.397 104.381 158.405 104.764L158.627 115.262C158.636 115.648 158.567 116.031 158.425 116.39C158.283 116.748 158.071 117.075 157.801 117.351C157.532 117.626 157.21 117.846 156.854 117.995C156.499 118.145 156.117 118.222 155.731 118.222H146.253C145.495 118.222 144.767 117.925 144.226 117.395C143.684 116.865 143.371 116.144 143.355 115.386Z" fill="white"/>
<path d="M126.316 84.416L137.194 84.4359C137.768 84.4369 138.319 84.6626 138.729 85.0646C139.139 85.4667 139.375 86.0132 139.387 86.5872L139.595 96.3841C139.608 96.9626 139.391 97.5225 138.993 97.9425C138.595 98.3625 138.048 98.6086 137.469 98.6275L126.598 98.9831C126.307 98.9927 126.017 98.9446 125.746 98.8415C125.474 98.7384 125.225 98.5823 125.014 98.3824C124.803 98.1824 124.634 97.9426 124.516 97.6767C124.398 97.4109 124.335 97.1243 124.329 96.8337L124.111 86.6608C124.105 86.3677 124.157 86.0763 124.265 85.8038C124.373 85.5313 124.535 85.2831 124.74 85.074C124.946 84.8648 125.191 84.6988 125.461 84.5858C125.732 84.4728 126.022 84.4151 126.316 84.416Z" fill="url(#paint10_linear_47616_5963)"/>
<path d="M120.766 87.1053L120.964 96.436C120.979 97.1629 120.708 97.8666 120.208 98.3945C119.707 98.9223 119.019 99.2317 118.293 99.2556L108.55 99.5754C108.185 99.5873 107.821 99.5267 107.48 99.397C107.138 99.2673 106.826 99.0711 106.56 98.8198C106.295 98.5685 106.082 98.267 105.934 97.9329C105.787 97.5988 105.706 97.2387 105.699 96.8734L105.493 87.2057C105.485 86.8377 105.551 86.4718 105.687 86.1296C105.822 85.7874 106.025 85.4757 106.283 85.2129C106.541 84.95 106.848 84.7414 107.188 84.5992C107.527 84.457 107.892 84.3841 108.26 84.3848L118.009 84.4027C118.731 84.4038 119.423 84.6873 119.939 85.1923C120.454 85.6974 120.751 86.384 120.766 87.1053Z" fill="url(#paint11_linear_47616_5963)"/>
<path d="M156.087 98.0184L145.216 98.3752C144.925 98.3847 144.635 98.3364 144.364 98.2332C144.092 98.13 143.843 97.9738 143.632 97.7739C143.421 97.5739 143.252 97.3341 143.134 97.0682C143.016 96.8024 142.953 96.5158 142.946 96.2252L142.744 86.6962C142.738 86.4034 142.791 86.1124 142.898 85.8401C143.006 85.5678 143.168 85.3199 143.373 85.1108C143.578 84.9017 143.822 84.7358 144.093 84.6227C144.363 84.5095 144.653 84.4516 144.946 84.4522L155.824 84.4713C156.398 84.4724 156.949 84.6981 157.359 85.1001C157.769 85.5021 158.005 86.0486 158.018 86.6227L158.209 95.7768C158.221 96.3544 158.005 96.9134 157.608 97.3329C157.211 97.7524 156.665 97.9987 156.087 98.0184Z" fill="url(#paint12_linear_47616_5963)"/>
<path opacity="0.72" d="M127.323 102.852L136.794 102.542C137.177 102.529 137.559 102.593 137.917 102.729C138.276 102.865 138.603 103.071 138.882 103.334C139.16 103.598 139.383 103.914 139.538 104.265C139.694 104.615 139.778 104.993 139.786 105.377L139.996 115.267C140.004 115.652 139.935 116.036 139.793 116.395C139.651 116.753 139.439 117.08 139.169 117.356C138.9 117.631 138.577 117.85 138.222 118C137.866 118.149 137.484 118.226 137.099 118.227H127.621C126.863 118.227 126.135 117.93 125.593 117.4C125.052 116.869 124.739 116.148 124.723 115.39L124.52 105.809C124.504 105.046 124.789 104.308 125.314 103.754C125.839 103.201 126.561 102.877 127.323 102.852Z" fill="white"/>
<path opacity="0.72" d="M108.379 103.472L118.513 103.14C118.853 103.129 119.191 103.185 119.508 103.306C119.825 103.426 120.116 103.609 120.362 103.842C120.609 104.075 120.806 104.355 120.944 104.666C121.081 104.976 121.156 105.311 121.163 105.65L121.374 115.608C121.381 115.949 121.321 116.289 121.195 116.607C121.07 116.924 120.882 117.214 120.643 117.458C120.404 117.702 120.119 117.896 119.804 118.029C119.489 118.161 119.15 118.23 118.809 118.23H108.667C107.996 118.23 107.351 117.967 106.872 117.497C106.392 117.027 106.116 116.389 106.101 115.718L105.897 106.091C105.883 105.416 106.135 104.762 106.6 104.272C107.065 103.781 107.704 103.494 108.379 103.472Z" fill="white"/>
<path d="M172.403 79.0173L164.842 79.0602C163.876 79.0658 162.946 78.691 162.253 78.0167C161.56 77.3425 161.161 76.4229 161.14 75.4564L161.008 69.2185C160.998 68.7721 161.08 68.3285 161.248 67.9148C161.417 67.5011 161.667 67.1261 161.985 66.8127C162.304 66.4994 162.682 66.2542 163.098 66.0924C163.515 65.9305 163.959 65.8552 164.406 65.8713L172.82 66.1731C173.74 66.2053 174.613 66.5884 175.259 67.244C175.906 67.8995 176.277 68.7777 176.296 69.6982L176.407 74.9077C176.418 75.4417 176.323 75.9725 176.127 76.4693C175.932 76.9662 175.639 77.419 175.266 77.8016C174.893 78.1841 174.448 78.4886 173.957 78.6973C173.465 78.906 172.937 79.0148 172.403 79.0173Z" fill="white"/>
<path d="M172.403 79.0173L164.842 79.0602C163.876 79.0658 162.946 78.691 162.253 78.0167C161.56 77.3425 161.161 76.4229 161.14 75.4564L161.008 69.2185C160.998 68.7721 161.08 68.3285 161.248 67.9148C161.417 67.5011 161.667 67.1261 161.985 66.8127C162.304 66.4994 162.682 66.2542 163.098 66.0924C163.515 65.9305 163.959 65.8552 164.406 65.8713L172.82 66.1731C173.74 66.2053 174.613 66.5884 175.259 67.244C175.906 67.8995 176.277 68.7777 176.296 69.6982L176.407 74.9077C176.418 75.4417 176.323 75.9725 176.127 76.4693C175.932 76.9662 175.639 77.419 175.266 77.8016C174.893 78.1841 174.448 78.4886 173.957 78.6973C173.465 78.906 172.937 79.0148 172.403 79.0173Z" fill="url(#paint13_linear_47616_5963)"/>
<g opacity="0.72">
<path d="M180.829 125.27C180.821 124.865 180.893 124.462 181.041 124.085C181.189 123.707 181.411 123.363 181.693 123.072C181.975 122.781 182.312 122.549 182.685 122.389C183.058 122.229 183.458 122.145 183.864 122.141L187.157 122.109C189.661 122.084 191.708 123.739 191.752 125.822L191.88 131.852C191.923 133.919 189.98 135.651 187.5 135.754L183.964 135.903C183.585 135.919 183.207 135.86 182.851 135.728C182.496 135.596 182.171 135.394 181.894 135.135C181.618 134.875 181.396 134.563 181.241 134.217C181.087 133.871 181.004 133.497 180.996 133.118L180.829 125.27Z" fill="white"/>
<path d="M180.829 125.27C180.821 124.865 180.893 124.462 181.041 124.085C181.189 123.707 181.411 123.363 181.693 123.072C181.975 122.781 182.312 122.549 182.685 122.389C183.058 122.229 183.458 122.145 183.864 122.141L187.157 122.109C189.661 122.084 191.708 123.739 191.752 125.822L191.88 131.852C191.923 133.919 189.98 135.651 187.5 135.754L183.964 135.903C183.585 135.919 183.207 135.86 182.851 135.728C182.496 135.596 182.171 135.394 181.894 135.135C181.618 134.875 181.396 134.563 181.241 134.217C181.087 133.871 181.004 133.497 180.996 133.118L180.829 125.27Z" fill="url(#paint14_linear_47616_5963)"/>
</g>
<path opacity="0.72" d="M74.9208 123.197L81.3986 123.133C82.162 123.126 82.8974 123.42 83.4455 123.951C83.9935 124.483 84.31 125.209 84.3263 125.972L84.5661 137.27C84.5822 138.029 84.3005 138.763 83.7814 139.316C83.2624 139.869 82.5472 140.197 81.7893 140.229L75.341 140.502C72.7701 140.611 70.613 138.935 70.5676 136.793L70.3623 127.104C70.3169 124.979 72.3685 123.222 74.9208 123.197Z" fill="white"/>
<path opacity="0.72" d="M186.896 118.222H183.681C182.879 118.222 182.109 117.908 181.537 117.347C180.964 116.786 180.633 116.023 180.616 115.222L180.381 104.147C180.364 103.34 180.666 102.559 181.22 101.974C181.775 101.388 182.539 101.045 183.345 101.018L186.581 100.912C189.133 100.829 191.257 102.499 191.302 104.621L191.508 114.311C191.553 116.455 189.471 118.222 186.896 118.222Z" fill="white"/>
<path opacity="0.72" d="M186.625 97.0187L182.578 97.1517C182.271 97.1617 181.966 97.1108 181.679 97.0019C181.393 96.893 181.13 96.7283 180.908 96.5174C180.685 96.3065 180.507 96.0535 180.383 95.7731C180.258 95.4928 180.191 95.1905 180.185 94.884L180.015 86.8848C180.009 86.5761 180.064 86.2693 180.178 85.9823C180.292 85.6953 180.462 85.4339 180.678 85.2135C180.894 84.9931 181.153 84.8181 181.437 84.6988C181.722 84.5794 182.028 84.5182 182.337 84.5186L186.424 84.5262C188.902 84.5307 190.911 86.1768 190.954 88.2406L191.058 93.115C191.102 95.1973 189.127 96.9368 186.625 97.0187Z" fill="white"/>
<path opacity="0.72" d="M73.8867 62.6198L80.3823 62.8533C81.0871 62.8787 81.7555 63.1728 82.2505 63.6751C82.7455 64.1775 83.0296 64.8502 83.0447 65.5553L83.2813 76.7156C83.289 77.0819 83.2238 77.446 83.0895 77.7869C82.9551 78.1277 82.7543 78.4385 82.4988 78.701C82.2432 78.9635 81.938 79.1725 81.6009 79.316C81.2638 79.4594 80.9015 79.5344 80.5352 79.5365L73.8445 79.5736C71.3503 79.5877 69.3166 77.9358 69.2725 75.8593L69.0749 66.5222C69.0301 64.3178 71.2384 62.5246 73.8867 62.6198Z" fill="url(#paint15_linear_47616_5963)"/>
<path opacity="0.72" d="M127.81 122.684L137.286 122.592C138.049 122.585 138.784 122.878 139.331 123.41C139.879 123.941 140.195 124.666 140.211 125.429L140.412 134.91C140.428 135.668 140.147 136.402 139.628 136.954C139.11 137.507 138.395 137.834 137.638 137.866L128.168 138.267C127.783 138.284 127.398 138.223 127.037 138.089C126.675 137.954 126.344 137.749 126.063 137.485C125.781 137.221 125.556 136.904 125.399 136.552C125.242 136.199 125.157 135.819 125.148 135.434L124.943 125.643C124.934 125.26 125.002 124.879 125.143 124.522C125.283 124.166 125.492 123.84 125.759 123.565C126.026 123.29 126.344 123.07 126.696 122.919C127.048 122.768 127.427 122.688 127.81 122.684Z" fill="white"/>
<path d="M74.1598 84.3223L80.7469 84.3338C81.4685 84.3351 82.1609 84.6188 82.676 85.1241C83.1911 85.6294 83.488 86.3163 83.5032 87.0377L83.729 97.6538C83.7444 98.3809 83.4724 99.0846 82.9722 99.6125C82.472 100.14 81.7839 100.45 81.0571 100.473L74.4469 100.69C71.8959 100.773 69.7714 99.1036 69.7266 96.981L69.5411 88.2323C69.4919 86.0848 71.5825 84.3178 74.1598 84.3223Z" fill="url(#paint16_linear_47616_5963)"/>
<path opacity="0.72" d="M74.3996 104.583L81.2713 104.359C81.6106 104.348 81.9487 104.404 82.2661 104.524C82.5835 104.645 82.8738 104.827 83.1202 105.061C83.3667 105.294 83.5644 105.574 83.7018 105.885C83.8392 106.195 83.9137 106.53 83.9208 106.869L84.1063 115.612C84.1138 115.953 84.053 116.293 83.9274 116.611C83.8019 116.929 83.6142 117.218 83.3752 117.462C83.1363 117.707 82.851 117.901 82.536 118.033C82.2211 118.166 81.8828 118.234 81.5412 118.234H74.6343C72.1523 118.234 70.1372 116.586 70.0937 114.52L69.9658 108.49C69.9229 106.405 71.8978 104.665 74.3996 104.583Z" fill="white"/>
<path opacity="0.72" d="M102.54 106.26L102.739 115.61C102.746 115.951 102.685 116.291 102.56 116.609C102.434 116.927 102.246 117.216 102.007 117.46C101.768 117.705 101.483 117.899 101.168 118.031C100.853 118.164 100.515 118.232 100.173 118.232H90.0321C89.3608 118.232 88.7162 117.969 88.2365 117.499C87.7568 117.03 87.4801 116.391 87.4657 115.72L87.2738 106.702C87.2588 106.027 87.5111 105.372 87.9758 104.881C88.4405 104.39 89.0802 104.102 89.7558 104.08L99.8897 103.748C100.229 103.737 100.567 103.794 100.885 103.914C101.202 104.035 101.493 104.217 101.739 104.451C101.986 104.684 102.184 104.964 102.321 105.275C102.458 105.586 102.533 105.92 102.54 106.26Z" fill="white"/>
<path opacity="0.72" d="M90.556 123.046L100.027 122.954C100.79 122.947 101.525 123.241 102.074 123.772C102.622 124.303 102.938 125.029 102.954 125.792L103.181 136.484C103.197 137.242 102.916 137.977 102.397 138.53C101.877 139.083 101.162 139.411 100.405 139.443L90.9397 139.843C90.554 139.86 90.1689 139.799 89.807 139.665C89.4451 139.53 89.1137 139.325 88.8322 139.061C88.5507 138.796 88.3248 138.479 88.1677 138.126C88.0106 137.774 87.9254 137.393 87.9173 137.007L87.6845 126.007C87.6764 125.624 87.7444 125.242 87.8847 124.885C88.025 124.528 88.2348 124.202 88.5018 123.927C88.7689 123.651 89.088 123.432 89.4406 123.28C89.7932 123.129 90.1723 123.049 90.556 123.046Z" fill="white"/>
<path d="M186.093 78.9397L182.128 78.962C181.52 78.9655 180.934 78.7295 180.498 78.305C180.062 77.8804 179.81 77.3014 179.798 76.693L179.631 68.8697C179.625 68.5542 179.682 68.2405 179.801 67.9481C179.92 67.6556 180.097 67.3905 180.322 67.1689C180.546 66.9474 180.814 66.7741 181.108 66.6596C181.402 66.5452 181.717 66.4921 182.032 66.5035L186.231 66.6538C188.633 66.7401 190.531 68.3619 190.574 70.363L190.673 75.0315C190.719 77.1637 188.654 78.9256 186.093 78.9397Z" fill="url(#paint17_linear_47616_5963)"/>
<path opacity="0.72" d="M109.184 122.865L118.496 122.775C119.302 122.767 120.078 123.077 120.657 123.638C121.235 124.199 121.569 124.965 121.586 125.771L121.797 135.695C121.813 136.453 121.531 137.188 121.012 137.741C120.493 138.294 119.778 138.622 119.02 138.655L109.555 139.055C109.169 139.071 108.784 139.01 108.422 138.876C108.06 138.742 107.729 138.536 107.448 138.272C107.166 138.008 106.94 137.69 106.783 137.338C106.626 136.985 106.541 136.605 106.533 136.219L106.312 125.826C106.304 125.443 106.372 125.061 106.512 124.704C106.652 124.347 106.862 124.021 107.129 123.746C107.396 123.47 107.716 123.25 108.068 123.099C108.421 122.948 108.8 122.868 109.184 122.865Z" fill="white"/>
<path opacity="0.72" d="M101.691 66.2242L101.911 76.6094C101.919 76.9757 101.854 77.3399 101.72 77.6807C101.585 78.0215 101.384 78.3323 101.129 78.5948C100.873 78.8573 100.568 79.0664 100.231 79.2098C99.8939 79.3533 99.5317 79.4282 99.1653 79.4304L89.4177 79.4854C88.6924 79.4895 87.9946 79.2083 87.475 78.7024C86.9553 78.1965 86.6555 77.5065 86.6402 76.7814L86.4113 65.9907C86.4033 65.6148 86.4721 65.2411 86.6136 64.8927C86.7552 64.5443 86.9663 64.2284 87.2342 63.9645C87.5021 63.7005 87.8211 63.4941 88.1716 63.3578C88.522 63.2215 88.8967 63.1581 89.2725 63.1717L99.0285 63.5209C99.7336 63.5462 100.402 63.8404 100.897 64.343C101.393 64.8457 101.677 65.5187 101.691 66.2242Z" fill="white"/>
<path d="M102.133 87.0715L102.345 97.0481C102.36 97.7749 102.088 98.4785 101.588 99.0062C101.088 99.5339 100.4 99.8432 99.6735 99.8671L89.931 100.187C89.5657 100.199 89.2017 100.138 88.86 100.009C88.5183 99.8789 88.2057 99.6826 87.9404 99.4312C87.6751 99.1799 87.4623 98.8783 87.3144 98.5441C87.1665 98.2099 87.0864 97.8496 87.0787 97.4842L86.86 87.1745C86.8522 86.8064 86.9181 86.4405 87.0538 86.0983C87.1894 85.7561 87.3921 85.4444 87.6499 85.1816C87.9077 84.9188 88.2154 84.7101 88.555 84.5679C88.8945 84.4257 89.2591 84.3528 89.6272 84.3535L99.3761 84.3708C100.097 84.3721 100.789 84.6553 101.304 85.1599C101.82 85.6646 102.117 86.3506 102.133 87.0715Z" fill="url(#paint18_linear_47616_5963)"/>
<path d="M187.174 58.2411L186.726 61.5295C186.657 62.0393 186.408 62.5077 186.024 62.8501C185.64 63.1926 185.146 63.3867 184.632 63.3976H184.476C184.193 63.4036 183.911 63.3537 183.646 63.2507C183.382 63.1477 183.14 62.9936 182.936 62.7973C182.731 62.601 182.567 62.3662 182.453 62.1064C182.338 61.8467 182.277 61.567 182.271 61.2833L182.2 57.9169C182.193 57.6095 182.252 57.3042 182.373 57.0215C182.494 56.7388 182.674 56.4852 182.901 56.2776C183.127 56.07 183.396 55.9132 183.688 55.8177C183.98 55.7222 184.29 55.6903 184.595 55.7239L185.271 55.7987C185.558 55.8304 185.836 55.9192 186.088 56.0599C186.34 56.2007 186.561 56.3905 186.738 56.6182C186.916 56.8459 187.046 57.1068 187.12 57.3855C187.195 57.6643 187.213 57.9552 187.174 58.2411Z" fill="white"/>
<path d="M171.909 57.3941L171.461 60.6831C171.392 61.1928 171.143 61.661 170.759 62.0033C170.375 62.3457 169.881 62.5397 169.367 62.5506H169.212C168.639 62.5627 168.086 62.3473 167.672 61.9516C167.259 61.556 167.019 61.0123 167.006 60.4401L166.934 57.0737C166.928 56.7662 166.987 56.4609 167.108 56.1782C167.229 55.8955 167.409 55.6418 167.636 55.4342C167.862 55.2265 168.131 55.0697 168.423 54.9742C168.716 54.8786 169.025 54.8465 169.331 54.8801L170.006 54.9549C170.293 54.9866 170.57 55.0753 170.822 55.2158C171.073 55.3564 171.294 55.5459 171.472 55.7732C171.649 56.0005 171.779 56.261 171.854 56.5394C171.93 56.8178 171.948 57.1084 171.909 57.3941Z" fill="white"/>
<path d="M153.128 57.6523L152.68 60.9414C152.61 61.4508 152.362 61.9187 151.978 62.261C151.595 62.6034 151.102 62.7979 150.588 62.8094H150.432C150.148 62.8161 149.866 62.7668 149.601 62.6643C149.336 62.5619 149.094 62.4082 148.889 62.2121C148.684 62.0161 148.519 61.7814 148.405 61.5217C148.29 61.262 148.228 60.9822 148.221 60.6983L148.15 57.3319C148.143 57.0245 148.202 56.7192 148.323 56.4365C148.444 56.1538 148.624 55.9002 148.851 55.6926C149.078 55.485 149.346 55.3282 149.639 55.2328C149.931 55.1373 150.24 55.1053 150.546 55.139L151.221 55.2131C151.508 55.2444 151.786 55.3328 152.038 55.4732C152.29 55.6136 152.512 55.803 152.689 56.0304C152.867 56.2577 152.997 56.5184 153.073 56.797C153.148 57.0755 153.167 57.3664 153.128 57.6523Z" fill="white"/>
<path d="M134.829 56.8335L134.381 60.1226C134.312 60.6322 134.062 61.1003 133.678 61.4426C133.294 61.785 132.801 61.9791 132.287 61.99L132.131 61.9932C131.848 61.9993 131.566 61.9495 131.301 61.8466C131.037 61.7436 130.795 61.5896 130.591 61.3934C130.386 61.1971 130.222 60.9624 130.108 60.7026C129.993 60.4429 129.932 60.1632 129.926 59.8796L129.854 56.5131C129.848 56.2057 129.907 55.9004 130.028 55.6177C130.149 55.3349 130.329 55.0813 130.555 54.8736C130.782 54.666 131.051 54.5092 131.343 54.4136C131.635 54.3181 131.945 54.286 132.25 54.3195L132.926 54.3944C133.212 54.426 133.49 54.5146 133.741 54.6551C133.993 54.7956 134.214 54.9851 134.392 55.2125C134.569 55.4398 134.699 55.7004 134.774 55.9788C134.849 56.2572 134.868 56.5478 134.829 56.8335Z" fill="white"/>
<path d="M116.034 54.4439L115.586 57.7329C115.517 58.2426 115.268 58.7108 114.884 59.0531C114.5 59.3955 114.006 59.5895 113.492 59.6004H113.336C112.764 59.6125 112.211 59.3971 111.797 59.0014C111.383 58.6058 111.144 58.0621 111.131 57.4899L111.059 54.1235C111.053 53.816 111.112 53.5107 111.233 53.228C111.354 52.9453 111.534 52.6916 111.76 52.484C111.987 52.2763 112.256 52.1195 112.548 52.024C112.84 51.9284 113.15 51.8963 113.455 51.9299L114.131 52.0047C114.418 52.0364 114.695 52.1251 114.947 52.2656C115.199 52.4062 115.42 52.5957 115.597 52.823C115.774 53.0504 115.904 53.3109 115.979 53.5893C116.054 53.8676 116.073 54.1582 116.034 54.4439Z" fill="white"/>
<path d="M96.1235 54.8658L95.6759 58.1549C95.6062 58.6646 95.3569 59.1328 94.9729 59.4751C94.5888 59.8175 94.0952 60.0115 93.5808 60.0223L93.4254 60.0261C92.8526 60.0381 92.2985 59.8221 91.885 59.4256C91.4715 59.0291 91.2324 58.4846 91.2203 57.9119L91.1487 54.5454C91.1422 54.2383 91.2014 53.9333 91.3221 53.6509C91.4429 53.3684 91.6225 53.115 91.849 52.9074C92.0755 52.6999 92.3436 52.543 92.6355 52.4473C92.9274 52.3516 93.2364 52.3193 93.5418 52.3525L94.2171 52.4267C94.504 52.4579 94.7817 52.5462 95.0339 52.6866C95.2861 52.8269 95.5076 53.0164 95.6853 53.2437C95.863 53.4711 95.9934 53.7318 96.0686 54.0104C96.1439 54.289 96.1626 54.5799 96.1235 54.8658Z" fill="white"/>
<path d="M79.3189 54.5143L78.8712 57.8033C78.8015 58.3131 78.5523 58.7813 78.1682 59.1236C77.7841 59.4659 77.2905 59.6599 76.7761 59.6707L76.6207 59.6739C76.3371 59.6801 76.0551 59.6302 75.7908 59.5273C75.5264 59.4244 75.285 59.2703 75.0802 59.0741C74.8754 58.8778 74.7113 58.643 74.5973 58.3833C74.4833 58.1236 74.4215 57.8439 74.4156 57.5603L74.344 54.1939C74.3374 53.8864 74.3966 53.581 74.5175 53.2983C74.6384 53.0155 74.8183 52.7618 75.0451 52.5541C75.272 52.3465 75.5406 52.1896 75.8329 52.0941C76.1252 51.9986 76.4346 51.9666 76.7403 52.0003L77.4156 52.0751C77.7022 52.1068 77.9796 52.1955 78.2313 52.336C78.4831 52.4766 78.7042 52.6661 78.8815 52.8934C79.0589 53.1207 79.189 53.3812 79.2641 53.6596C79.3392 53.938 79.3578 54.2286 79.3189 54.5143Z" fill="white"/>
<path d="M185.202 52.4754C187.043 51.4902 187.737 49.1991 186.752 47.358C185.767 45.5168 183.476 44.8229 181.635 45.808C179.794 46.7932 179.1 49.0843 180.085 50.9254C181.07 52.7666 183.361 53.4605 185.202 52.4754Z" fill="url(#paint19_linear_47616_5963)"/>
<path d="M155.497 51.0404C156.718 49.3464 156.334 46.9834 154.64 45.7625C152.946 44.5416 150.583 44.9252 149.362 46.6192C148.141 48.3133 148.525 50.6762 150.219 51.8971C151.913 53.118 154.276 52.7344 155.497 51.0404Z" fill="url(#paint20_linear_47616_5963)"/>
<path d="M121.535 51.5912C123.613 51.3857 125.131 49.5345 124.925 47.4565C124.719 45.3785 122.868 43.8607 120.79 44.0662C118.712 44.2718 117.194 46.123 117.4 48.201C117.606 50.2789 119.457 51.7968 121.535 51.5912Z" fill="url(#paint21_linear_47616_5963)"/>
<path d="M91.3804 49.9591C93.3614 49.2989 94.4322 47.1578 93.772 45.1768C93.1119 43.1958 90.9708 42.125 88.9898 42.7852C87.0088 43.4453 85.938 45.5864 86.5981 47.5674C87.2583 49.5484 89.3994 50.6192 91.3804 49.9591Z" fill="url(#paint22_linear_47616_5963)"/>
<path d="M87.3104 20.1613C93.673 21.5497 93.0725 38.2886 92.5603 45.0849C92.5022 45.8554 92.155 46.5755 91.5883 47.1008C91.0216 47.6261 90.2773 47.9177 89.5046 47.9173C89.2843 47.9169 89.0665 47.8701 88.8654 47.7801C88.6643 47.69 88.4844 47.5587 88.3374 47.3946C88.1904 47.2305 88.0795 47.0373 88.012 46.8276C87.9444 46.6178 87.9218 46.3962 87.9455 46.1772C88.4948 41.0412 89.6645 26.249 84.9806 25.4566C84.9806 25.4566 81.6206 24.8625 81.0552 31.3703H77.4202C77.4202 31.3703 79.3112 18.4186 87.3104 20.1613Z" fill="url(#paint23_linear_47616_5963)"/>
<path d="M87.3104 20.1613C93.673 21.5497 93.0725 38.2886 92.5603 45.0849C92.5022 45.8554 92.155 46.5755 91.5883 47.1008C91.0216 47.6261 90.2773 47.9177 89.5046 47.9173C89.2843 47.9169 89.0665 47.8701 88.8654 47.7801C88.6643 47.69 88.4844 47.5587 88.3374 47.3946C88.1904 47.2305 88.0795 47.0373 88.012 46.8276C87.9444 46.6178 87.9218 46.3962 87.9455 46.1772C88.4948 41.0412 89.6645 26.249 84.9806 25.4566C84.9806 25.4566 81.6206 24.8625 81.0552 31.3703H77.4202C77.4202 31.3703 79.3112 18.4186 87.3104 20.1613Z" fill="url(#paint24_linear_47616_5963)"/>
<path d="M118.291 21.0251C124.654 22.4135 124.054 39.1589 123.542 45.9544C123.484 46.7254 123.137 47.446 122.57 47.9719C122.003 48.4978 121.259 48.79 120.486 48.7901C120.266 48.7898 120.048 48.7433 119.847 48.6534C119.646 48.5636 119.466 48.4325 119.319 48.2686C119.172 48.1048 119.061 47.9118 118.993 47.7023C118.926 47.4928 118.903 47.2714 118.927 47.0525C119.477 41.9158 120.646 27.1121 115.962 26.3217C115.962 26.3217 112.602 25.8567 112.037 32.2239H108.402C108.402 32.2239 110.29 19.2799 118.291 21.0251Z" fill="url(#paint25_linear_47616_5963)"/>
<path d="M118.291 21.0251C124.654 22.4135 124.054 39.1589 123.542 45.9544C123.484 46.7254 123.137 47.446 122.57 47.9719C122.003 48.4978 121.259 48.79 120.486 48.7901C120.266 48.7898 120.048 48.7433 119.847 48.6534C119.646 48.5636 119.466 48.4325 119.319 48.2686C119.172 48.1048 119.061 47.9118 118.993 47.7023C118.926 47.4928 118.903 47.2714 118.927 47.0525C119.477 41.9158 120.646 27.1121 115.962 26.3217C115.962 26.3217 112.602 25.8567 112.037 32.2239H108.402C108.402 32.2239 110.29 19.2799 118.291 21.0251Z" fill="url(#paint26_linear_47616_5963)"/>
<path d="M149.268 21.8882C155.631 23.276 155.03 40.0251 154.518 46.8214C154.46 47.5922 154.112 48.3126 153.546 48.8386C152.98 49.3646 152.235 49.6576 151.462 49.6589C151.242 49.6589 151.024 49.6126 150.823 49.5229C150.622 49.4332 150.442 49.3022 150.295 49.1383C150.148 48.9744 150.037 48.7815 149.97 48.5719C149.902 48.3623 149.88 48.1409 149.903 47.922C150.453 42.786 151.622 27.9746 146.938 27.1841C146.938 27.1841 143.58 26.8055 143.015 33.2052L139.378 33.0773C139.378 33.0773 141.269 20.1449 149.268 21.8882Z" fill="url(#paint27_linear_47616_5963)"/>
<path d="M149.268 21.8882C155.631 23.276 155.03 40.0251 154.518 46.8214C154.46 47.5922 154.112 48.3126 153.546 48.8386C152.98 49.3646 152.235 49.6576 151.462 49.6589C151.242 49.6589 151.024 49.6126 150.823 49.5229C150.622 49.4332 150.442 49.3022 150.295 49.1383C150.148 48.9744 150.037 48.7815 149.97 48.5719C149.902 48.3623 149.88 48.1409 149.903 47.922C150.453 42.786 151.622 27.9746 146.938 27.1841C146.938 27.1841 143.58 26.8055 143.015 33.2052L139.378 33.0773C139.378 33.0773 141.269 20.1449 149.268 21.8882Z" fill="url(#paint28_linear_47616_5963)"/>
<path d="M180.247 22.8898C186.609 24.2776 186.009 41.0357 185.497 47.8313C185.44 48.6031 185.093 49.3249 184.526 49.852C183.96 50.3791 183.215 50.6727 182.441 50.6739C182.221 50.6743 182.003 50.6283 181.802 50.539C181.601 50.4497 181.422 50.319 181.274 50.1554C181.127 49.9919 181.016 49.7992 180.949 49.5899C180.881 49.3807 180.859 49.1595 180.882 48.9408C181.432 43.8042 182.601 28.9755 177.917 28.1851C177.917 28.1851 174.557 27.6952 173.992 34.0623H170.357C170.357 34.0623 172.247 21.1439 180.247 22.8898Z" fill="url(#paint29_linear_47616_5963)"/>
<defs>
<filter id="filter0_i_47616_5963" x="0" y="0" width="204" height="180" filterUnits="userSpaceOnUse" color-interpolation-filters="sRGB">
<feFlood flood-opacity="0" result="BackgroundImageFix"/>
<feBlend mode="normal" in="SourceGraphic" in2="BackgroundImageFix" result="shape"/>
<feColorMatrix in="SourceAlpha" type="matrix" values="0 0 0 0 0 0 0 0 0 0 0 0 0 0 0 0 0 0 127 0" result="hardAlpha"/>
<feOffset/>
<feGaussianBlur stdDeviation="57"/>
<feComposite in2="hardAlpha" operator="arithmetic" k2="-1" k3="1"/>
<feColorMatrix type="matrix" values="0 0 0 0 0 0 0 0 0 0 0 0 0 0 0 0 0 0 0.04 0"/>
<feBlend mode="normal" in2="shape" result="effect1_innerShadow_47616_5963"/>
</filter>
<linearGradient id="paint0_linear_47616_5963" x1="49.8328" y1="-128.92" x2="156.732" y2="148.199" gradientUnits="userSpaceOnUse">
<stop stop-color="#F38195"/>
<stop offset="0.932292" stop-color="#C53750"/>
</linearGradient>
<linearGradient id="paint1_linear_47616_5963" x1="124.526" y1="-136.755" x2="149.519" y2="195.511" gradientUnits="userSpaceOnUse">
<stop stop-color="#FF9DAF"/>
<stop offset="0.932292" stop-color="#DD4862"/>
</linearGradient>
<linearGradient id="paint2_linear_47616_5963" x1="23.1497" y1="168.512" x2="186.342" y2="53.0703" gradientUnits="userSpaceOnUse">
<stop stop-color="#4F52FF"/>
<stop offset="1" stop-color="#4042E2"/>
</linearGradient>
<linearGradient id="paint3_linear_47616_5963" x1="127.939" y1="-109.654" x2="147.713" y2="182.072" gradientUnits="userSpaceOnUse">
<stop stop-color="#FFCBD4"/>
<stop offset="0.932292" stop-color="#F07B90"/>
</linearGradient>
<linearGradient id="paint4_linear_47616_5963" x1="127.364" y1="-101.569" x2="146.394" y2="179.172" gradientUnits="userSpaceOnUse">
<stop stop-color="#FFDFE5"/>
<stop offset="0.932292" stop-color="#F5A9B6"/>
</linearGradient>
<linearGradient id="paint5_linear_47616_5963" x1="149.597" y1="46.4864" x2="157.866" y2="108.374" gradientUnits="userSpaceOnUse">
<stop stop-color="#FF718A"/>
<stop offset="1" stop-color="#E45E76"/>
</linearGradient>
<linearGradient id="paint6_linear_47616_5963" x1="150.82" y1="102.145" x2="154.569" y2="142.242" gradientUnits="userSpaceOnUse">
<stop stop-color="#FFF1F4"/>
<stop offset="0.932292" stop-color="#FFDAE0"/>
</linearGradient>
<linearGradient id="paint7_linear_47616_5963" x1="169.442" y1="102.784" x2="172.899" y2="141.291" gradientUnits="userSpaceOnUse">
<stop stop-color="#FFF1F4"/>
<stop offset="0.932292" stop-color="#FFDAE0"/>
</linearGradient>
<linearGradient id="paint8_linear_47616_5963" x1="168.629" y1="66.6674" x2="176.072" y2="125.37" gradientUnits="userSpaceOnUse">
<stop stop-color="#FF718A"/>
<stop offset="1" stop-color="#E45E76"/>
</linearGradient>
<linearGradient id="paint9_linear_47616_5963" x1="130.959" y1="44.7743" x2="140.141" y2="109.962" gradientUnits="userSpaceOnUse">
<stop stop-color="#FF718A"/>
<stop offset="1" stop-color="#E45E76"/>
</linearGradient>
<linearGradient id="paint10_linear_47616_5963" x1="131.373" y1="64.8281" x2="140.302" y2="129.161" gradientUnits="userSpaceOnUse">
<stop stop-color="#FF718A"/>
<stop offset="1" stop-color="#E45E76"/>
</linearGradient>
<linearGradient id="paint11_linear_47616_5963" x1="112.748" y1="63.9582" x2="122.451" y2="130.932" gradientUnits="userSpaceOnUse">
<stop stop-color="#FF718A"/>
<stop offset="1" stop-color="#E45E76"/>
</linearGradient>
<linearGradient id="paint12_linear_47616_5963" x1="149.997" y1="65.7302" x2="158.177" y2="127.317" gradientUnits="userSpaceOnUse">
<stop stop-color="#FF718A"/>
<stop offset="1" stop-color="#E45E76"/>
</linearGradient>
<linearGradient id="paint13_linear_47616_5963" x1="168.229" y1="48.133" x2="175.614" y2="106.573" gradientUnits="userSpaceOnUse">
<stop stop-color="#FF718A"/>
<stop offset="1" stop-color="#E45E76"/>
</linearGradient>
<linearGradient id="paint14_linear_47616_5963" x1="186.011" y1="103.557" x2="190.382" y2="140.058" gradientUnits="userSpaceOnUse">
<stop stop-color="#FFF1F4"/>
<stop offset="0.932292" stop-color="#FFDAE0"/>
</linearGradient>
<linearGradient id="paint15_linear_47616_5963" x1="75.7371" y1="39.8159" x2="80.8787" y2="84.7319" gradientUnits="userSpaceOnUse">
<stop stop-color="#FFF1F4"/>
<stop offset="0.932292" stop-color="#FFDAE0"/>
</linearGradient>
<linearGradient id="paint16_linear_47616_5963" x1="76.1945" y1="62.3106" x2="88.3842" y2="133.921" gradientUnits="userSpaceOnUse">
<stop stop-color="#FF718A"/>
<stop offset="1" stop-color="#E45E76"/>
</linearGradient>
<linearGradient id="paint17_linear_47616_5963" x1="184.809" y1="49.7486" x2="193.894" y2="104.319" gradientUnits="userSpaceOnUse">
<stop stop-color="#FF718A"/>
<stop offset="1" stop-color="#E45E76"/>
</linearGradient>
<linearGradient id="paint18_linear_47616_5963" x1="94.1217" y1="63.0627" x2="104.635" y2="132.749" gradientUnits="userSpaceOnUse">
<stop stop-color="#FF718A"/>
<stop offset="1" stop-color="#E45E76"/>
</linearGradient>
<linearGradient id="paint19_linear_47616_5963" x1="176.631" y1="36.9542" x2="187.817" y2="53.7727" gradientUnits="userSpaceOnUse">
<stop stop-color="#FF9DAF"/>
<stop offset="0.932292" stop-color="#DD4862"/>
</linearGradient>
<linearGradient id="paint20_linear_47616_5963" x1="140.977" y1="40.8652" x2="158.416" y2="51.0565" gradientUnits="userSpaceOnUse">
<stop stop-color="#FF9DAF"/>
<stop offset="0.932292" stop-color="#DD4862"/>
</linearGradient>
<linearGradient id="paint21_linear_47616_5963" x1="119.556" y1="33.9716" x2="123.454" y2="53.7906" gradientUnits="userSpaceOnUse">
<stop stop-color="#FF9DAF"/>
<stop offset="0.932292" stop-color="#DD4862"/>
</linearGradient>
<linearGradient id="paint22_linear_47616_5963" x1="85.5528" y1="33.2137" x2="93.7389" y2="51.6793" gradientUnits="userSpaceOnUse">
<stop stop-color="#FF9DAF"/>
<stop offset="0.932292" stop-color="#DD4862"/>
</linearGradient>
<linearGradient id="paint23_linear_47616_5963" x1="68.9107" y1="-2.06088" x2="102.004" y2="62.1403" gradientUnits="userSpaceOnUse">
<stop stop-color="#FF928E"/>
<stop offset="1" stop-color="#FE7062"/>
</linearGradient>
<linearGradient id="paint24_linear_47616_5963" x1="84.6592" y1="-17.5364" x2="97.2741" y2="55.1901" gradientUnits="userSpaceOnUse">
<stop stop-color="#FFF1F4"/>
<stop offset="0.932292" stop-color="#FFDAE0"/>
</linearGradient>
<linearGradient id="paint25_linear_47616_5963" x1="99.8872" y1="-1.20921" x2="132.991" y2="63.0119" gradientUnits="userSpaceOnUse">
<stop stop-color="#FF928E"/>
<stop offset="1" stop-color="#FE7062"/>
</linearGradient>
<linearGradient id="paint26_linear_47616_5963" x1="115.641" y1="-16.6858" x2="128.264" y2="56.0638" gradientUnits="userSpaceOnUse">
<stop stop-color="#FFF1F4"/>
<stop offset="0.932292" stop-color="#FFDAE0"/>
</linearGradient>
<linearGradient id="paint27_linear_47616_5963" x1="130.865" y1="-0.350609" x2="163.975" y2="63.8832" gradientUnits="userSpaceOnUse">
<stop stop-color="#FF928E"/>
<stop offset="1" stop-color="#FE7062"/>
</linearGradient>
<linearGradient id="paint28_linear_47616_5963" x1="146.617" y1="-15.83" x2="159.245" y2="56.9333" gradientUnits="userSpaceOnUse">
<stop stop-color="#FFF1F4"/>
<stop offset="0.932292" stop-color="#FFDAE0"/>
</linearGradient>
<linearGradient id="paint29_linear_47616_5963" x1="177.596" y1="-14.8479" x2="190.237" y2="57.9497" gradientUnits="userSpaceOnUse">
<stop stop-color="#FFF1F4"/>
<stop offset="0.932292" stop-color="#FFDAE0"/>
</linearGradient>
</defs>
</svg>
