<svg width="47" height="32" viewBox="0 0 47 32" fill="none" xmlns="http://www.w3.org/2000/svg">
<g id="Payment Method/Amex">
<rect id="BASE" x="0.333331" y="0.333331" width="46.3333" height="31.3333" rx="3.66664" fill="#1F72CD" stroke="#AFB2B2" stroke-width="0.666662"/>
<path id="AMEX" fill-rule="evenodd" clip-rule="evenodd" d="M8.42598 11.333L4.02856 20.9953H9.29289L9.94551 19.4548H11.4373L12.0899 20.9953H17.8844V19.8195L18.4008 20.9953H21.3982L21.9145 19.7947V20.9953H33.9656L35.4309 19.4948L36.803 20.9953L42.9927 21.0078L38.5814 16.1911L42.9927 11.333H36.899L35.4726 12.8058L34.1437 11.333H21.0337L19.9079 13.8269L18.7558 11.333H13.5024V12.4688L12.918 11.333H8.42598ZM26.4219 12.7051H33.3422L35.4588 14.9752L37.6436 12.7051H39.7602L36.5442 16.1898L39.7602 19.6343H37.5476L35.431 17.3379L33.235 19.6343H26.4219V12.7051ZM28.1309 15.4056V14.1399V14.1387H32.4489L34.3331 16.1628L32.3654 18.198H28.1309V16.8163H31.9062V15.4056H28.1309ZM9.44462 12.7051H12.0107L14.9275 19.2572V12.7051H17.7385L19.9914 17.4029L22.0677 12.7051H24.8647V19.6384H23.1628L23.1489 14.2055L20.6677 19.6384H19.1453L16.6502 14.2055V19.6384H13.149L12.4852 18.0841H8.89914L8.23675 19.6371H6.36084L9.44462 12.7051ZM9.51149 16.647L10.693 13.878L11.8731 16.647H9.51149Z" fill="white"/>
</g>
</svg>
