<svg width="47" height="32" viewBox="0 0 47 32" fill="none" xmlns="http://www.w3.org/2000/svg">
<g id="Payment Method/ApplePay">
<rect id="BASE" x="0.333331" y="0.333331" width="46.3333" height="31.3333" rx="3.66664" fill="white" stroke="#AFB2B2" stroke-width="0.666662"/>
<path id="ApplePay" fill-rule="evenodd" clip-rule="evenodd" d="M11.2079 11.9103C11.8391 11.9632 12.4703 11.5931 12.8648 11.1239C13.2527 10.6415 13.5091 9.99385 13.4434 9.33301C12.8845 9.35944 12.1941 9.70308 11.7996 10.1855C11.438 10.6018 11.129 11.2759 11.2079 11.9103ZM18.7165 20.422V10.1195H22.5628C24.5485 10.1195 25.9358 11.494 25.9358 13.503C25.9358 15.5119 24.5222 16.8997 22.5102 16.8997H20.3076V20.422H18.7165ZM13.4367 12.036C12.8806 12.0038 12.3732 12.2041 11.9634 12.3658C11.6997 12.4699 11.4763 12.558 11.3064 12.558C11.1157 12.558 10.8832 12.4652 10.6221 12.3609L10.6221 12.3609C10.2799 12.2243 9.88876 12.0681 9.47856 12.0756C8.53834 12.0888 7.66387 12.6241 7.1839 13.4766C6.19765 15.1816 6.92747 17.706 7.88084 19.0937C8.34767 19.781 8.90654 20.5344 9.64294 20.5079C9.96691 20.4956 10.2 20.3963 10.4411 20.2934C10.7188 20.175 11.0072 20.052 11.4576 20.052C11.8924 20.052 12.1682 20.1718 12.433 20.2868C12.6848 20.3961 12.9266 20.5012 13.2855 20.4947C14.0482 20.4815 14.5281 19.8074 14.995 19.1202C15.4987 18.3825 15.7201 17.6627 15.7537 17.5534L15.7577 17.5408C15.7569 17.54 15.7506 17.5371 15.7397 17.5321L15.7397 17.532C15.5712 17.4545 14.2841 16.8623 14.2717 15.2741C14.2593 13.941 15.2927 13.2656 15.4553 13.1593L15.4554 13.1593L15.4554 13.1592L15.4555 13.1592C15.4653 13.1528 15.4719 13.1484 15.4749 13.1462C14.8174 12.1681 13.7917 12.0624 13.4367 12.036ZM28.842 20.5014C29.8414 20.5014 30.7685 19.9925 31.1893 19.1863H31.2222V20.4221H32.6949V15.294C32.6949 13.8071 31.5115 12.8489 29.6902 12.8489C28.0004 12.8489 26.7512 13.8203 26.7051 15.1552H28.1385C28.2568 14.5208 28.842 14.1045 29.6442 14.1045C30.6173 14.1045 31.163 14.5604 31.163 15.3997V15.968L29.1773 16.087C27.3298 16.1993 26.3304 16.9593 26.3304 18.281C26.3304 19.6159 27.3626 20.5014 28.842 20.5014ZM29.2692 19.2788C28.421 19.2788 27.8819 18.8691 27.8819 18.2413C27.8819 17.5936 28.4013 17.217 29.3941 17.1575L31.1628 17.0451V17.6267C31.1628 18.5915 30.3475 19.2788 29.2692 19.2788ZM37.58 20.8247C36.9422 22.6288 36.2124 23.2235 34.6607 23.2235C34.5423 23.2235 34.1478 23.2103 34.0558 23.1839V21.9481C34.1544 21.9613 34.3977 21.9746 34.5226 21.9746C35.2261 21.9746 35.6206 21.6772 35.8639 20.904L36.0085 20.448L33.3128 12.9475H34.9763L36.8501 19.0338H36.883L38.7569 12.9475H40.3743L37.58 20.8247ZM20.3074 11.467H22.1418C23.5226 11.467 24.3116 12.2072 24.3116 13.509C24.3116 14.8109 23.5226 15.5576 22.1353 15.5576H20.3074V11.467Z" fill="black"/>
</g>
</svg>
