<svg width="40" height="40" viewBox="0 0 40 40" fill="none" xmlns="http://www.w3.org/2000/svg">
<g filter="url(#filter0_d_47616_2009)">
<path d="M20 28C26.6274 28 32 22.6274 32 16C32 9.37258 26.6274 4 20 4C13.3726 4 8 9.37258 8 16C8 22.6274 13.3726 28 20 28Z" fill="#F0F0F0"/>
</g>
<path d="M32 16C32 22.6274 26.6274 28 20 28C13.3726 28 8 22.6274 8 16C8 16.0028 20 4.00136 20 4C26.6274 4 32 9.37262 32 16Z" fill="#0052B4"/>
<path d="M19.9678 16H19.9999V15.9679L19.9678 16Z" fill="#F0F0F0"/>
<path d="M20 10.261V4.00012H19.998C13.3715 4.0012 8 9.37331 8 16.0001H14.2609V12.4745L17.7864 16.0001H19.9679L20 15.968V13.7866L16.4744 10.261H20Z" fill="#F0F0F0"/>
<path d="M14.071 5.56519C12.1922 6.63588 10.6359 8.19217 9.56519 10.071V16H12.6956V8.69564H20V5.56519H14.071Z" fill="#D80027"/>
<path d="M19.9996 14.5243L15.7362 10.2609H14.2605L19.9995 15.9999H19.9996V14.5243Z" fill="#D80027"/>
<path d="M15.2373 18.087L15.8959 19.4641L17.3831 19.1204L16.7171 20.4939L17.9131 21.4423L16.424 21.7779L16.4281 23.3044L15.2373 22.3494L14.0465 23.3044L14.0506 21.7779L12.5615 21.4423L13.7575 20.4939L13.0914 19.1204L14.5787 19.4641L15.2373 18.087ZM25.9665 20.6957L26.2958 21.3842L27.0394 21.2123L26.7063 21.8991L27.3044 22.3733L26.5598 22.5412L26.5619 23.3044L25.9665 22.8269L25.3711 23.3044L25.3731 22.5412L24.6286 22.3733L25.2266 21.8991L24.8936 21.2123L25.6372 21.3842L25.9665 20.6957ZM22.9031 13.3913L23.2324 14.0799L23.976 13.908L23.643 14.5948L24.241 15.069L23.4965 15.2368L23.4985 16L22.9031 15.5225L22.3077 16L22.3097 15.2368L21.5652 15.069L22.1632 14.5948L21.8302 13.908L22.5738 14.0799L22.9031 13.3913ZM25.9665 9.21741L26.2958 9.906L27.0394 9.73411L26.7064 10.4209L27.3043 10.8951L26.5598 11.0629L26.5619 11.8261L25.9665 11.3486L25.3711 11.8261L25.3731 11.0629L24.6286 10.8951L25.2265 10.4209L24.8936 9.73411L25.6372 9.906L25.9665 9.21741ZM28.6423 12.3479L28.9715 13.0365L29.7151 12.8645L29.3821 13.5513L29.9801 14.0255L29.2356 14.1934L29.2376 14.9565L28.6423 14.4791L28.0469 14.9565L28.0489 14.1934L27.3044 14.0255L27.9024 13.5513L27.5694 12.8645L28.3129 13.0365L28.6423 12.3479ZM26.7289 16L26.9879 16.7972H27.8261L27.148 17.2899L27.4071 18.087L26.7289 17.5943L26.0508 18.087L26.3098 17.2899L25.6317 16.7972H26.4699L26.7289 16Z" fill="#F0F0F0"/>
<defs>
<filter id="filter0_d_47616_2009" x="0" y="0" width="40" height="40" filterUnits="userSpaceOnUse" color-interpolation-filters="sRGB">
<feFlood flood-opacity="0" result="BackgroundImageFix"/>
<feColorMatrix in="SourceAlpha" type="matrix" values="0 0 0 0 0 0 0 0 0 0 0 0 0 0 0 0 0 0 127 0" result="hardAlpha"/>
<feOffset dy="4"/>
<feGaussianBlur stdDeviation="4"/>
<feComposite in2="hardAlpha" operator="out"/>
<feColorMatrix type="matrix" values="0 0 0 0 0 0 0 0 0 0.321569 0 0 0 0 0.705882 0 0 0 0.16 0"/>
<feBlend mode="normal" in2="BackgroundImageFix" result="effect1_dropShadow_47616_2009"/>
<feBlend mode="normal" in="SourceGraphic" in2="effect1_dropShadow_47616_2009" result="shape"/>
</filter>
</defs>
</svg>
