<svg width="182" height="178" viewBox="0 0 182 178" fill="none" xmlns="http://www.w3.org/2000/svg">
<g id="Frame">
<g id="Group">
<path id="Vector" d="M76.0166 98.8188C76.0166 98.8188 47.9608 124.499 51.1478 171.399L69.8972 153.524L85.1964 170.476C85.1964 170.476 87.8415 141.554 92.5953 133.925C92.5953 133.925 100.542 144.311 103.012 177L118.292 158.327L139.437 166.81C139.437 166.81 134.172 103.815 101.888 89.6739C65.0533 73.5406 76.0166 98.8188 76.0166 98.8188Z" fill="url(#paint0_linear_47529_1461)"/>
<g id="Vector_2">
<path d="M101.489 9.97007L108.19 15.9188C110.852 18.2805 114.244 19.6739 117.809 19.87L126.787 20.3588C130.652 20.5717 134.302 22.1906 137.039 24.9056C139.776 27.6206 141.408 31.2413 141.622 35.075L142.115 43.981C142.313 47.5177 143.717 50.8826 146.098 53.5225L152.095 60.1702C154.676 63.031 156.104 66.7357 156.104 70.5752C156.104 74.4147 154.676 78.1194 152.095 80.9802L146.098 87.6279C143.717 90.2711 142.314 93.6396 142.12 97.1791L141.627 106.085C141.413 109.92 139.781 113.542 137.043 116.258C134.305 118.974 130.653 120.593 126.787 120.805L117.809 121.293C114.242 121.488 110.847 122.881 108.184 125.243L101.482 131.19C98.5983 133.751 94.8636 135.167 90.993 135.167C87.1225 135.167 83.3879 133.751 80.5039 131.19L73.8024 125.243C71.1426 122.883 67.7532 121.491 64.1904 121.293L55.2123 120.805C51.3475 120.592 47.6976 118.973 44.9606 116.258C42.2236 113.543 40.5917 109.922 40.377 106.088L39.8843 97.1824C39.686 93.6455 38.2808 90.2807 35.8994 87.641L29.9042 80.9932C27.3228 78.1324 25.8955 74.4277 25.8955 70.5882C25.8955 66.7487 27.3228 63.0441 29.9042 60.1832L35.8994 53.5355C38.2808 50.8958 39.686 47.531 39.8843 43.9941L40.377 35.0881C40.5917 31.2543 42.2236 27.6337 44.9606 24.9186C47.6976 22.2036 51.3475 20.5848 55.2123 20.3718L64.1904 19.883C67.7557 19.687 71.1477 18.2936 73.809 15.9318L80.5105 9.9831C83.3928 7.42058 87.1266 6.00241 90.9971 6C94.8677 5.9976 98.6033 7.41113 101.489 9.97007Z" fill="url(#paint1_linear_47529_1461)"/>
<path d="M101.489 9.97007L108.19 15.9188C110.852 18.2805 114.244 19.6739 117.809 19.87L126.787 20.3588C130.652 20.5717 134.302 22.1906 137.039 24.9056C139.776 27.6206 141.408 31.2413 141.622 35.075L142.115 43.981C142.313 47.5177 143.717 50.8826 146.098 53.5225L152.095 60.1702C154.676 63.031 156.104 66.7357 156.104 70.5752C156.104 74.4147 154.676 78.1194 152.095 80.9802L146.098 87.6279C143.717 90.2711 142.314 93.6396 142.12 97.1791L141.627 106.085C141.413 109.92 139.781 113.542 137.043 116.258C134.305 118.974 130.653 120.593 126.787 120.805L117.809 121.293C114.242 121.488 110.847 122.881 108.184 125.243L101.482 131.19C98.5983 133.751 94.8636 135.167 90.993 135.167C87.1225 135.167 83.3879 133.751 80.5039 131.19L73.8024 125.243C71.1426 122.883 67.7532 121.491 64.1904 121.293L55.2123 120.805C51.3475 120.592 47.6976 118.973 44.9606 116.258C42.2236 113.543 40.5917 109.922 40.377 106.088L39.8843 97.1824C39.686 93.6455 38.2808 90.2807 35.8994 87.641L29.9042 80.9932C27.3228 78.1324 25.8955 74.4277 25.8955 70.5882C25.8955 66.7487 27.3228 63.0441 29.9042 60.1832L35.8994 53.5355C38.2808 50.8958 39.686 47.531 39.8843 43.9941L40.377 35.0881C40.5917 31.2543 42.2236 27.6337 44.9606 24.9186C47.6976 22.2036 51.3475 20.5848 55.2123 20.3718L64.1904 19.883C67.7557 19.687 71.1477 18.2936 73.809 15.9318L80.5105 9.9831C83.3928 7.42058 87.1266 6.00241 90.9971 6C94.8677 5.9976 98.6033 7.41113 101.489 9.97007Z" fill="url(#paint2_linear_47529_1461)" fill-opacity="0.8"/>
</g>
<path id="Vector_3" d="M101.489 5.97007L108.19 11.9188C110.852 14.2805 114.244 15.6739 117.809 15.87L126.787 16.3588C130.652 16.5717 134.302 18.1906 137.039 20.9056C139.776 23.6206 141.408 27.2413 141.622 31.075L142.115 39.981C142.313 43.5177 143.717 46.8826 146.098 49.5225L152.095 56.1702C154.676 59.031 156.104 62.7357 156.104 66.5752C156.104 70.4147 154.676 74.1194 152.095 76.9802L146.098 83.6279C143.717 86.2711 142.314 89.6396 142.12 93.1791L141.627 102.085C141.413 105.92 139.781 109.542 137.043 112.258C134.305 114.974 130.653 116.593 126.787 116.805L117.809 117.293C114.242 117.488 110.847 118.881 108.184 121.243L101.482 127.19C98.5983 129.751 94.8636 131.167 90.993 131.167C87.1225 131.167 83.3879 129.751 80.5039 127.19L73.8024 121.243C71.1426 118.883 67.7532 117.491 64.1904 117.293L55.2123 116.805C51.3475 116.592 47.6976 114.973 44.9606 112.258C42.2236 109.543 40.5917 105.922 40.377 102.088L39.8843 93.1824C39.686 89.6455 38.2808 86.2807 35.8994 83.641L29.9042 76.9932C27.3228 74.1324 25.8955 70.4277 25.8955 66.5882C25.8955 62.7487 27.3228 59.0441 29.9042 56.1832L35.8994 49.5355C38.2808 46.8958 39.686 43.531 39.8843 39.9941L40.377 31.0881C40.5917 27.2543 42.2236 23.6337 44.9606 20.9186C47.6976 18.2036 51.3475 16.5848 55.2123 16.3718L64.1904 15.883C67.7557 15.687 71.1477 14.2936 73.809 11.9318L80.5105 5.9831C83.3928 3.42058 87.1266 2.00241 90.9971 2C94.8677 1.9976 98.6033 3.41113 101.489 5.97007Z" fill="url(#paint3_linear_47529_1461)"/>
<path id="Vector_4" d="M90.9997 113.458C116.6 113.458 137.354 92.4717 137.354 66.5833C137.354 40.695 116.6 19.7083 90.9997 19.7083C65.399 19.7083 44.6455 40.695 44.6455 66.5833C44.6455 92.4717 65.399 113.458 90.9997 113.458Z" fill="#B1DA81"/>
<path id="Vector_5" d="M90.9997 107.208C113.149 107.208 131.104 89.0199 131.104 66.5833C131.104 44.1467 113.149 25.9583 90.9997 25.9583C68.8508 25.9583 50.8955 44.1467 50.8955 66.5833C50.8955 89.0199 68.8508 107.208 90.9997 107.208Z" fill="url(#paint4_linear_47529_1461)"/>
<path id="Vector (Stroke)" fill-rule="evenodd" clip-rule="evenodd" d="M111.894 43.1459C114.179 44.3477 115.093 47.2444 113.935 49.616L93.708 91.0287C92.9815 92.5162 91.5647 93.5076 89.9633 93.6492C88.3618 93.7908 86.8037 93.0624 85.8451 91.724L69.5197 68.9304C67.9913 66.7964 68.4197 63.7809 70.4765 62.1952C72.5333 60.6094 75.4397 61.0539 76.9681 63.1878L88.8204 79.7361L105.657 45.264C106.816 42.8924 109.608 41.9441 111.894 43.1459Z" fill="#9DD162"/>
</g>
</g>
<defs>
<linearGradient id="paint0_linear_47529_1461" x1="80.583" y1="52" x2="112.875" y2="185.854" gradientUnits="userSpaceOnUse">
<stop stop-color="#89B557"/>
<stop offset="1" stop-color="#B1DA81"/>
</linearGradient>
<linearGradient id="paint1_linear_47529_1461" x1="58.1872" y1="4.95833" x2="129.711" y2="136.491" gradientUnits="userSpaceOnUse">
<stop stop-color="#EBF6E0"/>
<stop offset="1" stop-color="#D3F3B2"/>
</linearGradient>
<linearGradient id="paint2_linear_47529_1461" x1="69.5536" y1="-38.9906" x2="112.42" y2="148.559" gradientUnits="userSpaceOnUse">
<stop stop-color="#89B557"/>
<stop offset="1" stop-color="#B1DA81"/>
</linearGradient>
<linearGradient id="paint3_linear_47529_1461" x1="58.1872" y1="0.958333" x2="129.711" y2="132.491" gradientUnits="userSpaceOnUse">
<stop stop-color="#EBF6E0"/>
<stop offset="1" stop-color="#D3F3B2"/>
</linearGradient>
<linearGradient id="paint4_linear_47529_1461" x1="57.6663" y1="2.52081" x2="132.666" y2="127" gradientUnits="userSpaceOnUse">
<stop stop-color="#EBF6E0"/>
<stop offset="1" stop-color="#D3F3B2"/>
</linearGradient>
</defs>
</svg>
