<svg width="178" height="179" viewBox="0 0 178 179" fill="none" xmlns="http://www.w3.org/2000/svg">
<g id="Frame 40">
<g id="Group">
<g id="Group_2">
<path id="Vector" d="M99.7659 17.1328L93.9934 23.6204C93.7722 23.869 93.6148 24.1676 93.5348 24.4905C93.4547 24.8135 93.4543 25.1511 93.5337 25.4743L95.6038 33.9095C96.009 35.562 94.3451 36.9613 92.7903 36.2787L84.8365 32.7913C84.5319 32.6578 84.1994 32.6003 83.8677 32.6239C83.5359 32.6474 83.2149 32.7512 82.9321 32.9263L75.5525 37.5023C74.1069 38.3986 72.2622 37.2481 72.4302 35.5552L73.2879 26.9158C73.3207 26.5847 73.2726 26.2506 73.1477 25.9422C73.0228 25.6338 72.8249 25.3604 72.5709 25.1455L65.9396 19.5384C64.6407 18.4403 65.1649 16.3294 66.8255 15.9662L75.3077 14.1115C75.6326 14.0403 75.9354 13.8913 76.19 13.6771C76.4447 13.463 76.6435 13.1903 76.7695 12.8823L80.0508 4.84082C80.693 3.26598 82.8617 3.11166 83.7204 4.57995L88.1052 12.0772C88.2732 12.3644 88.5085 12.6064 88.7908 12.7825C89.0731 12.9585 89.3939 13.0633 89.7257 13.0878L98.3845 13.7251C100.08 13.8461 100.897 15.8618 99.7659 17.1328Z" fill="url(#paint0_linear_47529_1427)"/>
</g>
<g id="Group_3">
<path id="Vector_2" d="M63.1592 25.0918L60.3739 32.1941C60.267 32.466 60.2279 32.7599 60.26 33.0504C60.2921 33.3408 60.3944 33.6191 60.558 33.8612L64.8275 40.1829C65.664 41.4214 64.7145 43.0811 63.2271 42.9919L55.6117 42.5362C55.3198 42.5187 55.0281 42.5725 54.7616 42.6929C54.4951 42.8133 54.2618 42.9967 54.082 43.2274L49.3913 49.2423C48.4732 50.4202 46.6024 50.0368 46.2279 48.5876L44.3079 41.204C44.2344 40.9211 44.0932 40.6603 43.8966 40.4441C43.6999 40.2279 43.4537 40.0627 43.1791 39.9628L36.0131 37.3622C34.6099 36.8519 34.3996 34.9533 35.6582 34.1487L42.0842 30.0408C42.3305 29.8835 42.5348 29.6687 42.6795 29.4148C42.8242 29.1609 42.905 28.8756 42.915 28.5835L43.1781 20.9582C43.2291 19.465 44.9692 18.679 46.1228 19.6273L52.0143 24.4723C52.2401 24.6578 52.5075 24.7856 52.7936 24.8449C53.0796 24.9042 53.3758 24.8931 53.6566 24.8126L60.986 22.7042C62.4189 22.288 63.7045 23.7006 63.1592 25.0918Z" fill="url(#paint1_linear_47529_1427)"/>
</g>
<g id="Group_4">
<path id="Vector_3" d="M36.3497 43.6759L35.4412 50.9212C35.4063 51.1988 35.4394 51.4806 35.5376 51.7426C35.6358 52.0045 35.7962 52.2386 36.005 52.4248L41.4562 57.2811C42.5239 58.2326 42.0381 59.9951 40.6342 60.2644L33.4662 61.6385C33.1919 61.6914 32.9346 61.8102 32.7163 61.9846C32.498 62.159 32.3253 62.3838 32.2131 62.6398L29.2808 69.3269C28.7066 70.636 26.8804 70.7187 26.1905 69.4662L22.6691 63.0698C22.5342 62.8247 22.3418 62.6162 22.1085 62.4621C21.8751 62.308 21.6079 62.2129 21.3296 62.185L14.0619 61.4618C12.6396 61.3197 11.9969 59.6101 12.9745 58.5648L17.967 53.2371C18.1583 53.0332 18.2971 52.7857 18.3714 52.5161C18.4457 52.2465 18.4532 51.9628 18.3934 51.6896L16.8369 44.555C16.5321 43.1576 17.9614 42.0188 19.2548 42.6254L25.8628 45.7293C26.116 45.8481 26.3942 45.9035 26.6736 45.8909C26.953 45.8782 27.225 45.7979 27.4665 45.6567L33.7679 41.9713C35.002 41.2495 36.5278 42.2571 36.3497 43.6759Z" fill="url(#paint2_linear_47529_1427)"/>
<path id="Vector_4" opacity="0.66" d="M18.5765 55.0285L17.5894 56.0815L17.8597 56.3351L18.8468 55.2821L18.5765 55.0285Z" fill="white"/>
</g>
<g id="Group_5">
<path id="Vector_5" d="M129.398 33.4475L122.473 35.7518C122.208 35.8399 121.967 35.9914 121.773 36.1931C121.579 36.3948 121.437 36.6408 121.359 36.9097L119.331 43.9278C118.933 45.301 117.135 45.6229 116.285 44.4745L111.954 38.5969C111.788 38.3715 111.57 38.19 111.318 38.0679C111.067 37.9458 110.789 37.8869 110.51 37.8962L103.214 38.1333C101.785 38.1794 100.923 36.5671 101.755 35.4027L106.002 29.4587C106.165 29.2311 106.27 28.9674 106.308 28.6902C106.346 28.4131 106.317 28.1308 106.222 27.8676L103.745 20.9997C103.26 19.6546 104.527 18.3362 105.889 18.769L112.848 20.9771C113.114 21.061 113.396 21.0792 113.671 21.0301C113.945 20.981 114.203 20.8661 114.424 20.6951L120.187 16.2127C121.316 15.3351 122.96 16.1332 122.97 17.5632L123.021 24.8666C123.023 25.1463 123.093 25.4214 123.225 25.668C123.357 25.9147 123.546 26.1257 123.778 26.2827L129.82 30.3809C131.005 31.1822 130.755 32.9934 129.398 33.4475Z" fill="url(#paint3_linear_47529_1427)"/>
</g>
<g id="Group_6">
<path id="Vector_6" d="M152.809 55.4983L145.512 55.6095C145.232 55.6138 144.958 55.6861 144.712 55.8201C144.467 55.9541 144.257 56.1458 144.103 56.3787L140.058 62.4559C139.266 63.6463 137.453 63.4113 136.99 62.0579L134.627 55.149C134.537 54.8846 134.383 54.6461 134.18 54.454C133.978 54.2618 133.731 54.1218 133.462 54.046L126.433 52.0764C125.056 51.69 124.719 49.893 125.863 49.0349L131.704 44.6516C131.927 44.4837 132.107 44.2639 132.227 44.0112C132.346 43.7585 132.403 43.4804 132.391 43.201L132.092 35.9044C132.033 34.4723 133.638 33.5998 134.807 34.4221L140.778 38.6225C141.007 38.7834 141.272 38.8862 141.549 38.9222C141.827 38.9582 142.109 38.9262 142.371 38.829L149.215 36.2894C150.555 35.7918 151.883 37.0476 151.462 38.4148L149.315 45.3939C149.233 45.6612 149.217 45.9445 149.268 46.2194C149.32 46.4943 149.437 46.7525 149.611 46.9718L154.141 52.6984C155.022 53.8238 154.239 55.4756 152.809 55.4983Z" fill="url(#paint4_linear_47529_1427)"/>
</g>
</g>
<g id="Group_7">
<path id="Vector_7" d="M91.0593 178.723C126.545 176.913 153.844 146.668 152.034 111.169C150.223 75.6699 119.988 48.3594 84.5027 50.1692C49.0169 51.9791 21.7177 82.224 23.5283 117.723C25.3388 153.222 55.5735 180.533 91.0593 178.723Z" fill="url(#paint5_linear_47529_1427)"/>
<path id="Vector_8" d="M93.9501 174.586C128.256 172.836 154.647 143.597 152.897 109.278C151.147 74.9595 121.917 48.5571 87.6115 50.3068C53.3057 52.0565 26.9143 81.2957 28.6646 115.614C30.415 149.933 59.6443 176.336 93.9501 174.586Z" fill="url(#paint6_linear_47529_1427)"/>
<path id="Vector_9" opacity="0.78" d="M94.8856 166.325C123.921 164.844 146.258 140.096 144.777 111.05C143.295 82.0032 118.556 59.6568 89.5208 61.1377C60.4851 62.6186 38.148 87.366 39.6294 116.413C41.1109 145.459 65.8499 167.806 94.8856 166.325Z" fill="white"/>
<path id="Vector_10" d="M107.286 93.0367C107.74 101.942 101.011 111.924 92.1112 112.378C83.2114 112.832 75.5026 103.589 75.0482 94.6809C74.5939 85.7725 81.491 79.088 90.3902 78.6341C99.2894 78.1802 106.832 84.1315 107.286 93.0367Z" fill="url(#paint7_linear_47529_1427)"/>
<path id="Vector_11" d="M73.8567 147.685L113.205 145.679C115.224 145.576 117.158 144.834 118.727 143.56C120.297 142.286 121.422 140.546 121.939 138.591L123.719 131.863C125.021 126.936 122.233 121.817 117.366 120.315C101.054 115.276 84.5343 116.871 67.8602 123.382C63.1885 125.206 60.8112 130.425 62.369 135.194L64.3061 141.122C64.9569 143.113 66.2448 144.835 67.9709 146.021C69.697 147.207 71.7653 147.792 73.8567 147.685Z" fill="url(#paint8_linear_47529_1427)"/>
</g>
</g>
<defs>
<linearGradient id="paint0_linear_47529_1427" x1="78.6634" y1="-41.8175" x2="91.5473" y2="47.6584" gradientUnits="userSpaceOnUse">
<stop stop-color="#FFDDE3"/>
<stop offset="1" stop-color="#FF718A"/>
</linearGradient>
<linearGradient id="paint1_linear_47529_1427" x1="45.9506" y1="-22.3583" x2="58.1971" y2="59.0865" gradientUnits="userSpaceOnUse">
<stop stop-color="#FFDDE3"/>
<stop offset="1" stop-color="#FF718A"/>
</linearGradient>
<linearGradient id="paint2_linear_47529_1427" x1="23.542" y1="4.05082" x2="34.307" y2="79.0012" gradientUnits="userSpaceOnUse">
<stop stop-color="#FFDDE3"/>
<stop offset="1" stop-color="#FF718A"/>
</linearGradient>
<linearGradient id="paint3_linear_47529_1427" x1="112.185" y1="-22.8883" x2="123.484" y2="54.0572" gradientUnits="userSpaceOnUse">
<stop stop-color="#FFDDE3"/>
<stop offset="1" stop-color="#FF718A"/>
</linearGradient>
<linearGradient id="paint4_linear_47529_1427" x1="136" y1="-5.49994" x2="147.493" y2="72.0011" gradientUnits="userSpaceOnUse">
<stop stop-color="#FFDDE3"/>
<stop offset="1" stop-color="#FF718A"/>
</linearGradient>
<linearGradient id="paint5_linear_47529_1427" x1="71.6983" y1="-122.475" x2="121.928" y2="217.672" gradientUnits="userSpaceOnUse">
<stop stop-color="#FF9DAF"/>
<stop offset="0.932292" stop-color="#DD4862"/>
</linearGradient>
<linearGradient id="paint6_linear_47529_1427" x1="75.2329" y1="-116.597" x2="123.793" y2="212.24" gradientUnits="userSpaceOnUse">
<stop stop-color="#FFDDE3"/>
<stop offset="1" stop-color="#FF718A"/>
</linearGradient>
<linearGradient id="paint7_linear_47529_1427" x1="87.0758" y1="33.3142" x2="128.824" y2="213.193" gradientUnits="userSpaceOnUse">
<stop stop-color="#FF718A"/>
<stop offset="1" stop-color="#E45E76"/>
</linearGradient>
<linearGradient id="paint8_linear_47529_1427" x1="88.3604" y1="78.4414" x2="104.05" y2="208.527" gradientUnits="userSpaceOnUse">
<stop stop-color="#FF718A"/>
<stop offset="1" stop-color="#E45E76"/>
</linearGradient>
</defs>
</svg>
