<svg width="164" height="178" viewBox="0 0 164 178" fill="none" xmlns="http://www.w3.org/2000/svg">
<g id="Frame" clip-path="url(#clip0_47529_1484)">
<g id="Group">
<path id="Vector" d="M160.124 96.2836C156.909 137.195 120.947 167.814 79.799 164.673C38.6513 161.531 6.17175 124.23 9.38649 83.3197C12.6012 42.4099 50.2934 13.3777 91.4411 16.5188C132.589 19.6599 163.339 55.3726 160.124 96.2836Z" fill="url(#paint0_linear_47529_1484)"/>
<path id="Vector_2" d="M154.728 95.2334C151.513 136.144 115.551 166.763 74.403 163.622C33.2553 160.481 0.775753 123.179 3.99049 82.2696C7.20523 41.3597 44.8974 12.3275 86.0451 15.4686C127.193 18.6097 157.943 54.3225 154.728 95.2334Z" fill="url(#paint1_linear_47529_1484)"/>
<g id="Vector_3">
<path d="M146.152 94.8935C143.42 129.661 112.32 155.64 76.6856 152.92C41.0516 150.199 12.8818 118.457 15.6134 83.6954C18.345 48.9339 50.9459 24.3028 86.5787 27.0229C122.211 29.7429 148.884 60.1272 146.152 94.8935Z" fill="#BDD0FB"/>
<path d="M146.152 94.8935C143.42 129.661 112.32 155.64 76.6856 152.92C41.0516 150.199 12.8818 118.457 15.6134 83.6954C18.345 48.9339 50.9459 24.3028 86.5787 27.0229C122.211 29.7429 148.884 60.1272 146.152 94.8935Z" fill="url(#paint2_linear_47529_1484)"/>
</g>
<path id="Vector_4" opacity="0.78" d="M30.7236 82.3967C30.5899 83.3672 30.1698 84.277 29.5163 85.0108C28.8628 85.7447 28.0053 86.2697 27.0524 86.5195C26.0994 86.7692 25.0937 86.7325 24.1624 86.4139C23.2312 86.0954 22.4163 85.5093 21.8208 84.7298C21.2253 83.9504 20.8759 83.0125 20.8168 82.0349C20.7577 81.0573 20.9916 80.0839 21.4889 79.2377C21.9862 78.3915 22.7246 77.7106 23.6106 77.2811C24.4966 76.8516 25.4905 76.6928 26.4666 76.8248C27.1145 76.9123 27.7386 77.1258 28.3031 77.4531C28.8677 77.7805 29.3618 78.2153 29.7571 78.7327C30.1524 79.2501 30.4412 79.8399 30.607 80.4686C30.7729 81.0973 30.8125 81.7524 30.7236 82.3967Z" fill="white"/>
<path id="Vector_5" opacity="0.78" d="M137.568 96.8488C137.435 97.8194 137.015 98.7291 136.361 99.463C135.708 100.197 134.85 100.722 133.897 100.972C132.944 101.221 131.938 101.185 131.007 100.866C130.076 100.548 129.261 99.9615 128.666 99.182C128.07 98.4025 127.721 97.4647 127.662 96.4871C127.602 95.5095 127.836 94.536 128.334 93.6898C128.831 92.8437 129.569 92.1628 130.455 91.7333C131.341 91.3038 132.335 91.145 133.311 91.277C133.959 91.3643 134.583 91.5777 135.148 91.905C135.713 92.2323 136.207 92.6671 136.602 93.1845C136.998 93.702 137.286 94.2919 137.452 94.9206C137.618 95.5494 137.657 96.2046 137.568 96.8488Z" fill="white"/>
<path id="Vector_6" opacity="0.78" d="M66.7283 135.945C67.6802 136.195 68.536 136.719 69.1874 137.453C69.8388 138.186 70.2566 139.095 70.3879 140.065C70.5192 141.036 70.3581 142.023 69.9251 142.903C69.4921 143.783 68.8065 144.516 67.9551 145.009C67.1036 145.502 66.1246 145.733 65.1417 145.674C64.1588 145.614 63.2162 145.266 62.433 144.673C61.6499 144.08 61.0614 143.27 60.742 142.344C60.4225 141.419 60.3865 140.419 60.6384 139.472C60.8057 138.843 61.096 138.253 61.4926 137.736C61.8892 137.218 62.3845 136.783 62.95 136.455C63.5155 136.128 64.1403 135.914 64.7886 135.827C65.4368 135.739 66.096 135.779 66.7283 135.945Z" fill="white"/>
<path id="Vector_7" opacity="0.78" d="M94.2434 32.3934C95.1957 32.6428 96.0519 33.1674 96.7036 33.9009C97.3554 34.6343 97.7735 35.5438 97.905 36.5142C98.0365 37.4845 97.8756 38.4723 97.4426 39.3525C97.0096 40.2328 96.324 40.9659 95.4723 41.4593C94.6207 41.9527 93.6414 42.1842 92.6582 42.1245C91.675 42.0647 90.7321 41.7165 89.9488 41.1238C89.1654 40.5311 88.5767 39.7205 88.2571 38.7945C87.9376 37.8686 87.9015 36.8689 88.1535 35.9218C88.3208 35.2929 88.6111 34.7027 89.0077 34.185C89.4043 33.6673 89.8995 33.2322 90.465 32.9046C91.0305 32.5769 91.6553 32.3631 92.3036 32.2754C92.9519 32.1877 93.6111 32.2278 94.2434 32.3934Z" fill="white"/>
<path id="Vector_8" opacity="0.78" d="M101.824 141.481C102.229 142.785 102.009 143.96 101.334 144.111C100.658 144.262 99.7823 143.318 99.3752 142.013C98.9681 140.709 99.1901 139.534 99.8656 139.384C100.541 139.235 101.419 140.177 101.824 141.481Z" fill="white"/>
<path id="Vector_9" opacity="0.78" d="M66.4223 38.5378C66.8272 39.841 66.6074 41.0165 65.9318 41.1672C65.2561 41.3178 64.3805 40.3732 63.9733 39.0698C63.5661 37.7664 63.7882 36.5899 64.4638 36.4404C65.1393 36.2908 66.0174 37.2335 66.4223 38.5378Z" fill="white"/>
<path id="Vector_10" opacity="0.78" d="M125.847 124.274C126.875 125.18 127.301 126.297 126.799 126.77C126.297 127.243 125.058 126.894 124.03 125.988C123.002 125.083 122.576 123.967 123.078 123.494C123.58 123.021 124.819 123.37 125.847 124.274Z" fill="white"/>
<path id="Vector_11" opacity="0.78" d="M41.7683 54.5575C42.7961 55.4618 43.2226 56.5792 42.7203 57.0522C42.2181 57.5252 40.9789 57.176 39.9511 56.2717C38.9232 55.3674 38.4968 54.25 38.9991 53.7759C39.5014 53.3019 40.7404 53.6532 41.7683 54.5575Z" fill="white"/>
<path id="Vector_12" opacity="0.78" d="M133.084 68.0832C134.366 67.5919 135.561 67.7298 135.751 68.3902C135.942 69.0506 135.057 69.9836 133.775 70.4749C132.493 70.9662 131.298 70.8282 131.107 70.1678C130.917 69.5074 131.802 68.5712 133.084 68.0832Z" fill="white"/>
<path id="Vector_13" opacity="0.78" d="M32.0252 110.072C33.3081 109.581 34.5025 109.719 34.6933 110.378C34.8841 111.038 33.999 111.973 32.7161 112.463C31.4333 112.953 30.2398 112.818 30.0491 112.157C29.8584 111.497 30.743 110.568 32.0252 110.072Z" fill="white"/>
<path id="Vector_14" opacity="0.78" d="M114.192 45.4342C115.032 44.3538 116.125 43.8538 116.633 44.3193C117.141 44.7848 116.871 46.0377 116.031 47.1193C115.19 48.2008 114.097 48.6996 113.589 48.2342C113.082 47.7687 113.351 46.5157 114.192 45.4342Z" fill="white"/>
<path id="Vector_15" opacity="0.78" d="M49.769 133.428C50.6095 132.346 51.7027 131.848 52.2104 132.313C52.7181 132.779 52.4487 134.031 51.6082 135.112C50.7678 136.192 49.6746 136.692 49.1669 136.227C48.6591 135.761 48.9286 134.508 49.769 133.428Z" fill="white"/>
<path id="Vector_16" d="M81.8663 91.9885L53.1762 103.601C53.0491 103.652 52.9108 103.67 52.7749 103.652C52.6389 103.635 52.51 103.582 52.4006 103.5C52.2913 103.418 52.2052 103.308 52.1509 103.183C52.0965 103.058 52.0757 102.92 52.0905 102.785L52.4772 99.2516C52.4934 99.0987 52.4644 98.9445 52.3939 98.8078C52.3234 98.6712 52.2144 98.558 52.0802 98.4823C51.9461 98.4066 51.7926 98.3716 51.6386 98.3815C51.4846 98.3914 51.3368 98.4459 51.2132 98.5382L29.8779 114.53C29.225 115.02 29.649 116.055 30.4585 115.944L56.5985 112.435C56.7403 112.416 56.8744 112.359 56.9865 112.271C57.0987 112.182 57.1847 112.065 57.2354 111.931C57.2861 111.798 57.2996 111.653 57.2745 111.513C57.2495 111.373 57.1867 111.242 57.093 111.134L54.3157 107.947C54.2357 107.855 54.178 107.746 54.1473 107.628C54.1166 107.51 54.1136 107.387 54.1386 107.267C54.1637 107.148 54.216 107.036 54.2916 106.94C54.3671 106.845 54.4638 106.767 54.5742 106.715L82.5042 93.4329C82.6913 93.3439 82.8361 93.1856 82.9077 92.9918C82.9794 92.7979 82.9721 92.584 82.8874 92.3957C82.8034 92.2093 82.6501 92.0627 82.4596 91.9868C82.2692 91.9109 82.0566 91.9115 81.8663 91.9885Z" fill="url(#paint3_linear_47529_1484)"/>
<path id="Vector_17" d="M84.5045 90.5678L86.5992 63.1649C86.6124 63.0264 86.662 62.8936 86.7434 62.7795C86.8247 62.6654 86.9349 62.5739 87.0633 62.5139C87.1917 62.454 87.3339 62.4276 87.4759 62.4374C87.6179 62.4471 87.755 62.4927 87.8737 62.5697L90.9608 64.5732C91.0946 64.6609 91.2517 64.7083 91.4126 64.7096C91.5736 64.711 91.7313 64.6661 91.8664 64.5806C92.0014 64.4951 92.1077 64.3728 92.1722 64.2287C92.2366 64.0847 92.2564 63.9252 92.2291 63.7701L87.6161 37.0665C87.4746 36.25 86.3152 36.1473 86.0297 36.9273L76.7866 62.1083C76.7365 62.2449 76.7252 62.3923 76.7539 62.5348C76.7826 62.6773 76.8502 62.8097 76.9495 62.9178C77.0488 63.0259 77.1762 63.1058 77.3181 63.149C77.4599 63.1922 77.6111 63.1971 77.7555 63.1631L82.0344 62.155C82.1577 62.126 82.2862 62.1251 82.41 62.1527C82.5337 62.1802 82.6493 62.2353 82.7477 62.3136C82.8461 62.392 82.9246 62.4916 82.9772 62.6045C83.0298 62.7174 83.055 62.8406 83.0507 62.9646L82.8622 90.4651C82.8553 90.6753 82.9328 90.8798 83.0782 91.035C83.2235 91.1902 83.4251 91.2838 83.6399 91.2957C83.8525 91.3075 84.0614 91.2382 84.2227 91.1025C84.3839 90.9667 84.485 90.7751 84.5045 90.5678Z" fill="url(#paint4_linear_47529_1484)"/>
<path id="Vector_18" d="M87.9661 92.9319C87.8843 93.9749 87.4933 94.9708 86.8425 95.7937C86.1917 96.6165 85.3102 97.2293 84.3097 97.5546C83.3092 97.8798 82.2345 97.9029 81.2216 97.621C80.2087 97.339 79.3031 96.7646 78.6192 95.9705C77.9354 95.1763 77.5041 94.1981 77.3799 93.1595C77.2557 92.1209 77.4441 91.0686 77.9214 90.1357C78.3986 89.2028 79.1433 88.4312 80.0612 87.9184C80.979 87.4057 82.0289 87.1749 83.0779 87.2552C84.4841 87.3628 85.789 88.0213 86.7056 89.0858C87.6223 90.1503 88.0757 91.5337 87.9661 92.9319Z" fill="url(#paint5_linear_47529_1484)"/>
</g>
</g>
<defs>
<linearGradient id="paint0_linear_47529_1484" x1="155.04" y1="11.6612" x2="49.4388" y2="184.785" gradientUnits="userSpaceOnUse">
<stop stop-color="#EAB93E"/>
<stop offset="1" stop-color="#CC9713"/>
</linearGradient>
<linearGradient id="paint1_linear_47529_1484" x1="150.256" y1="7.79707" x2="46.9878" y2="186.308" gradientUnits="userSpaceOnUse">
<stop stop-color="#FFD057"/>
<stop offset="1" stop-color="#F5B30D"/>
</linearGradient>
<linearGradient id="paint2_linear_47529_1484" x1="226.045" y1="-42.5572" x2="-48.3747" y2="226.937" gradientUnits="userSpaceOnUse">
<stop stop-color="#FFEFC7"/>
<stop offset="1" stop-color="#FFDA7D"/>
</linearGradient>
<linearGradient id="paint3_linear_47529_1484" x1="79.3637" y1="89.3534" x2="65.6991" y2="128.549" gradientUnits="userSpaceOnUse">
<stop stop-color="#FFD057"/>
<stop offset="1" stop-color="#F5B30D"/>
</linearGradient>
<linearGradient id="paint4_linear_47529_1484" x1="93.5607" y1="32.2567" x2="55.2976" y2="50.6108" gradientUnits="userSpaceOnUse">
<stop stop-color="#FFD057"/>
<stop offset="1" stop-color="#F5B30D"/>
</linearGradient>
<linearGradient id="paint5_linear_47529_1484" x1="87.6575" y1="86.7097" x2="80.2625" y2="99.3519" gradientUnits="userSpaceOnUse">
<stop stop-color="#FFD057"/>
<stop offset="1" stop-color="#F5B30D"/>
</linearGradient>
<clipPath id="clip0_47529_1484">
<rect width="163" height="178" fill="white" transform="translate(0.5)"/>
</clipPath>
</defs>
</svg>
