<svg width="40" height="40" viewBox="0 0 40 40" fill="none" xmlns="http://www.w3.org/2000/svg">
<g filter="url(#filter0_d_47616_2109)">
<path d="M20 28C26.6274 28 32 22.6274 32 16C32 9.37258 26.6274 4 20 4C13.3726 4 8 9.37258 8 16C8 22.6274 13.3726 28 20 28Z" fill="#F0F0F0"/>
</g>
<path d="M20 28C26.6274 28 32 22.6274 32 16C32 9.37258 26.6274 4 20 4C13.3726 4 8 9.37258 8 16C8 22.6274 13.3726 28 20 28Z" fill="#F0F0F0"/>
<path d="M32 16.0001C32 11.2425 29.2313 7.1318 25.2174 5.1908V26.8093C29.2313 24.8684 32 20.7576 32 16.0001ZM8 16.0001C8 20.7576 10.7687 24.8684 14.7826 26.8094V5.1908C10.7687 7.1318 8 11.2425 8 16.0001ZM22.087 17.5653L24.1739 16.5218L23.1305 16.0001V14.9566L21.0435 16.0001L22.087 13.9131H21.0435L20 12.3479L18.9565 13.9131H17.913L18.9565 16.0001L16.8695 14.9566V16.0001L15.8261 16.5218L17.913 17.5653L17.3913 18.6088H19.4783V20.174H20.5217V18.6088H22.6087L22.087 17.5653Z" fill="#D80027"/>
<defs>
<filter id="filter0_d_47616_2109" x="0" y="0" width="40" height="40" filterUnits="userSpaceOnUse" color-interpolation-filters="sRGB">
<feFlood flood-opacity="0" result="BackgroundImageFix"/>
<feColorMatrix in="SourceAlpha" type="matrix" values="0 0 0 0 0 0 0 0 0 0 0 0 0 0 0 0 0 0 127 0" result="hardAlpha"/>
<feOffset dy="4"/>
<feGaussianBlur stdDeviation="4"/>
<feComposite in2="hardAlpha" operator="out"/>
<feColorMatrix type="matrix" values="0 0 0 0 0.847059 0 0 0 0 0 0 0 0 0 0.152941 0 0 0 0.16 0"/>
<feBlend mode="normal" in2="BackgroundImageFix" result="effect1_dropShadow_47616_2109"/>
<feBlend mode="normal" in="SourceGraphic" in2="effect1_dropShadow_47616_2109" result="shape"/>
</filter>
</defs>
</svg>
