<svg width="572" height="443" viewBox="0 0 572 443" fill="none" xmlns="http://www.w3.org/2000/svg">
<path d="M115.273 166.173V355.031C115.273 368.929 127.472 380.194 142.522 380.194H459.487C474.537 380.194 486.739 368.929 486.739 355.031V166.173H115.273Z" fill="url(#paint0_linear_46696_9608)"/>
<path d="M394.069 109.94L313.501 61.1665C305.663 56.4222 296.352 56.4222 288.514 61.1665L207.947 109.918L114.886 166.259L207.947 222.44L301.011 278.608L394.072 222.366L487.129 166.259L394.069 109.94Z" fill="url(#paint1_linear_46696_9608)"/>
<g style="mix-blend-mode:soft-light">
<path d="M122.551 372.032C122.425 372.033 122.301 371.998 122.195 371.93C122.089 371.862 122.005 371.765 121.953 371.65C121.901 371.535 121.884 371.407 121.903 371.283C121.922 371.158 121.978 371.042 122.062 370.948L238.131 240.296C238.248 240.175 238.407 240.104 238.575 240.097C238.743 240.091 238.907 240.149 239.033 240.261C239.159 240.373 239.237 240.529 239.25 240.696C239.264 240.864 239.213 241.031 239.106 241.161L123.037 371.813C122.976 371.882 122.901 371.937 122.817 371.975C122.734 372.012 122.643 372.032 122.551 372.032Z" fill="white"/>
<path d="M479.468 372.032C479.376 372.033 479.284 372.013 479.2 371.976C479.115 371.938 479.04 371.883 478.978 371.814L362.912 241.161C362.798 241.032 362.739 240.863 362.749 240.691C362.759 240.518 362.837 240.357 362.966 240.242C363.095 240.128 363.264 240.069 363.437 240.079C363.609 240.089 363.77 240.167 363.885 240.296L479.954 370.949C480.012 371.013 480.056 371.087 480.084 371.169C480.113 371.25 480.125 371.336 480.12 371.422C480.114 371.508 480.092 371.592 480.054 371.669C480.016 371.747 479.963 371.815 479.899 371.872C479.78 371.977 479.626 372.034 479.468 372.032Z" fill="white"/>
</g>
<mask id="mask0_46696_9608" style="mask-type:luminance" maskUnits="userSpaceOnUse" x="130" y="31" width="333" height="248">
<path d="M130.69 175.495L301.242 278.494L462.063 181.582V31.5399H144.082L130.69 175.495Z" fill="white"/>
</mask>
<g mask="url(#mask0_46696_9608)">
<path d="M416.56 74.7837H156.536C151.951 74.7837 148.153 78.7614 148.153 83.3518V294.467H453.855V112.689L416.56 74.7837Z" fill="url(#paint2_linear_46696_9608)"/>
<path d="M453.713 112.689L419.593 112.997C419.169 113 418.75 112.915 418.361 112.746C417.973 112.576 417.624 112.327 417.338 112.015C416.694 111.374 416.63 110.509 416.63 109.604V75.0423L453.713 112.689Z" fill="url(#paint3_linear_46696_9608)"/>
<path d="M368.447 174.091C368.447 182.028 367.181 189.289 364.647 195.873C362.114 202.458 358.533 207.625 353.905 211.375C349.276 215.125 343.905 216.999 337.789 216.996C333.715 216.996 330.108 216.018 326.967 214.062C323.958 212.256 321.591 209.553 320.197 206.332H318.858C312.909 213.444 305.334 216.999 296.133 216.996C286.384 216.996 278.7 214.062 273.079 208.194C267.458 202.326 264.648 194.293 264.65 184.094C264.65 172.463 268.343 163.093 275.728 155.985C283.113 148.878 292.755 145.323 304.654 145.321C309.902 145.363 315.138 145.819 320.314 146.684C326.017 147.594 330.713 148.681 334.401 149.948L332.503 190.378C332.503 198.038 334.596 201.868 338.783 201.868C342.306 201.868 345.115 199.292 347.212 194.14C349.308 188.988 350.355 182.25 350.35 173.925C350.35 165.052 348.504 157.212 344.811 150.404C341.292 143.768 335.867 138.34 329.235 134.819C322.543 131.237 314.899 129.447 306.303 129.447C295.176 129.447 285.508 131.734 277.301 136.309C269.093 140.884 262.8 147.481 258.422 156.099C254.044 164.72 251.854 174.681 251.852 185.984C251.852 201.195 255.915 212.867 264.041 220.999C272.167 229.131 283.942 233.196 299.367 233.194C305.206 233.194 311.624 232.546 318.621 231.251C325.654 229.945 332.564 228.05 339.279 225.586V241.46C327.491 246.476 314.408 248.985 300.029 248.985C279.104 248.985 262.783 243.473 251.067 232.449C239.351 221.425 233.499 206.103 233.509 186.483C233.509 172.869 236.497 160.509 242.473 149.403C248.449 138.297 256.962 129.588 268.014 123.277C279.059 116.965 291.771 113.811 306.149 113.813C318.267 113.813 329.092 116.292 338.623 121.251C348.154 126.21 355.509 133.265 360.687 142.417C365.863 151.573 368.449 162.131 368.447 174.091ZM283.824 184.424C283.824 196.055 288.562 201.87 298.038 201.868C302.994 201.868 306.768 200.123 309.359 196.634C311.95 193.145 313.52 187.454 314.07 179.562L315.144 161.29C312.017 160.653 308.832 160.348 305.642 160.382C298.755 160.382 293.397 162.532 289.569 166.832C285.741 171.132 283.828 176.996 283.83 184.424H283.824Z" fill="url(#paint4_linear_46696_9608)"/>
</g>
<path d="M505.644 260.182V286.222C505.644 288.343 504.352 290.064 502.758 290.064H407.952C406.626 290.064 405.472 291.265 405.152 292.973L403.447 302.04C403.222 303.241 401.967 303.343 401.634 302.182L399.443 294.522C399.016 293.032 397.945 292.059 396.745 292.059H392.671C391.077 292.059 389.784 290.338 389.784 288.217V261.45C389.784 259.341 391.061 257.627 392.646 257.608L502.742 256.349C504.345 256.321 505.644 258.048 505.644 260.182Z" fill="url(#paint5_linear_46696_9608)"/>
<path d="M404.456 285.307C410.878 285.307 416.085 279.961 416.085 273.365C416.085 266.769 410.878 261.423 404.456 261.423C398.033 261.423 392.827 266.769 392.827 273.365C392.827 279.961 398.033 285.307 404.456 285.307Z" fill="#51CFF9"/>
<path d="M408.667 268.525C408.667 270.68 406.932 272.986 404.787 272.986C402.642 272.986 400.903 270.671 400.903 268.525C400.903 266.379 402.642 264.858 404.787 264.858C406.932 264.858 408.667 266.379 408.667 268.525Z" fill="#D8F5FF"/>
<path d="M399.968 281.243H409.446C409.932 281.244 410.406 281.089 410.799 280.803C411.191 280.516 411.483 280.112 411.631 279.649L412.142 278.054C412.323 277.492 412.28 276.881 412.022 276.35C411.764 275.819 411.311 275.408 410.757 275.203C406.898 273.79 402.91 273.972 398.827 275.332C398.276 275.521 397.818 275.912 397.546 276.427C397.273 276.942 397.208 277.542 397.362 278.103L397.756 279.55C397.888 280.036 398.176 280.466 398.576 280.772C398.976 281.078 399.465 281.243 399.968 281.243Z" fill="#D8F5FF"/>
<path d="M496.594 276.478C496.581 277.089 496.326 277.67 495.885 278.093C495.444 278.516 494.854 278.747 494.243 278.734H425.04C424.429 278.747 423.838 278.516 423.397 278.093C422.956 277.67 422.701 277.089 422.688 276.478C422.701 275.867 422.956 275.286 423.397 274.862C423.838 274.439 424.429 274.209 425.04 274.221H494.258C494.869 274.209 495.46 274.439 495.9 274.862C496.341 275.286 496.596 275.867 496.609 276.478H496.594Z" fill="#D8F5FF"/>
<path d="M463.827 283.719C463.827 283.988 463.774 284.255 463.671 284.505C463.568 284.754 463.417 284.98 463.226 285.171C463.036 285.362 462.81 285.513 462.561 285.616C462.312 285.719 462.045 285.772 461.775 285.772H425.495C424.951 285.771 424.43 285.555 424.045 285.17C423.661 284.785 423.445 284.263 423.445 283.719C423.445 283.175 423.661 282.653 424.046 282.269C424.43 281.884 424.951 281.668 425.495 281.668H461.775C462.319 281.668 462.84 281.884 463.225 282.269C463.61 282.653 463.827 283.175 463.827 283.719Z" fill="#D8F5FF"/>
<path d="M496.636 283.719C496.636 284.263 496.42 284.785 496.036 285.17C495.652 285.555 495.13 285.771 494.587 285.772H468.409C467.865 285.771 467.344 285.555 466.959 285.17C466.575 284.785 466.359 284.263 466.359 283.719C466.359 283.175 466.575 282.653 466.96 282.269C467.344 281.884 467.865 281.668 468.409 281.668H494.596C495.139 281.668 495.661 281.884 496.045 282.269C496.429 282.653 496.645 283.175 496.645 283.719H496.636Z" fill="#D8F5FF"/>
<path d="M460.314 262.414H425.378C423.788 262.414 422.498 263.704 422.498 265.296V265.53C422.498 267.121 423.788 268.411 425.378 268.411H460.314C461.905 268.411 463.194 267.121 463.194 265.53V265.296C463.194 263.704 461.905 262.414 460.314 262.414Z" fill="#51CFF9"/>
<path d="M177.974 250.724C177.953 273.617 177.777 352.575 176.408 380.526C176.263 383.485 174.18 385.819 171.648 385.859C159.117 386.062 113.181 386.262 92.7357 384.803C88.4738 384.495 85.1719 380.379 85.1935 375.382C85.3012 351.368 85.8551 283.79 88.7723 252.895C89.1231 249.2 91.6741 246.297 94.8436 245.995C108.516 244.702 154.695 241.82 172.358 243.554C175.546 243.868 177.977 246.983 177.974 250.724Z" fill="url(#paint6_linear_46696_9608)"/>
<path d="M172.232 257.62C172.497 276.093 173.263 337.59 172.088 360.293C171.915 363.612 169.626 366.247 166.78 366.377C155.086 366.918 115.246 367.799 98.1578 365.816C95.0806 365.459 92.7297 362.488 92.6435 358.871C92.1942 340.01 90.9694 282.749 92.1111 260.299C92.2957 256.718 94.7298 253.834 97.7886 253.59C110.442 252.544 152.812 250.324 167.333 251.574C170.072 251.811 172.186 254.422 172.232 257.62Z" fill="url(#paint7_linear_46696_9608)"/>
<path d="M142.303 247.27C142.317 247.584 142.212 247.892 142.009 248.132C141.806 248.373 141.52 248.527 141.208 248.566C138.248 248.68 129.905 249.009 126.176 249.182C125.44 249.215 124.883 248.43 125.04 247.59L125.068 247.445C125.102 247.183 125.22 246.94 125.405 246.751C125.59 246.563 125.832 246.44 126.093 246.401C128.616 246.189 136.226 245.607 141.254 245.93C141.857 245.967 142.319 246.562 142.303 247.27Z" fill="#F2FBFE"/>
<path d="M132.185 338.533C148.398 338.533 161.541 325.383 161.541 309.161C161.541 292.94 148.398 279.79 132.185 279.79C115.972 279.79 102.828 292.94 102.828 309.161C102.828 325.383 115.972 338.533 132.185 338.533Z" fill="#F2FBFE"/>
<path d="M150.245 316.84C150.026 316.066 149.632 315.352 149.093 314.755C148.554 314.159 147.884 313.694 147.137 313.398L145.026 312.56C144.199 312.232 143.287 312.186 142.431 312.428C141.575 312.67 140.823 313.187 140.29 313.9L138.41 316.412C135.456 316.498 132.049 315.396 129.024 313.133C126.184 311.006 124.23 308.266 123.381 305.575C123.375 305.556 123.375 305.535 123.382 305.516C123.388 305.497 123.401 305.481 123.418 305.47C123.433 305.459 123.452 305.453 123.472 305.453C123.491 305.453 123.51 305.459 123.525 305.47L125.221 303.204C125.835 302.385 126.16 301.385 126.145 300.362C126.129 299.338 125.774 298.348 125.135 297.548L123.732 295.784C123.228 295.15 122.586 294.64 121.854 294.293C121.123 293.946 120.321 293.772 119.512 293.784C118.702 293.796 117.906 293.994 117.185 294.362C116.464 294.73 115.837 295.259 115.352 295.907C114.842 296.59 114.464 297.361 114.238 298.183C112.681 303.687 117.113 312.006 125.286 318.13C133.459 324.253 142.678 326.153 147.518 323.114C148.246 322.664 148.884 322.083 149.399 321.399C149.88 320.756 150.207 320.009 150.354 319.218C150.501 318.428 150.463 317.614 150.245 316.84Z" fill="url(#paint8_linear_46696_9608)"/>
<defs>
<linearGradient id="paint0_linear_46696_9608" x1="293.785" y1="89.223" x2="312.72" y2="538.723" gradientUnits="userSpaceOnUse">
<stop stop-color="#FF5674"/>
<stop offset="1" stop-color="#FF7C94"/>
</linearGradient>
<linearGradient id="paint1_linear_46696_9608" x1="293.622" y1="-9.24411" x2="311.934" y2="425.451" gradientUnits="userSpaceOnUse">
<stop stop-color="#C41837"/>
<stop offset="1" stop-color="#F03355"/>
</linearGradient>
<linearGradient id="paint2_linear_46696_9608" x1="299.955" y1="53.2445" x2="300.397" y2="302.053" gradientUnits="userSpaceOnUse">
<stop stop-color="#D8F5FF"/>
<stop offset="1" stop-color="#AEE2F3"/>
</linearGradient>
<linearGradient id="paint3_linear_46696_9608" x1="435.044" y1="71.321" x2="435.153" y2="114.308" gradientUnits="userSpaceOnUse">
<stop stop-color="#51CFF9"/>
<stop offset="1" stop-color="#2DB6E3"/>
</linearGradient>
<linearGradient id="paint4_linear_46696_9608" x1="300.515" y1="100.56" x2="300.894" y2="253.652" gradientUnits="userSpaceOnUse">
<stop stop-color="#51CFF9"/>
<stop offset="1" stop-color="#2DB6E3"/>
</linearGradient>
<linearGradient id="paint5_linear_46696_9608" x1="428" y1="192" x2="450.992" y2="303.312" gradientUnits="userSpaceOnUse">
<stop stop-color="#D8F5FF"/>
<stop offset="1" stop-color="#AEE2F3"/>
</linearGradient>
<linearGradient id="paint6_linear_46696_9608" x1="131.265" y1="228.994" x2="131.881" y2="390.936" gradientUnits="userSpaceOnUse">
<stop stop-color="#51CFF9"/>
<stop offset="1" stop-color="#2DB6E3"/>
</linearGradient>
<linearGradient id="paint7_linear_46696_9608" x1="131.902" y1="239.844" x2="132.365" y2="371.046" gradientUnits="userSpaceOnUse">
<stop stop-color="#D8F5FF"/>
<stop offset="1" stop-color="#AEE2F3"/>
</linearGradient>
<linearGradient id="paint8_linear_46696_9608" x1="132.061" y1="290.768" x2="132.133" y2="325.6" gradientUnits="userSpaceOnUse">
<stop stop-color="#51CFF9"/>
<stop offset="1" stop-color="#2DB6E3"/>
</linearGradient>
</defs>
</svg>
