<svg width="24" height="24" viewBox="0 0 24 24" fill="none" xmlns="http://www.w3.org/2000/svg">
<g id="Group">
<path id="Vector" d="M12 24C18.6274 24 24 18.6274 24 12C24 5.37258 18.6274 0 12 0C5.37258 0 0 5.37258 0 12C0 18.6274 5.37258 24 12 24Z" fill="#F0F0F0"/>
<path id="Vector_2" d="M23.8984 10.4348H13.5653V0.101578C13.0529 0.034875 12.5305 0 12 0C11.4695 0 10.9471 0.034875 10.4348 0.101578V10.4347H0.101578C0.034875 10.9471 0 11.4694 0 12C0 12.5306 0.034875 13.0529 0.101578 13.5652H10.4347V23.8984C11.4738 24.0339 12.5261 24.0339 13.5652 23.8984V13.5653H23.8984C23.9651 13.0529 24 12.5306 24 12C24 11.4694 23.9651 10.9471 23.8984 10.4348Z" fill="#D80027"/>
</g>
</svg>
