<svg width="616" height="296" viewBox="0 0 616 296" fill="none" xmlns="http://www.w3.org/2000/svg">
<g clip-path="url(#clip0_46696_9914)">
<path d="M470.225 164.269C464.317 131.244 435.977 102.436 402.562 99.6816C384.352 98.2014 366.048 103.944 347.913 101.752C332.542 99.8322 318.399 92.3712 308.131 80.7665C293.151 63.7157 288.086 39.4604 272.226 23.2341C250.374 0.852545 212.24 0.505919 185.65 16.9665C159.061 33.4271 142.985 63.1348 135.626 93.5358L135.336 102.783C133.735 134.317 142.03 171.014 160.315 199.12C178.844 227.6 191.024 239.404 224.786 259.837C253.454 277.225 309.592 284.87 343.11 285.676C376.628 286.482 411.054 276.495 436.267 254.366C461.48 232.238 476.142 197.293 470.225 164.269Z" fill="#FF5674"/>
<g opacity="0.8">
<path d="M470.225 164.269C464.317 131.244 435.977 102.436 402.562 99.6816C384.352 98.2014 366.048 103.944 347.913 101.752C332.542 99.8322 318.399 92.3712 308.131 80.7665C293.151 63.7157 288.086 39.4604 272.226 23.2341C250.374 0.852545 212.24 0.505919 185.65 16.9665C159.061 33.4271 142.985 63.1348 135.626 93.5358L135.336 102.783C133.735 134.317 142.03 171.014 160.315 199.12C178.844 227.6 191.024 239.404 224.786 259.837C253.454 277.225 309.592 284.87 343.11 285.676C376.628 286.482 411.054 276.495 436.267 254.366C461.48 232.238 476.142 197.293 470.225 164.269Z" fill="white"/>
</g>
<path d="M503.083 282.186C504.364 273.353 498.247 265.153 489.42 263.871C480.593 262.589 472.399 268.71 471.117 277.543C469.836 286.375 475.953 294.575 484.78 295.857C493.607 297.14 501.801 291.019 503.083 282.186Z" fill="#FF5674"/>
<path opacity="0.8" d="M503.083 282.186C504.364 273.353 498.247 265.153 489.42 263.871C480.593 262.589 472.399 268.71 471.117 277.543C469.836 286.375 475.953 294.575 484.78 295.857C493.607 297.14 501.801 291.019 503.083 282.186Z" fill="white"/>
<path d="M373.734 155.509C374.04 187.774 367.012 212.445 352.65 229.521C338.288 246.596 318.626 255.247 293.666 255.471C268.574 255.715 248.629 247.446 233.83 230.664C219.031 213.881 211.472 189.361 211.154 157.102L210.611 100.365C210.298 68.225 217.327 43.5544 231.695 26.3537C246.063 9.15304 265.79 0.446519 290.876 0.234164C315.843 -0.00941831 335.732 8.31924 350.543 25.2201C365.355 42.121 372.91 66.6386 373.21 98.7728L373.734 155.509ZM331.762 92.8144C331.556 72.4971 328.02 57.4949 321.154 47.8078C314.288 38.1207 304.302 33.3364 291.194 33.4551C278.13 33.58 268.271 38.5547 261.618 48.3793C254.964 58.2038 251.715 73.2715 251.871 93.5826L252.527 162.526C252.72 182.949 256.3 198.036 263.266 207.785C270.231 217.535 280.24 222.347 293.291 222.222C306.343 222.098 316.17 217.123 322.774 207.298C329.378 197.474 332.583 182.294 332.389 161.758L331.762 92.8144Z" fill="#FF5674"/>
<g opacity="0.4">
<path d="M373.734 155.509C374.04 187.774 367.012 212.445 352.65 229.521C338.288 246.596 318.626 255.247 293.666 255.471C268.574 255.715 248.629 247.446 233.83 230.664C219.031 213.881 211.472 189.361 211.154 157.102L210.611 100.365C210.298 68.225 217.327 43.5544 231.695 26.3537C246.063 9.15304 265.79 0.446519 290.876 0.234164C315.843 -0.00941831 335.732 8.31924 350.543 25.2201C365.355 42.121 372.91 66.6386 373.21 98.7728L373.734 155.509ZM331.762 92.8144C331.556 72.4971 328.02 57.4949 321.154 47.8078C314.288 38.1207 304.302 33.3364 291.194 33.4551C278.13 33.58 268.271 38.5547 261.618 48.3793C254.964 58.2038 251.715 73.2715 251.871 93.5826L252.527 162.526C252.72 182.949 256.3 198.036 263.266 207.785C270.231 217.535 280.24 222.347 293.291 222.222C306.343 222.098 316.17 217.123 322.774 207.298C329.378 197.474 332.583 182.294 332.389 161.758L331.762 92.8144Z" fill="#05070A"/>
</g>
<path d="M397.571 155.284C397.884 187.543 390.855 212.214 376.487 229.296C362.119 246.378 342.457 255.028 317.503 255.247C292.411 255.49 272.466 247.218 257.667 230.429C242.868 213.641 235.318 189.114 235.019 156.849L234.476 100.113C234.164 67.9721 241.192 43.3015 255.56 26.1008C269.929 8.90014 289.656 0.190488 314.741 -0.028112C339.708 -0.259203 359.597 8.06946 374.409 24.9579C389.22 41.8463 396.748 66.3763 396.991 98.548L397.571 155.284ZM355.599 92.5896C355.399 72.2785 351.848 57.2888 344.945 47.6204C338.041 37.9521 328.055 33.1679 314.984 33.2678C301.92 33.3989 292.062 38.3737 285.408 48.1919C278.754 58.0102 275.521 73.0811 275.708 93.4047L276.373 162.339C276.573 182.768 280.153 197.858 287.112 207.608C294.072 217.357 304.08 222.169 317.138 222.044C330.189 221.913 340.017 216.939 346.62 207.12C353.224 197.302 356.426 182.119 356.226 161.57L355.599 92.5896Z" fill="#FF5674"/>
<path d="M148.939 167.266L180.238 168.634L178.787 201.827L147.488 200.459L145.082 255.612L103.887 253.813L106.293 198.661L0.0185547 194.014L0.102818 168.719L113.39 5.89282L155.914 7.76654L148.939 167.266ZM41.27 162.582L107.744 165.486L112.126 64.8867L111.124 64.5026L107.379 71.6696L41.27 162.582Z" fill="#FF5674"/>
<g opacity="0.4">
<path d="M148.939 167.266L180.238 168.634L178.787 201.827L147.488 200.459L145.082 255.612L103.887 253.813L106.293 198.661L0.0185547 194.014L0.102818 168.719L113.39 5.89282L155.914 7.76654L148.939 167.266ZM41.27 162.582L107.744 165.486L112.126 64.8867L111.124 64.5026L107.379 71.6696L41.27 162.582Z" fill="#05070A"/>
</g>
<path d="M175.098 168.409L206.398 169.777L204.946 202.97L173.647 201.602L171.241 256.755L130.046 254.956L132.452 199.804L26.1309 195.119L26.2151 169.824L139.521 7.06389L182.055 8.9376L175.098 168.409ZM67.4291 163.725L133.95 166.629L138.332 66.0297L137.33 65.6456L133.585 72.8125L67.4291 163.725Z" fill="#FF5674"/>
<path d="M555.518 167.651L586.695 164.606L589.925 197.667L558.748 200.722L564.112 255.659L523.105 259.678L517.768 204.741L411.821 215.102L408.348 190.06L497.62 12.9099L539.985 8.7596L555.518 167.651ZM448.241 178.153L514.5 171.67L504.707 71.426L503.658 71.1918L500.981 78.8178L448.241 178.153Z" fill="#FF5674"/>
<g opacity="0.4">
<path d="M555.518 167.651L586.695 164.606L589.925 197.667L558.748 200.722L564.112 255.659L523.105 259.678L517.768 204.741L411.821 215.102L408.348 190.06L497.62 12.9099L539.985 8.7596L555.518 167.651ZM448.241 178.153L514.5 171.67L504.707 71.426L503.658 71.1918L500.981 78.8178L448.241 178.153Z" fill="#05070A"/>
</g>
<path d="M581.593 165.102L612.77 162.048L616.009 195.119L584.823 198.183L590.197 253.129L549.18 257.139L543.815 202.202L437.896 212.545L434.441 187.512L523.713 10.3616L566.079 6.21135L581.593 165.102ZM474.326 175.595L540.585 169.14L530.791 68.8965L529.734 68.6529L527.065 76.2789L474.326 175.595Z" fill="#FF5674"/>
</g>
<defs>
<clipPath id="clip0_46696_9914">
<rect width="616" height="296" fill="white"/>
</clipPath>
</defs>
</svg>
