<svg width="228" height="223" viewBox="0 0 228 223" fill="none" xmlns="http://www.w3.org/2000/svg">
<g id="Frame" clip-path="url(#clip0_46797_25089)">
<g id="Group">
<g id="Group_2">
<path id="Vector" d="M94.7416 214.975C38.4264 206.462 -7.33545 153.312 0.978438 94.2342C8.07169 43.8513 52.3201 4.64313 105.383 0.940533C109.225 0.67134 113.108 0.591697 117.031 0.701604C146.629 1.55458 172.933 13.3744 192.385 31.2606C211.746 49.0608 224.324 72.8692 226.611 97.8476C232.717 164.303 164.783 225.564 94.7416 214.975Z" fill="#F7F8FA"/>
<g id="Group_3">
<g id="Group_4">
<g id="Group_5">
<g id="Group_6">
<path id="Vector_2" d="M11.3491 176.489C7.23409 176.734 3.86816 174.069 3.86816 170.547V43.6283C3.86816 40.1065 7.23409 37.3875 11.3491 37.5651L11.9228 37.5898L201.633 51.4946C204.654 51.6253 207.1 48.4682 207.1 51.4636V159.411C207.1 162.405 204.654 164.986 201.633 165.167L12.3288 175.298L11.7281 176.469L11.3491 176.489Z" fill="#BFC8D6"/>
<path id="Vector_3" d="M13.0564 176.489C8.9421 176.734 5.57617 174.069 5.57617 170.547V43.6283C5.57617 40.1065 8.9421 37.3875 13.0564 37.5651L203.343 45.7946C206.364 45.9252 208.81 48.4674 208.81 51.462V159.411C208.81 162.405 206.364 164.986 203.343 165.167L13.0564 176.489Z" fill="white"/>
<g id="Vector_4" style="mix-blend-mode:multiply" opacity="0.3">
<path d="M203.343 48.3361L13.0564 40.5215C10.8569 40.4316 9.06738 41.8826 9.06738 43.763V170.356C9.06738 172.236 10.8561 173.658 13.0564 173.532L203.341 162.621C204.96 162.528 206.27 161.15 206.27 159.544V51.3697C206.272 49.7593 204.962 48.403 203.343 48.3361Z" fill="#D8DEE8"/>
</g>
<path id="Vector_5" d="M13.0562 162.753C12.2002 162.796 11.5029 162.234 11.5029 161.503V43.857C11.5029 43.1251 12.2002 42.558 13.0562 42.5915L203.341 50.1146C203.647 50.1278 203.936 50.2579 204.149 50.4779C204.362 50.698 204.483 50.9913 204.485 51.2973V152.169C204.482 152.476 204.361 152.77 204.149 152.991C203.936 153.213 203.647 153.346 203.341 153.364L13.0562 162.753Z" fill="#D8DEE8"/>
</g>
</g>
<g id="Group_7">
<g id="Vector_6" style="mix-blend-mode:soft-light">
<path d="M23.624 153.158L69.4242 151.25V127.28L23.624 128.388V153.158Z" fill="#F4F7FA"/>
</g>
<g id="Group_8" style="mix-blend-mode:soft-light">
<g id="Group_9" opacity="0.7">
<path id="Vector_7" d="M146.318 111.884L153.277 111.787V94.7016L146.318 94.5232V111.884Z" fill="#F4F7FA"/>
<path id="Vector_8" d="M133.761 112.057L140.854 111.959V86.3215L133.761 86.2793V112.057Z" fill="#F4F7FA"/>
<path id="Vector_9" d="M120.959 112.232L128.191 112.133V73.1462L120.959 72.9343V112.232Z" fill="#F4F7FA"/>
<path id="Vector_10" d="M107.903 112.412L115.279 112.311L115.278 82.943L107.903 82.7742V112.412Z" fill="#F4F7FA"/>
<path id="Vector_11" d="M94.5879 112.596L102.11 112.492V99.2922L94.5879 99.3217V112.596Z" fill="#F4F7FA"/>
<path id="Vector_12" d="M81.0039 112.783L88.678 112.678V81.3407L81.0039 81.269V112.783Z" fill="#F4F7FA"/>
<path id="Vector_13" d="M67.1426 112.974L74.9738 112.866V67.2462L67.1426 67.0925V112.974Z" fill="#F4F7FA"/>
<path id="Vector_14" d="M52.9971 113.169L60.9894 113.058V79.4491L52.9971 79.3655V113.169Z" fill="#F4F7FA"/>
<path id="Vector_15" d="M38.5576 113.368L46.7167 113.255V60.5843L38.5576 60.3892V113.368Z" fill="#F4F7FA"/>
<path id="Vector_16" d="M23.8154 113.571L32.1461 113.456V54.3004L23.8154 54.0654V113.571Z" fill="#F4F7FA"/>
</g>
</g>
<g id="Vector_17" style="mix-blend-mode:soft-light">
<path d="M159.667 147.491L193.895 146.066V142.608L159.667 143.939V147.491Z" fill="#F4F7FA"/>
</g>
<g id="Vector_18" style="mix-blend-mode:soft-light">
<path d="M159.667 101.63L193.895 101.427V97.9692L159.667 98.0776V101.63Z" fill="#F4F7FA"/>
</g>
<g id="Vector_19" style="mix-blend-mode:soft-light">
<path d="M159.667 95.549L193.895 95.5075V92.0503L159.667 91.9961V95.549Z" fill="#F4F7FA"/>
</g>
<g id="Vector_20" style="mix-blend-mode:soft-light">
<path d="M159.667 142.58L165.245 142.369V136.92L159.667 137.108V142.58Z" fill="#F4F7FA"/>
</g>
<g id="Group_10" style="mix-blend-mode:soft-light">
<path id="Vector_21" d="M36.2022 138.069C39.1117 138.179 39.5441 136.497 42.4083 136.334C47.2669 136.058 48.4572 140.778 53.1387 140.706C56.9602 140.648 57.9215 137.461 61.7047 137.814C64.5169 138.077 65.0706 139.945 67.8126 140.213C68.3496 140.264 68.8908 140.249 69.4242 140.17V151.25L23.624 153.161V133.554C26.0789 133.73 27.8707 134.284 29.1544 134.846C32.2419 136.197 33.267 137.959 36.2022 138.069Z" fill="#F4F7FA"/>
</g>
<g id="Vector_22" style="mix-blend-mode:soft-light">
<path d="M23.8154 125.669L153.277 122.783V117.365L23.8154 119.708V125.669Z" fill="#F4F7FA"/>
</g>
<g id="Vector_23" style="mix-blend-mode:soft-light">
<path d="M74.9736 151.019L153.277 147.757V124.878L74.9736 126.751V151.019Z" fill="#F4F7FA"/>
</g>
</g>
</g>
<g id="Group_11">
<path id="Vector_24" d="M185.573 82.4027C190.717 77.268 190.717 68.943 185.573 63.8083C180.43 58.6736 172.091 58.6736 166.947 63.8083C161.803 68.943 161.803 77.268 166.947 82.4027C172.091 87.5374 180.43 87.5374 185.573 82.4027Z" fill="#F4F7FA"/>
<g id="Clip path group">
<mask id="mask0_46797_25089" style="mask-type:luminance" maskUnits="userSpaceOnUse" x="163" y="59" width="27" height="28">
<g id="a">
<path id="Vector_25" d="M185.573 82.4027C190.716 77.268 190.716 68.943 185.573 63.8083C180.429 58.6736 172.09 58.6736 166.946 63.8083C161.802 68.943 161.802 77.268 166.946 82.4027C172.09 87.5374 180.429 87.5374 185.573 82.4027Z" fill="white"/>
</g>
</mask>
<g mask="url(#mask0_46797_25089)">
<g id="Group_12">
<g id="Group_13" opacity="0.74">
<path id="Vector_26" d="M179.875 72.8894C181.88 70.8876 181.88 67.6422 179.875 65.6404C177.869 63.6386 174.618 63.6386 172.613 65.6404C170.608 67.6422 170.608 70.8876 172.613 72.8894C174.618 74.8911 177.869 74.8912 179.875 72.8894Z" fill="url(#paint0_linear_46797_25089)"/>
<path id="Vector_27" d="M166.412 86.3752C166.412 81.1092 170.821 76.5457 176.259 76.5457C181.698 76.5457 186.106 81.1092 186.106 86.3752H166.412Z" fill="url(#paint1_linear_46797_25089)"/>
</g>
</g>
</g>
</g>
</g>
</g>
<g id="Group_14">
<path id="Vector_28" d="M208.53 112.164L203.723 112.075L199.322 111.995L188.073 111.786L183.575 111.706L175.967 111.565L171.383 111.486L147.021 111.032L142.214 110.943L118.264 110.501L116.123 110.461C112.044 110.387 108.618 113.328 108.618 117.025V189.333C108.618 193.033 112.032 195.863 116.117 195.664L118.338 195.553V195.842L118.439 195.531L151.563 193.467L208.466 190.022C211.951 189.853 214.943 188.082 214.943 184.686V118.419C214.944 115.029 212.018 112.227 208.53 112.164ZM192.221 115.675C192.559 115.68 192.897 115.714 193.23 115.778C194.083 115.933 194.889 116.278 195.59 116.787C196.291 117.297 196.868 117.957 197.278 118.72C197.692 119.492 197.908 120.355 197.907 121.231C197.909 122.182 197.651 123.116 197.163 123.932C196.74 124.634 196.169 125.235 195.489 125.693C194.809 126.151 194.037 126.456 193.227 126.584C192.894 126.64 192.558 126.667 192.221 126.664C189.055 126.644 186.476 124.158 186.476 121.108C186.476 118.058 189.055 115.625 192.221 115.675ZM164.013 115.243C164.367 115.249 164.72 115.283 165.068 115.347C166.908 115.683 168.452 116.805 169.292 118.321C169.739 119.119 169.973 120.018 169.973 120.932C169.973 121.894 169.711 122.837 169.214 123.661C168.36 125.095 166.85 126.13 165.066 126.414C164.719 126.47 164.367 126.497 164.016 126.494C160.701 126.474 157.999 123.927 157.999 120.805C157.999 117.682 160.698 115.189 164.013 115.243ZM134.434 114.79C134.807 114.795 135.179 114.832 135.546 114.899C137.493 115.246 139.123 116.412 139.994 117.988C140.447 118.79 140.685 119.695 140.687 120.616C140.688 121.62 140.403 122.604 139.865 123.452C138.968 124.893 137.401 125.934 135.546 126.227C135.179 126.288 134.807 126.317 134.434 126.314C130.955 126.29 128.117 123.685 128.117 120.481C128.117 117.277 130.955 114.733 134.434 114.788V114.79Z" fill="url(#paint2_linear_46797_25089)"/>
<path id="Vector_29" d="M210.4 112.198L203.668 112.072L199.294 111.993L188.059 111.786L183.569 111.7L175.964 111.56L171.382 111.48L147.021 111.022L142.213 110.933L129.859 110.703L124.913 110.611L118.53 110.494C118.441 110.494 118.352 110.494 118.263 110.494C116.668 110.511 115.175 110.972 113.988 111.788L113.961 111.806C112.403 112.885 111.334 114.503 111.147 116.383C111.136 116.513 110.987 116.645 110.982 116.776C110.982 116.842 110.839 116.908 110.839 116.974V133.601L126.734 133.159L214.66 130.691L216.608 130.639V118.374C216.609 114.986 213.874 112.262 210.4 112.198ZM199.901 121.254C199.901 121.583 199.869 121.912 199.806 122.236C199.327 124.779 197.02 126.696 194.231 126.676C193.893 126.674 193.556 126.643 193.224 126.584C190.547 126.113 188.506 123.846 188.506 121.13C188.506 118.414 190.547 116.192 193.227 115.777C193.559 115.723 193.895 115.699 194.231 115.706C195.729 115.723 197.163 116.315 198.236 117.359C198.76 117.864 199.178 118.469 199.464 119.138C199.75 119.807 199.898 120.526 199.901 121.254ZM172.057 120.956C172.058 121.273 172.029 121.59 171.971 121.903C171.493 124.531 169.058 126.522 166.117 126.506C165.761 126.504 165.407 126.472 165.057 126.411C163.012 126.053 161.321 124.724 160.559 122.95C160.18 122.08 160.041 121.124 160.156 120.182C160.271 119.239 160.637 118.345 161.215 117.592C162.157 116.373 163.536 115.567 165.062 115.344C165.411 115.291 165.764 115.267 166.117 115.272C167.661 115.29 169.144 115.881 170.275 116.931C171.382 117.962 172.063 119.388 172.063 120.956H172.057ZM142.872 120.643C142.873 120.991 142.838 121.337 142.768 121.678C142.243 124.341 139.704 126.345 136.642 126.328C136.273 126.326 135.904 126.294 135.54 126.231C132.593 125.737 130.345 123.357 130.345 120.51C130.345 117.663 132.593 115.333 135.54 114.899C135.905 114.842 136.273 114.817 136.642 114.824C138.273 114.839 139.84 115.458 141.04 116.56C142.179 117.608 142.878 119.056 142.878 120.643H142.872Z" fill="url(#paint3_linear_46797_25089)"/>
<path id="Vector_30" d="M216.609 130.155V184.619C216.613 184.933 216.591 185.247 216.545 185.557C216.088 188.519 213.504 190.898 210.353 191.053L151.602 193.92L118.438 195.689L118.381 195.842H118.336C114.661 195.842 111.563 193.525 111.057 190.338C111.006 190.02 110.84 189.542 110.84 189.21V129.824L125.766 129.87L214.66 130.148L216.609 130.155Z" fill="white"/>
<g id="Group_15">
<path id="Vector_31" d="M180.062 139.642C180.066 139.449 180.031 139.257 179.959 139.078C179.888 138.899 179.78 138.736 179.644 138.599C179.507 138.463 179.344 138.355 179.165 138.283C178.985 138.211 178.793 138.176 178.6 138.18L169.537 138.218C168.67 138.218 167.588 138.895 167.588 139.713V147.984C167.588 148.804 168.711 149.452 169.582 149.441L178.396 149.325C179.249 149.314 180.071 148.644 180.071 147.832L180.062 139.642Z" fill="#BFC8D6"/>
<path id="Vector_32" d="M195.8 139.565C195.8 138.764 195.103 138.12 194.27 138.123L185.851 138.156C185.656 138.154 185.463 138.191 185.282 138.264C185.102 138.337 184.937 138.446 184.799 138.583C184.661 138.72 184.551 138.883 184.476 139.063C184.401 139.242 184.363 139.435 184.363 139.63V147.791C184.361 147.983 184.398 148.175 184.472 148.353C184.546 148.531 184.655 148.692 184.793 148.827C184.931 148.961 185.095 149.067 185.275 149.137C185.455 149.206 185.647 149.239 185.84 149.232L194.297 149.121C195.129 149.11 195.8 148.449 195.8 147.649V139.565Z" fill="#BFC8D6"/>
<path id="Vector_33" d="M211.435 139.492C211.435 138.701 210.717 138.065 209.906 138.068L201.616 138.094C200.794 138.094 200.074 138.744 200.074 139.541V147.594C200.074 148.39 200.763 149.034 201.585 149.028L209.896 148.922C210.706 148.911 211.435 148.263 211.435 147.473V139.492Z" fill="#BFC8D6"/>
<path id="Vector_34" d="M180.061 154.622C180.061 153.81 179.452 153.164 178.598 153.178L169.535 153.325C168.668 153.339 167.586 154.022 167.586 154.838V163.109C167.586 163.929 168.709 164.567 169.58 164.543L178.394 164.319C179.247 164.297 180.069 163.618 180.069 162.806L180.061 154.622Z" fill="#BFC8D6"/>
<path id="Vector_35" d="M195.8 154.348C195.8 153.547 195.103 152.91 194.271 152.924L185.851 153.062C185.456 153.064 185.078 153.222 184.799 153.501C184.52 153.78 184.364 154.159 184.363 154.553V162.714C184.361 162.906 184.397 163.097 184.471 163.274C184.545 163.451 184.655 163.611 184.793 163.745C184.932 163.878 185.096 163.982 185.276 164.049C185.456 164.117 185.648 164.147 185.84 164.137L194.297 163.921C195.129 163.901 195.8 163.233 195.8 162.431V154.348Z" fill="url(#paint4_linear_46797_25089)"/>
<path id="Vector_36" d="M211.435 154.082C211.435 153.292 210.717 152.663 209.906 152.676L201.616 152.806C200.794 152.819 200.074 153.473 200.074 154.271V162.324C200.074 163.12 200.763 163.757 201.585 163.734L209.896 163.527C210.706 163.506 211.435 162.85 211.435 162.059V154.082Z" fill="#BFC8D6"/>
<path id="Vector_37" d="M130.253 155.495C130.253 154.649 129.438 153.973 128.511 153.988L119.152 154.132C118.209 154.147 117.514 154.844 117.514 155.698V164.316C117.514 165.17 118.176 165.849 119.118 165.829L128.562 165.595C129.488 165.572 130.253 164.873 130.253 164.028V155.495Z" fill="#BFC8D6"/>
<path id="Vector_38" d="M147.296 155.188C147.296 154.354 146.639 153.691 145.738 153.705L136.438 153.855C135.521 153.869 134.647 154.566 134.647 155.408V163.905C134.647 164.747 135.559 165.409 136.474 165.385L145.655 165.152C146.555 165.129 147.296 164.435 147.296 163.6V155.188Z" fill="#BFC8D6"/>
<path id="Vector_39" d="M163.735 154.921C163.735 154.098 163.069 153.436 162.191 153.45L153.028 153.594C152.136 153.608 151.174 154.293 151.174 155.123V163.507C151.174 164.337 152.158 164.988 153.05 164.966L162.065 164.744C162.943 164.723 163.741 164.043 163.741 163.221L163.735 154.921Z" fill="#BFC8D6"/>
<path id="Vector_40" d="M180.061 169.603C180.061 168.791 179.452 168.152 178.598 168.177L169.535 168.433C168.668 168.457 167.586 169.149 167.586 169.97V178.241C167.586 179.06 168.709 179.689 169.58 179.655L178.394 179.323C179.247 179.291 180.069 178.606 180.069 177.792L180.061 169.603Z" fill="#BFC8D6"/>
<path id="Vector_41" d="M195.8 169.137C195.8 168.336 195.103 167.704 194.271 167.731L185.851 167.974C185.455 167.981 185.077 168.143 184.799 168.425C184.521 168.707 184.364 169.087 184.363 169.483V177.643C184.36 177.835 184.397 178.024 184.471 178.201C184.545 178.378 184.654 178.537 184.793 178.669C184.932 178.801 185.097 178.903 185.277 178.968C185.457 179.034 185.649 179.061 185.84 179.049L194.297 178.73C195.129 178.698 195.8 178.023 195.8 177.223V169.137Z" fill="#BFC8D6"/>
<path id="Vector_42" d="M130.253 171.097C130.253 170.252 129.438 169.583 128.511 169.612L119.152 169.873C118.209 169.9 117.514 170.607 117.514 171.461V180.079C117.514 180.932 118.176 181.602 119.118 181.567L128.562 181.215C129.488 181.18 130.253 180.471 130.253 179.626V171.097Z" fill="#BFC8D6"/>
<path id="Vector_43" d="M147.296 170.577C147.296 169.744 146.639 169.089 145.738 169.114L136.438 169.379C135.521 169.405 134.647 170.111 134.647 170.953V179.452C134.647 180.294 135.559 180.945 136.474 180.91L145.655 180.563C146.555 180.529 147.296 179.825 147.296 178.992V170.577Z" fill="#BFC8D6"/>
<path id="Vector_44" d="M163.735 170.105C163.735 169.282 163.069 168.628 162.191 168.653L153.028 168.909C152.136 168.935 151.174 169.626 151.174 170.46V178.846C151.174 179.676 152.158 180.317 153.05 180.279L162.065 179.947C162.943 179.914 163.741 179.226 163.741 178.403L163.735 170.105Z" fill="#BFC8D6"/>
</g>
<path id="Vector_45" d="M136.064 99.3806C130.226 99.2214 125.386 103.912 124.917 110.615L129.863 110.707C130.262 106.702 132.948 103.687 136.068 103.763C139.434 103.842 142.263 107.555 142.263 111.886C142.263 116.217 139.434 119.839 136.068 119.8C134.313 119.78 132.696 118.765 131.544 117.179C130.877 118.082 129.725 120.152 130.815 122.656C132.395 123.63 134.211 124.154 136.068 124.174C142.151 124.221 147.056 118.759 147.056 111.971C147.056 105.184 142.147 99.5535 136.064 99.3806Z" fill="white"/>
<path id="Vector_46" d="M165.516 100.183C159.951 100.029 155.336 104.613 154.89 111.159L159.597 111.247C159.981 107.336 162.539 104.39 165.512 104.462C168.722 104.542 171.421 108.163 171.421 112.394C171.421 116.626 168.722 120.162 165.512 120.125C163.837 120.106 162.298 119.112 161.2 117.567C160.562 118.45 159.466 120.47 160.505 122.915C162.004 123.863 163.738 124.376 165.512 124.397C171.314 124.442 175.993 119.103 175.993 112.476C175.993 105.849 171.318 100.344 165.516 100.183Z" fill="white"/>
<path id="Vector_47" d="M193.702 100.981C188.395 100.833 183.996 105.312 183.57 111.704L188.062 111.783C188.428 107.964 190.867 105.086 193.703 105.155C196.764 105.23 199.339 108.766 199.339 112.899C199.339 117.032 196.764 120.487 193.703 120.452C192.108 120.433 190.637 119.463 189.591 117.955C188.983 118.817 187.937 120.79 188.928 123.178C190.35 124.101 192.006 124.602 193.703 124.623C199.237 124.666 203.7 119.451 203.7 112.977C203.7 106.503 199.236 101.134 193.702 100.981Z" fill="white"/>
</g>
<g id="Group_16">
<path id="Vector_48" d="M216.509 191.058C216.547 208.237 207.401 222.256 191.11 222.717C190.859 222.724 186.702 222.717 186.448 222.717C169.807 222.758 156.286 208.649 156.247 191.205C156.208 173.761 169.668 159.587 186.308 159.546C186.698 159.546 190.35 159.581 190.736 159.596C206.842 160.197 216.472 174.02 216.509 191.058Z" fill="url(#paint5_linear_46797_25089)"/>
<path id="Vector_49" d="M192.131 223.171C208.771 223.171 222.261 209.03 222.261 191.586C222.261 174.141 208.771 160 192.131 160C175.49 160 162 174.141 162 191.586C162 209.03 175.49 223.171 192.131 223.171Z" fill="url(#paint6_linear_46797_25089)"/>
<g id="Vector_50" style="mix-blend-mode:multiply" opacity="0.3">
<path d="M192.012 222.204C208.233 222.204 221.383 208.419 221.383 191.414C221.383 174.41 208.233 160.625 192.012 160.625C175.79 160.625 162.64 174.41 162.64 191.414C162.64 208.419 175.79 222.204 192.012 222.204Z" fill="url(#paint7_linear_46797_25089)"/>
</g>
<path id="Vector_51" d="M192.012 221.275C207.744 221.275 220.497 207.906 220.497 191.414C220.497 174.923 207.744 161.554 192.012 161.554C176.28 161.554 163.527 174.923 163.527 191.414C163.527 207.906 176.28 221.275 192.012 221.275Z" fill="url(#paint8_linear_46797_25089)"/>
<path id="Vector_52" d="M191.402 220.636C206.798 220.636 219.278 207.553 219.278 191.414C219.278 175.276 206.798 162.193 191.402 162.193C176.007 162.193 163.526 175.276 163.526 191.414C163.526 207.553 176.007 220.636 191.402 220.636Z" fill="url(#paint9_linear_46797_25089)"/>
<path id="Vector_53" d="M194.346 190.577L215.58 198.797C216.289 196.411 216.647 193.934 216.644 191.445C216.644 178.257 206.767 167.489 194.346 166.825V190.577Z" fill="url(#paint10_linear_46797_25089)"/>
<path id="Vector_54" d="M191.324 193.73C192.304 193.73 193.097 192.898 193.097 191.871C193.097 190.845 192.304 190.013 191.324 190.013C190.345 190.013 189.552 190.845 189.552 191.871C189.552 192.898 190.345 193.73 191.324 193.73Z" fill="url(#paint11_linear_46797_25089)"/>
<path id="Vector_55" d="M191.324 177.065C190.706 177.065 190.207 177.591 190.207 178.24V190.764C190.207 191.413 190.709 191.938 191.324 191.938C191.939 191.938 192.441 191.413 192.441 190.764V178.241C192.444 177.591 191.942 177.065 191.324 177.065Z" fill="url(#paint12_linear_46797_25089)"/>
<path id="Vector_56" d="M191.205 192.149C191.15 192.082 191.081 192.027 191.003 191.988C190.926 191.949 190.841 191.926 190.754 191.921C190.668 191.916 190.581 191.929 190.499 191.959C190.418 191.989 190.343 192.035 190.28 192.095L175.193 206.563C175.063 206.688 174.986 206.858 174.977 207.038C174.967 207.218 175.027 207.395 175.143 207.533C175.198 207.599 175.267 207.654 175.345 207.693C175.422 207.732 175.507 207.755 175.594 207.759C175.68 207.764 175.767 207.751 175.849 207.722C175.93 207.692 176.005 207.645 176.067 207.585L191.151 193.118C191.281 192.994 191.359 192.824 191.37 192.644C191.38 192.464 191.321 192.287 191.205 192.149Z" fill="url(#paint13_linear_46797_25089)"/>
</g>
<g id="Group_17">
<path id="Vector_57" d="M59.5844 42.2211C61.6236 43.2564 64.1862 42.3055 65.3071 40.101C66.428 37.8964 65.6836 35.2722 63.6445 34.2384C63.5383 34.1843 63.4306 34.1397 63.3253 34.0967C63.7004 32.8927 63.9865 31.6629 64.1814 30.4172C64.2979 30.4172 64.4151 30.4172 64.5348 30.4044C66.8612 30.1974 68.7081 28.0629 68.6594 25.637C68.6108 23.2111 66.6849 21.4159 64.3585 21.6198C64.2364 21.6302 64.1192 21.6493 63.9979 21.6708C63.7559 20.4761 63.422 19.3019 62.999 18.1586C63.1059 18.0964 63.2128 18.0319 63.3182 17.9586C65.3127 16.5665 65.9453 13.8172 64.7398 11.8214C63.5344 9.82552 60.9431 9.33333 58.9526 10.7255C58.8505 10.7972 58.7547 10.8744 58.6598 10.9525C57.8682 10.0798 57.0046 9.27495 56.0781 8.54646C56.1435 8.43973 56.2074 8.33062 56.2656 8.21673C57.3873 6.01222 58.8521 3.60382 56.7969 2.60271C52.042 0.285102 50.0013 2.26901 48.8804 4.47352C48.8221 4.58741 48.7726 4.70369 48.7208 4.81917C47.5851 4.50233 46.4247 4.28121 45.2519 4.15813C45.2591 4.03628 45.2647 3.91284 45.2623 3.78859C45.2137 1.36267 45.9349 0.0501565 43.5989 0.00476003C38.5065 -0.09559 36.7905 2.11131 36.8391 4.53962C36.8391 4.66626 36.8519 4.7905 36.8647 4.91315C35.6899 5.24892 34.543 5.67495 33.4341 6.18744C33.3807 6.07912 33.3256 5.9716 33.2634 5.86886C32.0571 3.87142 29.4667 3.38082 27.4753 4.77298C25.484 6.16513 24.849 8.91441 26.0545 10.9111C26.1159 11.013 26.1837 11.1086 26.2523 11.2033C25.359 12.0953 24.5324 13.0515 23.7791 14.0641C23.6802 14.0028 23.5805 13.9423 23.4744 13.8889C21.4352 12.8535 18.8734 13.8045 17.7517 16.0082C16.63 18.2119 17.3752 20.8377 19.4144 21.8715C19.5205 21.9257 19.6282 21.9703 19.7335 22.0133C19.3589 23.2171 19.0728 24.4466 18.8774 25.692C18.761 25.692 18.6437 25.692 18.524 25.7047C16.1976 25.9126 14.3507 28.0462 14.3994 30.4729C14.448 32.8996 16.3739 34.694 18.7011 34.4901C18.8224 34.4798 18.9405 34.4606 19.0609 34.4391C19.3017 35.634 19.6345 36.8085 20.0566 37.9522C19.9497 38.0151 19.8436 38.0796 19.7375 38.1521C17.743 39.5443 17.1103 42.2935 18.3158 44.2902C19.5213 46.2868 23.5127 47.2155 25.5032 45.8233C25.6053 45.7516 24.3017 45.2371 24.3966 45.1591C25.1878 46.0317 26.0511 46.8363 26.9775 47.5643C26.9121 47.6718 26.8483 47.7809 26.79 47.8948C25.6731 50.0993 26.4135 52.7243 28.4526 53.7581C30.4918 54.7919 33.0544 53.8425 34.1753 51.638C34.2335 51.5241 34.2838 51.4079 34.3348 51.2916C35.4704 51.6092 36.6308 51.8303 37.8037 51.9526C37.7965 52.0753 37.7909 52.1979 37.7933 52.3229C37.842 54.7489 39.7679 56.544 42.0942 56.3401C44.4206 56.1362 46.2675 53.9986 46.2189 51.5727C46.2189 51.4461 46.2061 51.3218 46.1934 51.1992C47.3681 50.8634 48.515 50.4374 49.6239 49.9249C49.6773 50.0332 49.7324 50.1407 49.7954 50.2435C51.0009 52.2401 53.5914 52.7315 55.5827 51.3386C57.574 49.9456 58.2098 47.1971 57.0036 45.2013C56.9421 45.0993 56.8743 45.003 56.8057 44.909C57.699 44.017 58.5256 43.0609 59.2789 42.0482C59.3786 42.1072 59.4783 42.1677 59.5844 42.2211ZM34.1609 42.5396C26.7565 38.7861 24.0536 29.2552 28.1247 21.2519C32.1959 13.2486 41.4983 9.80163 48.9027 13.5544C56.3071 17.3072 59.01 26.8396 54.9412 34.8461C50.8725 42.8526 41.5653 46.2964 34.1609 42.5436V42.5396Z" fill="url(#paint14_linear_46797_25089)"/>
<path id="Vector_58" d="M64.5326 30.4044C66.8589 30.1974 68.7059 28.0629 68.6572 25.637C68.6085 23.2111 66.6826 21.4159 64.3562 21.6198C64.2342 21.6302 64.1169 21.6493 63.9956 21.6708C63.7545 20.4762 63.4213 19.302 62.9992 18.1586C63.1061 18.0964 63.213 18.0319 63.3183 17.9586C65.3128 16.5665 67.7716 13.2024 66.3675 11.3395C63.7012 7.80259 60.9425 9.33333 58.9527 10.7255C58.8506 10.7972 58.7549 10.8744 58.6599 10.9525C57.8683 10.0798 57.0047 9.27495 56.0783 8.54646C56.1437 8.43974 56.2075 8.33062 56.2657 8.21673C56.5556 7.65847 56.7283 7.047 56.7732 6.41978C56.818 5.79256 56.7341 5.16281 56.5266 4.56909C54.6034 7.94754 52.7091 11.3411 50.8439 14.7498C56.7476 19.0705 58.6312 27.5867 54.939 34.8461C51.81 40.9985 45.5904 44.4526 39.5175 44.0202C39.2462 44.7218 38.9806 45.4267 38.6902 46.1212C37.9027 48.0063 37.0084 49.8524 36.1133 51.6962C36.6765 51.8024 37.2419 51.8852 37.8094 51.9446C37.8022 52.0673 37.7966 52.1899 37.799 52.315C37.8477 54.7409 39.3228 56.8021 43.5432 56.5783C45.876 56.4548 46.2765 53.9907 46.2278 51.5608C46.2278 51.4341 46.215 51.3099 46.2023 51.1872C47.377 50.8515 48.524 50.4254 49.6328 49.913C49.6863 50.0213 49.7413 50.128 49.8043 50.2315C51.0098 52.229 55.1919 53.0772 57.1824 51.685C59.1729 50.2929 58.2196 47.1868 57.0125 45.1893C56.951 45.0874 56.8832 44.991 56.8146 44.897C57.708 44.0051 58.5346 43.0489 59.2878 42.0363C59.3867 42.0976 59.4865 42.1581 59.5926 42.2115C61.6318 43.2469 64.1943 42.2959 65.3152 40.0914C66.4361 37.8869 65.6918 35.2619 63.6526 34.2289C63.5465 34.1747 63.4388 34.1301 63.3335 34.0871C63.7084 32.8834 63.9946 31.6539 64.1895 30.4084C64.2956 30.4172 64.4129 30.4156 64.5326 30.4044Z" fill="url(#paint15_linear_46797_25089)"/>
<path id="Vector_59" d="M61.7774 42.4705C63.8165 43.5058 66.3791 42.5549 67.5 40.3504C68.6209 38.1458 67.8774 35.5208 65.8374 34.4871C65.7321 34.4337 65.6244 34.3891 65.5183 34.3453C65.8933 33.1416 66.1794 31.9121 66.3743 30.6666C66.4916 30.6666 66.6089 30.6666 66.7277 30.6538C69.0549 30.4468 70.901 28.3123 70.8524 25.8864C70.8037 23.4605 68.8778 21.6653 66.5514 21.8684C66.4294 21.8796 66.3121 21.8987 66.1916 21.9194C65.9505 20.7245 65.6174 19.55 65.1952 18.4064C65.3021 18.3442 65.409 18.2797 65.5143 18.2065C67.5088 16.8143 68.1414 14.065 66.936 12.0692C65.7305 10.0733 63.1392 9.58114 61.1487 10.9733C61.0466 11.045 60.9509 11.1214 60.8559 11.2003C60.0645 10.3274 59.2009 9.52255 58.2742 8.79427C58.3396 8.68675 58.4043 8.57844 58.4625 8.46375C59.5834 6.25924 58.8391 3.63421 56.7999 2.60124C54.7607 1.56827 52.1982 2.51602 51.0773 4.72054C51.019 4.83522 50.9688 4.9507 50.9177 5.06698C49.782 4.75014 48.6216 4.52902 47.4489 4.40595C47.456 4.2833 47.4616 4.16065 47.4592 4.0364C47.4106 1.61048 45.4847 -0.18865 43.1575 0.0184219C40.8303 0.225493 38.9842 2.35992 39.0329 4.78584C39.0329 4.91327 39.0464 5.03672 39.0592 5.16016C37.8845 5.4961 36.7376 5.92213 35.6286 6.43445C35.576 6.32613 35.5209 6.21862 35.4579 6.11588C34.2524 4.11843 31.6612 3.62784 29.6707 5.01999C27.6801 6.41215 27.0435 9.15903 28.249 11.1501C28.3104 11.2528 28.3782 11.3484 28.4468 11.4432C27.5537 12.3354 26.7271 13.2915 25.9736 14.304C25.8755 14.2418 25.775 14.1821 25.6697 14.128C23.6305 13.0926 21.068 14.0435 19.9471 16.248C18.8261 18.4526 19.5697 21.0776 21.6097 22.1113C21.715 22.1647 21.8227 22.2101 21.9288 22.2531C21.5537 23.4568 21.2676 24.6863 21.0727 25.9318C20.9555 25.9318 20.8382 25.9318 20.7193 25.9446C18.3921 26.1516 16.546 28.2861 16.5947 30.712C16.6434 33.1379 18.5693 34.937 20.8956 34.73C21.0169 34.7188 21.135 34.6997 21.2554 34.679C21.4965 35.8739 21.8297 37.0484 22.2519 38.192C22.1442 38.255 22.0381 38.3195 21.9328 38.3919C19.9383 39.7841 19.3056 42.5334 20.5111 44.5292C21.7166 46.5251 24.3078 47.0173 26.2983 45.6251C26.4005 45.5534 26.4962 45.477 26.5911 45.3989C27.3824 46.2717 28.246 47.0763 29.1728 47.8041C29.1074 47.9116 29.0428 48.0208 28.9845 48.1347C27.8676 50.3392 28.608 52.9642 30.6472 53.998C32.6863 55.0317 35.2489 54.0824 36.3698 51.8779C36.428 51.764 36.4783 51.6477 36.5294 51.5314C37.6651 51.8483 38.8254 52.0694 39.9982 52.1925C39.991 52.3151 39.9854 52.4378 39.9878 52.562C40.0365 54.9879 41.9624 56.7831 44.2896 56.58C46.6168 56.3769 48.4629 54.2385 48.4142 51.8126C48.4142 51.6859 48.4006 51.5617 48.3879 51.4382C49.5626 51.1023 50.7095 50.6763 51.8184 50.1639C51.8711 50.2723 51.9261 50.3798 51.9891 50.4825C53.1946 52.48 55.7859 52.9706 57.7764 51.5784C59.7669 50.1862 60.4036 47.437 59.1981 45.4411C59.1358 45.3384 59.0688 45.2428 59.0002 45.148C59.8931 44.2557 60.7197 43.2996 61.4734 42.2873C61.5715 42.3566 61.6721 42.4171 61.7774 42.4705ZM36.3522 42.7922C28.9494 39.0394 26.2473 29.5086 30.3177 21.5037C34.3881 13.4988 43.692 10.055 51.0956 13.8078C58.4992 17.5606 61.203 27.0914 57.1326 35.0955C53.0622 43.0996 43.759 46.545 36.3522 42.7922Z" fill="url(#paint16_linear_46797_25089)"/>
</g>
<g id="Group_18">
<path id="Vector_60" d="M100.903 59.0663C102.389 59.8198 104.254 59.1277 105.073 57.5213C105.892 55.9149 105.347 54.0018 103.861 53.2484C103.781 53.2094 103.702 53.1768 103.627 53.1457C103.901 52.2682 104.109 51.372 104.251 50.4641C104.336 50.4641 104.422 50.4641 104.508 50.4546C106.204 50.304 107.55 48.7486 107.514 46.9805C107.478 45.2125 106.078 43.9015 104.38 44.0529C104.291 44.0608 104.204 44.0744 104.118 44.0895C103.942 43.2189 103.699 42.3632 103.392 41.5298C103.472 41.4836 103.552 41.4366 103.623 41.384C105.074 40.3694 105.538 38.3664 104.661 36.9113C103.783 35.4562 101.894 35.0978 100.443 36.1149C100.368 36.1666 100.299 36.2232 100.23 36.2797C99.6527 35.6441 99.0234 35.058 98.3483 34.5276C98.3962 34.4479 98.4433 34.3683 98.4855 34.2887C99.3025 32.6823 100.37 30.9269 98.8725 30.1974C95.4068 28.5082 93.9205 29.9537 93.1028 31.5609C93.0605 31.6405 93.023 31.7281 92.9895 31.8133C92.1617 31.5834 91.316 31.4235 90.4613 31.3355C90.4668 31.2455 90.4708 31.1563 90.4684 31.0655C90.4333 29.2982 90.9591 28.3409 89.2566 28.3083C85.5452 28.2358 84.2927 29.8446 84.3286 31.6119C84.3286 31.7042 84.3381 31.795 84.3469 31.885C83.4913 32.1285 82.6558 32.4379 81.8482 32.8105C81.8091 32.7308 81.7684 32.6512 81.7237 32.5771C80.8462 31.1213 78.957 30.7637 77.5058 31.7807C76.0546 32.7977 75.591 34.7984 76.4686 36.2534C76.5133 36.3283 76.5628 36.3984 76.613 36.4669C75.9624 37.1169 75.3606 37.8138 74.8124 38.5519C74.7406 38.5073 74.668 38.4627 74.5906 38.4237C73.1043 37.6703 71.2398 38.3624 70.4205 39.9688C69.6011 41.5752 70.146 43.4882 71.6315 44.2416C71.7113 44.2806 71.7911 44.3133 71.8661 44.3452C71.5929 45.2224 71.3844 46.1183 71.2422 47.0259C71.1569 47.0259 71.0715 47.0259 70.9845 47.0355C69.2892 47.186 67.9433 48.7414 67.9792 50.5095C68.0151 52.2776 69.4153 53.5885 71.1138 53.438C71.2023 53.43 71.2893 53.4157 71.3755 53.4005C71.551 54.2715 71.7937 55.1275 72.1015 55.9611C72.0217 56.0065 71.9459 56.0534 71.8701 56.1068C70.4197 57.1207 69.9554 59.1237 70.8329 60.5796C71.7105 62.0354 74.6201 62.7108 76.0705 61.6945C76.1447 61.642 75.1929 61.2669 75.2639 61.2103C75.8406 61.8461 76.4699 62.4322 77.1451 62.9625C77.0973 63.0421 77.0502 63.1218 77.0079 63.2014C76.191 64.8086 76.7335 66.7216 78.2198 67.4742C79.7061 68.2269 81.5706 67.5364 82.3899 65.93C82.433 65.8503 82.4697 65.7619 82.504 65.6775C83.3319 65.9071 84.1776 66.0669 85.0322 66.1553C85.0266 66.2445 85.0226 66.3337 85.0242 66.4245C85.0601 68.1926 86.4603 69.5035 88.1588 69.3522C89.8573 69.2009 91.2008 67.6463 91.1649 65.8782C91.1649 65.7858 91.1553 65.695 91.1466 65.6058C92.0021 65.3617 92.8375 65.0521 93.6453 64.6796C93.6836 64.7592 93.7251 64.8389 93.7697 64.9129C94.6473 66.3688 96.5365 66.7264 97.9877 65.7094C99.4389 64.6923 99.9024 62.6917 99.0248 61.2366C98.9802 61.1617 98.9307 61.0924 98.8805 61.0232C99.531 60.3731 100.133 59.6762 100.681 58.9381C100.753 58.9835 100.825 59.0273 100.903 59.0663ZM82.3755 59.3013C76.9792 56.5663 75.0094 49.6199 77.9757 43.7877C80.9419 37.9554 87.7216 35.4427 93.1179 38.1784C98.5143 40.9141 100.484 47.859 97.5178 53.692C94.5516 59.5251 87.7711 62.0362 82.3755 59.3013Z" fill="url(#paint17_linear_46797_25089)"/>
<path id="Vector_61" d="M104.508 50.4546C106.204 50.3041 107.55 48.7487 107.514 46.9806C107.478 45.2125 106.078 43.9016 104.38 44.0529C104.291 44.0609 104.204 44.0745 104.118 44.0896C103.942 43.219 103.699 42.3633 103.392 41.5299C103.472 41.4837 103.551 41.4367 103.623 41.3841C105.074 40.3695 106.869 37.9173 105.845 36.5593C103.902 33.9821 101.892 35.0979 100.442 36.1126C100.367 36.1643 100.297 36.2209 100.228 36.2774C99.6509 35.6418 99.0217 35.0557 98.3466 34.5253C98.3944 34.4456 98.4415 34.366 98.4838 34.2863C98.6946 33.8795 98.8202 33.434 98.8528 32.977C98.8855 32.5201 98.8245 32.0613 98.6737 31.6287C97.2727 34.0902 95.8923 36.5633 94.5323 39.0482C98.8404 42.1973 100.208 48.4038 97.5168 53.6945C95.2367 58.1776 90.7044 60.6951 86.2782 60.3797C86.0812 60.891 85.8873 61.4047 85.6759 61.9113C85.1023 63.2851 84.4505 64.6303 83.7979 65.9731C84.2079 66.0506 84.6199 66.1111 85.0336 66.1546C85.0281 66.2438 85.0241 66.333 85.0257 66.4238C85.0616 68.1919 86.137 69.694 89.2101 69.5299C90.9095 69.4399 91.2046 67.6448 91.1663 65.8767C91.1663 65.7843 91.1568 65.6935 91.148 65.6043C92.0035 65.3602 92.8389 65.0505 93.6467 64.6781C93.685 64.7577 93.7265 64.8373 93.7712 64.9114C94.6487 66.3673 97.6979 66.9821 99.1483 65.9707C100.599 64.9592 99.9039 62.6926 99.0247 61.2375C98.98 61.1626 98.9306 61.0925 98.8803 61.024C99.5309 60.374 100.133 59.6771 100.681 58.939C100.753 58.9844 100.825 59.0282 100.903 59.0672C102.389 59.8206 104.253 59.1285 105.073 57.5221C105.892 55.9158 105.347 54.0027 103.861 53.2493C103.781 53.2103 103.701 53.1776 103.627 53.1466C103.9 52.2691 104.109 51.3728 104.251 50.465C104.336 50.4642 104.422 50.4626 104.508 50.4546Z" fill="url(#paint18_linear_46797_25089)"/>
<path id="Vector_62" d="M102.501 59.2478C103.987 60.0013 105.851 59.3092 106.671 57.7028C107.492 56.0964 106.946 54.1833 105.46 53.4299C105.38 53.3909 105.3 53.3582 105.225 53.3264C105.498 52.4492 105.707 51.5532 105.849 50.6456C105.934 50.6456 106.02 50.6456 106.107 50.6361C107.803 50.4855 109.148 48.9301 109.113 47.162C109.078 45.394 107.677 44.083 105.978 44.2336C105.89 44.2415 105.803 44.2559 105.716 44.271C105.54 43.4001 105.297 42.5441 104.99 41.7105C105.069 41.6651 105.149 41.6181 105.221 41.5655C106.672 40.5509 107.136 38.5479 106.258 37.092C105.381 35.6361 103.491 35.2793 102.04 36.2956C101.966 36.3473 101.896 36.4039 101.827 36.4604C101.251 35.8246 100.621 35.2385 99.9459 34.7083C99.9938 34.6286 100.04 34.549 100.082 34.4693C100.899 32.8629 100.357 30.9499 98.8713 30.1965C97.3858 29.4431 95.5205 30.1344 94.7004 31.7408C94.6581 31.8204 94.6206 31.9088 94.5863 31.9933C93.7586 31.7641 92.9132 31.6043 92.0589 31.5154C92.0637 31.4262 92.0677 31.337 92.0661 31.2462C92.031 29.4781 90.63 28.1672 88.9315 28.3185C87.233 28.4698 85.8903 30.0253 85.9254 31.7925C85.9254 31.8849 85.935 31.9757 85.9445 32.0649C85.0888 32.3091 84.2531 32.6188 83.445 32.9912C83.4067 32.9115 83.3652 32.8319 83.3206 32.7578C82.443 31.3019 80.5538 30.9444 79.1034 31.9614C77.653 32.9784 77.1887 34.9791 78.0662 36.4341C78.1117 36.509 78.1604 36.5791 78.2107 36.6476C77.5606 37.2978 76.959 37.9947 76.4108 38.7326C76.339 38.6872 76.2656 38.6434 76.189 38.6044C74.7027 37.851 72.8383 38.5431 72.0181 40.1495C71.198 41.7559 71.7437 43.6689 73.23 44.4223C73.3098 44.4613 73.3895 44.494 73.4645 44.5251C73.1914 45.4025 72.9829 46.2988 72.8407 47.2066C72.7553 47.2066 72.6699 47.2066 72.583 47.2162C70.8876 47.3667 69.5417 48.9221 69.5768 50.6902C69.6119 52.4583 71.0129 53.7692 72.7114 53.6179C72.8 53.6107 72.8869 53.5964 72.9739 53.5812C73.1495 54.4521 73.3922 55.3082 73.6999 56.1418C73.6201 56.1872 73.5403 56.2341 73.4685 56.2867C72.0173 57.3014 71.5538 59.3044 72.4314 60.7595C73.309 62.2145 75.1982 62.5729 76.6494 61.5559C76.7235 61.5041 76.7938 61.4476 76.8624 61.391C77.4393 62.0268 78.0688 62.6129 78.7444 63.1432C78.6965 63.2228 78.6494 63.3024 78.6072 63.3821C77.7902 64.9885 78.3327 66.9015 79.819 67.6549C81.3053 68.4083 83.1698 67.717 83.9891 66.1107C84.0314 66.031 84.0689 65.9426 84.1032 65.8582C84.9311 66.0878 85.7768 66.2477 86.6314 66.336C86.6259 66.426 86.6219 66.5152 86.6235 66.606C86.6594 68.3741 88.0595 69.685 89.758 69.5337C91.4565 69.3824 92.7992 67.827 92.7641 66.0597C92.7641 65.9673 92.7546 65.8765 92.745 65.7873C93.6008 65.5432 94.4364 65.2336 95.2445 64.8611C95.2828 64.9407 95.3243 65.0203 95.369 65.0944C96.2465 66.5503 98.1357 66.9079 99.5861 65.8908C101.037 64.8738 101.501 62.8732 100.623 61.4173C100.579 61.3432 100.529 61.2731 100.479 61.2047C101.129 60.5544 101.731 59.8575 102.279 59.1196C102.351 59.165 102.424 59.2088 102.501 59.2478ZM83.9732 59.482C78.5768 56.747 76.6079 49.8014 79.5741 43.9683C82.5403 38.1353 89.32 35.6242 94.7164 38.3591C100.113 41.094 102.082 48.0405 99.1154 53.8735C96.1484 59.7066 89.3695 62.2177 83.9732 59.482Z" fill="url(#paint19_linear_46797_25089)"/>
</g>
</g>
</g>
</g>
<defs>
<linearGradient id="paint0_linear_46797_25089" x1="162.624" y1="56.1187" x2="199.286" y2="83.4005" gradientUnits="userSpaceOnUse">
<stop stop-color="#FF718A"/>
<stop offset="1" stop-color="#E45E76"/>
</linearGradient>
<linearGradient id="paint1_linear_46797_25089" x1="175.648" y1="63.3293" x2="178.888" y2="107.333" gradientUnits="userSpaceOnUse">
<stop stop-color="#FF718A"/>
<stop offset="1" stop-color="#E45E76"/>
</linearGradient>
<linearGradient id="paint2_linear_46797_25089" x1="144.268" y1="80.7193" x2="167.606" y2="206.853" gradientUnits="userSpaceOnUse">
<stop stop-color="#597A33"/>
<stop offset="1" stop-color="#7EAC48"/>
</linearGradient>
<linearGradient id="paint3_linear_46797_25089" x1="146.303" y1="102.445" x2="148.075" y2="137.661" gradientUnits="userSpaceOnUse">
<stop stop-color="#89B557"/>
<stop offset="1" stop-color="#B1DA81"/>
</linearGradient>
<linearGradient id="paint4_linear_46797_25089" x1="201.813" y1="145.819" x2="179.333" y2="171.148" gradientUnits="userSpaceOnUse">
<stop stop-color="#FFE39D"/>
<stop offset="1" stop-color="#FFCD50"/>
</linearGradient>
<linearGradient id="paint5_linear_46797_25089" x1="176.453" y1="137.542" x2="198.481" y2="228.742" gradientUnits="userSpaceOnUse">
<stop stop-color="#597A33"/>
<stop offset="1" stop-color="#7EAC48"/>
</linearGradient>
<linearGradient id="paint6_linear_46797_25089" x1="253.943" y1="119.985" x2="126.605" y2="254.211" gradientUnits="userSpaceOnUse">
<stop stop-color="#FFE39D"/>
<stop offset="1" stop-color="#FFCD50"/>
</linearGradient>
<linearGradient id="paint7_linear_46797_25089" x1="182.336" y1="139.175" x2="203.807" y2="228.074" gradientUnits="userSpaceOnUse">
<stop stop-color="#597A33"/>
<stop offset="1" stop-color="#7EAC48"/>
</linearGradient>
<linearGradient id="paint8_linear_46797_25089" x1="182.629" y1="140.752" x2="203.452" y2="226.967" gradientUnits="userSpaceOnUse">
<stop stop-color="#597A33"/>
<stop offset="1" stop-color="#7EAC48"/>
</linearGradient>
<linearGradient id="paint9_linear_46797_25089" x1="156.732" y1="284.698" x2="210.901" y2="138.449" gradientUnits="userSpaceOnUse">
<stop stop-color="#EBEFF2"/>
<stop offset="1" stop-color="white"/>
</linearGradient>
<linearGradient id="paint10_linear_46797_25089" x1="209.5" y1="167" x2="203.088" y2="202.098" gradientUnits="userSpaceOnUse">
<stop stop-color="#FFD057"/>
<stop offset="1" stop-color="#F5B30D"/>
</linearGradient>
<linearGradient id="paint11_linear_46797_25089" x1="190.741" y1="188.719" x2="192.036" y2="194.084" gradientUnits="userSpaceOnUse">
<stop stop-color="#89B557"/>
<stop offset="1" stop-color="#B1DA81"/>
</linearGradient>
<linearGradient id="paint12_linear_46797_25089" x1="190.956" y1="171.885" x2="201.352" y2="178.661" gradientUnits="userSpaceOnUse">
<stop stop-color="#89B557"/>
<stop offset="1" stop-color="#B1DA81"/>
</linearGradient>
<linearGradient id="paint13_linear_46797_25089" x1="180.473" y1="186.403" x2="185.606" y2="209.462" gradientUnits="userSpaceOnUse">
<stop stop-color="#89B557"/>
<stop offset="1" stop-color="#B1DA81"/>
</linearGradient>
<linearGradient id="paint14_linear_46797_25089" x1="32.5921" y1="-19.6276" x2="52.0793" y2="61.8105" gradientUnits="userSpaceOnUse">
<stop stop-color="#597A33"/>
<stop offset="1" stop-color="#7EAC48"/>
</linearGradient>
<linearGradient id="paint15_linear_46797_25089" x1="47.0254" y1="-13.5523" x2="72.805" y2="56.4403" gradientUnits="userSpaceOnUse">
<stop stop-color="#597A33"/>
<stop offset="1" stop-color="#7EAC48"/>
</linearGradient>
<linearGradient id="paint16_linear_46797_25089" x1="34.7867" y1="-19.7101" x2="54.4312" y2="62.0353" gradientUnits="userSpaceOnUse">
<stop stop-color="#89B557"/>
<stop offset="1" stop-color="#B1DA81"/>
</linearGradient>
<linearGradient id="paint17_linear_46797_25089" x1="81.2349" y1="14.0047" x2="95.4317" y2="73.3386" gradientUnits="userSpaceOnUse">
<stop stop-color="#597A33"/>
<stop offset="1" stop-color="#7EAC48"/>
</linearGradient>
<linearGradient id="paint18_linear_46797_25089" x1="91.75" y1="18.4228" x2="110.537" y2="69.4295" gradientUnits="userSpaceOnUse">
<stop stop-color="#597A33"/>
<stop offset="1" stop-color="#7EAC48"/>
</linearGradient>
<linearGradient id="paint19_linear_46797_25089" x1="82.8328" y1="13.9425" x2="97.1478" y2="73.5092" gradientUnits="userSpaceOnUse">
<stop stop-color="#89B557"/>
<stop offset="1" stop-color="#B1DA81"/>
</linearGradient>
<clipPath id="clip0_46797_25089">
<rect width="228" height="223" fill="white"/>
</clipPath>
</defs>
</svg>
