<svg width="228" height="223" viewBox="0 0 228 223" fill="none" xmlns="http://www.w3.org/2000/svg">
<g id="Frame">
<g id="Group">
<g id="Group_2">
<path id="Vector" d="M117.237 223C177.306 223 226.001 174.212 226.001 114.03C226.001 53.8474 177.306 5.05981 117.237 5.05981C57.1687 5.05981 8.47363 53.8474 8.47363 114.03C8.47363 174.212 57.1687 223 117.237 223Z" fill="#F7F8FA"/>
<g id="Group_3">
<g id="Group_4">
<path id="Vector_2" d="M113.944 197.967C112.682 197.544 111.554 196.794 110.674 195.793C109.794 194.793 109.194 193.577 108.934 192.269L105.211 173.806L73.3577 174.939L69.4413 194.174C68.8924 196.868 71.0899 199.571 73.6212 200.563L86.9461 205.786C89.4218 206.757 92.0874 207.144 94.7364 206.918L122.898 204.502C123.299 204.466 123.676 204.292 123.964 204.009C124.251 203.727 124.433 203.353 124.477 202.952C124.574 202.12 125.15 201.186 124.365 200.925L113.944 197.967Z" fill="#E3E5E5"/>
<path id="Vector_3" d="M114.259 196.845C113.004 196.433 111.879 195.695 111 194.707C110.122 193.718 109.519 192.514 109.255 191.217L105.535 172.987L74.4611 174.107L70.5455 193.099C70.2798 194.387 70.4786 195.728 71.1068 196.883C71.7349 198.038 72.7516 198.932 73.9759 199.406L87.2886 204.564C89.7645 205.523 92.4257 205.905 95.0707 205.682L123.204 203.298C123.603 203.265 123.978 203.094 124.266 202.815C124.554 202.536 124.737 202.166 124.783 201.767C124.83 201.368 124.737 200.966 124.521 200.628C124.305 200.29 123.979 200.037 123.598 199.913L114.259 196.845Z" fill="url(#paint0_linear_46797_24860)"/>
</g>
<g id="Group_5">
<g id="Group_6">
<path id="Vector_4" d="M8.27917 186.077C4.82583 186.284 2 184.039 2 181.072V74.1431C2 71.1758 4.82583 68.8848 8.27917 69.0348L168.703 80.1621C171.239 80.2719 172.599 78.221 172.599 80.7448V171.687C172.599 174.21 170.546 176.386 168.01 176.537L8.27917 186.077Z" fill="#E3E5E5"/>
<path id="Vector_5" d="M9.71472 186.077C6.26056 186.284 3.43555 184.039 3.43555 181.072V74.1431C3.43555 71.1758 6.26056 68.8848 9.71472 69.0348L169.445 75.9694C171.982 76.0792 174.034 78.221 174.034 80.7448V171.687C174.034 174.21 171.981 176.386 169.445 176.537L9.71472 186.077Z" fill="white"/>
<g id="Vector_6" style="mix-blend-mode:multiply" opacity="0.3">
<path d="M169.446 78.1063L9.71499 71.5258C7.86846 71.4496 6.36719 72.6734 6.36719 74.2562V180.911C6.36719 182.495 7.86846 183.693 9.71499 183.587L169.446 174.397C170.805 174.319 171.9 173.158 171.9 171.804V80.6621C171.894 80.0025 171.637 79.3702 171.18 78.895C170.724 78.4197 170.103 78.1375 169.446 78.1063Z" fill="#D8DEE8"/>
</g>
</g>
<g id="Group_7">
<path id="Vector_7" d="M168.262 166.701L11.4466 174.457C9.80054 174.539 8.46289 173.448 8.46289 172.022V75.6572C8.46289 74.2309 9.80054 73.1243 11.4466 73.1858L168.262 79.017C168.857 79.0427 169.42 79.2964 169.834 79.726C170.249 80.1555 170.483 80.728 170.488 81.3253V164.366C170.481 164.966 170.247 165.54 169.834 165.974C169.421 166.407 168.859 166.667 168.262 166.701Z" fill="url(#paint1_linear_46797_24860)"/>
<g id="Vector_8" style="mix-blend-mode:soft-light" opacity="0.6">
<path d="M50.5661 83.3623L14.7539 82.3074V78.886L50.5661 80.0467V83.3623Z" fill="white"/>
</g>
<g id="Vector_9" style="mix-blend-mode:soft-light" opacity="0.36">
<path d="M67.4302 82.9129L59.1572 82.6621V80.3252L67.4302 80.5932V82.9129Z" fill="white"/>
</g>
<g id="Vector_10" style="mix-blend-mode:soft-light" opacity="0.36">
<path d="M67.4302 86.136L59.1572 85.9098V83.572L67.4302 83.8163V86.136Z" fill="white"/>
</g>
<path id="Vector_11" d="M108.659 87.2663L76.5635 86.3868V84.0859L108.659 85.0327V87.2663Z" fill="#EDF1F6"/>
<path id="Vector_12" opacity="0.3" d="M113.922 90.5001L82.1455 89.7205V87.4312L113.922 88.2771V90.5001Z" fill="#FEFEFF"/>
<path id="Vector_13" opacity="0.3" d="M113.922 93.5887L82.1455 92.901V90.6116L113.922 91.3657V93.5887Z" fill="#FEFEFF"/>
<g id="Vector_14" style="mix-blend-mode:soft-light" opacity="0.6">
<path d="M113.922 96.6772L82.1455 96.0821V93.7927L113.922 94.4542V96.6772Z" fill="white"/>
</g>
<g id="Vector_15" style="mix-blend-mode:soft-light" opacity="0.36">
<path d="M67.4302 89.3598L59.1572 89.1565V86.8196L67.4302 87.0393V89.3598Z" fill="white"/>
</g>
<g id="Vector_16" style="mix-blend-mode:soft-light" opacity="0.36">
<path d="M67.4302 92.5828L59.1572 92.4041V90.0671L67.4302 90.263V92.5828Z" fill="white"/>
</g>
<g id="Vector_17" style="mix-blend-mode:soft-light" opacity="0.36">
<path d="M67.4302 95.8066L59.1572 95.6509V93.314L67.4302 93.4861V95.8066Z" fill="white"/>
</g>
<g id="Vector_18" style="mix-blend-mode:soft-light" opacity="0.36">
<path d="M67.4302 99.0296L59.1572 98.8985V96.5615L67.4302 96.7099V99.0296Z" fill="white"/>
</g>
<g id="Vector_19" style="mix-blend-mode:soft-light" opacity="0.6">
<path d="M89.5997 99.3805L69.2363 99.0584V96.7419L89.5997 97.1067V99.3805Z" fill="white"/>
</g>
<g id="Vector_20" style="mix-blend-mode:soft-light" opacity="0.36">
<path d="M67.4302 102.253L59.1572 102.146V99.8083L67.4302 99.9329V102.253Z" fill="white"/>
</g>
<g id="Vector_21" style="mix-blend-mode:soft-light" opacity="0.36">
<path d="M67.4302 105.476L59.1572 105.394V103.056L67.4302 103.156V105.476Z" fill="white"/>
</g>
<g id="Vector_22" style="mix-blend-mode:soft-light" opacity="0.36">
<path d="M67.4302 108.7L59.1572 108.641V106.304L67.4302 106.38V108.7Z" fill="white"/>
</g>
<path id="Vector_23" opacity="0.3" d="M99.1407 102.663L76.5635 102.372V100.071L99.1407 100.409V102.663Z" fill="#FEFEFF"/>
<g id="Vector_24" style="mix-blend-mode:soft-light" opacity="0.6">
<path d="M110.869 105.913L82.1455 105.624V103.335L110.869 103.683V105.913Z" fill="white"/>
</g>
<path id="Vector_25" d="M110.869 109.01L82.1455 108.805V106.516L110.869 106.781V109.01Z" fill="#EDF1F6"/>
<g id="Vector_26" style="mix-blend-mode:soft-light" opacity="0.36">
<path d="M67.4302 111.923L59.1572 111.888V109.55L67.4302 109.603V111.923Z" fill="white"/>
</g>
<g id="Vector_27" style="mix-blend-mode:soft-light" opacity="0.36">
<path d="M67.4302 115.147L59.1572 115.135V112.798L67.4302 112.827V115.147Z" fill="white"/>
</g>
<g id="Vector_28" style="mix-blend-mode:soft-light" opacity="0.36">
<path d="M67.4302 118.37L59.1572 118.383V116.046L67.4302 116.05V118.37Z" fill="white"/>
</g>
<g id="Vector_29" style="mix-blend-mode:soft-light" opacity="0.36">
<path d="M67.4302 121.593L59.1572 121.63V119.293L67.4302 119.273V121.593Z" fill="white"/>
</g>
<g id="Vector_30" style="mix-blend-mode:soft-light" opacity="0.36">
<path d="M67.4302 124.816L59.1572 124.877V122.54L67.4302 122.497V124.816Z" fill="white"/>
</g>
<g id="Vector_31" style="mix-blend-mode:soft-light" opacity="0.36">
<path d="M67.4302 128.04L59.1572 128.125V125.788L67.4302 125.72V128.04Z" fill="white"/>
</g>
<g id="Vector_32" style="mix-blend-mode:soft-light" opacity="0.36">
<path d="M67.4302 131.263L59.1572 131.372V129.034L67.4302 128.943V131.263Z" fill="white"/>
</g>
<g id="Vector_33" style="mix-blend-mode:soft-light" opacity="0.36">
<path d="M67.4302 134.487L59.1572 134.62V132.282L67.4302 132.167V134.487Z" fill="white"/>
</g>
<g id="Vector_34" style="mix-blend-mode:soft-light" opacity="0.36">
<path d="M67.4302 137.71L59.1572 137.866V135.529L67.4302 135.39V137.71Z" fill="white"/>
</g>
<g id="Vector_35" style="mix-blend-mode:soft-light" opacity="0.36">
<path d="M67.4302 140.934L59.1572 141.114V138.776L67.4302 138.613V140.934Z" fill="white"/>
</g>
<g id="Vector_36" style="mix-blend-mode:soft-light" opacity="0.36">
<path d="M67.4302 144.157L59.1572 144.361V142.024L67.4302 141.837V144.157Z" fill="white"/>
</g>
<g id="Vector_37" style="mix-blend-mode:soft-light" opacity="0.36">
<path d="M67.4302 147.38L59.1572 147.608V145.272L67.4302 145.06V147.38Z" fill="white"/>
</g>
<g id="Vector_38" style="mix-blend-mode:soft-light" opacity="0.36">
<path d="M67.4302 150.604L59.1572 150.856V148.518L67.4302 148.284V150.604Z" fill="white"/>
</g>
<g id="Vector_39" style="mix-blend-mode:soft-light" opacity="0.36">
<path d="M67.4302 153.827L59.1572 154.103V151.766L67.4302 151.507V153.827Z" fill="white"/>
</g>
<g id="Vector_40" style="mix-blend-mode:soft-light" opacity="0.36">
<path d="M67.4302 157.051L59.1572 157.351V155.014L67.4302 154.73V157.051Z" fill="white"/>
</g>
<g id="Vector_41" style="mix-blend-mode:soft-light" opacity="0.36">
<path d="M67.4302 160.274L59.1572 160.598V158.26L67.4302 157.954V160.274Z" fill="white"/>
</g>
<g id="Vector_42" style="mix-blend-mode:soft-light" opacity="0.36">
<path d="M67.4302 163.497L59.1572 163.845V161.508L67.4302 161.177V163.497Z" fill="white"/>
</g>
<g id="Vector_43" style="mix-blend-mode:soft-light" opacity="0.36">
<path d="M67.4302 166.72L59.1572 167.092V164.756L67.4302 164.401V166.72Z" fill="white"/>
</g>
<path id="Vector_44" opacity="0.3" d="M91.7422 83.65L69.1797 82.9655V80.6499L91.7422 81.3811V83.65Z" fill="#FEFEFF"/>
<g id="Vector_45" style="mix-blend-mode:soft-light" opacity="0.6">
<path d="M108.659 149.345L76.5635 150.325V148.024L108.659 147.112V149.345Z" fill="white"/>
</g>
<path id="Vector_46" opacity="0.3" d="M113.922 152.274L82.1455 153.336V151.046L113.922 150.051V152.274Z" fill="#FEFEFF"/>
<path id="Vector_47" opacity="0.3" d="M113.922 155.363L82.1455 156.516V154.227L113.922 153.14V155.363Z" fill="#FEFEFF"/>
<path id="Vector_48" opacity="0.3" d="M127.615 157.915L96.6621 159.128V156.869L127.615 155.72V157.915Z" fill="#FEFEFF"/>
<path id="Vector_49" d="M127.615 160.964L96.6621 162.266V160.008L127.615 158.769V160.964Z" fill="#EDF1F6"/>
<g id="Vector_50" style="mix-blend-mode:soft-light" opacity="0.6">
<path d="M127.615 164.012L96.6621 165.406V163.147L127.615 161.818V164.012Z" fill="white"/>
</g>
<path id="Vector_51" opacity="0.3" d="M91.7422 146.708L69.1797 147.331V145.016L91.7422 144.439V146.708Z" fill="#FEFEFF"/>
<path id="Vector_52" opacity="0.3" d="M108.659 115.202L76.5635 115.159V112.858L108.659 112.969V115.202Z" fill="#FEFEFF"/>
<g id="Vector_53" style="mix-blend-mode:soft-light" opacity="0.6">
<path d="M113.922 118.298L82.1455 118.347V116.058L113.922 116.075V118.298Z" fill="white"/>
</g>
<path id="Vector_54" opacity="0.3" d="M113.922 121.387L82.1455 121.528V119.238L113.922 119.164V121.387Z" fill="#FEFEFF"/>
<path id="Vector_55" opacity="0.3" d="M113.922 124.475L82.1455 124.709V122.419L113.922 122.252V124.475Z" fill="#FEFEFF"/>
<path id="Vector_56" opacity="0.3" d="M89.5997 127.813L69.2363 128.021V125.706L89.5997 125.539V127.813Z" fill="#FEFEFF"/>
<g id="Vector_57" style="mix-blend-mode:soft-light" opacity="0.6">
<path d="M99.1407 130.847L76.5635 131.143V128.842L99.1407 128.593V130.847Z" fill="white"/>
</g>
<path id="Vector_58" d="M110.869 133.79L82.1455 134.251V131.962L110.869 131.562V133.79Z" fill="#EDF1F6"/>
<path id="Vector_59" opacity="0.3" d="M110.869 136.888L82.1455 137.431V135.143L110.869 134.659V136.888Z" fill="#FEFEFF"/>
<path id="Vector_60" opacity="0.3" d="M117.238 139.847L88.8594 140.466V138.19L117.238 137.63V139.847Z" fill="#FEFEFF"/>
<path id="Vector_61" opacity="0.3" d="M117.238 142.926L88.8594 143.627V141.352L117.238 140.71V142.926Z" fill="#FEFEFF"/>
<path id="Vector_62" d="M91.7422 112.027L69.1797 111.931V109.614L91.7422 109.757V112.027Z" fill="#EDF1F6"/>
<g id="Vector_63" style="mix-blend-mode:soft-light">
<path d="M50.5657 88.5434L30.0674 88.0327V84.6572L50.5657 85.2277V88.5434Z" fill="white"/>
</g>
<g id="Vector_64" style="mix-blend-mode:soft-light" opacity="0.6">
<path d="M24.7656 87.9016L28.6264 87.9975V84.6171L24.7656 84.5098V87.9016Z" fill="white"/>
</g>
<g id="Vector_65" style="mix-blend-mode:soft-light" opacity="0.6">
<path d="M50.5657 93.31L30.0674 92.8862V89.5107L50.5657 89.9944V93.31Z" fill="white"/>
</g>
<g id="Vector_66" style="mix-blend-mode:soft-light" opacity="0.6">
<path d="M24.7656 92.7771L28.6264 92.8566V89.4762L24.7656 89.3853V92.7771Z" fill="white"/>
</g>
<g id="Vector_67" style="mix-blend-mode:soft-light" opacity="0.6">
<path d="M50.5657 98.0765L30.0674 97.7396V94.3633L50.5657 94.7608V98.0765Z" fill="white"/>
</g>
<g id="Vector_68" style="mix-blend-mode:soft-light" opacity="0.6">
<path d="M24.7656 97.6518L28.6264 97.7157V94.3353L24.7656 94.2607V97.6518Z" fill="white"/>
</g>
<g id="Vector_69" style="mix-blend-mode:soft-light">
<path d="M50.5661 131.911L14.7539 132.394V128.973L50.5661 128.594V131.911Z" fill="white"/>
</g>
<g id="Vector_70" style="mix-blend-mode:soft-light" opacity="0.6">
<path d="M50.5657 137.091L30.0674 137.462V134.086L50.5657 133.775V137.091Z" fill="white"/>
</g>
<g id="Vector_71" style="mix-blend-mode:soft-light" opacity="0.6">
<path d="M24.7656 137.558L28.6264 137.489V134.108L24.7656 134.166V137.558Z" fill="white"/>
</g>
<g id="Vector_72" style="mix-blend-mode:soft-light" opacity="0.6">
<path d="M50.5657 141.858L30.0674 142.315V138.94L50.5657 138.542V141.858Z" fill="white"/>
</g>
<g id="Vector_73" style="mix-blend-mode:soft-light" opacity="0.6">
<path d="M24.7656 142.434L28.6264 142.348V138.967L24.7656 139.042V142.434Z" fill="white"/>
</g>
<g id="Vector_74" style="mix-blend-mode:soft-light" opacity="0.6">
<path d="M50.5657 146.624L30.0674 147.168V143.792L50.5657 143.308V146.624Z" fill="white"/>
</g>
<g id="Vector_75" style="mix-blend-mode:soft-light" opacity="0.6">
<path d="M24.7656 147.308L28.6264 147.206V143.826L24.7656 143.917V147.308Z" fill="white"/>
</g>
<g id="Vector_76" style="mix-blend-mode:soft-light">
<path d="M50.5661 102.875L14.7539 102.438V99.0173L50.5661 99.5591V102.875Z" fill="white"/>
</g>
<g id="Vector_77" style="mix-blend-mode:soft-light" opacity="0.6">
<path d="M50.5657 108.056L30.0674 107.9V104.524L50.5657 104.741V108.056Z" fill="white"/>
</g>
<g id="Vector_78" style="mix-blend-mode:soft-light" opacity="0.6">
<path d="M24.7656 107.86L28.6264 107.889V104.509L24.7656 104.468V107.86Z" fill="white"/>
</g>
<g id="Vector_79" style="mix-blend-mode:soft-light" opacity="0.6">
<path d="M50.5657 112.823L30.0674 112.753V109.377L50.5657 109.507V112.823Z" fill="white"/>
</g>
<g id="Vector_80" style="mix-blend-mode:soft-light" opacity="0.6">
<path d="M24.7656 112.735L28.6264 112.748V109.368L24.7656 109.344V112.735Z" fill="white"/>
</g>
<g id="Vector_81" style="mix-blend-mode:soft-light" opacity="0.6">
<path d="M50.5657 122.418L30.0674 122.522V119.147L50.5657 119.102V122.418Z" fill="white"/>
</g>
<g id="Vector_82" style="mix-blend-mode:soft-light" opacity="0.6">
<path d="M24.7656 122.549L28.6264 122.529V119.15L24.7656 119.158V122.549Z" fill="white"/>
</g>
<g id="Vector_83" style="mix-blend-mode:soft-light" opacity="0.6">
<path d="M50.5657 127.184L30.0674 127.375V123.999L50.5657 123.868V127.184Z" fill="white"/>
</g>
<g id="Vector_84" style="mix-blend-mode:soft-light" opacity="0.6">
<path d="M24.7656 127.424L28.6264 127.388V124.009L24.7656 124.033V127.424Z" fill="white"/>
</g>
<g id="Vector_85" style="mix-blend-mode:soft-light" opacity="0.6">
<path d="M50.5657 117.589L30.0674 117.606V114.23L50.5657 114.273V117.589Z" fill="white"/>
</g>
<g id="Vector_86" style="mix-blend-mode:soft-light" opacity="0.6">
<path d="M24.7656 117.61L28.6264 117.607V114.227L24.7656 114.219V117.61Z" fill="white"/>
</g>
<g id="Vector_87" style="mix-blend-mode:soft-light">
<path d="M50.5661 151.389L14.7539 152.491V149.069L50.5661 148.073V151.389Z" fill="white"/>
</g>
<g id="Vector_88" style="mix-blend-mode:soft-light" opacity="0.6">
<path d="M50.5657 156.57L30.0674 157.295V153.918L50.5657 153.254V156.57Z" fill="white"/>
</g>
<g id="Vector_89" style="mix-blend-mode:soft-light" opacity="0.6">
<path d="M24.7656 157.482L28.6264 157.345V153.965L24.7656 154.091V157.482Z" fill="white"/>
</g>
<g id="Vector_90" style="mix-blend-mode:soft-light" opacity="0.6">
<path d="M50.5657 161.337L30.0674 162.147V158.772L50.5657 158.021V161.337Z" fill="white"/>
</g>
<g id="Vector_91" style="mix-blend-mode:soft-light" opacity="0.6">
<path d="M24.7656 162.357L28.6264 162.205V158.824L24.7656 158.966V162.357Z" fill="white"/>
</g>
<g id="Vector_92" style="mix-blend-mode:soft-light" opacity="0.6">
<path d="M50.5657 166.103L30.0674 167.001V163.624L50.5657 162.787V166.103Z" fill="white"/>
</g>
<g id="Vector_93" style="mix-blend-mode:soft-light" opacity="0.6">
<path d="M24.7656 167.233L28.6264 167.064V163.683L24.7656 163.842V167.233Z" fill="white"/>
</g>
<g id="Vector_94" style="mix-blend-mode:soft-light" opacity="0.6">
<path d="M54.9176 165.929L54.1289 165.964V80.1621L54.9176 80.1875V165.929Z" fill="white"/>
</g>
</g>
</g>
</g>
<g id="Group_8">
<g id="Group_9">
<path id="Vector_95" d="M121.324 48.4147C121.025 48.408 120.734 48.3155 120.486 48.1481C120.238 47.9808 120.042 47.7456 119.924 47.4704L111.195 27.8356C111.101 27.6224 111.052 27.3918 111.052 27.1586V6.85247C111.052 5.96639 111.748 5.27048 112.606 5.29507C113.464 5.31966 114.161 6.06312 114.161 6.94756V26.8758L122.722 46.1663C123.079 46.9704 122.744 47.9147 121.971 48.2754C121.769 48.3699 121.548 48.4175 121.324 48.4147Z" fill="#BDC5D1"/>
<path id="Vector_96" d="M143.859 48.7124C143.027 48.7026 142.352 47.987 142.352 47.1149V36.9466L134.381 28.4555C134.094 28.1486 133.935 27.7443 133.936 27.3243V7.64282C133.936 6.7674 134.615 6.07968 135.455 6.10673C136.294 6.13378 136.972 6.86576 136.972 7.73954V26.7366L144.922 35.2237C145.207 35.5284 145.364 35.9303 145.363 36.3475V47.1542C145.363 48.0239 144.69 48.7231 143.859 48.7124Z" fill="#BDC5D1"/>
<path id="Vector_97" d="M155.968 48.8434C155.145 48.8336 154.477 48.1221 154.477 47.2541V30.0488C154.474 29.6385 154.631 29.2433 154.914 28.9472L159.868 23.843V8.41565C159.868 7.55006 160.532 6.86973 161.352 6.89678C162.172 6.92383 162.834 7.64597 162.834 8.50992V24.5594C162.836 24.9676 162.681 25.3608 162.399 25.6561L157.461 30.762V47.286C157.461 48.1549 156.791 48.85 155.968 48.8434Z" fill="#BDC5D1"/>
<path id="Vector_98" d="M109.682 152.452C108.815 152.485 108.112 151.789 108.112 150.899V134.787C108.113 134.358 108.277 133.945 108.572 133.633L115.189 126.656V112.359C115.189 111.471 115.888 110.74 116.749 110.725C116.955 110.724 117.16 110.764 117.35 110.843C117.54 110.922 117.713 111.039 117.858 111.186C118.003 111.332 118.117 111.507 118.193 111.699C118.27 111.89 118.307 112.095 118.304 112.302V127.243C118.304 127.67 118.141 128.081 117.848 128.391L111.247 135.365V150.781C111.251 151.669 110.55 152.416 109.682 152.452Z" fill="#BDC5D1"/>
<path id="Vector_99" d="M134.717 151.52C134.517 151.528 134.317 151.495 134.131 151.421C133.944 151.348 133.775 151.236 133.633 151.094C133.034 150.494 133.034 149.485 133.633 148.841L142.268 139.565V111.866C142.268 110.991 142.949 110.268 143.788 110.254C144.627 110.239 145.306 110.936 145.306 111.811V140.126C145.305 140.546 145.146 140.951 144.861 141.259L135.8 151.013C135.662 151.165 135.495 151.288 135.309 151.375C135.123 151.462 134.922 151.511 134.717 151.52Z" fill="#BDC5D1"/>
<path id="Vector_100" d="M159.164 150.613C158.968 150.621 158.772 150.587 158.59 150.515C158.408 150.442 158.242 150.332 158.105 150.191C157.519 149.599 157.519 148.601 158.105 147.966L167.606 137.638V130.716L153.788 116.508C153.2 115.904 153.2 114.905 153.788 114.278C153.921 114.129 154.084 114.009 154.265 113.926C154.446 113.843 154.643 113.798 154.842 113.794C155.042 113.79 155.24 113.827 155.425 113.903C155.609 113.979 155.776 114.092 155.915 114.236L170.139 128.89C170.42 129.185 170.576 129.578 170.573 129.985V138.198C170.573 138.612 170.418 139.012 170.139 139.318L160.223 150.113C160.089 150.263 159.926 150.385 159.744 150.471C159.562 150.556 159.365 150.605 159.164 150.613Z" fill="#BDC5D1"/>
<path id="Vector_101" d="M184.124 65.6118L169.09 65.5503C168.272 65.5503 167.606 64.8421 167.606 63.9774C167.606 63.1126 168.271 62.4142 169.09 62.42L183.518 62.5019L192.296 53.2132C192.427 53.0726 192.585 52.9606 192.762 52.8842C192.938 52.8079 193.128 52.769 193.32 52.7698L207.689 52.9198C208.477 52.928 209.115 53.6223 209.115 54.4698C209.115 55.3174 208.477 56.0002 207.689 55.9928L193.919 55.8698L185.155 65.161C185.024 65.3031 184.864 65.4164 184.686 65.494C184.509 65.5715 184.317 65.6117 184.124 65.6118Z" fill="#BDC5D1"/>
<path id="Vector_102" d="M171.495 96.1739C171.299 96.1755 171.105 96.1365 170.925 96.0595C170.745 95.9825 170.583 95.8691 170.449 95.7263C170.17 95.4257 170.015 95.0303 170.015 94.6198C170.015 94.2092 170.17 93.8138 170.449 93.5132L184.787 78.2219C184.918 78.0791 185.078 77.9649 185.255 77.8864C185.432 77.8079 185.624 77.7667 185.818 77.7653L207.69 77.7244C208.478 77.7244 209.116 78.4088 209.116 79.2572C209.116 80.1056 208.478 80.7941 207.69 80.7974L186.419 80.8687L172.538 95.705C172.405 95.8499 172.243 95.9662 172.064 96.0468C171.885 96.1274 171.691 96.1706 171.495 96.1739Z" fill="#BDC5D1"/>
<path id="Vector_103" d="M180.883 114.225L169.09 114.457C168.272 114.473 167.606 113.785 167.606 112.919C167.606 112.054 168.271 111.341 169.09 111.326L180.276 111.123L187.544 103.271C187.674 103.127 187.833 103.011 188.01 102.93C188.186 102.85 188.378 102.806 188.572 102.802L207.689 102.531C208.477 102.52 209.115 103.199 209.115 104.046C209.115 104.894 208.477 105.591 207.689 105.604L189.174 105.894L181.918 113.749C181.787 113.894 181.627 114.011 181.449 114.093C181.271 114.175 181.079 114.22 180.883 114.225Z" fill="#BDC5D1"/>
<path id="Vector_104" d="M213.808 54.5131C213.808 58.1517 211.073 61.0846 207.689 61.0624C204.304 61.0403 201.531 58.055 201.531 54.3943C201.531 50.7336 204.292 47.8007 207.689 47.845C211.085 47.8892 213.808 50.8737 213.808 54.5131Z" fill="#BDC5D1"/>
<path id="Vector_105" d="M213.808 79.2448C213.808 82.8834 211.073 85.8499 207.689 85.8696C204.304 85.8892 201.531 82.9375 201.531 79.2768C201.531 75.6161 204.292 72.6496 207.689 72.6521C211.085 72.6546 213.808 75.6054 213.808 79.2448Z" fill="#BDC5D1"/>
<path id="Vector_106" d="M213.808 103.976C213.808 107.615 211.073 110.616 207.689 110.676C204.304 110.737 201.531 107.821 201.531 104.159C201.531 100.498 204.292 97.4983 207.689 97.4582C211.085 97.418 213.808 100.337 213.808 103.976Z" fill="#BDC5D1"/>
<path id="Vector_107" d="M112.607 0.00404984C116.289 0.13356 119.272 3.3164 119.272 7.11402C119.272 10.9116 116.293 13.9043 112.607 13.7994C108.908 13.6936 105.898 10.51 105.898 6.6886C105.898 2.86722 108.908 -0.125461 112.607 0.00404984Z" fill="#BDC5D1"/>
<path id="Vector_108" d="M135.453 0.875282C139.053 1.00151 141.962 4.14583 141.962 7.89836C141.962 11.6509 139.053 14.61 135.453 14.5075C131.84 14.4042 128.903 11.2591 128.903 7.48278C128.903 3.70648 131.842 0.74823 135.453 0.875282Z" fill="#BDC5D1"/>
<path id="Vector_109" d="M161.352 1.72625C164.87 1.8492 167.71 4.95582 167.71 8.6649C167.71 12.374 164.868 15.3003 161.352 15.1994C157.822 15.0986 154.953 11.9912 154.953 8.25916C154.953 4.52712 157.822 1.60166 161.352 1.72625Z" fill="#BDC5D1"/>
<path id="Vector_110" d="M109.682 143.907C113.403 143.785 116.41 146.776 116.41 150.593C116.41 154.409 113.403 157.619 109.682 157.767C105.948 157.915 102.912 154.922 102.912 151.083C102.912 147.244 105.949 144.03 109.682 143.907Z" fill="#BDC5D1"/>
<path id="Vector_111" d="M134.717 143.08C138.35 142.96 141.286 145.919 141.286 149.69C141.286 153.46 138.349 156.632 134.717 156.776C131.07 156.92 128.105 153.962 128.105 150.168C128.105 146.375 131.07 143.201 134.717 143.08Z" fill="#BDC5D1"/>
<path id="Vector_112" d="M159.164 142.272C162.713 142.155 165.58 145.08 165.58 148.807C165.58 152.533 162.717 155.668 159.164 155.808C155.61 155.948 152.706 153.021 152.706 149.275C152.706 145.529 155.602 142.39 159.164 142.272Z" fill="#BDC5D1"/>
</g>
<path id="Vector_113" d="M167.702 40.1449L106.001 38.2694C103.198 38.1875 100.917 40.517 100.917 43.4794V111.932C100.917 114.895 103.198 117.233 106.001 117.154L167.702 115.433C170.246 115.363 172.3 113.03 172.3 110.223V45.3671C172.3 42.5597 170.246 40.2219 167.702 40.1449Z" fill="url(#paint2_linear_46797_24860)"/>
<path id="Vector_114" d="M170.327 40.1449L108.626 38.2694C105.822 38.1875 103.541 40.517 103.541 43.4794V111.932C103.541 114.895 105.822 117.233 108.626 117.154L170.327 115.433C172.87 115.363 174.925 113.03 174.925 110.223V45.3671C174.925 42.5597 172.87 40.2219 170.327 40.1449Z" fill="url(#paint3_linear_46797_24860)"/>
<path id="Vector_115" d="M157.728 54.1214L119.304 53.3763C117.59 53.3427 116.195 54.7968 116.195 56.6231V98.8255C116.195 100.652 117.586 102.109 119.304 102.08L157.728 101.431C159.341 101.404 160.646 99.9509 160.646 98.1845V57.3764C160.646 55.6099 159.343 54.1534 157.728 54.1214Z" fill="url(#paint4_linear_46797_24860)"/>
<path id="Vector_116" d="M160.353 54.1214L121.928 53.3763C120.21 53.3427 118.819 54.7968 118.819 56.6231V98.8255C118.819 100.652 120.21 102.109 121.928 102.08L160.353 101.431C161.966 101.404 163.271 99.9509 163.271 98.1845V57.3764C163.27 55.6099 161.966 54.1534 160.353 54.1214Z" fill="url(#paint5_linear_46797_24860)"/>
</g>
<g id="Group_10">
<path id="Vector_117" d="M148.385 176.52L148.248 180.54C148.208 181.72 149.148 182.633 150.357 182.579L152.545 182.481C152.748 184.351 153.163 186.191 153.782 187.966L151.933 189.077C150.87 189.715 150.47 191.036 151.033 192.028L152.964 195.406C153.53 196.396 156.263 196.985 157.322 196.345L157.656 194.983C158.827 196.449 160.167 197.772 161.649 198.923L160.637 200.6C160.005 201.647 160.316 202.929 161.33 203.463L164.785 205.279C165.796 205.81 169.082 205.893 169.711 204.847L168.725 202.737C170.559 203.361 172.458 203.774 174.384 203.967L174.324 205.748C174.284 206.917 175.212 207.813 176.395 207.75L180.419 207.533C181.598 207.47 182.585 206.474 182.628 205.309L182.688 203.532C184.649 203.129 186.562 202.521 188.397 201.717L189.247 203.222C189.799 204.198 193.186 204.697 194.219 204.066L195.633 201.682C196.663 201.049 197.052 199.746 196.503 198.772L195.625 197.214C197.153 195.926 198.549 194.489 199.792 192.922L201.428 193.799C202.414 194.328 205.337 194.599 205.951 193.568L206.418 189.38C207.031 188.351 206.732 187.085 205.748 186.557L204.029 185.63C204.74 183.851 205.264 182.003 205.591 180.115L207.699 180.021C208.265 179.988 208.799 179.747 209.199 179.343C209.599 178.94 209.836 178.403 209.864 177.835L209.998 173.901C210.011 173.632 209.968 173.364 209.87 173.113C209.773 172.862 209.624 172.635 209.433 172.446C209.242 172.257 209.014 172.11 208.762 172.016C208.511 171.921 208.242 171.881 207.974 171.897L205.743 171.99C205.496 170.198 205.052 168.438 204.419 166.744L206.464 165.51C207.487 164.892 207.874 163.599 207.329 162.62L207.718 158.708C207.172 157.724 203.65 158.005 202.625 158.621L200.472 159.911C199.353 158.557 198.088 157.331 196.701 156.255L198.024 154.054C198.641 153.029 198.339 151.759 197.349 151.212L195.877 149.081C194.884 148.534 191.669 149.196 191.05 150.223L189.689 152.477C187.995 151.896 186.244 151.496 184.465 151.284L184.554 148.703C184.593 147.537 183.671 146.624 182.493 146.663L178.471 146.795C177.29 146.834 176.298 147.813 176.262 148.981L176.174 151.57C174.338 151.915 172.54 152.44 170.807 153.137L171.606 150.407C171.046 149.412 167.714 149.659 166.663 150.28L163.075 152.4C162.02 153.023 161.622 154.336 162.184 155.332L163.39 157.464C161.889 158.661 160.505 160 159.259 161.462L159.35 160.094C158.331 159.544 154.768 160.161 154.135 161.203L151.968 164.758C151.332 165.802 151.641 167.093 152.666 167.641L154.702 168.733C153.934 170.489 153.35 172.32 152.959 174.197L150.642 174.295C149.434 174.343 148.425 175.34 148.385 176.52ZM163.236 178.289C163.537 169.443 171.053 161.996 179.976 161.657C188.843 161.321 195.752 168.142 195.454 176.891C195.156 185.64 187.763 193.082 178.892 193.515C169.967 193.951 162.935 187.135 163.236 178.289Z" fill="url(#paint6_linear_46797_24860)"/>
<g id="Vector_118">
<path d="M151.08 176.485L150.944 180.506C150.904 181.686 151.848 182.598 153.053 182.544L155.241 182.447C155.443 184.316 155.858 186.156 156.477 187.931L154.629 189.043C153.566 189.68 153.166 191.003 153.729 191.994L155.661 195.372C156.227 196.362 157.543 196.645 158.606 196.006L160.355 194.949C161.527 196.415 162.868 197.737 164.349 198.889L163.337 200.568C162.704 201.615 163.014 202.898 164.03 203.432L167.484 205.247C168.496 205.779 169.826 205.362 170.455 204.316L171.424 202.705C173.258 203.329 175.157 203.742 177.084 203.935L177.023 205.716C176.983 206.885 177.911 207.781 179.093 207.718L183.118 207.502C184.297 207.439 185.284 206.443 185.327 205.277L185.388 203.501C187.349 203.098 189.263 202.489 191.097 201.685L191.947 203.19C192.498 204.166 193.784 204.443 194.817 203.809L198.335 201.65C199.365 201.017 199.754 199.715 199.205 198.74L198.327 197.182C199.854 195.894 201.25 194.456 202.493 192.89L204.13 193.766C205.116 194.295 206.414 193.889 207.028 192.858L209.12 189.348C209.733 188.318 209.433 187.053 208.449 186.524L206.731 185.598C207.442 183.818 207.965 181.97 208.292 180.082L210.4 179.988C210.966 179.955 211.5 179.714 211.9 179.311C212.3 178.908 212.537 178.371 212.565 177.803L212.7 173.869C212.713 173.6 212.669 173.332 212.572 173.081C212.475 172.83 212.326 172.603 212.135 172.414C211.944 172.225 211.715 172.078 211.464 171.984C211.213 171.889 210.944 171.849 210.676 171.865L208.445 171.959C208.198 170.167 207.754 168.407 207.121 166.713L209.166 165.479C210.189 164.861 210.576 163.568 210.031 162.589L208.172 159.25C207.626 158.266 206.353 157.973 205.327 158.594L203.178 159.886C202.059 158.531 200.794 157.305 199.407 156.228L200.73 154.028C201.347 153.004 201.045 151.733 200.055 151.186L196.676 149.325C195.682 148.778 194.375 149.167 193.755 150.194L192.394 152.448C190.7 151.867 188.949 151.467 187.171 151.254L187.258 148.674C187.298 147.508 186.376 146.594 185.198 146.634L181.176 146.766C179.994 146.804 179.003 147.783 178.963 148.952L178.875 151.54C177.039 151.885 175.242 152.41 173.509 153.108L172.281 150.927C171.722 149.933 170.416 149.63 169.366 150.251L165.777 152.372C164.723 152.995 164.324 154.308 164.886 155.304L166.093 157.435C164.591 158.632 163.208 159.971 161.961 161.432L159.834 160.285C158.816 159.736 157.475 160.134 156.84 161.176L154.673 164.732C154.037 165.775 154.349 167.066 155.371 167.615L157.406 168.706C156.639 170.463 156.055 172.294 155.664 174.171L153.347 174.268C152.129 174.308 151.12 175.306 151.08 176.485ZM165.932 178.255C166.233 169.409 173.749 161.961 182.671 161.623C191.539 161.287 198.448 168.108 198.15 176.857C197.852 185.607 190.459 193.048 181.588 193.481C172.662 193.917 165.631 187.101 165.931 178.255H165.932Z" fill="url(#paint7_linear_46797_24860)"/>
<path d="M151.08 176.485L150.944 180.506C150.904 181.686 151.848 182.598 153.053 182.544L155.241 182.447C155.443 184.316 155.858 186.156 156.477 187.931L154.629 189.043C153.566 189.68 153.166 191.003 153.729 191.994L155.661 195.372C156.227 196.362 157.543 196.645 158.606 196.006L160.355 194.949C161.527 196.415 162.868 197.737 164.349 198.889L163.337 200.568C162.704 201.615 163.014 202.898 164.03 203.432L167.484 205.247C168.496 205.779 169.826 205.362 170.455 204.316L171.424 202.705C173.258 203.329 175.157 203.742 177.084 203.935L177.023 205.716C176.983 206.885 177.911 207.781 179.093 207.718L183.118 207.502C184.297 207.439 185.284 206.443 185.327 205.277L185.388 203.501C187.349 203.098 189.263 202.489 191.097 201.685L191.947 203.19C192.498 204.166 193.784 204.443 194.817 203.809L198.335 201.65C199.365 201.017 199.754 199.715 199.205 198.74L198.327 197.182C199.854 195.894 201.25 194.456 202.493 192.89L204.13 193.766C205.116 194.295 206.414 193.889 207.028 192.858L209.12 189.348C209.733 188.318 209.433 187.053 208.449 186.524L206.731 185.598C207.442 183.818 207.965 181.97 208.292 180.082L210.4 179.988C210.966 179.955 211.5 179.714 211.9 179.311C212.3 178.908 212.537 178.371 212.565 177.803L212.7 173.869C212.713 173.6 212.669 173.332 212.572 173.081C212.475 172.83 212.326 172.603 212.135 172.414C211.944 172.225 211.715 172.078 211.464 171.984C211.213 171.889 210.944 171.849 210.676 171.865L208.445 171.959C208.198 170.167 207.754 168.407 207.121 166.713L209.166 165.479C210.189 164.861 210.576 163.568 210.031 162.589L208.172 159.25C207.626 158.266 206.353 157.973 205.327 158.594L203.178 159.886C202.059 158.531 200.794 157.305 199.407 156.228L200.73 154.028C201.347 153.004 201.045 151.733 200.055 151.186L196.676 149.325C195.682 148.778 194.375 149.167 193.755 150.194L192.394 152.448C190.7 151.867 188.949 151.467 187.171 151.254L187.258 148.674C187.298 147.508 186.376 146.594 185.198 146.634L181.176 146.766C179.994 146.804 179.003 147.783 178.963 148.952L178.875 151.54C177.039 151.885 175.242 152.41 173.509 153.108L172.281 150.927C171.722 149.933 170.416 149.63 169.366 150.251L165.777 152.372C164.723 152.995 164.324 154.308 164.886 155.304L166.093 157.435C164.591 158.632 163.208 159.971 161.961 161.432L159.834 160.285C158.816 159.736 157.475 160.134 156.84 161.176L154.673 164.732C154.037 165.775 154.349 167.066 155.371 167.615L157.406 168.706C156.639 170.463 156.055 172.294 155.664 174.171L153.347 174.268C152.129 174.308 151.12 175.306 151.08 176.485ZM165.932 178.255C166.233 169.409 173.749 161.961 182.671 161.623C191.539 161.287 198.448 168.108 198.15 176.857C197.852 185.607 190.459 193.048 181.588 193.481C172.662 193.917 165.631 187.101 165.931 178.255H165.932Z" fill="url(#paint8_linear_46797_24860)"/>
</g>
</g>
</g>
</g>
</g>
<defs>
<linearGradient id="paint0_linear_46797_24860" x1="97.6118" y1="181.011" x2="97.6118" y2="198.804" gradientUnits="userSpaceOnUse">
<stop offset="0.49" stop-color="#EBEFF2"/>
<stop offset="1" stop-color="white"/>
</linearGradient>
<linearGradient id="paint1_linear_46797_24860" x1="161.119" y1="60.2212" x2="137.889" y2="184.89" gradientUnits="userSpaceOnUse">
<stop stop-color="#D8DEE8"/>
<stop offset="1" stop-color="#D8DEE8"/>
</linearGradient>
<linearGradient id="paint2_linear_46797_24860" x1="134.393" y1="-67.8033" x2="156.582" y2="141.539" gradientUnits="userSpaceOnUse">
<stop stop-color="#FFCBD4"/>
<stop offset="0.932292" stop-color="#F07B90"/>
</linearGradient>
<linearGradient id="paint3_linear_46797_24860" x1="137.017" y1="-67.8033" x2="159.206" y2="141.539" gradientUnits="userSpaceOnUse">
<stop stop-color="#FF9DAF"/>
<stop offset="0.932292" stop-color="#DD4862"/>
</linearGradient>
<linearGradient id="paint4_linear_46797_24860" x1="137.041" y1="-12.111" x2="150.626" y2="117.159" gradientUnits="userSpaceOnUse">
<stop stop-color="#FFCBD4"/>
<stop offset="0.932292" stop-color="#F07B90"/>
</linearGradient>
<linearGradient id="paint5_linear_46797_24860" x1="139.665" y1="-12.111" x2="153.25" y2="117.159" gradientUnits="userSpaceOnUse">
<stop stop-color="#FFDFE5"/>
<stop offset="0.932292" stop-color="#F5A9B6"/>
</linearGradient>
<linearGradient id="paint6_linear_46797_24860" x1="720.959" y1="-252.154" x2="91.9764" y2="325.739" gradientUnits="userSpaceOnUse">
<stop stop-color="#FFD057"/>
<stop offset="1" stop-color="#F5B30D"/>
</linearGradient>
<linearGradient id="paint7_linear_46797_24860" x1="723.715" y1="-252.162" x2="94.7571" y2="325.8" gradientUnits="userSpaceOnUse">
<stop stop-color="#FFD057"/>
<stop offset="1" stop-color="#F5B30D"/>
</linearGradient>
<linearGradient id="paint8_linear_46797_24860" x1="245.171" y1="107.937" x2="122.614" y2="244.851" gradientUnits="userSpaceOnUse">
<stop stop-color="#FFE39D"/>
<stop offset="1" stop-color="#FFCD50"/>
</linearGradient>
</defs>
</svg>
