<svg width="228" height="223" viewBox="0 0 228 223" fill="none" xmlns="http://www.w3.org/2000/svg">
<g id="Frame">
<g id="Group">
<g id="Group_2">
<g id="Group_3">
<path id="Vector" d="M131.594 9.19016C185.926 17.6431 230.076 70.418 222.055 129.08C215.212 179.107 172.522 218.039 121.328 221.715C117.621 221.983 113.875 222.062 110.09 221.953C81.5343 221.106 56.1565 209.369 37.3896 191.609C18.7112 173.934 6.57531 150.294 4.36935 125.492C-1.52119 59.5048 64.0198 -1.32446 131.594 9.19016Z" fill="#F7F8FA"/>
<g id="Group_4">
<g id="Group_5">
<path id="Vector_2" d="M169.658 29.8592L35.1092 21.6525C32.0103 21.4906 29.2207 25.0541 29.2207 28.0507V210.728C29.2207 214.879 33.2435 215.715 36.3464 215.381L169.658 201.026C172.093 200.763 174.059 198.414 174.059 195.777V34.8603C174.058 32.2233 172.092 29.9848 169.658 29.8592Z" fill="#BFC8D6"/>
<path id="Vector_3" d="M171.87 28.4079L37.0565 21.4152C33.9576 21.2533 31.4336 23.5696 31.4336 26.5872V210.69C31.4336 213.706 33.9576 215.879 37.0565 215.542L171.87 200.912C174.305 200.648 176.271 198.28 176.271 195.622V33.4487C176.271 30.7906 174.305 28.5342 171.87 28.4079Z" fill="#D8DEE8"/>
<path id="Vector_4" opacity="0.74" d="M37.0564 213.046C35.3843 213.224 34.0215 212.046 34.0215 210.42V26.7095C34.0215 25.084 35.3843 23.8287 37.0564 23.9121L171.87 30.6262C173.186 30.6918 174.254 31.9155 174.254 33.3531V195.833C174.254 197.27 173.186 198.554 171.87 198.694L37.0564 213.046Z" fill="white"/>
<path id="Vector_5" d="M163.182 194.337L47.875 206.051V36.5613L163.182 41.1404V194.337Z" fill="white"/>
<g id="Vector_6" style="mix-blend-mode:multiply" opacity="0.3">
<path d="M117.062 41.9697L70.9795 42.5779L72.0127 31.62C72.0937 30.1962 73.0654 29.0284 74.3521 28.8194L82.1564 27.5544C83.0754 27.4061 83.8666 26.7655 84.2682 25.8463L85.1144 23.9082L105.526 25.2372L117.062 41.9697Z" fill="#97A6B7"/>
</g>
<path id="Vector_7" d="M141.67 34.8612C141.451 33.6213 140.509 32.7514 139.322 32.6947L131.959 32.3473C128.616 32.1894 126.167 29.3264 126.291 25.7005L126.575 17.297C126.628 15.7436 125.575 14.498 124.128 14.4073L121.708 14.2542C119.862 14.1384 118.635 12.4238 118.893 10.4412C119.345 6.97567 117.094 3.98554 113.83 3.75067C110.541 3.51499 107.471 6.16416 106.982 9.67344C106.911 10.2012 106.737 10.7098 106.47 11.1701C105.71 12.4554 104.378 13.1633 103.075 13.0815L100.579 12.9235C99.0663 12.8288 97.6298 13.9481 97.2468 15.5225L95.1714 24.0539C94.2742 27.743 90.8887 30.4084 87.2942 30.2383L79.217 29.8569C77.8939 29.7945 76.5959 30.6076 75.9862 31.8816L71.1188 42.0652C70.7204 42.8986 71.2111 43.8 72.08 43.83L142.126 46.2815C142.893 46.3091 143.544 45.5024 143.402 44.7014L141.67 34.8612ZM112.837 11.0235C111.872 10.9604 111.203 10.076 111.343 9.04819C111.483 8.02044 112.38 7.24132 113.344 7.30773C114.309 7.37414 114.973 8.26098 114.838 9.28225C114.702 10.3035 113.8 11.0867 112.837 11.0235Z" fill="url(#paint0_linear_46797_25178)"/>
<path id="Vector_8" d="M142.085 35.0888C141.867 33.8488 140.925 32.983 139.737 32.9231L132.373 32.5748C129.031 32.4129 126.581 29.5539 126.705 25.928L126.989 17.5254C127.042 15.9712 125.989 14.7255 124.543 14.6348L122.126 14.4826C120.281 14.366 119.049 12.6514 119.312 10.6688C119.764 7.20323 117.512 4.21309 114.249 3.97903C110.96 3.74254 107.89 6.39171 107.401 9.90099C107.331 10.4288 107.157 10.9374 106.889 11.3977C106.129 12.683 104.797 13.3908 103.493 13.309L100.992 13.1519C99.4798 13.0563 98.0425 14.1756 97.6595 15.7501L95.585 24.2791C94.6869 27.9682 91.3022 30.6335 87.7078 30.4643L79.6298 30.082C78.3066 30.0196 77.0086 30.8328 76.3997 32.1067L71.5323 42.2904C71.1331 43.1245 71.6238 44.0252 72.4927 44.0559L142.542 46.5091C143.309 46.5358 143.959 45.73 143.818 44.929L142.085 35.0888ZM113.253 11.2511C112.288 11.1887 111.618 10.3043 111.759 9.27576C111.9 8.24719 112.795 7.46887 113.76 7.53529C114.724 7.6017 115.389 8.48529 115.249 9.50981C115.109 10.5343 114.216 11.3143 113.253 11.2511Z" fill="#97A6B7"/>
<g id="Vector_9" style="mix-blend-mode:soft-light" opacity="0.5">
<path d="M130.097 39.7659C123.849 35.6986 119.055 38.5827 115.161 33.9954C110.991 29.085 113.803 22.6204 109.492 19.5695C106.73 17.6169 104.267 19.3395 101.056 18.8107C99.879 18.6171 98.6264 18.1239 97.3203 17.1633L95.5898 24.2766C94.6918 27.9657 91.3071 30.6311 87.7127 30.4618L79.6346 30.0796C78.3115 30.0172 77.0135 30.8303 76.4046 32.1043L71.5372 42.2879C71.138 43.1221 71.6287 44.0227 72.4976 44.0535L136.158 46.2823C134.552 43.6008 132.56 41.3711 130.097 39.7659Z" fill="white"/>
</g>
</g>
<g id="Group_6">
<path id="Vector_10" d="M99.403 62.9874L58.6113 61.0242V52.8135L99.403 55.0528V62.9874Z" fill="#D8DEE8"/>
<path id="Vector_11" d="M155.799 72.2729L112.271 70.4255V62.5752L155.799 64.7174V72.2729Z" fill="#D8DEE8"/>
<path id="Vector_12" d="M155.799 83.2396L112.271 81.8215V73.9712L155.799 75.6849V83.2396Z" fill="#D8DEE8"/>
<path id="Vector_13" d="M98.5815 108.284L59.1592 107.906V103.406L98.5815 103.93V108.284Z" fill="#D8DEE8"/>
<path id="Vector_14" d="M155.799 115.654L59.1592 115.318V110.818L155.799 111.511V115.654Z" fill="#D8DEE8"/>
<path id="Vector_15" d="M112.27 122.086L59.1592 122.2V117.701L112.27 117.781V122.086Z" fill="#D8DEE8"/>
<path id="Vector_16" d="M90.3683 132.967L59.1592 133.319V128.819L90.3683 128.583V132.967Z" fill="#D8DEE8"/>
<path id="Vector_17" d="M155.799 180.97L59.1592 186.262V155.555L155.799 152.699V180.97Z" fill="#D8DEE8"/>
</g>
</g>
<g id="Group_7">
<path id="Vector_18" d="M74.0139 197.573C76.7168 198.945 80.1137 197.685 81.5996 194.757C83.0854 191.83 82.0992 188.343 79.3954 186.97C79.2562 186.899 79.1128 186.839 78.9695 186.782C79.4662 185.183 79.8451 183.55 80.1031 181.896C80.2586 181.896 80.4141 181.896 80.572 181.878C83.6563 181.604 86.1042 178.769 86.0394 175.547C85.9746 172.324 83.4223 169.936 80.338 170.211C80.176 170.226 80.0141 170.251 79.861 170.279C79.5416 168.692 79.1001 167.132 78.5403 165.612C78.682 165.531 78.8238 165.444 78.9614 165.347C81.6004 163.498 82.4433 159.848 80.8457 157.196C79.2481 154.544 75.8131 153.892 73.1742 155.738C73.0389 155.833 72.9118 155.935 72.7863 156.039C71.7368 154.88 70.5919 153.811 69.3635 152.844C69.451 152.701 69.536 152.557 69.6129 152.405C71.0988 149.478 73.0414 146.279 70.3166 144.949C64.0135 141.871 61.309 144.506 59.8231 147.434C59.7462 147.586 59.6798 147.74 59.6158 147.894C58.1103 147.473 56.572 147.179 55.0173 147.016C55.027 146.854 55.0343 146.692 55.0311 146.525C54.9663 143.303 55.9218 141.559 52.8261 141.499C46.0753 141.367 43.7975 144.298 43.8623 147.52C43.8623 147.689 43.8793 147.854 43.8963 148.017C42.3397 148.462 40.8199 149.026 39.3504 149.704C39.2799 149.56 39.2071 149.418 39.1237 149.279C37.5252 146.626 34.0911 145.975 31.4521 147.821C28.8132 149.668 27.9702 153.32 29.5679 155.973C29.6488 156.109 29.7395 156.236 29.8302 156.361C28.6476 157.546 27.5532 158.816 26.5556 160.161C26.4253 160.08 26.2925 159.999 26.1508 159.928C23.4478 158.555 20.051 159.815 18.5651 162.743C17.0792 165.671 18.0655 169.157 20.7684 170.53C20.9085 170.601 21.0518 170.661 21.1951 170.719C20.6987 172.318 20.3198 173.951 20.0615 175.605C19.9068 175.605 19.7513 175.605 19.5934 175.622C16.5091 175.897 14.0613 178.731 14.1252 181.954C14.1892 185.176 16.7432 187.565 19.8275 187.289C19.9894 187.275 20.1465 187.25 20.3044 187.222C20.6239 188.809 21.0655 190.369 21.6251 191.888C21.4826 191.969 21.3417 192.056 21.204 192.154C18.5651 194.003 17.7221 197.652 19.3198 200.305C20.9174 202.958 26.2082 204.193 28.8472 202.341C28.9824 202.246 27.2536 201.563 27.3791 201.459C28.4283 202.621 29.5733 203.691 30.8019 204.661C30.7153 204.803 30.6303 204.947 30.5533 205.1C29.0666 208.028 30.0537 211.513 32.7575 212.886C35.4612 214.259 38.8572 212.999 40.3431 210.071C40.4241 209.919 40.4865 209.766 40.5504 209.611C42.0559 210.032 43.5942 210.326 45.149 210.489C45.1392 210.651 45.1319 210.813 45.1352 210.98C45.1992 214.201 47.7523 216.591 50.8366 216.316C53.9209 216.041 56.3688 213.206 56.304 209.984C56.304 209.816 56.287 209.651 56.27 209.488C57.8265 209.043 59.3463 208.479 60.8159 207.8C60.8863 207.944 60.9592 208.087 61.0426 208.225C62.6402 210.878 66.0752 211.53 68.7141 209.683C71.3531 207.836 72.196 204.185 70.5984 201.531C70.5174 201.395 70.4267 201.269 70.336 201.143C71.5186 199.958 72.6128 198.688 73.6098 197.343C73.741 197.421 73.8738 197.501 74.0139 197.573ZM40.3132 198C30.4975 193.016 26.9143 180.357 32.3113 169.728C37.7082 159.098 50.0382 154.52 59.8571 159.505C69.6761 164.49 73.2551 177.148 67.859 187.778C62.4629 198.408 50.1281 202.985 40.3132 198Z" fill="url(#paint1_linear_46797_25178)"/>
<path id="Vector_19" d="M80.5726 181.878C83.6569 181.604 86.1047 178.769 86.04 175.547C85.9752 172.324 83.4229 169.936 80.3385 170.211C80.1766 170.226 80.0147 170.251 79.8616 170.279C79.5422 168.692 79.1007 167.132 78.5409 165.613C78.6826 165.532 78.8243 165.444 78.962 165.347C81.6009 163.498 84.8658 159.03 83.0034 156.555C79.4705 151.858 75.8137 153.892 73.1747 155.741C73.0395 155.835 72.9124 155.937 72.7869 156.041C71.7376 154.882 70.5926 153.813 69.3641 152.846C69.4515 152.704 69.5366 152.559 69.6135 152.408C69.9973 151.666 70.2259 150.854 70.2853 150.022C70.3448 149.189 70.2338 148.352 69.9593 147.564C67.4107 152.051 64.9005 156.559 62.4286 161.089C70.2589 166.828 72.7521 178.138 67.8539 187.78C63.7064 195.951 55.4649 200.539 47.4111 199.964C47.0516 200.896 46.6994 201.833 46.3147 202.755C45.271 205.259 44.0855 207.711 42.8984 210.159C43.645 210.3 44.3946 210.41 45.1471 210.49C45.1374 210.652 45.1301 210.814 45.1333 210.98C45.1973 214.202 47.1577 216.94 52.7449 216.643C55.8373 216.481 56.3685 213.207 56.3037 209.985C56.3037 209.817 56.2867 209.652 56.2697 209.489C57.8262 209.044 59.3461 208.48 60.8156 207.801C60.8861 207.945 60.959 208.087 61.0424 208.226C62.6408 210.879 68.1843 212.007 70.8233 210.157C73.4622 208.307 72.1998 204.183 70.5981 201.53C70.5172 201.394 70.4265 201.267 70.3358 201.142C71.5184 199.957 72.6125 198.687 73.6096 197.342C73.7408 197.423 73.8736 197.504 74.0145 197.575C76.7174 198.948 80.1143 197.688 81.6001 194.76C83.086 191.832 82.0997 188.345 79.396 186.973C79.2567 186.901 79.1134 186.841 78.9701 186.785C79.4667 185.186 79.8456 183.553 80.1037 181.899C80.2624 181.895 80.4147 181.893 80.5726 181.878Z" fill="url(#paint2_linear_46797_25178)"/>
<path id="Vector_20" d="M83.4802 182.21C86.5645 181.934 89.0124 179.1 88.9476 175.878C88.8828 172.656 86.3305 170.267 83.2462 170.541C83.0842 170.556 82.9263 170.581 82.7692 170.61C82.4498 169.023 82.0083 167.463 81.4485 165.944C81.5902 165.863 81.7319 165.774 81.8696 165.678C84.5086 163.829 85.3515 160.179 83.7539 157.526C82.1563 154.874 78.7213 154.222 76.0824 156.069C75.9471 156.163 75.82 156.266 75.6937 156.37C74.6449 155.211 73.5002 154.142 72.2717 153.175C72.3592 153.032 72.4442 152.887 72.5211 152.736C74.007 149.808 73.0207 146.322 70.317 144.949C67.6133 143.576 64.2172 144.837 62.7313 147.765C62.6503 147.916 62.588 148.07 62.524 148.225C61.0186 147.803 59.4803 147.51 57.9255 147.347C57.9352 147.185 57.9425 147.023 57.9393 146.855C57.8745 143.633 55.3222 141.244 52.2379 141.52C49.1535 141.795 46.7057 144.63 46.7697 147.851C46.7697 148.02 46.7875 148.184 46.8037 148.348C45.2476 148.793 43.728 149.357 42.2586 150.035C42.1881 149.892 42.1153 149.748 42.0319 149.61C40.4334 146.956 36.9993 146.305 34.3603 148.152C31.7214 149.998 30.8784 153.651 32.4761 156.303C32.557 156.44 32.6469 156.567 32.7384 156.692C31.5556 157.877 30.4612 159.147 29.4638 160.491C29.3335 160.41 29.2007 160.329 29.0589 160.258C26.3552 158.885 22.9592 160.146 21.4733 163.074C19.9874 166.002 20.9737 169.488 23.6766 170.861C23.8167 170.932 23.96 170.992 24.1033 171.049C23.6069 172.648 23.228 174.281 22.9697 175.935C22.815 175.935 22.6595 175.935 22.5016 175.952C19.4173 176.228 16.9695 179.062 17.0335 182.284C17.0974 185.506 19.6514 187.895 22.7357 187.621C22.8976 187.606 23.0547 187.581 23.2126 187.553C23.5321 189.139 23.9737 190.699 24.5333 192.218C24.3908 192.299 24.2499 192.388 24.1122 192.484C21.4733 194.333 20.6303 197.982 22.228 200.636C23.8256 203.289 27.2605 203.94 29.8995 202.093C30.0347 201.999 30.1618 201.896 30.2873 201.792C31.3363 202.951 32.481 204.02 33.7093 204.987C33.6227 205.13 33.5376 205.274 33.4607 205.426C31.974 208.354 32.9611 211.84 35.6648 213.213C38.3686 214.587 41.7646 213.325 43.2505 210.397C43.3315 210.246 43.3938 210.092 43.4578 209.937C44.9633 210.359 46.5016 210.652 48.0563 210.815C48.0466 210.977 48.0385 211.139 48.0418 211.307C48.1065 214.529 50.6597 216.918 53.744 216.642C56.8283 216.367 59.2761 213.532 59.2114 210.311C59.2114 210.142 59.1944 209.978 59.1774 209.814C60.7337 209.369 62.2535 208.805 63.7233 208.127C63.7929 208.27 63.8666 208.414 63.95 208.552C65.5476 211.205 68.9825 211.857 71.6215 210.01C74.2605 208.164 75.1034 204.511 73.5058 201.858C73.4248 201.722 73.3341 201.595 73.2434 201.47C74.4261 200.285 75.5203 199.015 76.5172 197.67C76.6484 197.751 76.7812 197.832 76.9221 197.903C79.625 199.28 83.0219 198.016 84.5078 195.088C85.9936 192.16 85.0074 188.673 82.3036 187.301C82.1635 187.229 82.021 187.17 81.8777 187.113C82.3745 185.514 82.7534 183.881 83.0113 182.227C83.1668 182.227 83.3223 182.227 83.4802 182.21ZM72.0231 188.748C66.244 200.132 53.0387 205.033 42.5282 199.695C32.0178 194.358 28.1804 180.802 33.9587 169.419C39.737 158.036 52.9423 153.134 63.4536 158.472C73.9649 163.81 77.8015 177.367 72.0231 188.748Z" fill="url(#paint3_linear_46797_25178)"/>
</g>
</g>
<g id="Vector_21">
<path d="M120.999 55.878L181.353 49.6904C181.581 49.6666 181.809 49.731 181.991 49.8703C182.173 50.0097 182.295 50.2134 182.331 50.4396C183.132 55.439 187.736 81.721 198.445 98.5474C198.522 98.6692 198.569 98.8079 198.582 98.9519C198.594 99.0958 198.572 99.2406 198.516 99.3739C198.46 99.5072 198.373 99.6251 198.262 99.7174C198.151 99.8097 198.019 99.8737 197.878 99.904L143.875 111.48C143.741 111.509 143.602 111.507 143.469 111.474C143.336 111.44 143.213 111.377 143.108 111.288C140.856 109.385 128.29 97.2256 120.215 56.9479C120.19 56.8255 120.192 56.6994 120.219 56.5776C120.246 56.4557 120.298 56.3409 120.372 56.2403C120.445 56.1397 120.539 56.0555 120.647 55.9931C120.755 55.9308 120.875 55.8916 120.999 55.878Z" fill="url(#paint4_linear_46797_25178)"/>
<path d="M120.999 55.878L181.353 49.6904C181.581 49.6666 181.809 49.731 181.991 49.8703C182.173 50.0097 182.295 50.2134 182.331 50.4396C183.132 55.439 187.736 81.721 198.445 98.5474C198.522 98.6692 198.569 98.8079 198.582 98.9519C198.594 99.0958 198.572 99.2406 198.516 99.3739C198.46 99.5072 198.373 99.6251 198.262 99.7174C198.151 99.8097 198.019 99.8737 197.878 99.904L143.875 111.48C143.741 111.509 143.602 111.507 143.469 111.474C143.336 111.44 143.213 111.377 143.108 111.288C140.856 109.385 128.29 97.2256 120.215 56.9479C120.19 56.8255 120.192 56.6994 120.219 56.5776C120.246 56.4557 120.298 56.3409 120.372 56.2403C120.445 56.1397 120.539 56.0555 120.647 55.9931C120.755 55.9308 120.875 55.8916 120.999 55.878Z" fill="url(#paint5_linear_46797_25178)"/>
</g>
<path id="Vector_22" d="M164.5 41.2266L171.236 55.9691L188.102 58.1198C189.918 58.351 191.813 59.7359 190.5 61L177.141 73.5089L180.024 89.7717C180.335 91.5272 178.43 92.9093 176.797 92.1108L161.653 84.6886L147 93.5C145.349 94.3705 142.84 92.2813 143.155 90.5007L146.074 74.0278L133.686 62.5814C132.343 61.3423 133.084 59.1382 134.937 58.8529L152.039 56.2253L159.651 41.2266C160.472 39.6085 163.68 39.6311 164.5 41.2266Z" fill="url(#paint6_linear_46797_25178)"/>
<path id="Vector_23" d="M165.164 41.8505L172.77 56.6659L189.701 58.8211C191.524 59.0527 192.251 61.2167 190.933 62.4834L178.699 74.2415L181.592 90.5374C181.904 92.2965 179.992 93.6814 178.353 92.8812L163.151 85.444L147.861 93.496C146.204 94.3682 144.266 93.0521 144.582 91.2679L147.513 74.7614L135.077 63.2917C133.729 62.0501 134.473 59.8415 136.334 59.5556L153.5 56.9227L161.141 41.8934C161.965 40.272 164.341 40.2518 165.164 41.8505Z" fill="url(#paint7_linear_46797_25178)"/>
</g>
</g>
</g>
<defs>
<linearGradient id="paint0_linear_46797_25178" x1="70.9787" y1="25.0096" x2="143.424" y2="25.0096" gradientUnits="userSpaceOnUse">
<stop stop-color="#444B8C"/>
<stop offset="1" stop-color="#26264F"/>
</linearGradient>
<linearGradient id="paint1_linear_46797_25178" x1="47.8501" y1="40.8655" x2="67.698" y2="239.72" gradientUnits="userSpaceOnUse">
<stop stop-color="#F38195"/>
<stop offset="0.932292" stop-color="#C53750"/>
</linearGradient>
<linearGradient id="paint2_linear_46797_25178" x1="63.1307" y1="54.6535" x2="90.9592" y2="235.808" gradientUnits="userSpaceOnUse">
<stop stop-color="#F38195"/>
<stop offset="0.932292" stop-color="#C53750"/>
</linearGradient>
<linearGradient id="paint3_linear_46797_25178" x1="50.7583" y1="40.4334" x2="70.7765" y2="240.13" gradientUnits="userSpaceOnUse">
<stop stop-color="#FF9DAF"/>
<stop offset="0.932292" stop-color="#DD4862"/>
</linearGradient>
<linearGradient id="paint4_linear_46797_25178" x1="156.958" y1="-33.4276" x2="169.432" y2="131.505" gradientUnits="userSpaceOnUse">
<stop stop-color="#FFDFE5"/>
<stop offset="0.932292" stop-color="#F5A9B6"/>
</linearGradient>
<linearGradient id="paint5_linear_46797_25178" x1="156.958" y1="-33.4276" x2="188.896" y2="241.084" gradientUnits="userSpaceOnUse">
<stop stop-color="#FF718A"/>
<stop offset="1" stop-color="#E45E76"/>
</linearGradient>
<linearGradient id="paint6_linear_46797_25178" x1="165.985" y1="32.8503" x2="160.489" y2="105.457" gradientUnits="userSpaceOnUse">
<stop stop-color="#D1AB4A"/>
<stop offset="1" stop-color="#E1A713"/>
</linearGradient>
<linearGradient id="paint7_linear_46797_25178" x1="167.5" y1="33.5" x2="162.002" y2="106.256" gradientUnits="userSpaceOnUse">
<stop stop-color="#FFCE51"/>
<stop offset="1" stop-color="#F4B30D"/>
</linearGradient>
</defs>
</svg>
