<svg width="44" height="2158" viewBox="0 0 44 2158" fill="none" xmlns="http://www.w3.org/2000/svg">
<mask id="mask0_46922_22189" style="mask-type:alpha" maskUnits="userSpaceOnUse" x="0" y="0" width="44" height="2158">
<rect width="44" height="2158" rx="22" fill="#F7F8FA"/>
</mask>
<g mask="url(#mask0_46922_22189)">
<g filter="url(#filter0_d_46922_22189)">
<path d="M-173.5 21.5576C-267 15.5576 -332.5 58.5576 -366 122.558L-306.5 1164.06H76.5C106.833 812.058 170.3 50.1576 97.5 72.5576C6.5 100.558 -80 27.5576 -173.5 21.5576Z" fill="#FF99D0"/>
</g>
<g filter="url(#filter1_d_46922_22189)">
<path d="M-82 453.343C-184.875 405.081 -321.5 506.343 -353 565.343L-316.5 1604.15H66.5C96.8333 1252.15 349.757 537.412 277.5 472.605C168.5 374.843 39.5 510.343 -82 453.343Z" fill="#FFBE18"/>
</g>
<g filter="url(#filter2_d_46922_22189)">
<path d="M14 865.215C-75.8075 838.515 -90.5 724.715 -248 776.215L-222.5 1942.93H160.5C190.833 1590.93 398.461 889.413 316 838.215C225 781.715 125 898.215 14 865.215Z" fill="#9DD162"/>
</g>
<g filter="url(#filter3_d_46922_22189)">
<path d="M70.5 1283.78C-75.5 1252.78 -158.5 1387.78 -332 1269L-306.5 2435.71H76.5C106.833 2083.71 351.961 1443.48 269.5 1392.28C178.5 1335.78 183.776 1307.84 70.5 1283.78Z" fill="#20AFDE"/>
</g>
<g filter="url(#filter4_d_46922_22189)">
<path d="M128.5 1651.53C7.5 1773.53 -206.5 1540.03 -337 1733.53L-306.5 2814.25H76.5C106.833 2462.25 361.961 1687.73 279.5 1636.53C188.5 1580.03 210.046 1569.31 128.5 1651.53Z" fill="#FF5674"/>
</g>
<g filter="url(#filter5_i_46922_22189)">
<path d="M0 21.9999C0 9.84968 9.84974 0 22 0C34.1503 0 44 9.84974 44 22V2136C44 2148.15 34.1503 2158 22 2158C9.84974 2158 0 2148.15 0 2136V21.9999Z" fill="#D9D9D9" fill-opacity="0.01"/>
</g>
</g>
<defs>
<filter id="filter0_d_46922_22189" x="-510" y="-123" width="785.158" height="1431.06" filterUnits="userSpaceOnUse" color-interpolation-filters="sRGB">
<feFlood flood-opacity="0" result="BackgroundImageFix"/>
<feColorMatrix in="SourceAlpha" type="matrix" values="0 0 0 0 0 0 0 0 0 0 0 0 0 0 0 0 0 0 127 0" result="hardAlpha"/>
<feOffset/>
<feGaussianBlur stdDeviation="72"/>
<feComposite in2="hardAlpha" operator="out"/>
<feColorMatrix type="matrix" values="0 0 0 0 0 0 0 0 0 0 0 0 0 0 0 0 0 0 0.18 0"/>
<feBlend mode="normal" in2="BackgroundImageFix" result="effect1_dropShadow_46922_22189"/>
<feBlend mode="normal" in="SourceGraphic" in2="effect1_dropShadow_46922_22189" result="shape"/>
</filter>
<filter id="filter1_d_46922_22189" x="-497" y="292" width="931.424" height="1456.15" filterUnits="userSpaceOnUse" color-interpolation-filters="sRGB">
<feFlood flood-opacity="0" result="BackgroundImageFix"/>
<feColorMatrix in="SourceAlpha" type="matrix" values="0 0 0 0 0 0 0 0 0 0 0 0 0 0 0 0 0 0 127 0" result="hardAlpha"/>
<feOffset/>
<feGaussianBlur stdDeviation="72"/>
<feComposite in2="hardAlpha" operator="out"/>
<feColorMatrix type="matrix" values="0 0 0 0 0 0 0 0 0 0 0 0 0 0 0 0 0 0 0.18 0"/>
<feBlend mode="normal" in2="BackgroundImageFix" result="effect1_dropShadow_46922_22189"/>
<feBlend mode="normal" in="SourceGraphic" in2="effect1_dropShadow_46922_22189" result="shape"/>
</filter>
<filter id="filter2_d_46922_22189" x="-392" y="619" width="871.227" height="1467.93" filterUnits="userSpaceOnUse" color-interpolation-filters="sRGB">
<feFlood flood-opacity="0" result="BackgroundImageFix"/>
<feColorMatrix in="SourceAlpha" type="matrix" values="0 0 0 0 0 0 0 0 0 0 0 0 0 0 0 0 0 0 127 0" result="hardAlpha"/>
<feOffset/>
<feGaussianBlur stdDeviation="72"/>
<feComposite in2="hardAlpha" operator="out"/>
<feColorMatrix type="matrix" values="0 0 0 0 0 0 0 0 0 0 0 0 0 0 0 0 0 0 0.18 0"/>
<feBlend mode="normal" in2="BackgroundImageFix" result="effect1_dropShadow_46922_22189"/>
<feBlend mode="normal" in="SourceGraphic" in2="effect1_dropShadow_46922_22189" result="shape"/>
</filter>
<filter id="filter3_d_46922_22189" x="-476" y="1125" width="906.365" height="1454.71" filterUnits="userSpaceOnUse" color-interpolation-filters="sRGB">
<feFlood flood-opacity="0" result="BackgroundImageFix"/>
<feColorMatrix in="SourceAlpha" type="matrix" values="0 0 0 0 0 0 0 0 0 0 0 0 0 0 0 0 0 0 127 0" result="hardAlpha"/>
<feOffset/>
<feGaussianBlur stdDeviation="72"/>
<feComposite in2="hardAlpha" operator="out"/>
<feColorMatrix type="matrix" values="0 0 0 0 0 0 0 0 0 0 0 0 0 0 0 0 0 0 0.18 0"/>
<feBlend mode="normal" in2="BackgroundImageFix" result="effect1_dropShadow_46922_22189"/>
<feBlend mode="normal" in="SourceGraphic" in2="effect1_dropShadow_46922_22189" result="shape"/>
</filter>
<filter id="filter4_d_46922_22189" x="-481" y="1448" width="920.83" height="1510.25" filterUnits="userSpaceOnUse" color-interpolation-filters="sRGB">
<feFlood flood-opacity="0" result="BackgroundImageFix"/>
<feColorMatrix in="SourceAlpha" type="matrix" values="0 0 0 0 0 0 0 0 0 0 0 0 0 0 0 0 0 0 127 0" result="hardAlpha"/>
<feOffset/>
<feGaussianBlur stdDeviation="72"/>
<feComposite in2="hardAlpha" operator="out"/>
<feColorMatrix type="matrix" values="0 0 0 0 0 0 0 0 0 0 0 0 0 0 0 0 0 0 0.18 0"/>
<feBlend mode="normal" in2="BackgroundImageFix" result="effect1_dropShadow_46922_22189"/>
<feBlend mode="normal" in="SourceGraphic" in2="effect1_dropShadow_46922_22189" result="shape"/>
</filter>
<filter id="filter5_i_46922_22189" x="0" y="0" width="44" height="2158" filterUnits="userSpaceOnUse" color-interpolation-filters="sRGB">
<feFlood flood-opacity="0" result="BackgroundImageFix"/>
<feBlend mode="normal" in="SourceGraphic" in2="BackgroundImageFix" result="shape"/>
<feColorMatrix in="SourceAlpha" type="matrix" values="0 0 0 0 0 0 0 0 0 0 0 0 0 0 0 0 0 0 127 0" result="hardAlpha"/>
<feOffset/>
<feGaussianBlur stdDeviation="15.5"/>
<feComposite in2="hardAlpha" operator="arithmetic" k2="-1" k3="1"/>
<feColorMatrix type="matrix" values="0 0 0 0 0 0 0 0 0 0 0 0 0 0 0 0 0 0 0.1 0"/>
<feBlend mode="normal" in2="shape" result="effect1_innerShadow_46922_22189"/>
</filter>
</defs>
</svg>
