<svg width="47" height="32" viewBox="0 0 47 32" fill="none" xmlns="http://www.w3.org/2000/svg">
<g id="Payment Method/GooglePay">
<rect id="BASE" x="0.333331" y="0.333331" width="46.3333" height="31.3333" rx="3.66664" fill="white" stroke="#AFB2B2" stroke-width="0.666662"/>
<g id="GooglePay">
<g id="Pay">
<path id="Union" fill-rule="evenodd" clip-rule="evenodd" d="M22.1977 21.01V16.982H24.2914C25.1494 16.982 25.8736 16.6966 26.4639 16.1336L26.6056 15.9909C27.6839 14.8253 27.6131 13.0096 26.4639 11.9312C25.8893 11.3604 25.1022 11.0511 24.2914 11.067H20.9304V21.01H22.1977ZM22.1979 15.7609V12.288H24.3235C24.7801 12.288 25.213 12.4624 25.5358 12.7796C26.2207 13.4456 26.2365 14.5557 25.5752 15.2455C25.2524 15.5865 24.7958 15.7768 24.3235 15.7609H22.1979ZM32.517 14.7386C31.9738 14.2391 31.2339 13.9854 30.2973 13.9854C29.093 13.9854 28.1878 14.4294 27.5896 15.3095L28.7073 16.0152C29.1166 15.4126 29.6754 15.1113 30.3838 15.1113C30.8325 15.1113 31.2654 15.2778 31.6039 15.5791C31.9345 15.8645 32.1234 16.2768 32.1234 16.7129V17.0063C31.6354 16.7367 31.0214 16.594 30.2658 16.594C29.3842 16.594 28.6758 16.8002 28.1484 17.2204C27.621 17.6406 27.3534 18.1957 27.3534 18.9013C27.3377 19.5436 27.6132 20.1541 28.1012 20.5664C28.5971 21.0105 29.2268 21.2325 29.9667 21.2325C30.8404 21.2325 31.533 20.844 32.0604 20.0669H32.1155V21.0105H33.3277V16.816C33.3277 15.9359 33.0601 15.2381 32.517 14.7386ZM29.0774 19.7572C28.8176 19.5669 28.6602 19.2577 28.6602 18.9247C28.6602 18.552 28.8334 18.2428 29.1719 17.997C29.5183 17.7512 29.9512 17.6243 30.463 17.6243C31.1715 17.6164 31.7226 17.775 32.1162 18.0921C32.1162 18.6313 31.9036 19.0991 31.4864 19.4956C31.1085 19.8761 30.5968 20.0902 30.0615 20.0902C29.7072 20.0982 29.3608 19.9792 29.0774 19.7572ZM36.0512 23.9993L40.2859 14.2069H38.9084L36.9485 19.0912H36.9249L34.9177 14.2069H33.5403L36.3188 20.5739L34.7446 23.9993H36.0512Z" fill="#3C4043"/>
</g>
<g id="G">
<path id="Blue" d="M17.8226 16.1098C17.8226 15.7213 17.7911 15.3327 17.7281 14.9521H12.3835V17.1485H15.4455C15.3195 17.8542 14.9102 18.4885 14.312 18.8849V20.3122H16.1381C17.2086 19.321 17.8226 17.8542 17.8226 16.1098Z" fill="#4285F4"/>
<path id="Green" d="M12.3837 21.6918C13.9107 21.6918 15.2016 21.1844 16.1383 20.3122L14.3122 18.885C13.8005 19.2338 13.1472 19.4321 12.3837 19.4321C10.9039 19.4321 9.6524 18.4251 9.20373 17.0771H7.32251V18.5519C8.2828 20.4787 10.2427 21.6918 12.3837 21.6918Z" fill="#34A853"/>
<path id="Yellow" d="M9.20403 17.0772C8.96786 16.3715 8.96786 15.6024 9.20403 14.8887V13.4219H7.32251C6.51164 15.0315 6.51164 16.9344 7.32251 18.544L9.20403 17.0772Z" fill="#FBBC04"/>
<path id="Red" d="M12.3837 12.5345C13.1945 12.5187 13.9737 12.8279 14.5562 13.3909L16.1776 11.7575C15.1465 10.7901 13.7927 10.2589 12.3837 10.2748C10.2427 10.2748 8.2828 11.4958 7.32251 13.4226L9.20373 14.8974C9.6524 13.5415 10.9039 12.5345 12.3837 12.5345Z" fill="#EA4335"/>
</g>
</g>
</g>
</svg>
