<svg width="199" height="37" viewBox="0 0 199 37" fill="none" xmlns="http://www.w3.org/2000/svg">
<g id="Group 102">
<g id="PaperWritten">
<path d="M50.728 28V10.12H57.4C58.616 10.12 59.688 10.344 60.616 10.792C61.56 11.224 62.296 11.864 62.824 12.712C63.352 13.544 63.616 14.56 63.616 15.76C63.616 16.944 63.344 17.96 62.8 18.808C62.272 19.64 61.544 20.28 60.616 20.728C59.688 21.176 58.616 21.4 57.4 21.4H53.992V28H50.728ZM53.992 18.52H57.448C58.04 18.52 58.552 18.408 58.984 18.184C59.416 17.944 59.752 17.616 59.992 17.2C60.232 16.784 60.352 16.304 60.352 15.76C60.352 15.2 60.232 14.72 59.992 14.32C59.752 13.904 59.416 13.584 58.984 13.36C58.552 13.12 58.04 13 57.448 13H53.992V18.52Z" fill="#05070A"/>
<path d="M69.2131 28.288C68.3011 28.288 67.5091 28.136 66.8371 27.832C66.1651 27.528 65.6451 27.096 65.2771 26.536C64.9091 25.96 64.7251 25.296 64.7251 24.544C64.7251 23.824 64.8851 23.184 65.2051 22.624C65.5251 22.048 66.0211 21.568 66.6931 21.184C67.3651 20.8 68.2131 20.528 69.2371 20.368L73.5091 19.672V22.072L69.8371 22.696C69.2131 22.808 68.7491 23.008 68.4451 23.296C68.1411 23.584 67.9891 23.96 67.9891 24.424C67.9891 24.872 68.1571 25.232 68.4931 25.504C68.8451 25.76 69.2771 25.888 69.7891 25.888C70.4451 25.888 71.0211 25.752 71.5171 25.48C72.0291 25.192 72.4211 24.8 72.6931 24.304C72.9811 23.808 73.1251 23.264 73.1251 22.672V19.312C73.1251 18.752 72.9011 18.288 72.4531 17.92C72.0211 17.536 71.4451 17.344 70.7251 17.344C70.0531 17.344 69.4531 17.528 68.9251 17.896C68.4131 18.248 68.0371 18.72 67.7971 19.312L65.2291 18.064C65.4851 17.376 65.8851 16.784 66.4291 16.288C66.9891 15.776 67.6451 15.376 68.3971 15.088C69.1491 14.8 69.9651 14.656 70.8451 14.656C71.9171 14.656 72.8611 14.856 73.6771 15.256C74.4931 15.64 75.1251 16.184 75.5731 16.888C76.0371 17.576 76.2691 18.384 76.2691 19.312V28H73.2931V25.768L73.9651 25.72C73.6291 26.28 73.2291 26.752 72.7651 27.136C72.3011 27.504 71.7731 27.792 71.1811 28C70.5891 28.192 69.9331 28.288 69.2131 28.288Z" fill="#05070A"/>
<path d="M79.175 32.8V14.944H82.127V17.536L81.839 16.888C82.287 16.184 82.895 15.64 83.663 15.256C84.431 14.856 85.319 14.656 86.327 14.656C87.559 14.656 88.671 14.96 89.663 15.568C90.655 16.176 91.439 16.992 92.015 18.016C92.607 19.04 92.903 20.192 92.903 21.472C92.903 22.736 92.615 23.888 92.039 24.928C91.463 25.968 90.679 26.792 89.687 27.4C88.695 27.992 87.567 28.288 86.303 28.288C85.359 28.288 84.487 28.104 83.687 27.736C82.903 27.352 82.279 26.808 81.815 26.104L82.319 25.48V32.8H79.175ZM85.943 25.408C86.663 25.408 87.303 25.24 87.863 24.904C88.423 24.568 88.855 24.104 89.159 23.512C89.479 22.92 89.639 22.24 89.639 21.472C89.639 20.704 89.479 20.032 89.159 19.456C88.855 18.864 88.423 18.4 87.863 18.064C87.303 17.712 86.663 17.536 85.943 17.536C85.255 17.536 84.631 17.704 84.071 18.04C83.527 18.376 83.095 18.848 82.775 19.456C82.471 20.048 82.319 20.72 82.319 21.472C82.319 22.24 82.471 22.92 82.775 23.512C83.095 24.104 83.527 24.568 84.071 24.904C84.631 25.24 85.255 25.408 85.943 25.408Z" fill="#05070A"/>
<path d="M101.492 28.288C100.148 28.288 98.972 27.984 97.964 27.376C96.956 26.768 96.172 25.944 95.612 24.904C95.052 23.864 94.772 22.712 94.772 21.448C94.772 20.136 95.052 18.976 95.612 17.968C96.188 16.944 96.964 16.136 97.94 15.544C98.932 14.952 100.036 14.656 101.252 14.656C102.276 14.656 103.172 14.824 103.94 15.16C104.724 15.496 105.388 15.96 105.932 16.552C106.476 17.144 106.892 17.824 107.18 18.592C107.468 19.344 107.612 20.16 107.612 21.04C107.612 21.264 107.596 21.496 107.564 21.736C107.548 21.976 107.508 22.184 107.444 22.36H97.364V19.96H105.668L104.18 21.088C104.324 20.352 104.284 19.696 104.06 19.12C103.852 18.544 103.5 18.088 103.004 17.752C102.524 17.416 101.94 17.248 101.252 17.248C100.596 17.248 100.012 17.416 99.5 17.752C98.988 18.072 98.596 18.552 98.324 19.192C98.068 19.816 97.972 20.576 98.036 21.472C97.972 22.272 98.076 22.984 98.348 23.608C98.636 24.216 99.052 24.688 99.596 25.024C100.156 25.36 100.796 25.528 101.516 25.528C102.236 25.528 102.844 25.376 103.34 25.072C103.852 24.768 104.252 24.36 104.54 23.848L107.084 25.096C106.828 25.72 106.428 26.272 105.884 26.752C105.34 27.232 104.692 27.608 103.94 27.88C103.204 28.152 102.388 28.288 101.492 28.288Z" fill="#05070A"/>
<path d="M109.995 28V14.944H112.947V17.848L112.707 17.416C113.011 16.44 113.483 15.76 114.123 15.376C114.779 14.992 115.563 14.8 116.475 14.8H117.243V17.584H116.115C115.219 17.584 114.499 17.864 113.955 18.424C113.411 18.968 113.139 19.736 113.139 20.728V28H109.995Z" fill="#05070A"/>
<path d="M122.908 28L117.772 10.12H119.716L124.156 26.128H123.748L128.308 10.12H130.348L134.884 26.128H134.452L138.916 10.12H140.86L135.724 28H133.684L129.1 11.92H129.532L124.948 28H122.908Z" fill="#05070A"/>
<path d="M142.02 28V15.136H143.82V17.248L143.58 16.936C143.884 16.328 144.34 15.848 144.948 15.496C145.572 15.144 146.324 14.968 147.204 14.968H148.02V16.768H146.892C145.964 16.768 145.22 17.056 144.66 17.632C144.1 18.208 143.82 19.024 143.82 20.08V28H142.02Z" fill="#05070A"/>
<path d="M150.129 28V15.136H151.929V28H150.129ZM150.129 12.76V10.12H151.929V12.76H150.129Z" fill="#05070A"/>
<path d="M160.534 28.144C159.382 28.144 158.494 27.808 157.87 27.136C157.246 26.464 156.934 25.504 156.934 24.256V16.936H154.558V15.136H155.158C155.702 15.136 156.134 14.96 156.454 14.608C156.774 14.24 156.934 13.784 156.934 13.24V12.16H158.734V15.136H161.566V16.936H158.734V24.256C158.734 24.688 158.798 25.072 158.926 25.408C159.054 25.728 159.27 25.984 159.574 26.176C159.894 26.368 160.318 26.464 160.846 26.464C160.974 26.464 161.126 26.456 161.302 26.44C161.478 26.424 161.63 26.408 161.758 26.392V28C161.566 28.048 161.35 28.08 161.11 28.096C160.87 28.128 160.678 28.144 160.534 28.144Z" fill="#05070A"/>
<path d="M169.838 28.144C168.686 28.144 167.798 27.808 167.174 27.136C166.55 26.464 166.238 25.504 166.238 24.256V16.936H163.862V15.136H164.462C165.006 15.136 165.438 14.96 165.758 14.608C166.078 14.24 166.238 13.784 166.238 13.24V12.16H168.038V15.136H170.87V16.936H168.038V24.256C168.038 24.688 168.102 25.072 168.23 25.408C168.358 25.728 168.574 25.984 168.878 26.176C169.198 26.368 169.622 26.464 170.15 26.464C170.278 26.464 170.43 26.456 170.606 26.44C170.782 26.424 170.934 26.408 171.062 26.392V28C170.87 28.048 170.654 28.08 170.414 28.096C170.174 28.128 169.982 28.144 169.838 28.144Z" fill="#05070A"/>
<path d="M179.61 28.288C178.41 28.288 177.322 28 176.346 27.424C175.386 26.832 174.626 26.024 174.066 25C173.506 23.976 173.226 22.816 173.226 21.52C173.226 20.224 173.498 19.08 174.042 18.088C174.586 17.08 175.322 16.288 176.25 15.712C177.194 15.136 178.25 14.848 179.418 14.848C180.346 14.848 181.17 15.024 181.89 15.376C182.626 15.712 183.25 16.176 183.762 16.768C184.274 17.344 184.666 18 184.938 18.736C185.21 19.456 185.346 20.2 185.346 20.968C185.346 21.128 185.338 21.312 185.322 21.52C185.306 21.712 185.282 21.912 185.25 22.12H174.378V20.44H184.218L183.354 21.16C183.498 20.28 183.394 19.496 183.042 18.808C182.706 18.104 182.218 17.552 181.578 17.152C180.938 16.736 180.218 16.528 179.418 16.528C178.618 16.528 177.874 16.736 177.186 17.152C176.514 17.568 175.986 18.152 175.602 18.904C175.218 19.64 175.066 20.52 175.146 21.544C175.066 22.568 175.226 23.464 175.626 24.232C176.042 24.984 176.602 25.568 177.306 25.984C178.026 26.4 178.794 26.608 179.61 26.608C180.554 26.608 181.346 26.384 181.986 25.936C182.626 25.488 183.146 24.928 183.546 24.256L185.082 25.072C184.826 25.648 184.434 26.184 183.906 26.68C183.378 27.16 182.746 27.552 182.01 27.856C181.29 28.144 180.49 28.288 179.61 28.288Z" fill="#05070A"/>
<path d="M188.52 28V15.136H190.32V17.632L189.912 17.536C190.232 16.704 190.752 16.048 191.472 15.568C192.208 15.088 193.056 14.848 194.016 14.848C194.928 14.848 195.744 15.056 196.464 15.472C197.2 15.888 197.776 16.464 198.192 17.2C198.624 17.92 198.84 18.736 198.84 19.648V28H197.04V20.344C197.04 19.56 196.896 18.896 196.608 18.352C196.336 17.808 195.944 17.392 195.432 17.104C194.936 16.8 194.36 16.648 193.704 16.648C193.048 16.648 192.464 16.8 191.952 17.104C191.44 17.392 191.04 17.816 190.752 18.376C190.464 18.92 190.32 19.576 190.32 20.344V28H188.52Z" fill="#05070A"/>
</g>
<path id="Subtract" fill-rule="evenodd" clip-rule="evenodd" d="M10 0C4.47715 0 0 4.47715 0 10V27C0 32.5228 4.47715 37 10 37H27C32.5228 37 37 32.5228 37 27V10C37 4.47715 32.5228 0 27 0H10ZM23.5459 9.32432L10.9175 7.03982C9.39628 6.76509 8 7.95435 8.00096 9.52682C8.00092 9.84729 8.06097 10.1648 8.1779 10.4624L11.4062 11.0471V24.619L11.4681 24.6263C11.4269 24.8111 11.4061 25 11.4062 25.1895C11.4061 25.7825 11.6113 26.3567 11.9858 26.8113C12.3602 27.2659 12.8801 27.5719 13.4541 27.6757L26.0825 29.9612C27.6037 30.2364 29 29.0467 29 27.475C29 27.1545 28.94 26.837 28.8231 26.5394L25.594 25.9551V11.8598V11.8108C25.594 11.2177 25.3888 10.6436 25.0143 10.1889C24.6398 9.7343 24.12 9.42822 23.5459 9.32432Z" fill="#05070A"/>
</g>
</svg>
