<svg width="47" height="32" viewBox="0 0 47 32" fill="none" xmlns="http://www.w3.org/2000/svg">
<g id="Payment Method/Mastercard">
<rect id="BASE" x="0.333331" y="0.333331" width="46.3333" height="31.3333" rx="3.66664" fill="white" stroke="#AFB2B2" stroke-width="0.666662"/>
<g id="Mastercard">
<path id="Left" fill-rule="evenodd" clip-rule="evenodd" d="M23.8357 22.8762C22.2355 24.2473 20.1599 25.075 17.8919 25.075C12.8311 25.075 8.72852 20.9542 8.72852 15.871C8.72852 10.7878 12.8311 6.66699 17.8919 6.66699C20.16 6.66699 22.2357 7.49471 23.8358 8.86581C25.4359 7.49478 27.5115 6.66711 29.7796 6.66711C34.8404 6.66711 38.9429 10.7879 38.9429 15.8711C38.9429 20.9543 34.8404 25.0751 29.7796 25.0751C27.5114 25.0751 25.4358 24.2474 23.8357 22.8762Z" fill="#ED0006"/>
<path id="Right" fill-rule="evenodd" clip-rule="evenodd" d="M23.8357 22.8762C25.8059 21.1881 27.0552 18.6761 27.0552 15.871C27.0552 13.0659 25.8059 10.5539 23.8357 8.86571C25.4358 7.49466 27.5114 6.66699 29.7795 6.66699C34.8403 6.66699 38.9428 10.7878 38.9428 15.871C38.9428 20.9542 34.8403 25.075 29.7795 25.075C27.5114 25.075 25.4358 24.2473 23.8357 22.8762Z" fill="#F9A000"/>
<path id="Middle" fill-rule="evenodd" clip-rule="evenodd" d="M23.8357 22.8762C25.8059 21.188 27.0552 18.676 27.0552 15.8709C27.0552 13.0659 25.8059 10.5539 23.8357 8.86572C21.8655 10.5539 20.6162 13.0659 20.6162 15.8709C20.6162 18.676 21.8655 21.188 23.8357 22.8762Z" fill="#FF5E00"/>
</g>
</g>
</svg>
