<svg width="24" height="24" viewBox="0 0 24 24" fill="none" xmlns="http://www.w3.org/2000/svg">
<g id="Group">
<path id="Vector" d="M24 12C24 18.6274 18.6274 24 12 24C5.37262 24 0 18.6274 0 12C0 12.0029 12 0.0013125 12 0C18.6274 0 24 5.37262 24 12Z" fill="#0052B4"/>
<g id="Group_2">
<path id="Vector_2" d="M11.9678 12H11.9999V11.9679L11.9678 12Z" fill="#F0F0F0"/>
<path id="Vector_3" d="M12 6.26086V0H11.998C5.3715 0.001125 0 5.37323 0 12H6.26086V8.47448L9.78642 12H11.9679L12 11.9679V9.78647L8.47444 6.26086H12Z" fill="#F0F0F0"/>
</g>
<g id="Group_3">
<path id="Vector_4" d="M6.07124 1.5652C4.19242 2.6359 2.63613 4.19219 1.56543 6.07102V12H4.69588V4.69566H12.0002V1.5652H6.07124Z" fill="#D80027"/>
<path id="Vector_5" d="M11.9998 10.5243L7.73641 6.26091C7.73641 6.26091 6.26074 6.261 6.26074 6.26091V6.261L11.9998 12H11.9998V10.5243ZM20.7809 8.90433L21.0399 9.70148H21.8781L21.2 10.1941L21.459 10.9912L20.7809 10.4986L20.1028 10.9912L20.3618 10.1941L19.6837 9.70148H20.5219L20.7809 8.90433ZM17.7847 14.6434L18.1733 15.8392H19.4305L18.4133 16.5781L18.8019 17.7739L17.7847 17.0349L16.7675 17.7739L17.1561 16.5781L16.1389 15.8392H17.3962L17.7847 14.6434ZM17.8979 5.25216L18.2217 6.24867H19.2694L18.4217 6.86437L18.7455 7.86084L17.8979 7.24495L17.0503 7.86084L17.3741 6.86437L16.5265 6.24867H17.5741L17.8979 5.25216ZM15.0149 8.86955L15.4034 10.0653H16.6607L15.6435 10.8043L16.0321 12L15.0149 11.261L13.9977 12L14.3863 10.8043L13.3691 10.0653H14.6264L15.0149 8.86955Z" fill="#D80027"/>
</g>
</g>
</svg>
