<svg width="559" height="364" viewBox="0 0 559 364" fill="none" xmlns="http://www.w3.org/2000/svg">
<g clip-path="url(#clip0_47616_5654)">
<path d="M383.35 85.2227C383.365 72.7927 378.835 60.7858 370.613 51.4608C417.551 0.752073 484.691 -31 559.255 -31V376.47H351.252C319.395 332.693 302.267 279.937 302.335 225.804C302.298 194.663 307.942 163.776 318.99 134.658C326.57 136.673 334.511 136.919 342.202 135.38C349.893 133.84 357.127 130.555 363.346 125.778C369.565 121.001 374.603 114.86 378.072 107.828C381.54 100.797 383.346 93.0625 383.35 85.2227Z" fill="url(#paint0_linear_47616_5654)"/>
<path d="M281 85.2232C280.999 74.825 284.169 64.6735 290.087 56.1218C296.005 47.5701 304.391 41.0244 314.125 37.3571C323.859 33.6898 334.481 33.0751 344.574 35.5949C354.667 38.1148 363.752 43.6495 370.617 51.4613C348.229 75.6324 330.701 103.883 318.99 134.672C308.092 131.764 298.46 125.34 291.591 116.398C284.721 107.457 280.998 96.4973 281 85.2232Z" fill="#FF5A00"/>
<path d="M281 85.2232C280.999 74.825 284.169 64.6735 290.087 56.1218C296.005 47.5701 304.391 41.0244 314.125 37.3571C323.859 33.6898 334.481 33.0751 344.574 35.5949C354.667 38.1148 363.752 43.6495 370.617 51.4613C348.229 75.6324 330.701 103.883 318.99 134.672C308.092 131.764 298.46 125.34 291.591 116.398C284.721 107.457 280.998 96.4973 281 85.2232Z" fill="url(#paint1_linear_47616_5654)"/>
<path d="M383.35 85.2228C383.346 93.0626 381.54 100.797 378.071 107.828C374.603 114.86 369.565 121.001 363.346 125.778C357.126 130.555 349.892 133.84 342.202 135.38C334.511 136.919 326.57 136.673 318.989 134.658C330.701 103.869 348.229 75.6184 370.617 51.4473C378.841 60.7764 383.37 72.7887 383.35 85.2228Z" fill="#FFB400"/>
<path d="M383.35 85.2228C383.346 93.0626 381.54 100.797 378.071 107.828C374.603 114.86 369.565 121.001 363.346 125.778C357.126 130.555 349.892 133.84 342.202 135.38C334.511 136.919 326.57 136.673 318.989 134.658C330.701 103.869 348.229 75.6184 370.617 51.4473C378.841 60.7764 383.37 72.7887 383.35 85.2228Z" fill="url(#paint2_linear_47616_5654)"/>
<path d="M209.647 390H95.3016C57.6371 369.559 32 329.599 32 283.746C32 217.165 86.055 163 152.5 163C218.945 163 273 217.165 273 283.746C273 329.621 247.329 369.58 209.647 390ZM152.496 221.072C118.004 221.072 89.9447 249.189 89.9447 283.746C89.9447 318.308 118.004 346.425 152.496 346.425C160.036 346.412 167.511 345.022 174.554 342.322C198.174 333.347 215.047 310.521 215.047 283.746C215.051 249.189 186.991 221.072 152.496 221.072Z" fill="#F3DCC6"/>
<path d="M209.647 390H95.3016C57.6371 369.559 32 329.599 32 283.746C32 217.165 86.055 163 152.5 163C218.945 163 273 217.165 273 283.746C273 329.621 247.329 369.58 209.647 390ZM152.496 221.072C118.004 221.072 89.9447 249.189 89.9447 283.746C89.9447 318.308 118.004 346.425 152.496 346.425C160.036 346.412 167.511 345.022 174.554 342.322C198.174 333.347 215.047 310.521 215.047 283.746C215.051 249.189 186.991 221.072 152.496 221.072Z" fill="url(#paint3_linear_47616_5654)"/>
<path d="M560.082 334.105C524.69 334.105 496 305.428 496 270.053C496 234.677 524.69 206 560.082 206C595.473 206 624.163 234.677 624.163 270.053C624.163 305.428 595.473 334.105 560.082 334.105Z" fill="url(#paint4_linear_47616_5654)"/>
<path d="M108 297C88.1178 297 72 280.658 72 260.5C72 240.342 88.1178 224 108 224C127.882 224 144 240.342 144 260.5C144 280.658 127.882 297 108 297Z" fill="url(#paint5_linear_47616_5654)"/>
<path d="M108 297C88.1178 297 72 280.658 72 260.5C72 240.342 88.1178 224 108 224C127.882 224 144 240.342 144 260.5C144 280.658 127.882 297 108 297Z" fill="url(#paint6_linear_47616_5654)"/>
<path d="M404.659 333.42C403.897 333.419 403.151 333.644 402.517 334.066C401.883 334.489 401.389 335.09 401.096 335.793C400.804 336.497 400.727 337.271 400.875 338.018C401.023 338.766 401.389 339.452 401.928 339.991C402.466 340.53 403.153 340.898 403.9 341.047C404.648 341.196 405.422 341.12 406.127 340.828C406.831 340.537 407.433 340.043 407.856 339.41C408.28 338.777 408.506 338.032 408.506 337.27C408.506 336.25 408.101 335.272 407.379 334.55C406.658 333.828 405.68 333.421 404.659 333.42Z" fill="#FF99D0"/>
<path d="M404.659 294.931C403.897 294.93 403.151 295.155 402.517 295.577C401.883 296 401.389 296.601 401.096 297.304C400.804 298.008 400.727 298.782 400.875 299.529C401.023 300.276 401.389 300.963 401.928 301.502C402.466 302.041 403.153 302.408 403.9 302.557C404.648 302.706 405.422 302.63 406.127 302.339C406.831 302.048 407.433 301.554 407.856 300.921C408.28 300.288 408.506 299.543 408.506 298.781C408.506 297.761 408.101 296.782 407.379 296.06C406.658 295.338 405.68 294.932 404.659 294.931Z" fill="#FF99D0"/>
<path d="M404.659 256.468C403.897 256.467 403.151 256.692 402.517 257.115C401.882 257.537 401.388 258.139 401.096 258.842C400.803 259.546 400.727 260.321 400.875 261.068C401.024 261.816 401.391 262.502 401.93 263.041C402.469 263.58 403.156 263.947 403.903 264.095C404.651 264.243 405.426 264.167 406.13 263.875C406.834 263.583 407.436 263.088 407.859 262.454C408.282 261.82 408.507 261.075 408.506 260.313C408.504 259.294 408.099 258.316 407.378 257.596C406.656 256.875 405.679 256.469 404.659 256.468Z" fill="#FF99D0"/>
<path d="M404.659 218C403.897 217.999 403.151 218.224 402.517 218.646C401.883 219.069 401.389 219.67 401.096 220.373C400.804 221.077 400.727 221.851 400.875 222.598C401.023 223.346 401.389 224.032 401.928 224.571C402.466 225.11 403.153 225.478 403.9 225.627C404.648 225.776 405.422 225.7 406.127 225.408C406.831 225.117 407.433 224.624 407.856 223.99C408.28 223.357 408.506 222.612 408.506 221.85C408.506 220.83 408.101 219.852 407.379 219.13C406.658 218.408 405.68 218.001 404.659 218Z" fill="#FF99D0"/>
<path d="M365.457 333.42C364.695 333.419 363.95 333.644 363.316 334.066C362.681 334.489 362.187 335.09 361.895 335.793C361.602 336.497 361.525 337.271 361.673 338.018C361.821 338.766 362.188 339.452 362.726 339.991C363.265 340.53 363.951 340.898 364.699 341.047C365.446 341.196 366.221 341.12 366.925 340.828C367.629 340.537 368.231 340.043 368.655 339.41C369.078 338.777 369.304 338.032 369.304 337.27C369.304 336.25 368.899 335.272 368.178 334.55C367.456 333.828 366.478 333.421 365.457 333.42Z" fill="#FF99D0"/>
<path d="M365.457 294.931C364.695 294.93 363.95 295.155 363.316 295.577C362.681 296 362.187 296.601 361.895 297.304C361.602 298.008 361.525 298.782 361.673 299.529C361.821 300.276 362.188 300.963 362.726 301.502C363.265 302.041 363.951 302.408 364.699 302.557C365.446 302.706 366.221 302.63 366.925 302.339C367.629 302.048 368.231 301.554 368.655 300.921C369.078 300.288 369.304 299.543 369.304 298.781C369.304 297.761 368.899 296.782 368.178 296.06C367.456 295.338 366.478 294.932 365.457 294.931Z" fill="#FF99D0"/>
<path d="M365.457 256.468C364.695 256.467 363.949 256.692 363.315 257.115C362.681 257.537 362.186 258.139 361.894 258.842C361.602 259.546 361.525 260.321 361.674 261.068C361.822 261.816 362.189 262.502 362.728 263.041C363.267 263.58 363.954 263.947 364.702 264.095C365.449 264.243 366.224 264.167 366.929 263.875C367.633 263.583 368.234 263.088 368.657 262.454C369.08 261.82 369.305 261.075 369.304 260.313C369.303 259.294 368.897 258.316 368.176 257.596C367.455 256.875 366.477 256.469 365.457 256.468Z" fill="#FF99D0"/>
<path d="M365.457 218C364.695 217.999 363.95 218.224 363.316 218.646C362.681 219.069 362.187 219.67 361.895 220.373C361.602 221.077 361.525 221.851 361.673 222.598C361.821 223.346 362.188 224.032 362.726 224.571C363.265 225.11 363.951 225.478 364.699 225.627C365.446 225.776 366.221 225.7 366.925 225.408C367.629 225.117 368.231 224.624 368.655 223.99C369.078 223.357 369.304 222.612 369.304 221.85C369.304 220.83 368.899 219.852 368.178 219.13C367.456 218.408 366.478 218.001 365.457 218Z" fill="#FF99D0"/>
<path d="M326.255 333.42C325.494 333.42 324.749 333.646 324.115 334.069C323.482 334.492 322.988 335.093 322.696 335.797C322.405 336.5 322.329 337.275 322.477 338.022C322.626 338.769 322.993 339.455 323.532 339.993C324.07 340.532 324.757 340.898 325.504 341.047C326.251 341.195 327.026 341.119 327.73 340.828C328.434 340.536 329.035 340.043 329.458 339.41C329.882 338.776 330.108 338.032 330.108 337.27C330.108 336.249 329.702 335.27 328.979 334.548C328.257 333.826 327.277 333.42 326.255 333.42Z" fill="#FF99D0"/>
<path d="M326.255 294.931C325.494 294.931 324.749 295.157 324.115 295.58C323.482 296.003 322.988 296.604 322.696 297.308C322.405 298.011 322.329 298.785 322.477 299.532C322.626 300.279 322.993 300.965 323.532 301.504C324.07 302.042 324.757 302.409 325.504 302.558C326.251 302.706 327.026 302.63 327.73 302.339C328.434 302.047 329.035 301.554 329.458 300.92C329.882 300.287 330.108 299.543 330.108 298.781C330.108 297.76 329.702 296.781 328.979 296.058C328.257 295.336 327.277 294.931 326.255 294.931Z" fill="#FF99D0"/>
<path d="M326.255 256.468C325.493 256.468 324.748 256.694 324.115 257.117C323.481 257.54 322.987 258.142 322.696 258.846C322.405 259.55 322.329 260.324 322.478 261.071C322.627 261.818 322.994 262.505 323.533 263.043C324.073 263.581 324.76 263.947 325.507 264.095C326.255 264.243 327.029 264.166 327.733 263.874C328.437 263.582 329.038 263.088 329.461 262.454C329.884 261.82 330.109 261.075 330.108 260.313C330.106 259.293 329.7 258.315 328.978 257.594C328.255 256.873 327.276 256.468 326.255 256.468Z" fill="#FF99D0"/>
<path d="M326.255 218C325.494 218 324.749 218.226 324.115 218.649C323.482 219.072 322.988 219.673 322.696 220.377C322.405 221.081 322.329 221.855 322.477 222.602C322.626 223.349 322.993 224.035 323.532 224.573C324.07 225.112 324.757 225.478 325.504 225.627C326.251 225.776 327.026 225.699 327.73 225.408C328.434 225.116 329.035 224.623 329.458 223.99C329.882 223.356 330.108 222.612 330.108 221.85C330.108 220.829 329.702 219.85 328.979 219.128C328.257 218.406 327.277 218 326.255 218Z" fill="#FF99D0"/>
<path d="M287.054 333.42C286.292 333.42 285.547 333.646 284.914 334.069C284.28 334.492 283.786 335.093 283.495 335.797C283.203 336.5 283.127 337.275 283.276 338.022C283.424 338.769 283.791 339.455 284.33 339.993C284.869 340.532 285.555 340.898 286.302 341.047C287.05 341.195 287.824 341.119 288.528 340.828C289.232 340.536 289.833 340.043 290.257 339.41C290.68 338.776 290.906 338.032 290.906 337.27C290.907 336.765 290.808 336.264 290.614 335.796C290.421 335.329 290.137 334.904 289.779 334.546C289.421 334.188 288.996 333.905 288.529 333.712C288.061 333.518 287.56 333.419 287.054 333.42Z" fill="#FF99D0"/>
<path d="M287.054 294.931C286.292 294.931 285.547 295.157 284.914 295.58C284.28 296.003 283.786 296.604 283.495 297.308C283.203 298.011 283.127 298.785 283.276 299.532C283.424 300.279 283.791 300.965 284.33 301.504C284.869 302.042 285.555 302.409 286.302 302.558C287.05 302.706 287.824 302.63 288.528 302.339C289.232 302.047 289.833 301.554 290.257 300.92C290.68 300.287 290.906 299.543 290.906 298.781C290.907 298.275 290.808 297.774 290.614 297.307C290.421 296.839 290.137 296.415 289.779 296.057C289.421 295.699 288.996 295.416 288.529 295.222C288.061 295.029 287.56 294.93 287.054 294.931Z" fill="#FF99D0"/>
<path d="M287.054 256.468C286.292 256.468 285.547 256.694 284.913 257.117C284.279 257.54 283.786 258.142 283.494 258.846C283.203 259.55 283.127 260.324 283.276 261.071C283.425 261.818 283.792 262.505 284.332 263.043C284.871 263.581 285.558 263.947 286.305 264.095C287.053 264.243 287.828 264.166 288.532 263.874C289.235 263.582 289.837 263.088 290.259 262.454C290.682 261.82 290.907 261.075 290.906 260.313C290.906 259.808 290.806 259.307 290.613 258.84C290.419 258.373 290.135 257.949 289.777 257.592C289.42 257.235 288.995 256.952 288.528 256.759C288.06 256.566 287.559 256.467 287.054 256.468Z" fill="#FF99D0"/>
<path d="M287.054 218C286.292 218 285.547 218.226 284.914 218.649C284.28 219.072 283.786 219.673 283.495 220.377C283.203 221.081 283.127 221.855 283.276 222.602C283.424 223.349 283.791 224.035 284.33 224.573C284.869 225.112 285.555 225.478 286.302 225.627C287.05 225.776 287.824 225.699 288.528 225.408C289.232 225.116 289.833 224.623 290.257 223.99C290.68 223.356 290.906 222.612 290.906 221.85C290.907 221.345 290.808 220.844 290.614 220.376C290.421 219.909 290.137 219.484 289.779 219.126C289.421 218.769 288.996 218.485 288.529 218.292C288.061 218.098 287.56 217.999 287.054 218Z" fill="#FF99D0"/>
<path d="M247.852 333.42C247.09 333.42 246.346 333.646 245.712 334.069C245.079 334.492 244.585 335.093 244.293 335.797C244.002 336.5 243.926 337.275 244.074 338.022C244.223 338.769 244.59 339.455 245.128 339.993C245.667 340.532 246.354 340.898 247.101 341.047C247.848 341.195 248.623 341.119 249.327 340.828C250.03 340.536 250.632 340.043 251.055 339.41C251.479 338.776 251.705 338.032 251.705 337.27C251.705 336.249 251.299 335.27 250.576 334.548C249.854 333.826 248.874 333.42 247.852 333.42Z" fill="#FF99D0"/>
<path d="M247.852 294.931C247.09 294.931 246.346 295.157 245.712 295.58C245.079 296.003 244.585 296.604 244.293 297.308C244.002 298.011 243.926 298.785 244.074 299.532C244.223 300.279 244.59 300.965 245.128 301.504C245.667 302.042 246.354 302.409 247.101 302.558C247.848 302.706 248.623 302.63 249.327 302.339C250.03 302.047 250.632 301.554 251.055 300.92C251.479 300.287 251.705 299.543 251.705 298.781C251.705 297.76 251.299 296.781 250.576 296.058C249.854 295.336 248.874 294.931 247.852 294.931Z" fill="#FF99D0"/>
<path d="M247.852 256.468C247.09 256.468 246.345 256.694 245.712 257.117C245.078 257.54 244.584 258.142 244.293 258.846C244.001 259.55 243.925 260.324 244.075 261.071C244.224 261.818 244.591 262.505 245.13 263.043C245.67 263.581 246.356 263.947 247.104 264.095C247.852 264.243 248.626 264.166 249.33 263.874C250.034 263.582 250.635 263.088 251.058 262.454C251.481 261.82 251.706 261.075 251.705 260.313C251.703 259.293 251.297 258.315 250.574 257.594C249.852 256.873 248.873 256.468 247.852 256.468Z" fill="#FF99D0"/>
<path d="M247.852 218C247.09 218 246.346 218.226 245.712 218.649C245.079 219.072 244.585 219.673 244.293 220.377C244.002 221.081 243.926 221.855 244.074 222.602C244.223 223.349 244.59 224.035 245.128 224.573C245.667 225.112 246.354 225.478 247.101 225.627C247.848 225.776 248.623 225.699 249.327 225.408C250.03 225.116 250.632 224.623 251.055 223.99C251.479 223.356 251.705 222.612 251.705 221.85C251.705 220.829 251.299 219.85 250.576 219.128C249.854 218.406 248.874 218 247.852 218Z" fill="#FF99D0"/>
</g>
<defs>
<linearGradient id="paint0_linear_47616_5654" x1="438.77" y1="-578.866" x2="276.209" y2="489.831" gradientUnits="userSpaceOnUse">
<stop stop-color="#FF9DAF"/>
<stop offset="0.932292" stop-color="#DD4862"/>
</linearGradient>
<linearGradient id="paint1_linear_47616_5654" x1="286.182" y1="21.1947" x2="324.743" y2="136.426" gradientUnits="userSpaceOnUse">
<stop stop-color="#71D8FA"/>
<stop offset="1" stop-color="#44BCE3"/>
</linearGradient>
<linearGradient id="paint2_linear_47616_5654" x1="333.722" y1="41.0084" x2="425.456" y2="223.077" gradientUnits="userSpaceOnUse">
<stop stop-color="#D2EFF8"/>
<stop offset="1" stop-color="#8BD5ED"/>
</linearGradient>
<linearGradient id="paint3_linear_47616_5654" x1="399.703" y1="533.791" x2="-52.7293" y2="3.02233" gradientUnits="userSpaceOnUse">
<stop stop-color="#FFE39D"/>
<stop offset="1" stop-color="#FFCD50"/>
</linearGradient>
<linearGradient id="paint4_linear_47616_5654" x1="564.06" y1="33.7557" x2="531.405" y2="374.388" gradientUnits="userSpaceOnUse">
<stop stop-color="#FFDFE5"/>
<stop offset="0.932292" stop-color="#F5A9B6"/>
</linearGradient>
<linearGradient id="paint5_linear_47616_5654" x1="137.922" y1="202.942" x2="70.5094" y2="314.729" gradientUnits="userSpaceOnUse">
<stop stop-color="#F8FCF4"/>
<stop offset="1" stop-color="#C2F490"/>
</linearGradient>
<linearGradient id="paint6_linear_47616_5654" x1="119.859" y1="198.573" x2="95.1526" y2="304.335" gradientUnits="userSpaceOnUse">
<stop stop-color="#D6F4B3"/>
<stop offset="1" stop-color="#B1DA81"/>
</linearGradient>
<clipPath id="clip0_47616_5654">
<rect width="559" height="364" rx="28" transform="matrix(-1 0 0 1 559 0)" fill="white"/>
</clipPath>
</defs>
</svg>
