<svg width="320" height="407" viewBox="0 0 320 407" fill="none" xmlns="http://www.w3.org/2000/svg">
<g clip-path="url(#clip0_46922_14549)">
<path d="M144.351 154.248C144.366 166.678 139.836 178.685 131.613 188.01C178.551 238.719 245.691 270.471 320.256 270.471V-137H112.252C80.3955 -93.2228 63.2671 -40.466 63.3358 13.6668C63.2984 44.808 68.9421 75.695 79.9901 104.812C87.5702 102.798 95.5119 102.551 103.202 104.091C110.893 105.631 118.127 108.916 124.346 113.693C130.565 118.47 135.604 124.611 139.072 131.643C142.541 138.674 144.347 146.408 144.351 154.248Z" fill="url(#paint0_linear_46922_14549)"/>
<path d="M41.9997 154.248C41.9991 164.646 45.1691 174.797 51.0872 183.349C57.0052 191.901 65.3903 198.446 75.1248 202.114C84.8592 205.781 95.4807 206.396 105.574 203.876C115.666 201.356 124.751 195.821 131.617 188.009C109.229 163.838 91.7009 135.588 79.9894 104.798C69.0919 107.707 59.4602 114.13 52.5906 123.072C45.7209 132.014 41.9979 142.973 41.9997 154.248Z" fill="#FF5A00"/>
<path d="M41.9997 154.248C41.9991 164.646 45.1691 174.797 51.0872 183.349C57.0052 191.901 65.3903 198.446 75.1248 202.114C84.8592 205.781 95.4807 206.396 105.574 203.876C115.666 201.356 124.751 195.821 131.617 188.009C109.229 163.838 91.7009 135.588 79.9894 104.798C69.0919 107.707 59.4602 114.13 52.5906 123.072C45.7209 132.014 41.9979 142.973 41.9997 154.248Z" fill="url(#paint1_linear_46922_14549)"/>
<path d="M144.351 154.248C144.347 146.408 142.541 138.674 139.073 131.642C135.604 124.611 130.566 118.47 124.347 113.693C118.128 108.916 110.894 105.631 103.203 104.091C95.5125 102.551 87.5708 102.798 79.9907 104.812C91.7022 135.602 109.23 163.852 131.619 188.023C139.843 178.694 144.371 166.682 144.351 154.248Z" fill="#FFB400"/>
<path d="M144.351 154.248C144.347 146.408 142.541 138.674 139.073 131.642C135.604 124.611 130.566 118.47 124.347 113.693C118.128 108.916 110.894 105.631 103.203 104.091C95.5125 102.551 87.5708 102.798 79.9907 104.812C91.7022 135.602 109.23 163.852 131.619 188.023C139.843 178.694 144.371 166.682 144.351 154.248Z" fill="url(#paint2_linear_46922_14549)"/>
<path d="M-66 346.58L-66 257.381C-49.9711 227.999 -18.6372 208 17.318 208C69.5267 208 112 250.167 112 302C112 353.833 69.5266 396 17.318 396C-18.654 396 -49.9879 375.974 -66 346.58ZM66.4636 301.997C66.4636 275.091 44.416 253.202 17.318 253.202C-9.7833 253.202 -31.831 275.091 -31.831 301.997C-31.8208 307.879 -30.7306 313.71 -28.6138 319.204C-21.5762 337.63 -3.67738 350.792 17.318 350.792C44.416 350.795 66.4636 328.906 66.4636 301.997Z" fill="#F3DCC6"/>
<path d="M-66 346.58L-66 257.381C-49.9711 227.999 -18.6372 208 17.318 208C69.5267 208 112 250.167 112 302C112 353.833 69.5266 396 17.318 396C-18.654 396 -49.9879 375.974 -66 346.58ZM66.4636 301.997C66.4636 275.091 44.416 253.202 17.318 253.202C-9.7833 253.202 -31.831 275.091 -31.831 301.997C-31.8208 307.879 -30.7306 313.71 -28.6138 319.204C-21.5762 337.63 -3.67738 350.792 17.318 350.792C44.416 350.795 66.4636 328.906 66.4636 301.997Z" fill="url(#paint3_linear_46922_14549)"/>
<path d="M317.083 328.105C281.691 328.105 253.001 299.428 253.001 264.053C253.001 228.677 281.691 200 317.083 200C352.474 200 381.164 228.677 381.164 264.053C381.164 299.428 352.474 328.105 317.083 328.105Z" fill="url(#paint4_linear_46922_14549)"/>
<path d="M238.659 344.42C237.897 344.419 237.151 344.644 236.517 345.066C235.883 345.489 235.389 346.09 235.096 346.793C234.804 347.497 234.727 348.271 234.875 349.018C235.023 349.766 235.389 350.452 235.928 350.991C236.466 351.53 237.153 351.898 237.9 352.047C238.648 352.196 239.422 352.12 240.127 351.828C240.831 351.537 241.433 351.043 241.856 350.41C242.28 349.777 242.506 349.032 242.506 348.27C242.506 347.25 242.101 346.272 241.379 345.55C240.658 344.828 239.68 344.421 238.659 344.42Z" fill="#FF99D0"/>
<path d="M238.659 305.931C237.897 305.93 237.151 306.155 236.517 306.577C235.883 307 235.389 307.601 235.096 308.304C234.804 309.008 234.727 309.782 234.875 310.529C235.023 311.276 235.389 311.963 235.928 312.502C236.466 313.041 237.153 313.408 237.9 313.557C238.648 313.706 239.422 313.63 240.127 313.339C240.831 313.048 241.433 312.554 241.856 311.921C242.28 311.288 242.506 310.543 242.506 309.781C242.506 308.761 242.101 307.782 241.379 307.06C240.658 306.338 239.68 305.932 238.659 305.931Z" fill="#FF99D0"/>
<path d="M238.659 267.468C237.897 267.467 237.151 267.692 236.517 268.115C235.882 268.537 235.388 269.139 235.096 269.842C234.803 270.546 234.727 271.321 234.875 272.068C235.024 272.816 235.391 273.502 235.93 274.041C236.469 274.58 237.156 274.947 237.903 275.095C238.651 275.243 239.426 275.167 240.13 274.875C240.834 274.583 241.436 274.088 241.859 273.454C242.282 272.82 242.507 272.075 242.506 271.313C242.504 270.294 242.099 269.316 241.378 268.596C240.656 267.875 239.679 267.469 238.659 267.468Z" fill="#FF99D0"/>
<path d="M238.659 229C237.897 228.999 237.151 229.224 236.517 229.646C235.883 230.069 235.389 230.67 235.096 231.373C234.804 232.077 234.727 232.851 234.875 233.598C235.023 234.346 235.389 235.032 235.928 235.571C236.466 236.11 237.153 236.478 237.9 236.627C238.648 236.776 239.422 236.7 240.127 236.408C240.831 236.117 241.433 235.624 241.856 234.99C242.28 234.357 242.506 233.612 242.506 232.85C242.506 231.83 242.101 230.852 241.379 230.13C240.658 229.408 239.68 229.001 238.659 229Z" fill="#FF99D0"/>
<path d="M199.458 344.42C198.696 344.419 197.95 344.644 197.316 345.066C196.682 345.489 196.187 346.09 195.895 346.793C195.603 347.497 195.526 348.271 195.674 349.018C195.822 349.766 196.188 350.452 196.727 350.991C197.265 351.53 197.952 351.898 198.699 352.047C199.446 352.196 200.221 352.12 200.925 351.828C201.63 351.537 202.232 351.043 202.655 350.41C203.079 349.777 203.305 349.032 203.305 348.27C203.305 347.25 202.9 346.272 202.178 345.55C201.457 344.828 200.478 344.421 199.458 344.42Z" fill="#FF99D0"/>
<path d="M199.458 305.931C198.696 305.93 197.95 306.155 197.316 306.577C196.682 307 196.187 307.601 195.895 308.304C195.603 309.008 195.526 309.782 195.674 310.529C195.822 311.276 196.188 311.963 196.727 312.502C197.265 313.041 197.952 313.408 198.699 313.557C199.446 313.706 200.221 313.63 200.925 313.339C201.63 313.048 202.232 312.554 202.655 311.921C203.079 311.288 203.305 310.543 203.305 309.781C203.305 308.761 202.9 307.782 202.178 307.06C201.457 306.338 200.478 305.932 199.458 305.931Z" fill="#FF99D0"/>
<path d="M199.458 267.468C198.695 267.467 197.95 267.692 197.316 268.115C196.681 268.537 196.187 269.139 195.894 269.842C195.602 270.546 195.526 271.321 195.674 272.068C195.822 272.816 196.189 273.502 196.729 274.041C197.268 274.58 197.954 274.947 198.702 275.095C199.45 275.243 200.225 275.167 200.929 274.875C201.633 274.583 202.235 274.088 202.658 273.454C203.081 272.82 203.306 272.075 203.305 271.313C203.303 270.294 202.898 269.316 202.176 268.596C201.455 267.875 200.478 267.469 199.458 267.468Z" fill="#FF99D0"/>
<path d="M199.458 229C198.696 228.999 197.95 229.224 197.316 229.646C196.682 230.069 196.187 230.67 195.895 231.373C195.603 232.077 195.526 232.851 195.674 233.598C195.822 234.346 196.188 235.032 196.727 235.571C197.265 236.11 197.952 236.478 198.699 236.627C199.446 236.776 200.221 236.7 200.925 236.408C201.63 236.117 202.232 235.624 202.655 234.99C203.079 234.357 203.305 233.612 203.305 232.85C203.305 231.83 202.9 230.852 202.178 230.13C201.457 229.408 200.478 229.001 199.458 229Z" fill="#FF99D0"/>
<path d="M160.255 344.42C159.493 344.42 158.749 344.646 158.115 345.069C157.482 345.492 156.988 346.093 156.696 346.797C156.405 347.5 156.328 348.275 156.477 349.022C156.626 349.769 156.993 350.455 157.531 350.993C158.07 351.532 158.756 351.898 159.504 352.047C160.251 352.195 161.025 352.119 161.729 351.828C162.433 351.536 163.035 351.043 163.458 350.41C163.881 349.776 164.107 349.032 164.107 348.27C164.107 347.249 163.702 346.27 162.979 345.548C162.257 344.826 161.277 344.42 160.255 344.42Z" fill="#FF99D0"/>
<path d="M160.255 305.931C159.493 305.931 158.749 306.157 158.115 306.58C157.482 307.003 156.988 307.604 156.696 308.308C156.405 309.011 156.328 309.785 156.477 310.532C156.626 311.279 156.993 311.965 157.531 312.504C158.07 313.042 158.756 313.409 159.504 313.558C160.251 313.706 161.025 313.63 161.729 313.339C162.433 313.047 163.035 312.554 163.458 311.92C163.881 311.287 164.107 310.543 164.107 309.781C164.107 308.76 163.702 307.781 162.979 307.058C162.257 306.336 161.277 305.931 160.255 305.931Z" fill="#FF99D0"/>
<path d="M160.255 267.468C159.493 267.468 158.748 267.694 158.114 268.117C157.481 268.54 156.987 269.142 156.696 269.846C156.404 270.55 156.328 271.324 156.477 272.071C156.626 272.818 156.994 273.505 157.533 274.043C158.072 274.581 158.759 274.947 159.507 275.095C160.254 275.243 161.029 275.166 161.733 274.874C162.437 274.582 163.038 274.088 163.461 273.454C163.883 272.82 164.108 272.075 164.107 271.313C164.106 270.293 163.7 269.315 162.977 268.594C162.255 267.873 161.276 267.468 160.255 267.468Z" fill="#FF99D0"/>
<path d="M160.255 229C159.493 229 158.749 229.226 158.115 229.649C157.482 230.072 156.988 230.673 156.696 231.377C156.405 232.081 156.328 232.855 156.477 233.602C156.626 234.349 156.993 235.035 157.531 235.573C158.07 236.112 158.756 236.478 159.504 236.627C160.251 236.776 161.025 236.699 161.729 236.408C162.433 236.116 163.035 235.623 163.458 234.99C163.881 234.356 164.107 233.612 164.107 232.85C164.107 231.829 163.702 230.85 162.979 230.128C162.257 229.406 161.277 229 160.255 229Z" fill="#FF99D0"/>
<path d="M121.054 344.42C120.292 344.42 119.547 344.646 118.914 345.069C118.28 345.492 117.787 346.093 117.495 346.797C117.203 347.5 117.127 348.275 117.276 349.022C117.424 349.769 117.791 350.455 118.33 350.993C118.869 351.532 119.555 351.898 120.302 352.047C121.05 352.195 121.824 352.119 122.528 351.828C123.232 351.536 123.834 351.043 124.257 350.41C124.68 349.776 124.906 349.032 124.906 348.27C124.907 347.765 124.808 347.264 124.614 346.796C124.421 346.329 124.137 345.904 123.779 345.546C123.422 345.188 122.997 344.905 122.529 344.712C122.061 344.518 121.56 344.419 121.054 344.42Z" fill="#FF99D0"/>
<path d="M121.054 305.931C120.292 305.931 119.547 306.157 118.914 306.58C118.28 307.003 117.787 307.604 117.495 308.308C117.203 309.011 117.127 309.785 117.276 310.532C117.424 311.279 117.791 311.965 118.33 312.504C118.869 313.042 119.555 313.409 120.302 313.558C121.05 313.706 121.824 313.63 122.528 313.339C123.232 313.047 123.834 312.554 124.257 311.92C124.68 311.287 124.906 310.543 124.906 309.781C124.907 309.275 124.808 308.774 124.614 308.307C124.421 307.839 124.137 307.415 123.779 307.057C123.422 306.699 122.997 306.416 122.529 306.222C122.061 306.029 121.56 305.93 121.054 305.931Z" fill="#FF99D0"/>
<path d="M121.054 267.468C120.292 267.468 119.547 267.694 118.913 268.117C118.28 268.54 117.786 269.142 117.495 269.846C117.203 270.55 117.127 271.324 117.276 272.071C117.425 272.818 117.793 273.505 118.332 274.043C118.871 274.581 119.558 274.947 120.306 275.095C121.053 275.243 121.828 275.166 122.532 274.874C123.236 274.582 123.837 274.088 124.26 273.454C124.682 272.82 124.907 272.075 124.906 271.313C124.906 270.808 124.807 270.307 124.613 269.84C124.419 269.373 124.135 268.949 123.778 268.592C123.42 268.235 122.995 267.952 122.528 267.759C122.06 267.566 121.56 267.467 121.054 267.468Z" fill="#FF99D0"/>
<path d="M121.054 229C120.292 229 119.547 229.226 118.914 229.649C118.28 230.072 117.787 230.673 117.495 231.377C117.203 232.081 117.127 232.855 117.276 233.602C117.424 234.349 117.791 235.035 118.33 235.573C118.869 236.112 119.555 236.478 120.302 236.627C121.05 236.776 121.824 236.699 122.528 236.408C123.232 236.116 123.834 235.623 124.257 234.99C124.68 234.356 124.906 233.612 124.906 232.85C124.907 232.345 124.808 231.844 124.614 231.376C124.421 230.909 124.137 230.484 123.779 230.126C123.422 229.769 122.997 229.485 122.529 229.292C122.061 229.098 121.56 228.999 121.054 229Z" fill="#FF99D0"/>
<path d="M81.8528 344.42C81.091 344.42 80.3462 344.646 79.7127 345.069C79.0792 345.492 78.5854 346.093 78.2939 346.797C78.0023 347.5 77.926 348.275 78.0747 349.022C78.2233 349.769 78.5902 350.455 79.1289 350.993C79.6677 351.532 80.3541 351.898 81.1013 352.047C81.8486 352.195 82.6231 352.119 83.327 351.828C84.0309 351.536 84.6326 351.043 85.0558 350.41C85.4791 349.776 85.7051 349.032 85.7051 348.27C85.7051 347.249 85.2992 346.27 84.5768 345.548C83.8544 344.826 82.8745 344.42 81.8528 344.42Z" fill="#FF99D0"/>
<path d="M81.8528 305.931C81.091 305.931 80.3462 306.157 79.7127 306.58C79.0792 307.003 78.5854 307.604 78.2939 308.308C78.0023 309.011 77.926 309.785 78.0747 310.532C78.2233 311.279 78.5902 311.965 79.1289 312.504C79.6677 313.042 80.3541 313.409 81.1013 313.558C81.8486 313.706 82.6231 313.63 83.327 313.339C84.0309 313.047 84.6326 312.554 85.0558 311.92C85.4791 311.287 85.7051 310.543 85.7051 309.781C85.7051 308.76 85.2992 307.781 84.5768 307.058C83.8544 306.336 82.8745 305.931 81.8528 305.931Z" fill="#FF99D0"/>
<path d="M81.8528 267.468C81.0907 267.468 80.3457 267.694 79.7121 268.117C79.0785 268.54 78.5848 269.142 78.2934 269.846C78.002 270.55 77.926 271.324 78.075 272.071C78.2241 272.818 78.5915 273.505 79.1308 274.043C79.67 274.581 80.3569 274.947 81.1045 275.095C81.8521 275.243 82.6269 275.166 83.3307 274.874C84.0345 274.582 84.6357 274.088 85.0584 273.454C85.4811 272.82 85.7061 272.075 85.7051 271.313C85.7037 270.293 85.2972 269.315 84.5749 268.594C83.8527 267.873 82.8736 267.468 81.8528 267.468Z" fill="#FF99D0"/>
<path d="M81.8528 229C81.091 229 80.3462 229.226 79.7127 229.649C79.0792 230.072 78.5854 230.673 78.2939 231.377C78.0023 232.081 77.926 232.855 78.0747 233.602C78.2233 234.349 78.5902 235.035 79.1289 235.573C79.6677 236.112 80.3541 236.478 81.1013 236.627C81.8486 236.776 82.6231 236.699 83.327 236.408C84.0309 236.116 84.6326 235.623 85.0558 234.99C85.4791 234.356 85.7051 233.612 85.7051 232.85C85.7051 231.829 85.2992 230.85 84.5768 230.128C83.8544 229.406 82.8745 229 81.8528 229Z" fill="#FF99D0"/>
</g>
<defs>
<linearGradient id="paint0_linear_46922_14549" x1="199.77" y1="818.337" x2="37.21" y2="-250.36" gradientUnits="userSpaceOnUse">
<stop stop-color="#FF9DAF"/>
<stop offset="0.932292" stop-color="#DD4862"/>
</linearGradient>
<linearGradient id="paint1_linear_46922_14549" x1="47.1817" y1="218.276" x2="85.7425" y2="103.044" gradientUnits="userSpaceOnUse">
<stop stop-color="#71D8FA"/>
<stop offset="1" stop-color="#44BCE3"/>
</linearGradient>
<linearGradient id="paint2_linear_46922_14549" x1="94.7232" y1="198.462" x2="186.457" y2="16.3935" gradientUnits="userSpaceOnUse">
<stop stop-color="#D2EFF8"/>
<stop offset="1" stop-color="#8BD5ED"/>
</linearGradient>
<linearGradient id="paint3_linear_46922_14549" x1="-178.752" y1="494.839" x2="235.626" y2="139.781" gradientUnits="userSpaceOnUse">
<stop stop-color="#FFE39D"/>
<stop offset="1" stop-color="#FFCD50"/>
</linearGradient>
<linearGradient id="paint4_linear_46922_14549" x1="321.061" y1="27.7557" x2="288.405" y2="368.388" gradientUnits="userSpaceOnUse">
<stop stop-color="#FFDFE5"/>
<stop offset="0.932292" stop-color="#F5A9B6"/>
</linearGradient>
<clipPath id="clip0_46922_14549">
<path d="M320 28C320 12.536 307.464 0 292 0H28C12.536 0 0 12.536 0 28V407H320V28Z" fill="white"/>
</clipPath>
</defs>
</svg>
