<svg width="106" height="20" viewBox="0 0 106 20" fill="none" xmlns="http://www.w3.org/2000/svg">
<g id="Group 11">
<path id="Star 1" d="M9.44893 1.27965C9.65718 0.796067 10.3428 0.796067 10.5511 1.27965L12.5629 5.9513C12.6498 6.15301 12.8399 6.29114 13.0586 6.31142L18.1233 6.78116C18.6475 6.82979 18.8594 7.48187 18.4638 7.82936L14.6425 11.1863C14.4775 11.3313 14.4049 11.5548 14.4532 11.769L15.5715 16.731C15.6873 17.2446 15.1326 17.6476 14.6799 17.3788L10.3063 14.7819C10.1175 14.6698 9.8825 14.6698 9.69366 14.7819L5.32013 17.3788C4.86741 17.6476 4.31272 17.2446 4.42848 16.731L5.54681 11.769C5.59509 11.5548 5.52247 11.3313 5.35748 11.1863L1.53616 7.82936C1.1406 7.48187 1.35248 6.82979 1.87674 6.78116L6.94144 6.31142C7.16012 6.29114 7.35024 6.15301 7.4371 5.9513L9.44893 1.27965Z" fill="#FFBE18"/>
<path id="Star 2" d="M30.4489 1.27965C30.6572 0.796067 31.3428 0.796067 31.5511 1.27965L33.5629 5.9513C33.6498 6.15301 33.8399 6.29114 34.0586 6.31142L39.1233 6.78116C39.6475 6.82979 39.8594 7.48187 39.4638 7.82936L35.6425 11.1863C35.4775 11.3313 35.4049 11.5548 35.4532 11.769L36.5715 16.731C36.6873 17.2446 36.1326 17.6476 35.6799 17.3788L31.3063 14.7819C31.1175 14.6698 30.8825 14.6698 30.6937 14.7819L26.3201 17.3788C25.8674 17.6476 25.3127 17.2446 25.4285 16.731L26.5468 11.769C26.5951 11.5548 26.5225 11.3313 26.3575 11.1863L22.5362 7.82936C22.1406 7.48187 22.3525 6.82979 22.8767 6.78116L27.9414 6.31142C28.1601 6.29114 28.3502 6.15301 28.4371 5.9513L30.4489 1.27965Z" fill="#FFBE18"/>
<path id="Star 3" d="M51.9533 1.20905C52.166 0.738664 52.834 0.738666 53.0467 1.20905L55.1945 5.95892C55.2838 6.15636 55.4726 6.29032 55.6884 6.30938L61.042 6.78227C61.5746 6.82932 61.7843 7.497 61.3742 7.84012L57.3778 11.1837C57.2036 11.3294 57.1266 11.561 57.1789 11.7821L58.3555 16.7537C58.476 17.2631 57.9319 17.6718 57.4762 17.4141L52.7953 14.767C52.6121 14.6634 52.3879 14.6634 52.2047 14.767L47.5238 17.4141C47.0681 17.6718 46.524 17.2631 46.6445 16.7537L47.8211 11.7821C47.8734 11.561 47.7964 11.3294 47.6222 11.1837L43.6258 7.84012C43.2157 7.497 43.4254 6.82932 43.958 6.78227L49.3116 6.30938C49.5274 6.29032 49.7162 6.15636 49.8055 5.95892L51.9533 1.20905Z" fill="#FFBE18"/>
<path id="Star 4" d="M73.9533 1.20905C74.166 0.738664 74.834 0.738666 75.0467 1.20905L77.1945 5.95892C77.2838 6.15636 77.4726 6.29032 77.6884 6.30938L83.042 6.78227C83.5746 6.82932 83.7843 7.497 83.3742 7.84012L79.3778 11.1837C79.2036 11.3294 79.1266 11.561 79.1789 11.7821L80.3555 16.7537C80.476 17.2631 79.9319 17.6718 79.4762 17.4141L74.7953 14.767C74.6121 14.6634 74.3879 14.6634 74.2047 14.767L69.5238 17.4141C69.0681 17.6718 68.524 17.2631 68.6445 16.7537L69.8211 11.7821C69.8734 11.561 69.7964 11.3294 69.6222 11.1837L65.6258 7.84012C65.2157 7.497 65.4254 6.82932 65.958 6.78227L71.3116 6.30938C71.5274 6.29032 71.7162 6.15636 71.8055 5.95892L73.9533 1.20905Z" fill="#FFBE18"/>
<path id="Star 5" opacity="0.4" d="M95.4489 1.27965C95.6572 0.796067 96.3428 0.796067 96.5511 1.27965L98.5629 5.9513C98.6498 6.15301 98.8399 6.29114 99.0586 6.31142L104.123 6.78116C104.648 6.82979 104.859 7.48187 104.464 7.82936L100.643 11.1863C100.478 11.3313 100.405 11.5548 100.453 11.769L101.572 16.731C101.687 17.2446 101.133 17.6476 100.68 17.3788L96.3063 14.7819C96.1175 14.6698 95.8825 14.6698 95.6937 14.7819L91.3201 17.3788C90.8674 17.6476 90.3127 17.2446 90.4285 16.731L91.5468 11.769C91.5951 11.5548 91.5225 11.3313 91.3575 11.1863L87.5362 7.82936C87.1406 7.48187 87.3525 6.82979 87.8767 6.78116L92.9414 6.31142C93.1601 6.29114 93.3502 6.15301 93.4371 5.9513L95.4489 1.27965Z" fill="#AFB2B2"/>
</g>
</svg>
