<svg width="260" height="62" viewBox="0 0 260 62" fill="none" xmlns="http://www.w3.org/2000/svg">
<path d="M75.54 28V13.1H80.96C81.96 13.1 82.84 13.2867 83.6 13.66C84.3733 14.02 84.9733 14.5533 85.4 15.26C85.8267 15.9533 86.04 16.7867 86.04 17.76C86.04 18.72 85.82 19.5467 85.38 20.24C84.9533 20.9333 84.36 21.4667 83.6 21.84C82.84 22.2133 81.96 22.4 80.96 22.4H77.9V28H75.54ZM77.9 20.3H81.02C81.5533 20.3 82.02 20.1933 82.42 19.98C82.82 19.7667 83.1333 19.4733 83.36 19.1C83.5867 18.7133 83.7 18.26 83.7 17.74C83.7 17.22 83.5867 16.7733 83.36 16.4C83.1333 16.0133 82.82 15.72 82.42 15.52C82.02 15.3067 81.5533 15.2 81.02 15.2H77.9V20.3ZM90.7866 28.24C90.0532 28.24 89.4066 28.1133 88.8466 27.86C88.2999 27.5933 87.8732 27.2333 87.5666 26.78C87.2599 26.3133 87.1066 25.7667 87.1066 25.14C87.1066 24.5533 87.2332 24.0267 87.4866 23.56C87.7532 23.0933 88.1599 22.7 88.7066 22.38C89.2532 22.06 89.9399 21.8333 90.7666 21.7L94.5266 21.08V22.86L91.2066 23.44C90.6066 23.5467 90.1666 23.74 89.8866 24.02C89.6066 24.2867 89.4666 24.6333 89.4666 25.06C89.4666 25.4733 89.6199 25.8133 89.9266 26.08C90.2466 26.3333 90.6532 26.46 91.1466 26.46C91.7599 26.46 92.2932 26.3267 92.7466 26.06C93.2132 25.7933 93.5732 25.44 93.8266 25C94.0799 24.5467 94.2066 24.0467 94.2066 23.5V20.72C94.2066 20.1867 94.0066 19.7533 93.6066 19.42C93.2199 19.0733 92.6999 18.9 92.0466 18.9C91.4466 18.9 90.9199 19.06 90.4666 19.38C90.0266 19.6867 89.6999 20.0867 89.4866 20.58L87.6066 19.64C87.8066 19.1067 88.1332 18.64 88.5866 18.24C89.0399 17.8267 89.5666 17.5067 90.1666 17.28C90.7799 17.0533 91.4266 16.94 92.1066 16.94C92.9599 16.94 93.7132 17.1 94.3666 17.42C95.0332 17.74 95.5466 18.1867 95.9066 18.76C96.2799 19.32 96.4666 19.9733 96.4666 20.72V28H94.3066V26.04L94.7666 26.1C94.5132 26.54 94.1866 26.92 93.7866 27.24C93.3999 27.56 92.9532 27.8067 92.4466 27.98C91.9532 28.1533 91.3999 28.24 90.7866 28.24ZM99.1091 32V17.18H101.269V19.42L101.009 18.9C101.409 18.2867 101.942 17.8067 102.609 17.46C103.276 17.1133 104.036 16.94 104.889 16.94C105.916 16.94 106.836 17.1867 107.649 17.68C108.476 18.1733 109.122 18.8467 109.589 19.7C110.069 20.5533 110.309 21.5133 110.309 22.58C110.309 23.6467 110.069 24.6067 109.589 25.46C109.122 26.3133 108.482 26.9933 107.669 27.5C106.856 27.9933 105.929 28.24 104.889 28.24C104.049 28.24 103.282 28.0667 102.589 27.72C101.909 27.3733 101.382 26.8733 101.009 26.22L101.369 25.8V32H99.1091ZM104.669 26.14C105.309 26.14 105.876 25.9867 106.369 25.68C106.862 25.3733 107.249 24.9533 107.529 24.42C107.822 23.8733 107.969 23.26 107.969 22.58C107.969 21.9 107.822 21.2933 107.529 20.76C107.249 20.2267 106.862 19.8067 106.369 19.5C105.876 19.1933 105.309 19.04 104.669 19.04C104.042 19.04 103.476 19.1933 102.969 19.5C102.476 19.8067 102.082 20.2267 101.789 20.76C101.509 21.2933 101.369 21.9 101.369 22.58C101.369 23.26 101.509 23.8733 101.789 24.42C102.082 24.9533 102.476 25.3733 102.969 25.68C103.476 25.9867 104.042 26.14 104.669 26.14ZM117.588 28.24C116.508 28.24 115.548 27.9933 114.708 27.5C113.881 26.9933 113.234 26.3133 112.768 25.46C112.301 24.5933 112.068 23.6267 112.068 22.56C112.068 21.4667 112.301 20.5 112.768 19.66C113.248 18.82 113.888 18.16 114.688 17.68C115.488 17.1867 116.394 16.94 117.408 16.94C118.221 16.94 118.948 17.08 119.588 17.36C120.228 17.64 120.768 18.0267 121.208 18.52C121.648 19 121.981 19.5533 122.207 20.18C122.448 20.8067 122.568 21.4733 122.568 22.18C122.568 22.3533 122.561 22.5333 122.548 22.72C122.534 22.9067 122.508 23.08 122.468 23.24H113.848V21.44H121.188L120.108 22.26C120.241 21.6067 120.194 21.0267 119.968 20.52C119.754 20 119.421 19.5933 118.968 19.3C118.528 18.9933 118.008 18.84 117.408 18.84C116.808 18.84 116.274 18.9933 115.808 19.3C115.341 19.5933 114.981 20.02 114.728 20.58C114.474 21.1267 114.374 21.7933 114.428 22.58C114.361 23.3133 114.461 23.9533 114.728 24.5C115.008 25.0467 115.394 25.4733 115.888 25.78C116.394 26.0867 116.968 26.24 117.608 26.24C118.261 26.24 118.814 26.0933 119.268 25.8C119.734 25.5067 120.101 25.1267 120.368 24.66L122.207 25.56C121.994 26.0667 121.661 26.5267 121.208 26.94C120.768 27.34 120.234 27.66 119.608 27.9C118.994 28.1267 118.321 28.24 117.588 28.24ZM124.773 28V17.18H126.933V19.36L126.733 19.04C126.973 18.3333 127.36 17.8267 127.893 17.52C128.426 17.2 129.066 17.04 129.813 17.04H130.473V19.1H129.533C128.786 19.1 128.18 19.3333 127.713 19.8C127.26 20.2533 127.033 20.9067 127.033 21.76V28H124.773ZM135.019 28L130.919 13.1H133.419L136.739 26H136.119L139.559 13.1H142.019L145.459 26H144.819L148.159 13.1H150.639L146.559 28H143.899L140.439 15.3H141.139L137.659 28H135.019ZM151.375 28V17.18H153.535V19.36L153.335 19.04C153.575 18.3333 153.961 17.8267 154.495 17.52C155.028 17.2 155.668 17.04 156.415 17.04H157.075V19.1H156.135C155.388 19.1 154.781 19.3333 154.315 19.8C153.861 20.2533 153.635 20.9067 153.635 21.76V28H151.375ZM158.621 28V17.18H160.881V28H158.621ZM158.621 15.7V13.1H160.881V15.7H158.621ZM168.203 28.12C167.07 28.12 166.19 27.8 165.563 27.16C164.936 26.52 164.623 25.62 164.623 24.46V19.22H162.723V17.18H163.023C163.53 17.18 163.923 17.0333 164.203 16.74C164.483 16.4467 164.623 16.0467 164.623 15.54V14.7H166.883V17.18H169.343V19.22H166.883V24.36C166.883 24.7333 166.943 25.0533 167.063 25.32C167.183 25.5733 167.376 25.7733 167.643 25.92C167.91 26.0533 168.256 26.12 168.683 26.12C168.79 26.12 168.91 26.1133 169.043 26.1C169.176 26.0867 169.303 26.0733 169.423 26.06V28C169.236 28.0267 169.03 28.0533 168.803 28.08C168.576 28.1067 168.376 28.12 168.203 28.12ZM176.309 28.12C175.175 28.12 174.295 27.8 173.669 27.16C173.042 26.52 172.729 25.62 172.729 24.46V19.22H170.829V17.18H171.129C171.635 17.18 172.029 17.0333 172.309 16.74C172.589 16.4467 172.729 16.0467 172.729 15.54V14.7H174.989V17.18H177.449V19.22H174.989V24.36C174.989 24.7333 175.049 25.0533 175.169 25.32C175.289 25.5733 175.482 25.7733 175.749 25.92C176.015 26.0533 176.362 26.12 176.789 26.12C176.895 26.12 177.015 26.1133 177.149 26.1C177.282 26.0867 177.409 26.0733 177.529 26.06V28C177.342 28.0267 177.135 28.0533 176.909 28.08C176.682 28.1067 176.482 28.12 176.309 28.12ZM184.619 28.24C183.539 28.24 182.579 27.9933 181.739 27.5C180.912 26.9933 180.265 26.3133 179.799 25.46C179.332 24.5933 179.099 23.6267 179.099 22.56C179.099 21.4667 179.332 20.5 179.799 19.66C180.279 18.82 180.919 18.16 181.719 17.68C182.519 17.1867 183.425 16.94 184.439 16.94C185.252 16.94 185.979 17.08 186.619 17.36C187.259 17.64 187.799 18.0267 188.239 18.52C188.679 19 189.012 19.5533 189.239 20.18C189.479 20.8067 189.599 21.4733 189.599 22.18C189.599 22.3533 189.592 22.5333 189.579 22.72C189.565 22.9067 189.539 23.08 189.499 23.24H180.879V21.44H188.219L187.139 22.26C187.272 21.6067 187.225 21.0267 186.999 20.52C186.785 20 186.452 19.5933 185.999 19.3C185.559 18.9933 185.039 18.84 184.439 18.84C183.839 18.84 183.305 18.9933 182.839 19.3C182.372 19.5933 182.012 20.02 181.759 20.58C181.505 21.1267 181.405 21.7933 181.459 22.58C181.392 23.3133 181.492 23.9533 181.759 24.5C182.039 25.0467 182.425 25.4733 182.919 25.78C183.425 26.0867 183.999 26.24 184.639 26.24C185.292 26.24 185.845 26.0933 186.299 25.8C186.765 25.5067 187.132 25.1267 187.399 24.66L189.239 25.56C189.025 26.0667 188.692 26.5267 188.239 26.94C187.799 27.34 187.265 27.66 186.639 27.9C186.025 28.1267 185.352 28.24 184.619 28.24ZM191.804 28V17.18H193.964V19.3L193.704 19.02C193.971 18.34 194.398 17.8267 194.984 17.48C195.571 17.12 196.251 16.94 197.024 16.94C197.824 16.94 198.531 17.1133 199.144 17.46C199.758 17.8067 200.238 18.2867 200.584 18.9C200.931 19.5133 201.104 20.22 201.104 21.02V28H198.864V21.62C198.864 21.0733 198.764 20.6133 198.564 20.24C198.364 19.8533 198.078 19.56 197.704 19.36C197.344 19.1467 196.931 19.04 196.464 19.04C195.998 19.04 195.578 19.1467 195.204 19.36C194.844 19.56 194.564 19.8533 194.364 20.24C194.164 20.6267 194.064 21.0867 194.064 21.62V28H191.804Z" fill="#AFB2B2"/>
<path d="M181.95 52V49.536H176.644V48.626L181.95 41.57H182.93V48.626H184.204V49.536H182.93V52H181.95ZM177.498 49.032L177.372 48.626H181.95V42.536L182.3 42.634L177.498 49.032ZM186.26 52V50.46H187.38V52H186.26ZM189.93 52L194.634 42.55H189.426V41.57H195.796V42.55L191.106 52H189.93Z" fill="#AFB2B2"/>
<path d="M205.94 53.96C205.203 53.12 204.638 52.1727 204.246 51.118C203.863 50.0633 203.672 48.9433 203.672 47.758C203.672 46.5633 203.863 45.4433 204.246 44.398C204.638 43.3433 205.203 42.4007 205.94 41.57H206.85C206.178 42.5033 205.665 43.4973 205.31 44.552C204.965 45.6067 204.792 46.6753 204.792 47.758C204.792 48.8407 204.965 49.9093 205.31 50.964C205.665 52.0187 206.178 53.0173 206.85 53.96H205.94ZM207.941 52V51.3L210.853 48.094C211.422 47.4687 211.884 46.9507 212.239 46.54C212.603 46.1293 212.874 45.756 213.051 45.42C213.228 45.084 213.317 44.72 213.317 44.328C213.317 43.7027 213.135 43.222 212.771 42.886C212.407 42.55 211.922 42.382 211.315 42.382C210.69 42.382 210.162 42.5593 209.733 42.914C209.313 43.2687 209.028 43.7633 208.879 44.398L207.857 44.174C207.978 43.6047 208.198 43.1147 208.515 42.704C208.832 42.2933 209.229 41.976 209.705 41.752C210.181 41.5187 210.713 41.402 211.301 41.402C211.926 41.402 212.472 41.528 212.939 41.78C213.406 42.032 213.77 42.3773 214.031 42.816C214.302 43.2547 214.437 43.7587 214.437 44.328C214.437 44.72 214.353 45.098 214.185 45.462C214.026 45.826 213.784 46.218 213.457 46.638C213.13 47.058 212.71 47.548 212.197 48.108L209.551 51.02H214.717V52H207.941ZM216.335 52V51.3L219.247 48.094C219.817 47.4687 220.279 46.9507 220.633 46.54C220.997 46.1293 221.268 45.756 221.445 45.42C221.623 45.084 221.711 44.72 221.711 44.328C221.711 43.7027 221.529 43.222 221.165 42.886C220.801 42.55 220.316 42.382 219.709 42.382C219.084 42.382 218.557 42.5593 218.127 42.914C217.707 43.2687 217.423 43.7633 217.273 44.398L216.251 44.174C216.373 43.6047 216.592 43.1147 216.909 42.704C217.227 42.2933 217.623 41.976 218.099 41.752C218.575 41.5187 219.107 41.402 219.695 41.402C220.321 41.402 220.867 41.528 221.333 41.78C221.8 42.032 222.164 42.3773 222.425 42.816C222.696 43.2547 222.831 43.7587 222.831 44.328C222.831 44.72 222.747 45.098 222.579 45.462C222.421 45.826 222.178 46.218 221.851 46.638C221.525 47.058 221.105 47.548 220.591 48.108L217.945 51.02H223.111V52H216.335ZM228.034 52.168C227.493 52.168 226.993 52.0747 226.536 51.888C226.079 51.7013 225.677 51.4353 225.332 51.09C224.996 50.7447 224.739 50.334 224.562 49.858L225.458 49.438C225.673 49.9793 226.009 50.4087 226.466 50.726C226.923 51.034 227.446 51.188 228.034 51.188C228.501 51.188 228.916 51.0993 229.28 50.922C229.644 50.7353 229.929 50.4693 230.134 50.124C230.339 49.7787 230.442 49.3587 230.442 48.864C230.442 48.3693 230.335 47.9493 230.12 47.604C229.915 47.2587 229.63 46.9973 229.266 46.82C228.902 46.6427 228.487 46.554 228.02 46.554C227.899 46.554 227.763 46.5587 227.614 46.568C227.474 46.5773 227.357 46.5913 227.264 46.61L227.04 46.12L229.854 42.55H225.052V41.57H231.114V42.55L228.482 45.868L228.342 45.686C228.967 45.7047 229.523 45.854 230.008 46.134C230.493 46.4047 230.871 46.7733 231.142 47.24C231.422 47.7067 231.562 48.248 231.562 48.864C231.562 49.48 231.413 50.04 231.114 50.544C230.815 51.0387 230.4 51.4353 229.868 51.734C229.336 52.0233 228.725 52.168 228.034 52.168ZM232.729 53.96C233.401 53.0173 233.91 52.0187 234.255 50.964C234.61 49.9093 234.787 48.8407 234.787 47.758C234.787 46.6753 234.61 45.6067 234.255 44.552C233.91 43.4973 233.401 42.5033 232.729 41.57H233.639C234.386 42.4007 234.951 43.3433 235.333 44.398C235.716 45.4433 235.907 46.5633 235.907 47.758C235.907 48.9433 235.716 50.0633 235.333 51.118C234.951 52.1727 234.386 53.12 233.639 53.96H232.729Z" fill="#AFB2B2"/>
<path d="M82.4489 39.2796C82.6572 38.7961 83.3428 38.7961 83.5511 39.2796L85.2925 43.3235C85.3794 43.5252 85.5695 43.6633 85.7882 43.6836L90.1722 44.0902C90.6965 44.1388 90.9083 44.7909 90.5128 45.1384L87.205 48.0442C87.04 48.1891 86.9674 48.4126 87.0157 48.6269L87.9837 52.922C88.0995 53.4356 87.5448 53.8386 87.0921 53.5698L83.3063 51.3219C83.1175 51.2098 82.8825 51.2098 82.6937 51.3219L78.9079 53.5698C78.4552 53.8386 77.9005 53.4356 78.0163 52.922L78.9843 48.6269C79.0326 48.4126 78.96 48.1891 78.795 48.0442L75.4872 45.1384C75.0917 44.7909 75.3035 44.1388 75.8278 44.0902L80.2118 43.6836C80.4305 43.6633 80.6206 43.5252 80.7075 43.3235L82.4489 39.2796Z" fill="#AFB2B2"/>
<path d="M101.449 39.2796C101.657 38.7961 102.343 38.7961 102.551 39.2796L104.293 43.3235C104.379 43.5252 104.57 43.6633 104.788 43.6836L109.172 44.0902C109.696 44.1388 109.908 44.7909 109.513 45.1384L106.205 48.0442C106.04 48.1891 105.967 48.4126 106.016 48.6269L106.984 52.922C107.1 53.4356 106.545 53.8386 106.092 53.5698L102.306 51.3219C102.118 51.2098 101.882 51.2098 101.694 51.3219L97.9079 53.5698C97.4552 53.8386 96.9005 53.4356 97.0163 52.922L97.9843 48.6269C98.0326 48.4126 97.96 48.1891 97.795 48.0442L94.4872 45.1384C94.0917 44.7909 94.3035 44.1388 94.8278 44.0902L99.2118 43.6836C99.4305 43.6633 99.6206 43.5252 99.7075 43.3235L101.449 39.2796Z" fill="#AFB2B2"/>
<path d="M120.954 39.2016C121.167 38.7327 121.833 38.7327 122.046 39.2016L123.924 43.3319C124.013 43.5289 124.202 43.6624 124.417 43.6813L129.085 44.0914C129.618 44.1383 129.828 44.8077 129.416 45.1503L125.942 48.0413C125.767 48.1871 125.689 48.4196 125.742 48.6413L126.767 52.947C126.888 53.456 126.345 53.8653 125.889 53.6088L121.794 51.3055C121.612 51.2027 121.388 51.2027 121.206 51.3055L117.111 53.6088C116.655 53.8653 116.112 53.456 116.233 52.947L117.258 48.6413C117.311 48.4196 117.233 48.1871 117.058 48.0413L113.584 45.1503C113.172 44.8077 113.382 44.1383 113.915 44.0914L118.583 43.6813C118.798 43.6624 118.987 43.5289 119.076 43.3319L120.954 39.2016Z" fill="#AFB2B2"/>
<path d="M140.954 39.2016C141.167 38.7327 141.833 38.7327 142.046 39.2016L143.924 43.3319C144.013 43.5289 144.202 43.6624 144.417 43.6813L149.085 44.0914C149.618 44.1383 149.828 44.8077 149.416 45.1503L145.942 48.0413C145.767 48.1871 145.689 48.4196 145.742 48.6413L146.767 52.947C146.888 53.456 146.345 53.8653 145.889 53.6088L141.794 51.3055C141.612 51.2027 141.388 51.2027 141.206 51.3055L137.111 53.6088C136.655 53.8653 136.112 53.456 136.233 52.947L137.258 48.6413C137.311 48.4196 137.233 48.1871 137.058 48.0413L133.584 45.1503C133.172 44.8077 133.382 44.1383 133.915 44.0914L138.583 43.6813C138.798 43.6624 138.987 43.5289 139.076 43.3319L140.954 39.2016Z" fill="#AFB2B2"/>
<path opacity="0.4" d="M160.449 39.2796C160.657 38.7961 161.343 38.7961 161.551 39.2796L163.293 43.3235C163.379 43.5252 163.57 43.6633 163.788 43.6836L168.172 44.0902C168.696 44.1388 168.908 44.7909 168.513 45.1384L165.205 48.0442C165.04 48.1891 164.967 48.4126 165.016 48.6269L165.984 52.922C166.1 53.4356 165.545 53.8386 165.092 53.5698L161.306 51.3219C161.118 51.2098 160.882 51.2098 160.694 51.3219L156.908 53.5698C156.455 53.8386 155.901 53.4356 156.016 52.922L156.984 48.6269C157.033 48.4126 156.96 48.1891 156.795 48.0442L153.487 45.1384C153.092 44.7909 153.304 44.1388 153.828 44.0902L158.212 43.6836C158.43 43.6633 158.621 43.5252 158.707 43.3235L160.449 39.2796Z" fill="#AFB2B2"/>
<path fill-rule="evenodd" clip-rule="evenodd" d="M22.3514 10C16.0822 10 11 15.0822 11 21.3514V40.6486C11 46.9178 16.0822 52 22.3514 52H41.6486C47.9178 52 53 46.9178 53 40.6486V21.3514C53 15.0822 47.9178 10 41.6486 10H22.3514ZM37.7277 20.5844L23.3928 17.9911C21.666 17.6793 20.0811 19.0293 20.0822 20.8142C20.0821 21.178 20.1503 21.5384 20.283 21.8762L23.9476 22.54V37.9459L24.0178 37.9542C23.971 38.164 23.9475 38.3784 23.9476 38.5935C23.9475 39.2667 24.1804 39.9184 24.6055 40.4344C25.0305 40.9505 25.6206 41.2979 26.2723 41.4157L40.6072 44.01C42.334 44.3224 43.9189 42.9719 43.9189 41.1878C43.919 40.824 43.8508 40.4636 43.7181 40.1258L40.0527 39.4626V23.4625V23.4069C40.0527 22.7336 39.8197 22.0819 39.3946 21.5658C38.9695 21.0497 38.3794 20.7023 37.7277 20.5844Z" fill="#AFB2B2"/>
</svg>
