<svg width="120" height="82" viewBox="0 0 120 82" fill="none" xmlns="http://www.w3.org/2000/svg">
<g id="Frame" clip-path="url(#clip0_46782_24772)">
<g id="Group">
<path id="Vector" d="M112.273 82H13.9261C12.0028 81.999 10.1491 81.2913 8.72708 80.0151C7.3051 78.7388 6.41713 76.9859 6.23672 75.0989L0.0404139 10.2921C-0.0593406 9.2486 0.0605546 8.19602 0.392593 7.20027C0.724631 6.20452 1.26166 5.28703 1.97007 4.50525C2.67849 3.72346 3.54302 3.09421 4.50957 2.65688C5.47611 2.21955 6.52386 1.98356 7.58721 1.96367L112.132 0.00147741C113.158 -0.0169 114.178 0.16653 115.132 0.541047C116.086 0.915564 116.955 1.47366 117.687 2.18273C118.42 2.89181 119.002 3.73764 119.399 4.67082C119.796 5.604 120 6.60582 120 7.61775V74.3859C120 76.4055 119.185 78.3421 117.736 79.77C116.287 81.1979 114.322 82 112.273 82Z" fill="url(#paint0_linear_46782_24772)"/>
<path id="Vector_2" opacity="0.76" d="M6.32393 16.0683L10.7203 72.1074C10.8121 73.2817 11.3472 74.3795 12.2199 75.1842C13.0926 75.9888 14.2397 76.4419 15.4347 76.4541L109.825 77.4289C110.457 77.4356 111.084 77.3188 111.67 77.0852C112.255 76.8515 112.788 76.5058 113.237 76.0679C113.686 75.6299 114.043 75.1086 114.286 74.534C114.529 73.9594 114.655 73.3429 114.655 72.7202V12.3904C114.655 11.7582 114.526 11.1324 114.276 10.5503C114.026 9.96821 113.659 9.44175 113.198 9.00233C112.737 8.56291 112.19 8.21952 111.592 7.99263C110.993 7.76575 110.354 7.66002 109.713 7.68175L10.9226 10.9977C10.2783 11.0196 9.64507 11.1698 9.06117 11.4393C8.47728 11.7088 7.95476 12.0919 7.5251 12.5657C7.09544 13.0394 6.76752 13.594 6.56108 14.196C6.35465 14.7979 6.27398 15.4348 6.32393 16.0683Z" fill="white"/>
<path id="Vector_3" opacity="0.77" d="M17.0156 67.2265H101.956C102.55 67.2266 103.138 67.1105 103.687 66.8849C104.235 66.6593 104.733 66.3288 105.151 65.9124C105.569 65.4961 105.899 65.0022 106.122 64.4593C106.345 63.9164 106.456 63.3353 106.45 62.7496L106.021 23.6824L98.7971 32.6885L92.9487 33.4242C92.9487 33.4242 87.7095 33.6081 86.3045 33.7921C84.8995 33.976 78.4217 35.4482 78.4217 35.4482L72.1754 38.5765L70.7077 42.5494L66.4129 44.9774L61.7574 47.6753H52.2905L40.6444 42.5509H36.6878L29.5113 46.671L22.7924 54.3579L17.0156 67.2265Z" fill="white"/>
<g id="Vector_4">
<path d="M17.9521 19.2857L71.1806 17.7164C71.3102 17.7129 71.4392 17.7351 71.56 17.7816C71.6808 17.8282 71.7909 17.8981 71.8838 17.9872C71.9767 18.0764 72.0505 18.183 72.1009 18.3008C72.1513 18.4185 72.1772 18.545 72.1772 18.6728V19.5145C72.1772 19.7654 72.0772 20.0062 71.8988 20.1851C71.7203 20.3641 71.4777 20.4667 71.2231 20.4709L17.9946 21.1949C17.8663 21.1963 17.739 21.1725 17.62 21.1251C17.5011 21.0776 17.3928 21.0074 17.3016 20.9184C17.2104 20.8295 17.138 20.7236 17.0885 20.6069C17.0391 20.4901 17.0137 20.3649 17.0137 20.2384C17.0145 19.9908 17.1128 19.7531 17.2878 19.5754C17.4628 19.3977 17.7009 19.2939 17.9521 19.2857Z" fill="url(#paint1_linear_46782_24772)"/>
<path d="M17.9521 19.2857L71.1806 17.7164C71.3102 17.7129 71.4392 17.7351 71.56 17.7816C71.6808 17.8282 71.7909 17.8981 71.8838 17.9872C71.9767 18.0764 72.0505 18.183 72.1009 18.3008C72.1513 18.4185 72.1772 18.545 72.1772 18.6728V19.5145C72.1772 19.7654 72.0772 20.0062 71.8988 20.1851C71.7203 20.3641 71.4777 20.4667 71.2231 20.4709L17.9946 21.1949C17.8663 21.1963 17.739 21.1725 17.62 21.1251C17.5011 21.0776 17.3928 21.0074 17.3016 20.9184C17.2104 20.8295 17.138 20.7236 17.0885 20.6069C17.0391 20.4901 17.0137 20.3649 17.0137 20.2384C17.0145 19.9908 17.1128 19.7531 17.2878 19.5754C17.4628 19.3977 17.7009 19.2939 17.9521 19.2857Z" fill="url(#paint2_linear_46782_24772)"/>
<path d="M17.9521 19.2857L71.1806 17.7164C71.3102 17.7129 71.4392 17.7351 71.56 17.7816C71.6808 17.8282 71.7909 17.8981 71.8838 17.9872C71.9767 18.0764 72.0505 18.183 72.1009 18.3008C72.1513 18.4185 72.1772 18.545 72.1772 18.6728V19.5145C72.1772 19.7654 72.0772 20.0062 71.8988 20.1851C71.7203 20.3641 71.4777 20.4667 71.2231 20.4709L17.9946 21.1949C17.8663 21.1963 17.739 21.1725 17.62 21.1251C17.5011 21.0776 17.3928 21.0074 17.3016 20.9184C17.2104 20.8295 17.138 20.7236 17.0885 20.6069C17.0391 20.4901 17.0137 20.3649 17.0137 20.2384C17.0145 19.9908 17.1128 19.7531 17.2878 19.5754C17.4628 19.3977 17.7009 19.2939 17.9521 19.2857Z" fill="url(#paint3_linear_46782_24772)"/>
</g>
<g id="Vector_5">
<path d="M71.2097 23.6831H17.9812C17.4468 23.6831 17.0137 24.11 17.0137 24.6366V24.9972C17.0137 25.5238 17.4468 25.9507 17.9812 25.9507H71.2097C71.744 25.9507 72.1772 25.5238 72.1772 24.9972V24.6366C72.1772 24.11 71.744 23.6831 71.2097 23.6831Z" fill="url(#paint4_linear_46782_24772)"/>
<path d="M71.2097 23.6831H17.9812C17.4468 23.6831 17.0137 24.11 17.0137 24.6366V24.9972C17.0137 25.5238 17.4468 25.9507 17.9812 25.9507H71.2097C71.744 25.9507 72.1772 25.5238 72.1772 24.9972V24.6366C72.1772 24.11 71.744 23.6831 71.2097 23.6831Z" fill="url(#paint5_linear_46782_24772)"/>
<path d="M71.2097 23.6831H17.9812C17.4468 23.6831 17.0137 24.11 17.0137 24.6366V24.9972C17.0137 25.5238 17.4468 25.9507 17.9812 25.9507H71.2097C71.744 25.9507 72.1772 25.5238 72.1772 24.9972V24.6366C72.1772 24.11 71.744 23.6831 71.2097 23.6831Z" fill="url(#paint6_linear_46782_24772)"/>
</g>
<g id="Vector_6">
<path d="M17.3061 67.2265C17.0074 67.2262 16.7135 67.153 16.4505 67.0135C16.1875 66.874 15.9636 66.6725 15.7988 66.427C15.634 66.1815 15.5335 65.8996 15.5061 65.6065C15.4788 65.3134 15.5255 65.0182 15.642 64.7471C21.7771 50.499 28.6714 42.7422 36.7184 41.0346C42.2622 39.8574 46.5504 42.0278 50.3331 43.9429C54.3585 45.9802 57.8351 47.7408 62.6018 45.9662C66.1964 44.6286 68.1673 42.1661 70.2531 39.5602C72.8541 36.3105 75.5431 32.9511 81.2363 31.9991C84.0843 31.5231 86.3127 31.8931 88.2747 32.2198C90.6516 32.6149 92.53 32.9268 95.1294 31.6886C98.1858 30.2333 100.861 27.3118 103.079 23.007C103.297 22.5854 103.675 22.2661 104.131 22.1194C104.587 21.9727 105.083 22.0105 105.511 22.2246C105.939 22.4386 106.263 22.8114 106.412 23.2608C106.561 23.7103 106.522 24.1996 106.305 24.6212C103.72 29.6403 100.489 33.0997 96.7039 34.9023C93.0637 36.6349 90.3232 36.1795 87.6707 35.7388C85.826 35.432 84.0873 35.1414 81.8395 35.5181C77.5185 36.2398 75.467 38.8031 73.0915 41.7718C70.8981 44.5116 68.4129 47.6179 63.8776 49.3057C57.6067 51.6386 52.8639 49.2365 48.678 47.1176C45.1193 45.3165 41.7576 43.614 37.4799 44.5234C30.761 45.9493 24.5349 53.2234 18.9716 66.1436C18.8323 66.4651 18.6001 66.7392 18.304 66.9317C18.0079 67.1243 17.6608 67.2268 17.3061 67.2265Z" fill="url(#paint7_linear_46782_24772)"/>
<path d="M17.3061 67.2265C17.0074 67.2262 16.7135 67.153 16.4505 67.0135C16.1875 66.874 15.9636 66.6725 15.7988 66.427C15.634 66.1815 15.5335 65.8996 15.5061 65.6065C15.4788 65.3134 15.5255 65.0182 15.642 64.7471C21.7771 50.499 28.6714 42.7422 36.7184 41.0346C42.2622 39.8574 46.5504 42.0278 50.3331 43.9429C54.3585 45.9802 57.8351 47.7408 62.6018 45.9662C66.1964 44.6286 68.1673 42.1661 70.2531 39.5602C72.8541 36.3105 75.5431 32.9511 81.2363 31.9991C84.0843 31.5231 86.3127 31.8931 88.2747 32.2198C90.6516 32.6149 92.53 32.9268 95.1294 31.6886C98.1858 30.2333 100.861 27.3118 103.079 23.007C103.297 22.5854 103.675 22.2661 104.131 22.1194C104.587 21.9727 105.083 22.0105 105.511 22.2246C105.939 22.4386 106.263 22.8114 106.412 23.2608C106.561 23.7103 106.522 24.1996 106.305 24.6212C103.72 29.6403 100.489 33.0997 96.7039 34.9023C93.0637 36.6349 90.3232 36.1795 87.6707 35.7388C85.826 35.432 84.0873 35.1414 81.8395 35.5181C77.5185 36.2398 75.467 38.8031 73.0915 41.7718C70.8981 44.5116 68.4129 47.6179 63.8776 49.3057C57.6067 51.6386 52.8639 49.2365 48.678 47.1176C45.1193 45.3165 41.7576 43.614 37.4799 44.5234C30.761 45.9493 24.5349 53.2234 18.9716 66.1436C18.8323 66.4651 18.6001 66.7392 18.304 66.9317C18.0079 67.1243 17.6608 67.2268 17.3061 67.2265Z" fill="url(#paint8_linear_46782_24772)"/>
</g>
</g>
</g>
<defs>
<linearGradient id="paint0_linear_46782_24772" x1="113.062" y1="-10.4946" x2="92.6334" y2="89.7861" gradientUnits="userSpaceOnUse">
<stop stop-color="#71D8FA"/>
<stop offset="1" stop-color="#44BCE3"/>
</linearGradient>
<linearGradient id="paint1_linear_46782_24772" x1="-0.849601" y1="105.697" x2="187.705" y2="-260.921" gradientUnits="userSpaceOnUse">
<stop stop-color="#E1473D"/>
<stop offset="1" stop-color="#E9605A"/>
</linearGradient>
<linearGradient id="paint2_linear_46782_24772" x1="59.55" y1="17.2884" x2="59.325" y2="26.6343" gradientUnits="userSpaceOnUse">
<stop stop-color="#D2EFF8"/>
<stop offset="1" stop-color="#8BD5ED"/>
</linearGradient>
<linearGradient id="paint3_linear_46782_24772" x1="73.6383" y1="13.7401" x2="73.5845" y2="21.9373" gradientUnits="userSpaceOnUse">
<stop stop-color="#71D8FA"/>
<stop offset="1" stop-color="#20AFDE"/>
</linearGradient>
<linearGradient id="paint4_linear_46782_24772" x1="1.20638" y1="106.754" x2="189.762" y2="-259.867" gradientUnits="userSpaceOnUse">
<stop stop-color="#E1473D"/>
<stop offset="1" stop-color="#E9605A"/>
</linearGradient>
<linearGradient id="paint5_linear_46782_24772" x1="59.55" y1="23.4044" x2="59.4544" y2="29.498" gradientUnits="userSpaceOnUse">
<stop stop-color="#D2EFF8"/>
<stop offset="1" stop-color="#8BD5ED"/>
</linearGradient>
<linearGradient id="paint6_linear_46782_24772" x1="73.6383" y1="21.0917" x2="73.6155" y2="26.4347" gradientUnits="userSpaceOnUse">
<stop stop-color="#71D8FA"/>
<stop offset="1" stop-color="#20AFDE"/>
</linearGradient>
<linearGradient id="paint7_linear_46782_24772" x1="135.728" y1="-66.3179" x2="18.8441" y2="110.57" gradientUnits="userSpaceOnUse">
<stop stop-color="#E1473D"/>
<stop offset="1" stop-color="#E9605A"/>
</linearGradient>
<linearGradient id="paint8_linear_46782_24772" x1="108.912" y1="-29.6199" x2="103.423" y2="76.5921" gradientUnits="userSpaceOnUse">
<stop stop-color="#71D8FA"/>
<stop offset="1" stop-color="#20AFDE"/>
</linearGradient>
<clipPath id="clip0_46782_24772">
<rect width="120" height="82" fill="white"/>
</clipPath>
</defs>
</svg>
