<svg width="127" height="127" viewBox="0 0 127 127" fill="none" xmlns="http://www.w3.org/2000/svg">
<g id="Frame 59">
<g id="Group">
<path id="Subtract" fill-rule="evenodd" clip-rule="evenodd" d="M50.8047 21H79.5118C82.3606 21 84.67 23.3021 84.67 26.1419V38.1396C84.67 40.9793 82.3606 43.2814 79.5118 43.2814H50.8047C47.9559 43.2814 45.6465 40.9793 45.6465 38.1396V26.1419C45.6465 23.3021 47.9559 21 50.8047 21ZM55.5578 25.1169H74.7746C77.6234 25.1169 79.9328 27.419 79.9328 30.2588V36.8289C79.9328 39.6687 77.6234 41.9708 74.7746 41.9708H55.5578C52.709 41.9708 50.3996 39.6687 50.3996 36.8289V30.2588C50.3996 27.419 52.709 25.1169 55.5578 25.1169Z" fill="url(#paint0_linear_46782_24693)"/>
<g id="Vector">
<path d="M109.679 33.2162L18.4267 31.0505C14.9355 31.0505 12.1054 33.8717 12.1054 37.3518L13.7805 100.128C13.7805 103.608 16.6107 106.429 20.1018 106.429L107.585 107.705C111.076 107.705 113.906 104.884 113.906 101.404L116 39.5175C116 36.0374 113.17 33.2162 109.679 33.2162Z" fill="#DA86EF"/>
<path d="M109.679 33.2162L18.4267 31.0505C14.9355 31.0505 12.1054 33.8717 12.1054 37.3518L13.7805 100.128C13.7805 103.608 16.6107 106.429 20.1018 106.429L107.585 107.705C111.076 107.705 113.906 104.884 113.906 101.404L116 39.5175C116 36.0374 113.17 33.2162 109.679 33.2162Z" fill="url(#paint1_linear_46782_24693)"/>
</g>
<g id="Vector_2">
<path d="M109.06 32.8034L20.0763 31.1145C19.1261 30.9817 18.1541 31.0191 17.2216 31.2243C16.289 31.4295 15.416 31.7981 14.6574 32.3068C13.8989 32.8156 13.2712 33.4535 12.8139 34.1805C12.3566 34.9075 12.0794 35.7078 12 36.5312C12 64.5733 36.3149 89.6782 64.6408 89.6782C92.9666 89.6782 116 66.935 116 38.8929C116 33.3922 112.334 32.7866 109.06 32.8034Z" fill="#E295F4"/>
<path d="M109.06 32.8034L20.0763 31.1145C19.1261 30.9817 18.1541 31.0191 17.2216 31.2243C16.289 31.4295 15.416 31.7981 14.6574 32.3068C13.8989 32.8156 13.2712 33.4535 12.8139 34.1805C12.3566 34.9075 12.0794 35.7078 12 36.5312C12 64.5733 36.3149 89.6782 64.6408 89.6782C92.9666 89.6782 116 66.935 116 38.8929C116 33.3922 112.334 32.7866 109.06 32.8034Z" fill="url(#paint2_linear_46782_24693)"/>
</g>
<path id="Vector_3" d="M66.563 83.425H57.258C55.4705 83.425 54.0215 84.8695 54.0215 86.6513V90.3649C54.0215 92.1467 55.4705 93.5912 57.258 93.5912H66.563C68.3504 93.5912 69.7995 92.1467 69.7995 90.3649V86.6513C69.7995 84.8695 68.3504 83.425 66.563 83.425Z" fill="#FFECBD"/>
</g>
</g>
<defs>
<linearGradient id="paint0_linear_46782_24693" x1="407.56" y1="-124.457" x2="200.155" y2="205.711" gradientUnits="userSpaceOnUse">
<stop stop-color="#FFD057"/>
<stop offset="1" stop-color="#F5B30D"/>
</linearGradient>
<linearGradient id="paint1_linear_46782_24693" x1="975.319" y1="-444.729" x2="242.621" y2="499.976" gradientUnits="userSpaceOnUse">
<stop stop-color="#FFD057"/>
<stop offset="1" stop-color="#F5B30D"/>
</linearGradient>
<linearGradient id="paint2_linear_46782_24693" x1="170.6" y1="-3.35055" x2="79.0434" y2="181.136" gradientUnits="userSpaceOnUse">
<stop stop-color="#FFE39D"/>
<stop offset="1" stop-color="#FFCD50"/>
</linearGradient>
</defs>
</svg>
