<svg width="127" height="127" viewBox="0 0 127 127" fill="none" xmlns="http://www.w3.org/2000/svg">
<g id="Frame 59">
<g id="Group 92">
<g id="Group">
<path id="Vector" d="M18.2703 120.726C18.3445 121.662 18.7862 122.531 19.4989 123.143C20.2116 123.754 21.1373 124.059 22.074 123.99L83.4443 119.482C84.3841 119.412 85.2577 118.972 85.8732 118.258C86.4888 117.545 86.7957 116.616 86.7267 115.676L79.9617 23.7578C79.8924 22.8212 79.4551 21.9501 78.7453 21.335C78.0356 20.72 77.1112 20.4109 76.1743 20.4754L14.3008 24.8616C13.833 24.8947 13.3764 25.02 12.9574 25.2305C12.5383 25.441 12.1651 25.7324 11.8592 26.0878C11.5534 26.4433 11.321 26.8558 11.1754 27.3016C11.0298 27.7474 10.974 28.2176 11.0111 28.6851L18.2703 120.726Z" fill="#FF99D0"/>
<path id="Vector_2" d="M14.7675 33.0442C14.7259 32.5667 14.7799 32.0856 14.9263 31.6292C15.0728 31.1727 15.3087 30.7501 15.6203 30.3858C15.932 30.0216 16.3131 29.7232 16.7414 29.508C17.1697 29.2927 17.6366 29.165 18.1149 29.1323L73.0142 25.4315C73.9672 25.3676 74.9066 25.6843 75.6265 26.3122C76.3463 26.94 76.7877 27.8278 76.8538 28.7807L82.5404 111.31C82.6046 112.249 82.299 113.177 81.6887 113.894C81.0784 114.611 80.2118 115.061 79.2742 115.148L26.0287 120.044C25.5561 120.088 25.0796 120.037 24.6265 119.896C24.1735 119.754 23.7528 119.525 23.3886 119.221C23.0243 118.916 22.7237 118.543 22.5039 118.122C22.2842 117.702 22.1496 117.242 22.1079 116.769L14.7675 33.0442Z" fill="url(#paint0_linear_46782_24724)"/>
<path id="Vector_3" d="M72.6214 27.924L21.8471 31.6615C21.1339 31.714 20.5982 32.3348 20.6507 33.048L20.6842 33.5031C20.7367 34.2163 21.3575 34.7519 22.0707 34.6994L72.845 30.9619C73.5583 30.9094 74.0939 30.2886 74.0414 29.5754L74.0079 29.1204C73.9554 28.4071 73.3346 27.8715 72.6214 27.924Z" fill="#FF99D0"/>
<path id="Vector_4" d="M26.7341 38.3484C26.776 38.673 26.939 38.9697 27.1906 39.1791C27.4421 39.3885 27.7636 39.4951 28.0904 39.4774L72.5544 37.0228C72.7261 37.0134 72.8942 36.9699 73.0489 36.8948C73.2036 36.8197 73.3417 36.7145 73.4552 36.5853C73.5688 36.4562 73.6554 36.3057 73.7101 36.1427C73.7647 35.9796 73.7863 35.8073 73.7736 35.6359V35.5294C73.7486 35.1903 73.5912 34.8746 73.3355 34.6506C73.0797 34.4265 72.746 34.312 72.4066 34.3319L27.9443 36.8911C27.7669 36.9013 27.5935 36.9479 27.4349 37.028C27.2763 37.1081 27.1359 37.2199 27.0223 37.3566C26.9088 37.4933 26.8247 37.6519 26.7751 37.8225C26.7255 37.9931 26.7116 38.1721 26.7341 38.3484Z" fill="#FF99D0"/>
<path id="Vector_5" d="M27.7799 117.081H27.8159L77.7862 112.8C78.1899 112.765 78.5828 112.65 78.9422 112.463C79.3016 112.276 79.6205 112.019 79.8804 111.708C80.1404 111.398 80.3363 111.038 80.457 110.651C80.5776 110.265 80.6206 109.858 80.5834 109.454L74.3036 41.7029C74.2674 41.3004 74.152 40.9091 73.964 40.5514C73.776 40.1937 73.5192 39.8767 73.2083 39.6185C72.8974 39.3604 72.5385 39.1663 72.1524 39.0474C71.7662 38.9284 71.3603 38.887 70.958 38.9255L21.1032 43.5714C20.2933 43.6477 19.5467 44.0419 19.0268 44.6676C18.5069 45.2933 18.2561 46.0995 18.3294 46.9097L24.4938 114.297C24.5691 115.098 24.9551 115.838 25.5693 116.359C26.1834 116.879 26.9769 117.138 27.7799 117.081ZM19.3466 46.8177C19.3004 46.2782 19.4691 45.7423 19.816 45.3266C20.1628 44.9108 20.6598 44.6488 21.1988 44.5976L71.0536 39.9517C71.5951 39.9015 72.1343 40.0685 72.5526 40.4158C72.971 40.7632 73.2343 41.2625 73.2846 41.8039L73.6326 45.5624L19.6856 49.5302C19.6552 49.5322 19.625 49.537 19.5955 49.5446L19.3466 46.8177ZM25.5092 114.214L19.6838 50.5492C19.7079 50.551 19.732 50.551 19.756 50.5492L73.7246 46.5814L79.5608 109.559C79.5858 109.828 79.5573 110.099 79.4769 110.358C79.3964 110.616 79.2657 110.856 79.0921 111.063C78.9186 111.27 78.7057 111.441 78.4658 111.566C78.2259 111.691 77.9636 111.767 77.6942 111.79L27.7258 116.071H27.7005C27.165 116.109 26.6357 115.936 26.2262 115.589C25.8166 115.242 25.5593 114.748 25.5092 114.214Z" fill="#FF99D0"/>
</g>
<g id="Group_2">
<path id="Vector_6" d="M31.573 103.989C31.4818 104.923 31.7642 105.856 32.3586 106.582C32.953 107.309 33.811 107.771 34.7449 107.867L95.9567 114.172C96.8941 114.269 97.8314 113.989 98.5626 113.395C99.2938 112.8 99.7591 111.94 99.8562 111.003L109.29 19.316C109.386 18.3816 109.108 17.4473 108.517 16.7171C107.926 15.987 107.07 15.5205 106.136 15.4194L44.4501 8.90475C43.9838 8.85564 43.5123 8.8993 43.0629 9.0332C42.6135 9.1671 42.195 9.38861 41.8315 9.68495C41.4681 9.98129 41.1669 10.3466 40.9452 10.7599C40.7236 11.1731 40.5859 11.6262 40.5401 12.0929L31.573 103.989Z" fill="url(#paint1_linear_46782_24724)"/>
<path id="Vector_7" d="M50.6788 16.9257C50.337 16.8907 49.9953 16.9928 49.7288 17.2095C49.4622 17.4262 49.2925 17.7398 49.2569 18.0815L49.2111 18.535C49.1935 18.7043 49.2095 18.8753 49.2581 19.0384C49.3067 19.2015 49.3869 19.3535 49.4943 19.4855C49.6016 19.6176 49.734 19.7272 49.8837 19.808C50.0334 19.8889 50.1976 19.9395 50.3669 19.9569L101.016 25.172C101.185 25.1896 101.357 25.1736 101.52 25.1251C101.683 25.0765 101.835 24.9962 101.967 24.8889C102.099 24.7815 102.208 24.6492 102.289 24.4995C102.37 24.3497 102.421 24.1855 102.438 24.0162L102.484 23.5628C102.501 23.3936 102.485 23.2226 102.437 23.0595C102.388 22.8965 102.308 22.7447 102.201 22.6128C102.093 22.4809 101.961 22.3715 101.811 22.2908C101.661 22.2101 101.497 22.1598 101.328 22.1427L50.6788 16.9257Z" fill="#EC7EB9"/>
<path id="Vector_8" d="M49.1418 41.2135C48.5162 41.1572 47.958 41.6899 47.8955 42.4023L47.855 42.8568C47.789 43.5778 48.2476 44.1924 48.8735 44.2469L93.43 48.2064C94.0556 48.2627 94.6138 47.73 94.6782 47.0178L94.7187 46.5634C94.7812 45.851 94.3261 45.2278 93.7001 45.1733L49.1418 41.2135Z" fill="#EC7EB9"/>
<path id="Vector_9" d="M47.7205 50.6821C47.0948 50.6258 46.5367 51.1585 46.4741 51.871L46.4336 52.3254C46.3676 53.0464 46.8262 53.661 47.4522 53.7155L92.0086 57.675C92.6343 57.7313 93.1924 57.1986 93.2568 56.4865L93.2973 56.0321C93.3599 55.3196 92.9047 54.6964 92.2787 54.6419L47.7205 50.6821Z" fill="#EC7EB9"/>
<path id="Vector_10" d="M47.1648 59.8431C46.5374 59.7865 45.981 60.3195 45.9167 61.0317L45.8762 61.4861C45.8102 62.2071 46.2688 62.8217 46.8947 62.8762L91.4459 66.8348C92.0715 66.8911 92.6297 66.3583 92.694 65.6462L92.7345 65.1918C92.8005 64.4708 92.3419 63.8562 91.716 63.8017L47.1648 59.8431Z" fill="#EC7EB9"/>
<path id="Vector_11" d="M46.9099 69.3508C46.2843 69.2945 45.7261 69.8272 45.6618 70.5393L45.6212 70.9938C45.5571 71.7151 46.0139 72.3294 46.6416 72.3842L91.1981 76.3437C91.8237 76.4 92.3819 75.8673 92.4462 75.1552L92.4867 74.7007C92.5493 73.9883 92.0941 73.3651 91.4682 73.3106L46.9099 69.3508Z" fill="#EC7EB9"/>
<path id="Vector_12" d="M54.3294 24.3654C54.3134 24.692 54.4217 25.0125 54.6325 25.2624C54.8433 25.5123 55.141 25.6731 55.4656 25.7124L99.6732 31.0771C99.8441 31.098 100.017 31.0846 100.183 31.0376C100.349 30.9907 100.503 30.9112 100.638 30.8038C100.773 30.6964 100.884 30.5633 100.967 30.4121C101.049 30.261 101.101 30.0949 101.118 29.9236L101.137 29.8206C101.172 29.4824 101.072 29.144 100.859 28.8786C100.647 28.6132 100.338 28.4421 100.001 28.4022L55.7817 23.1417C55.6047 23.1199 55.4252 23.1348 55.2543 23.1855C55.0834 23.2363 54.9248 23.3218 54.7885 23.4366C54.6521 23.5515 54.541 23.6933 54.462 23.8531C54.383 24.0129 54.3379 24.1873 54.3294 24.3654Z" fill="#EC7EB9"/>
<path id="Vector_13" d="M41.5831 102.067L41.6186 102.073L91.5645 106.608C91.9683 106.645 92.3753 106.601 92.7621 106.48C93.1489 106.359 93.5079 106.162 93.8185 105.901C94.1291 105.641 94.385 105.321 94.5717 104.961C94.7583 104.602 94.872 104.208 94.9061 103.804L100.577 35.9933C100.644 35.1811 100.386 34.3755 99.8599 33.7534C99.3334 33.1312 98.5817 32.7433 97.7696 32.6748L47.8714 28.5201C47.0605 28.454 46.2563 28.7117 45.6348 29.237C45.0134 29.7623 44.6254 30.5123 44.5557 31.323L38.8274 98.743C38.7594 99.5476 39.0101 100.347 39.5255 100.968C40.0409 101.59 40.7798 101.985 41.5831 102.067ZM45.5824 31.4104C45.6292 30.8694 45.8884 30.3691 46.3033 30.0189C46.7182 29.6686 47.2549 29.4971 47.796 29.5417L97.6941 33.6964C98.2333 33.7438 98.7318 34.0025 99.0811 34.416C99.4303 34.8295 99.6019 35.3642 99.5584 35.9037L99.2434 39.6634L45.435 34.1245C45.4047 34.1212 45.3741 34.1207 45.3437 34.123L45.5824 31.4104ZM39.855 98.836L45.2663 35.135L45.3373 35.1476L99.1652 40.6899L93.8871 103.715C93.8643 103.984 93.7885 104.247 93.664 104.487C93.5395 104.727 93.3689 104.94 93.1617 105.114C92.9546 105.288 92.7152 105.419 92.4572 105.5C92.1992 105.581 91.9277 105.61 91.6583 105.586L41.7124 101.051L41.6875 101.047C41.1519 100.993 40.6589 100.731 40.3145 100.317C39.9702 99.9033 39.802 99.3709 39.8462 98.8344L39.855 98.836Z" fill="#EC7EB9"/>
</g>
</g>
</g>
<defs>
<linearGradient id="paint0_linear_46782_24724" x1="14.7531" y1="72.7416" x2="82.5512" y2="72.7416" gradientUnits="userSpaceOnUse">
<stop stop-color="#FFDFF0"/>
<stop offset="1" stop-color="#FFC7E5"/>
</linearGradient>
<linearGradient id="paint1_linear_46782_24724" x1="79.2521" y1="10.6302" x2="61.1245" y2="112.568" gradientUnits="userSpaceOnUse">
<stop stop-color="#FFADD9"/>
<stop offset="1" stop-color="#F390C6"/>
</linearGradient>
</defs>
</svg>
