<svg width="127" height="127" viewBox="0 0 127 127" fill="none" xmlns="http://www.w3.org/2000/svg">
<g id="Frame 59">
<g id="Group">
<path id="Vector" d="M27.8441 11.0259C37.0317 12.2967 68.6277 16.2429 94.7766 14.3998C95.0558 14.3763 95.3368 14.4091 95.6032 14.4964C95.8696 14.5837 96.1161 14.7238 96.3283 14.9083C96.5405 15.0929 96.7141 15.3183 96.839 15.5714C96.9638 15.8244 97.0375 16.1001 97.0556 16.3822L101.772 112.741C101.795 113.384 101.564 114.009 101.131 114.481C100.698 114.953 100.097 115.232 99.4597 115.258C88.4626 115.841 43.1745 118.09 27.0342 116.347C26.5658 116.302 26.1304 116.084 25.812 115.734C25.4935 115.385 25.3145 114.928 25.3093 114.454L25.2246 13.2665C25.2294 12.9382 25.3037 12.6148 25.4426 12.3179C25.5815 12.0211 25.7817 11.7577 26.0299 11.5454C26.278 11.3331 26.5683 11.177 26.8813 11.0873C27.1942 10.9977 27.5225 10.9768 27.8441 11.0259Z" fill="url(#paint0_linear_46782_24711)"/>
<path id="Vector_2" d="M28.8164 12.4694C37.6523 13.6937 68.0628 17.4857 93.2288 15.717C93.4972 15.6945 93.7674 15.7262 94.0235 15.8104C94.2796 15.8945 94.5165 16.0294 94.7203 16.207C94.9241 16.3847 95.0908 16.6017 95.2105 16.8451C95.3302 17.0886 95.4006 17.3538 95.4176 17.6251L99.9552 110.355C99.9756 110.973 99.753 111.573 99.336 112.026C98.919 112.478 98.3415 112.746 97.7296 112.77C87.1467 113.328 43.5632 115.494 28.0322 113.818C27.5825 113.773 27.1651 113.562 26.8596 113.226C26.5541 112.889 26.3817 112.452 26.3754 111.995L26.2944 14.6264C26.2991 14.3104 26.3707 13.9991 26.5044 13.7133C26.6381 13.4275 26.8309 13.1739 27.0698 12.9696C27.3087 12.7653 27.5882 12.6149 27.8894 12.5286C28.1907 12.4424 28.5067 12.4222 28.8164 12.4694Z" fill="#D3F2AF"/>
<path id="Vector_3" d="M89.6609 24.8783C90.1911 24.8783 90.62 24.5829 90.6108 24.2169C90.6016 23.8509 90.1598 23.5388 89.6278 23.5276L65.697 22.9907C65.165 22.9777 64.8723 23.3716 65.0454 23.8621C65.1543 24.1195 65.333 24.3406 65.561 24.5C65.789 24.6594 66.0569 24.7506 66.334 24.7631L89.6609 24.8783Z" fill="url(#paint1_linear_46782_24711)"/>
<path id="Vector_4" d="M65.6842 26.7028C65.154 26.6898 64.8595 27.0744 65.0344 27.5761C65.1423 27.834 65.3208 28.0556 65.549 28.2149C65.7772 28.3742 66.0457 28.4645 66.323 28.4753L89.6481 28.5905C90.1801 28.5905 90.6072 28.2951 90.598 27.929C90.5888 27.563 90.147 27.2528 89.6168 27.2398L65.6842 26.7028Z" fill="url(#paint2_linear_46782_24711)"/>
<path id="Vector_5" d="M65.6658 30.4539C65.1338 30.4427 64.8411 30.8254 65.0141 31.3271C65.122 31.5851 65.3006 31.8067 65.5288 31.9659C65.757 32.1252 66.0255 32.2155 66.3027 32.2263L89.6279 32.3415C90.1599 32.3415 90.5869 32.0479 90.5777 31.6801C90.5685 31.3122 90.1267 31.0038 89.5947 30.9908L65.6658 30.4539Z" fill="url(#paint3_linear_46782_24711)"/>
<path id="Vector_6" d="M91.9397 40.115C92.4717 40.115 92.8877 39.8196 92.8601 39.4536C92.8325 39.0876 92.3834 38.781 91.8514 38.7736L35.3251 38.0546C34.7931 38.0546 34.6311 38.3834 34.9661 38.7977L35.1888 39.0746C35.5947 39.5263 36.1596 39.7997 36.7627 39.8363L91.9397 40.115Z" fill="url(#paint4_linear_46782_24711)"/>
<path id="Vector_7" d="M35.3105 41.7518C34.7785 41.7518 34.6184 42.0825 34.9534 42.495L35.1743 42.7718C35.581 43.2237 36.1464 43.4976 36.7501 43.5354L91.9197 43.8197C92.4517 43.8197 92.8677 43.5243 92.8401 43.1583C92.8125 42.7923 92.3634 42.4857 91.8314 42.4783L35.3105 41.7518Z" fill="url(#paint5_linear_46782_24711)"/>
<path id="Vector_8" d="M44.8992 60.2807H44.879L37.3021 60.4126C36.2105 60.4312 35.2901 59.7178 35.1594 58.7517L34.32 52.5277C34.2958 52.342 34.3102 52.1533 34.3622 51.9736C34.4142 51.7938 34.5026 51.627 34.6219 51.4835C34.7661 51.3119 34.9424 51.1707 35.1408 51.0681C35.3392 50.9654 35.5557 50.9033 35.7779 50.8853C36.4148 50.824 37.2929 50.7274 38.2593 50.6196C40.3616 50.3874 42.7454 50.1235 44.15 50.0622H44.1795C45.1845 50.0344 46.0645 50.6196 46.3295 51.4761C46.764 52.9011 46.8045 55.6174 46.81 58.5101C46.8192 59.4632 45.9558 60.251 44.8992 60.2807ZM35.8368 51.4873C35.6958 51.4967 35.558 51.5344 35.4316 51.5982C35.3052 51.662 35.1926 51.7506 35.1005 51.8588C35.0328 51.9388 34.9825 52.0322 34.9527 52.133C34.9229 52.2338 34.9143 52.3397 34.9274 52.4441L35.7669 58.6699C35.8552 59.3295 36.5032 59.8162 37.2855 59.8032L44.8624 59.6713H44.8771C45.6024 59.6509 46.1878 59.1344 46.186 58.5138C46.186 55.6675 46.1418 52.9996 45.7313 51.6526C45.5472 51.0562 44.8771 50.627 44.1684 50.6716C42.7878 50.7255 40.3027 51.0005 38.3219 51.229C37.3518 51.3368 36.4811 51.4352 35.8313 51.4947L35.8368 51.4873Z" fill="url(#paint6_linear_46782_24711)"/>
<path id="Vector_9" d="M36.6672 52.0929C38.2559 51.9424 41.7037 51.504 43.3439 51.4408C44.0379 51.413 44.6601 51.8124 44.8387 52.3976C45.1884 53.5384 45.2068 55.8329 45.2068 57.9491C45.2068 58.5845 44.6288 59.1047 43.9054 59.1177L37.8509 59.2236C37.1145 59.2366 36.4758 58.7535 36.3782 58.1088L35.7082 53.1334C35.6548 52.6169 36.0782 52.1561 36.6672 52.0929Z" fill="url(#paint7_linear_46782_24711)"/>
<path id="Vector_10" d="M51.7123 53.6201C51.5983 53.6122 51.4842 53.6332 51.3803 53.6814C51.2765 53.7295 51.1863 53.8032 51.118 53.8956C51.0497 53.988 51.0054 54.0963 50.9893 54.2104C50.9731 54.3246 50.9856 54.441 51.0256 54.549L51.5779 56.3735C51.6685 56.6354 51.8366 56.8628 52.0595 57.0249C52.2824 57.1871 52.5494 57.2762 52.8241 57.2802L90.2721 56.275C90.3983 56.2727 90.5227 56.2448 90.638 56.1928C90.7532 56.1409 90.8569 56.066 90.9428 55.9727C91.0287 55.8794 91.0951 55.7696 91.138 55.6498C91.181 55.53 91.1995 55.4027 91.1925 55.2755L91.152 54.4487C91.1353 54.1874 91.0212 53.9422 90.8328 53.7623C90.6443 53.5824 90.3953 53.4812 90.1359 53.4789L51.7123 53.6201Z" fill="url(#paint8_linear_46782_24711)"/>
<path id="Vector_11" d="M37.0173 53.0628C37.2828 52.8992 37.6015 52.848 37.9042 52.9204C38.2069 52.9927 38.469 53.1828 38.6335 53.4492L40.2001 56.0391C40.2362 56.0982 40.2876 56.1461 40.3488 56.1778C40.41 56.2095 40.4786 56.2238 40.5472 56.219C40.6158 56.2142 40.6818 56.1906 40.738 56.1507C40.7943 56.1108 40.8387 56.0562 40.8665 55.9927L44.3456 47.7882C44.384 47.7019 44.4501 47.6312 44.5332 47.5875C44.6164 47.5439 44.7117 47.5299 44.8037 47.5477C44.8957 47.5655 44.9791 47.6142 45.0403 47.6859C45.1015 47.7575 45.1369 47.8479 45.1409 47.9424C45.1759 50.0221 44.8026 52.0883 44.0424 54.0216C43.2822 55.955 42.1503 57.7173 40.7118 59.2069C40.7118 59.2069 38.466 58.4173 36.5699 54.6048C36.4381 54.3382 36.411 54.0312 36.4939 53.7453C36.5769 53.4593 36.7638 53.2155 37.0173 53.0628Z" fill="#FF5674"/>
<path id="Vector_12" d="M45.3465 76.2289H45.3262L37.7494 76.3608C36.6578 76.3794 35.7373 75.666 35.6066 74.6999L34.7672 68.474C34.7431 68.2884 34.7575 68.0997 34.8094 67.9199C34.8614 67.7402 34.9499 67.5733 35.0691 67.4299C35.2132 67.258 35.3895 67.1165 35.5879 67.0135C35.7863 66.9106 36.0028 66.8481 36.2252 66.8298C36.8621 66.7703 37.7402 66.6737 38.7066 66.566C40.8088 66.3337 43.1927 66.0699 44.5973 66.0086H44.6267C45.6318 65.9826 46.5117 66.566 46.7768 67.4243C47.2112 68.8493 47.2517 71.5656 47.2572 74.4583C47.2554 75.4133 46.3994 76.201 45.3465 76.2289ZM36.2841 67.4373C36.143 67.4468 36.0053 67.4845 35.8789 67.5483C35.7524 67.6121 35.6399 67.7007 35.5477 67.8089C35.4801 67.8889 35.4297 67.9822 35.3999 68.083C35.3701 68.1838 35.3615 68.2898 35.3747 68.3941L36.2141 74.62C36.3025 75.2795 36.9505 75.7663 37.7328 75.7533L45.3097 75.6214H45.3244C46.0497 75.601 46.635 75.0844 46.6332 74.4639C46.6332 71.6157 46.589 68.9496 46.1785 67.6027C45.9944 67.0063 45.3244 66.5845 44.6157 66.6217C43.235 66.6756 40.7499 66.9505 38.7692 67.1791C37.7991 67.2868 36.9284 67.3834 36.2785 67.4447L36.2841 67.4373Z" fill="url(#paint9_linear_46782_24711)"/>
<path id="Vector_13" d="M37.1106 68.043C38.6992 67.8925 42.1471 67.4541 43.7873 67.3909C44.4813 67.363 45.1035 67.7625 45.282 68.3477C45.6318 69.4885 45.6502 71.783 45.6502 73.8991C45.6502 74.5327 45.0721 75.0547 44.3487 75.0678L38.2942 75.1737C37.5579 75.1867 36.9191 74.7036 36.8216 74.0589L36.1515 69.0834C36.0981 68.5669 36.5215 68.0969 37.1106 68.043Z" fill="url(#paint10_linear_46782_24711)"/>
<path id="Vector_14" d="M52.1575 69.5703C52.0434 69.5619 51.929 69.5826 51.8249 69.6306C51.7208 69.6786 51.6304 69.7523 51.5619 69.8448C51.4935 69.9374 51.4493 70.0459 51.4334 70.1603C51.4175 70.2746 51.4304 70.3912 51.4709 70.4992L52.0231 72.3218C52.1134 72.584 52.2814 72.8119 52.5043 72.9744C52.7273 73.1369 52.9944 73.2263 53.2694 73.2304L90.7173 72.2252C90.8434 72.2227 90.9678 72.1945 91.0829 72.1425C91.198 72.0905 91.3016 72.0156 91.3874 71.9223C91.4733 71.8291 91.5397 71.7194 91.5827 71.5997C91.6257 71.48 91.6444 71.3528 91.6377 71.2257L91.5972 70.3989C91.5805 70.1376 91.4664 69.8924 91.2779 69.7125C91.0895 69.5326 90.8405 69.4313 90.5811 69.4291L52.1575 69.5703Z" fill="url(#paint11_linear_46782_24711)"/>
<path id="Vector_15" d="M37.4608 69.0129C37.7262 68.8496 38.0446 68.7984 38.3471 68.8704C38.6496 68.9424 38.9118 69.1318 39.077 69.3975L40.6436 71.9986C40.6797 72.0576 40.7311 72.1056 40.7923 72.1373C40.8535 72.169 40.922 72.1832 40.9906 72.1784C41.0592 72.1736 41.1252 72.15 41.1815 72.1101C41.2378 72.0703 41.2822 72.0156 41.3099 71.9521L44.7891 63.7476C44.8275 63.6613 44.8936 63.5906 44.9767 63.5469C45.0599 63.5033 45.1551 63.4893 45.2472 63.5071C45.3392 63.525 45.4226 63.5736 45.4838 63.6453C45.545 63.7169 45.5804 63.8073 45.5844 63.9018C45.6194 65.9815 45.2461 68.0477 44.4859 69.981C43.7257 71.9144 42.5938 73.6767 41.1553 75.1663C41.1553 75.1663 38.9095 74.3767 37.0134 70.5642C36.8789 70.2967 36.8503 69.9875 36.9334 69.6993C37.0164 69.4112 37.205 69.1658 37.4608 69.0129Z" fill="#FF5674"/>
<path id="Vector_16" d="M45.0597 91.5641H45.0395L37.4645 91.6942C36.3729 91.7146 35.4506 90.9993 35.3199 90.0332L34.4805 83.8074C34.4565 83.622 34.471 83.4336 34.5229 83.2542C34.5749 83.0748 34.6633 82.9082 34.7824 82.7651C34.9265 82.5932 35.1028 82.4517 35.3012 82.3487C35.4995 82.2458 35.7161 82.1833 35.9384 82.165C36.5754 82.1055 37.4534 82.0089 38.418 81.9011C40.4172 81.6801 42.906 81.4032 44.3087 81.3438C45.3046 81.3122 46.2213 81.8844 46.4882 82.7576C46.9226 84.1827 46.9632 86.897 46.9687 89.7917C46.9724 90.7485 46.1182 91.5437 45.0597 91.5641ZM35.9973 82.7725C35.8563 82.7822 35.7187 82.82 35.5923 82.8838C35.4659 82.9476 35.3533 83.0361 35.261 83.1441C35.193 83.2235 35.1424 83.3165 35.1126 83.4171C35.0827 83.5176 35.0744 83.6234 35.088 83.7275L35.9274 89.9533C36.0176 90.6147 36.6637 91.1015 37.4479 91.0885L45.0229 90.9566C45.7372 90.925 46.3483 90.4234 46.3483 89.7972C46.3483 86.9509 46.3041 84.2849 45.8918 82.9379C45.7077 82.3396 45.0395 81.9272 44.3289 81.9569C42.9483 82.0108 40.4632 82.2839 38.4806 82.505C37.5123 82.6127 36.6398 82.7093 35.9918 82.7707L35.9973 82.7725Z" fill="url(#paint12_linear_46782_24711)"/>
<path id="Vector_17" d="M36.8295 83.3689C38.4163 83.2203 41.8661 82.7818 43.5044 82.7187C44.2002 82.6908 44.8206 83.0902 45.001 83.6755C45.3489 84.8162 45.3691 87.1089 45.3691 89.2269C45.3691 89.8605 44.7911 90.3825 44.0695 90.3955L38.015 90.5014C37.2787 90.5144 36.6381 90.0314 36.5424 89.3867L35.8723 84.4131C35.8153 83.9003 36.2405 83.4321 36.8295 83.3689Z" fill="url(#paint13_linear_46782_24711)"/>
<path id="Vector_18" d="M51.8743 84.9055C51.7602 84.8972 51.6458 84.918 51.5417 84.966C51.4376 85.014 51.3472 85.0876 51.2786 85.1801C51.2101 85.2726 51.1657 85.381 51.1495 85.4953C51.1333 85.6096 51.1458 85.7262 51.1858 85.8344L51.7381 87.657C51.8278 87.9192 51.9954 88.1471 52.2181 88.3097C52.4407 88.4723 52.7077 88.5616 52.9825 88.5655L90.4305 87.5604C90.5565 87.5576 90.6807 87.5293 90.7957 87.4772C90.9107 87.425 91.0142 87.3502 91.1 87.257C91.1858 87.1638 91.2522 87.0541 91.2953 86.9346C91.3384 86.815 91.3573 86.6879 91.3509 86.5609L91.3085 85.7341C91.2923 85.4728 91.1787 85.2274 90.9905 85.0471C90.8024 84.8669 90.5536 84.7652 90.2943 84.7624L51.8743 84.9055Z" fill="url(#paint14_linear_46782_24711)"/>
<path id="Vector_19" d="M37.177 84.3481C37.4424 84.1848 37.7608 84.1336 38.0633 84.2056C38.3658 84.2776 38.6281 84.4669 38.7932 84.7326L40.3598 87.3337C40.3963 87.3922 40.4479 87.4396 40.509 87.4709C40.57 87.5022 40.6384 87.5162 40.7067 87.5115C40.7751 87.5067 40.8409 87.4833 40.8971 87.4439C40.9534 87.4044 40.998 87.3503 41.0262 87.2873L44.5053 79.0828C44.5431 78.9955 44.6092 78.9237 44.6927 78.8793C44.7762 78.8349 44.8722 78.8204 44.9649 78.8384C45.0576 78.8563 45.1416 78.9055 45.2029 78.978C45.2642 79.0504 45.2993 79.1417 45.3024 79.237C45.337 81.3166 44.9634 83.3826 44.2032 85.3159C43.4431 87.2492 42.3114 89.0116 40.8734 90.5015C40.8734 90.5015 38.6276 89.7118 36.7297 85.8994C36.5956 85.6318 36.5672 85.3227 36.6502 85.0347C36.7333 84.7467 36.9215 84.5013 37.177 84.3481Z" fill="#FF5674"/>
<path id="Vector_20" d="M44.64 107.382H44.6198L37.0429 107.514C35.9513 107.533 35.029 106.819 34.9002 105.853L34.0589 99.6274C34.0352 99.4421 34.0497 99.2538 34.1017 99.0744C34.1536 98.895 34.2419 98.7284 34.3608 98.5852C34.5049 98.4133 34.6812 98.2718 34.8796 98.1688C35.078 98.0659 35.2945 98.0034 35.5169 97.9851C36.1556 97.9256 37.0337 97.8271 37.9983 97.7212C40.1024 97.4871 42.4862 97.2233 43.8889 97.1639C44.918 97.149 45.8016 97.7045 46.0685 98.5759C46.5048 100.001 46.5453 102.717 46.5508 105.612C46.5526 106.565 45.6966 107.354 44.64 107.382ZM35.5758 98.5889C35.4348 98.5986 35.2971 98.6364 35.1707 98.7002C35.0443 98.7639 34.9317 98.8524 34.8394 98.9605C34.7723 99.0407 34.7222 99.1342 34.6924 99.2349C34.6626 99.3356 34.6538 99.4414 34.6664 99.5457L35.5077 105.772C35.596 106.431 36.244 106.918 37.0263 106.905L44.6106 106.779H44.6253C45.3487 106.76 45.9341 106.243 45.9341 105.621C45.9341 102.775 45.8899 100.107 45.4776 98.7598C45.2935 98.1634 44.6253 97.7584 43.9166 97.7788C42.5341 97.8327 40.0508 98.1077 38.0701 98.3362C37.1 98.444 36.2182 98.5424 35.5776 98.6019L35.5758 98.5889Z" fill="url(#paint15_linear_46782_24711)"/>
<path id="Vector_21" d="M36.4075 99.1946C37.9942 99.0441 41.444 98.6075 43.0841 98.5425C43.7781 98.5165 44.3985 98.914 44.5789 99.4993C44.9268 100.642 44.9471 102.935 44.9471 105.053C44.9471 105.686 44.3709 106.208 43.6474 106.219L37.593 106.325C36.8474 106.338 36.216 105.857 36.1203 105.21L35.4484 100.235C35.395 99.7185 35.8184 99.2503 36.4075 99.1946Z" fill="url(#paint16_linear_46782_24711)"/>
<path id="Vector_22" d="M51.4529 100.724C51.3388 100.715 51.2244 100.736 51.1203 100.784C51.0163 100.832 50.9258 100.906 50.8572 100.998C50.7887 101.091 50.7443 101.199 50.7281 101.313C50.7119 101.428 50.7244 101.544 50.7645 101.653L51.3167 103.477C51.4073 103.739 51.5752 103.966 51.7976 104.128C52.0201 104.291 52.2865 104.381 52.5611 104.386L90.0109 103.38C90.1371 103.378 90.2615 103.349 90.3766 103.297C90.4917 103.245 90.5953 103.17 90.6811 103.076C90.767 102.983 90.8334 102.873 90.8763 102.753C90.9193 102.633 90.938 102.506 90.9313 102.379L90.8908 101.554C90.8746 101.292 90.7607 101.047 90.5722 100.867C90.3836 100.686 90.1344 100.585 89.8747 100.582L51.4529 100.724Z" fill="url(#paint17_linear_46782_24711)"/>
<path id="Vector_23" d="M36.7574 100.164C37.0227 100.001 37.341 99.9505 37.6433 100.023C37.9455 100.095 38.2073 100.285 38.3718 100.551L39.9402 103.152C39.9765 103.21 40.0278 103.258 40.0888 103.289C40.1497 103.321 40.218 103.335 40.2863 103.33C40.3545 103.325 40.4202 103.302 40.4763 103.262C40.5324 103.223 40.5768 103.168 40.6047 103.105L44.0857 94.899C44.1241 94.8127 44.1902 94.742 44.2733 94.6984C44.3565 94.6547 44.4518 94.6407 44.5438 94.6585C44.6358 94.6764 44.7192 94.7251 44.7804 94.7967C44.8416 94.8683 44.877 94.9587 44.881 95.0532C44.9157 97.1329 44.5422 99.199 43.7821 101.132C43.0219 103.066 41.8901 104.828 40.4519 106.318C40.4519 106.318 38.2061 105.53 36.3101 101.718C36.175 101.45 36.146 101.14 36.2291 100.852C36.3122 100.563 36.5011 100.317 36.7574 100.164Z" fill="#FF5674"/>
</g>
</g>
<defs>
<linearGradient id="paint0_linear_46782_24711" x1="50.8909" y1="-25.9203" x2="97.7852" y2="121.066" gradientUnits="userSpaceOnUse">
<stop stop-color="#89B557"/>
<stop offset="1" stop-color="#B1DA81"/>
</linearGradient>
<linearGradient id="paint1_linear_46782_24711" x1="67.1579" y1="22.4458" x2="67.3304" y2="26.3807" gradientUnits="userSpaceOnUse">
<stop stop-color="#F8FCF4"/>
<stop offset="1" stop-color="#DCF5C2"/>
</linearGradient>
<linearGradient id="paint2_linear_46782_24711" x1="67.1461" y1="26.1579" x2="67.3186" y2="30.0928" gradientUnits="userSpaceOnUse">
<stop stop-color="#F8FCF4"/>
<stop offset="1" stop-color="#DCF5C2"/>
</linearGradient>
<linearGradient id="paint3_linear_46782_24711" x1="67.1265" y1="29.909" x2="67.299" y2="33.8437" gradientUnits="userSpaceOnUse">
<stop stop-color="#F8FCF4"/>
<stop offset="1" stop-color="#DCF5C2"/>
</linearGradient>
<linearGradient id="paint4_linear_46782_24711" x1="39.6935" y1="37.4602" x2="39.7843" y2="41.7609" gradientUnits="userSpaceOnUse">
<stop stop-color="#F8FCF4"/>
<stop offset="1" stop-color="#DCF5C2"/>
</linearGradient>
<linearGradient id="paint5_linear_46782_24711" x1="39.6798" y1="41.1553" x2="39.7712" y2="45.4715" gradientUnits="userSpaceOnUse">
<stop stop-color="#F8FCF4"/>
<stop offset="1" stop-color="#DCF5C2"/>
</linearGradient>
<linearGradient id="paint6_linear_46782_24711" x1="35.3639" y1="47.0752" x2="43.9319" y2="64.472" gradientUnits="userSpaceOnUse">
<stop stop-color="#F8FCF4"/>
<stop offset="1" stop-color="#E2F9CB"/>
</linearGradient>
<linearGradient id="paint7_linear_46782_24711" x1="36.5058" y1="49.194" x2="42.9063" y2="62.3311" gradientUnits="userSpaceOnUse">
<stop stop-color="#F8FCF4"/>
<stop offset="1" stop-color="#E2F9CB"/>
</linearGradient>
<linearGradient id="paint8_linear_46782_24711" x1="54.3769" y1="52.3824" x2="54.8218" y2="60.2952" gradientUnits="userSpaceOnUse">
<stop stop-color="#F8FCF4"/>
<stop offset="1" stop-color="#DCF5C2"/>
</linearGradient>
<linearGradient id="paint9_linear_46782_24711" x1="35.8112" y1="63.0212" x2="44.3815" y2="80.4197" gradientUnits="userSpaceOnUse">
<stop stop-color="#F8FCF4"/>
<stop offset="1" stop-color="#E2F9CB"/>
</linearGradient>
<linearGradient id="paint10_linear_46782_24711" x1="36.9492" y1="65.144" x2="43.3497" y2="78.2811" gradientUnits="userSpaceOnUse">
<stop stop-color="#F8FCF4"/>
<stop offset="1" stop-color="#E2F9CB"/>
</linearGradient>
<linearGradient id="paint11_linear_46782_24711" x1="54.8213" y1="68.3326" x2="55.2662" y2="76.2454" gradientUnits="userSpaceOnUse">
<stop stop-color="#F8FCF4"/>
<stop offset="1" stop-color="#DCF5C2"/>
</linearGradient>
<linearGradient id="paint12_linear_46782_24711" x1="35.5244" y1="78.3564" x2="44.0937" y2="95.7524" gradientUnits="userSpaceOnUse">
<stop stop-color="#F8FCF4"/>
<stop offset="1" stop-color="#E2F9CB"/>
</linearGradient>
<linearGradient id="paint13_linear_46782_24711" x1="36.6693" y1="80.4718" x2="43.0703" y2="93.6082" gradientUnits="userSpaceOnUse">
<stop stop-color="#F8FCF4"/>
<stop offset="1" stop-color="#E2F9CB"/>
</linearGradient>
<linearGradient id="paint14_linear_46782_24711" x1="54.5369" y1="83.6653" x2="54.9823" y2="91.582" gradientUnits="userSpaceOnUse">
<stop stop-color="#F8FCF4"/>
<stop offset="1" stop-color="#DCF5C2"/>
</linearGradient>
<linearGradient id="paint15_linear_46782_24711" x1="35.1033" y1="94.1777" x2="43.6698" y2="111.575" gradientUnits="userSpaceOnUse">
<stop stop-color="#F8FCF4"/>
<stop offset="1" stop-color="#E2F9CB"/>
</linearGradient>
<linearGradient id="paint16_linear_46782_24711" x1="36.2461" y1="96.2958" x2="42.6464" y2="109.433" gradientUnits="userSpaceOnUse">
<stop stop-color="#F8FCF4"/>
<stop offset="1" stop-color="#E2F9CB"/>
</linearGradient>
<linearGradient id="paint17_linear_46782_24711" x1="54.1157" y1="99.4853" x2="54.561" y2="107.402" gradientUnits="userSpaceOnUse">
<stop stop-color="#F8FCF4"/>
<stop offset="1" stop-color="#DCF5C2"/>
</linearGradient>
</defs>
</svg>
