<svg width="40" height="40" viewBox="0 0 40 40" fill="none" xmlns="http://www.w3.org/2000/svg">
<g filter="url(#filter0_d_47616_2061)">
<path d="M20 28C26.6274 28 32 22.6274 32 16C32 9.37258 26.6274 4 20 4C13.3726 4 8 9.37258 8 16C8 22.6274 13.3726 28 20 28Z" fill="#F0F0F0"/>
</g>
<path d="M10.4803 8.6941C9.53771 9.92049 8.82695 11.334 8.41309 12.8696H14.6558L10.4803 8.6941ZM31.5863 12.8696C31.1724 11.334 30.4616 9.92053 29.5191 8.69414L25.3437 12.8696H31.5863ZM8.41309 19.1304C8.82699 20.666 9.53776 22.0795 10.4803 23.3058L14.6557 19.1304H8.41309ZM27.3055 6.48061C26.0791 5.538 24.6657 4.82724 23.1301 4.41333V10.656L27.3055 6.48061ZM12.6939 25.5193C13.9202 26.4619 15.3338 27.1726 16.8693 27.5865V21.3439L12.6939 25.5193ZM16.8692 4.41333C15.3337 4.82724 13.9202 5.538 12.6939 6.48056L16.8692 10.656V4.41333ZM23.1301 27.5865C24.6657 27.1726 26.0792 26.4619 27.3055 25.5193L23.1301 21.3439V27.5865ZM25.3437 19.1304L29.5191 23.3059C30.4616 22.0795 31.1724 20.666 31.5863 19.1304H25.3437Z" fill="#0052B4"/>
<path d="M31.8984 14.4348H21.5653V4.10158C21.0462 4.03396 20.5234 4.00003 20 4C19.4694 4 18.9471 4.03488 18.4348 4.10158V14.4347H8.10158C8.03396 14.9538 8.00003 15.4766 8 16C8 16.5306 8.03488 17.0529 8.10158 17.5652H18.4347V27.8984C19.4738 28.0339 20.5261 28.0339 21.5652 27.8984V17.5653H31.8984C31.966 17.0462 32 16.5234 32 16C32 15.4695 31.9651 14.9471 31.8984 14.4348Z" fill="#D80027"/>
<path d="M23.1304 19.1305L28.4852 24.4854C28.7314 24.2389 28.9667 23.9819 29.1906 23.715L24.6061 19.1305H23.1304V19.1305ZM16.8695 19.1305H16.8694L11.5147 24.4853C11.7611 24.7315 12.0182 24.9668 12.285 25.1907L16.8695 20.6061V19.1305ZM16.8695 12.8697V12.8696L11.5147 7.51473C11.2685 7.76119 11.0332 8.01823 10.8093 8.28512L15.3938 12.8696H16.8695V12.8697ZM23.1304 12.8697L28.4853 7.51478C28.2388 7.26861 27.9818 7.03328 27.7149 6.80945L23.1304 11.394V12.8697Z" fill="#D80027"/>
<defs>
<filter id="filter0_d_47616_2061" x="0" y="0" width="40" height="40" filterUnits="userSpaceOnUse" color-interpolation-filters="sRGB">
<feFlood flood-opacity="0" result="BackgroundImageFix"/>
<feColorMatrix in="SourceAlpha" type="matrix" values="0 0 0 0 0 0 0 0 0 0 0 0 0 0 0 0 0 0 127 0" result="hardAlpha"/>
<feOffset dy="4"/>
<feGaussianBlur stdDeviation="4"/>
<feComposite in2="hardAlpha" operator="out"/>
<feColorMatrix type="matrix" values="0 0 0 0 0 0 0 0 0 0.321569 0 0 0 0 0.705882 0 0 0 0.16 0"/>
<feBlend mode="normal" in2="BackgroundImageFix" result="effect1_dropShadow_47616_2061"/>
<feBlend mode="normal" in="SourceGraphic" in2="effect1_dropShadow_47616_2061" result="shape"/>
</filter>
</defs>
</svg>
