<svg width="47" height="32" viewBox="0 0 47 32" fill="none" xmlns="http://www.w3.org/2000/svg">
<g id="Payment Method/Visa">
<rect id="BASE" x="0.333331" y="0.333331" width="46.3333" height="31.3333" rx="3.66664" fill="white" stroke="#AFB2B2" stroke-width="0.666662"/>
<path id="visa-logo" fill-rule="evenodd" clip-rule="evenodd" d="M14.2683 21.6768H11.421L9.28591 13.589C9.18457 13.2169 8.96939 12.888 8.65287 12.733C7.86296 12.3434 6.99253 12.0334 6.04297 11.8771V11.5657H10.6297C11.2628 11.5657 11.7375 12.0334 11.8167 12.5766L12.9245 18.4107L15.7704 11.5657H18.5386L14.2683 21.6768ZM20.1212 21.6768H17.4321L19.6464 11.5657H22.3354L20.1212 21.6768ZM25.8142 14.3673C25.8934 13.8227 26.3682 13.5113 26.9221 13.5113C27.7925 13.4331 28.7407 13.5895 29.532 13.9777L30.0067 11.8008C29.2154 11.4894 28.345 11.333 27.5551 11.333C24.9452 11.333 23.0461 12.7336 23.0461 14.6773C23.0461 16.1561 24.3913 16.9325 25.3409 17.4002C26.3682 17.8666 26.7638 18.178 26.6847 18.6444C26.6847 19.344 25.8934 19.6554 25.1035 19.6554C24.1539 19.6554 23.2043 19.4222 22.3353 19.0326L21.8605 21.2109C22.8101 21.5992 23.8374 21.7555 24.7869 21.7555C27.7134 21.8324 29.532 20.4332 29.532 18.333C29.532 15.6883 25.8142 15.5333 25.8142 14.3673ZM38.9429 21.6768L36.8078 11.5657H34.5144C34.0396 11.5657 33.5649 11.8771 33.4066 12.3435L29.4529 21.6768H32.221L32.7736 20.1994H36.1748L36.4913 21.6768H38.9429ZM34.9102 14.2893L35.7001 18.1H33.4858L34.9102 14.2893Z" fill="#172B85"/>
</g>
</svg>
